<svg width="426" height="426" viewBox="0 0 426 426" fill="none" xmlns="http://www.w3.org/2000/svg">
<g clip-path="url(#clip0)">
<path d="M169.147 54.14H72.736C53.316 54.14 37.428 70.028 37.428 89.447C37.428 108.867 52.144 124.755 71.564 124.755H169.972L169.147 54.139V54.14Z" fill="#073042"/>
<path d="M388.608 368.665H72.7C53.28 368.665 37.392 352.776 37.392 333.357V89.339C37.392 89.339 37.286 124.757 75.017 124.757H337.026C337.026 124.757 388.608 120.317 388.608 158.789V368.665V368.665Z" fill="#4285F4"/>
<path d="M241.204 243.656C248.754 237.827 253.644 228.716 253.644 218.463C253.644 201.299 239.984 187.3 222.968 186.676C223.334 186.663 223.69 186.617 224.058 186.617C225.964 186.617 227.821 186.816 229.637 187.138V166.938C229.637 165.315 228.992 163.758 227.844 162.611C226.697 161.463 225.14 160.818 223.517 160.818C221.894 160.818 220.337 161.463 219.19 162.611C218.042 163.758 217.397 165.315 217.397 166.938V186.958C201.918 189.112 189.952 202.4 189.952 218.463C189.952 229.169 195.278 238.636 203.402 244.413L145.187 368.665H183.231L210.109 311.125C215.084 300.558 230.099 300.514 235.136 311.05L262.852 368.665H301.207L241.204 243.655V243.656ZM221.797 238.072C210.967 238.072 202.189 229.293 202.189 218.463C202.189 207.633 210.968 198.854 221.797 198.854C232.627 198.854 241.407 207.634 241.407 218.464C241.407 229.294 232.627 238.072 221.797 238.072V238.072Z" fill="#3870B2"/>
<path d="M211.28 198.854C222.11 198.854 230.89 207.634 230.89 218.464C230.89 229.294 222.11 238.072 211.28 238.072C200.45 238.072 191.671 229.293 191.671 218.463C191.671 207.633 200.45 198.854 211.28 198.854V198.854ZM219.119 187.138V166.938C219.119 165.315 218.474 163.758 217.326 162.611C216.179 161.463 214.622 160.818 212.999 160.818C211.376 160.818 209.819 161.463 208.672 162.611C207.524 163.758 206.879 165.315 206.879 166.938V186.958C191.401 189.112 179.434 202.4 179.434 218.463C179.434 229.169 184.761 238.636 192.884 244.413L119.378 401.043C114.045 412.491 122.402 425.605 135.032 425.605C138.322 425.605 141.543 424.666 144.317 422.897C147.091 421.129 149.302 418.605 150.69 415.622L199.592 311.125C204.566 300.558 219.582 300.514 224.618 311.05L274.627 414.985C276.038 417.908 278.244 420.374 280.993 422.1C283.742 423.826 286.921 424.741 290.167 424.741C302.883 424.741 311.23 411.454 305.712 399.998L230.687 243.656C238.236 237.827 243.127 228.716 243.127 218.463C243.127 203.61 232.897 191.126 219.116 187.631" fill="#073042"/>
<path d="M148.247 71.482H283.412V96.231H148.247V71.482Z" fill="white"/>
<path d="M263.807 93.328C258.738 93.328 254.614 89.202 254.614 84.132C254.614 79.062 258.738 74.939 263.807 74.939C268.877 74.939 273 79.063 273 84.132C273 89.202 268.877 93.328 263.807 93.328ZM162.192 93.328C157.122 93.328 152.999 89.202 152.999 84.132C152.999 79.062 157.122 74.939 162.192 74.939C167.262 74.939 171.385 79.063 171.385 84.132C171.385 89.202 167.261 93.328 162.192 93.328ZM267.105 37.95L285.479 6.12802C285.985 5.24978 286.121 4.2068 285.859 3.22797C285.596 2.24914 284.956 1.41443 284.079 0.907018C283.201 0.40161 282.158 0.265168 281.179 0.527619C280.2 0.79007 279.366 1.42999 278.858 2.30702L260.254 34.53C246.027 28.037 230.049 24.42 213 24.42C195.95 24.42 179.972 28.037 165.746 34.53L147.142 2.30502C146.634 1.42772 145.8 0.787605 144.821 0.52514C143.842 0.262675 142.798 0.399293 141.92 0.905018C141.042 1.41205 140.401 2.24696 140.139 3.22619C139.876 4.20542 140.013 5.24882 140.52 6.12702L158.895 37.949C127.345 55.109 105.765 87.05 102.609 124.786H323.39C320.23 87.05 298.652 55.109 267.105 37.949" fill="#3DDC84"/>
<path d="M356.837 192.534H342.245C341.278 192.534 340.487 193.325 340.487 194.292L340.133 423.282C340.133 424.25 340.923 425.041 341.891 425.041L356.837 425.125C374.311 425.125 388.608 410.828 388.608 393.355V160.728C388.608 178.202 374.311 192.533 356.838 192.533L356.837 192.534Z" fill="#073042"/>
</g>
<defs>
<clipPath id="clip0">
<rect width="426" height="426" fill="white"/>
</clipPath>
</defs>
</svg>
