<svg version="1.1" id="Layer_1" xmlns="http://www.w3.org/2000/svg" xmlns:xlink="http://www.w3.org/1999/xlink" width="48" height="48" x="0px" y="0px" viewBox="0 0 48 48" style="enable-background:new 0 0 48 48;" xml:space="preserve">
<style type="text/css">
	.st0{fill:#282B3A;}
	.st1{fill:#3FA9F5;}
	.st2{fill:#1696F0;}
	.st3{fill:#37BBF7;}
	.st4{fill:#79BFF2;}
</style>
<g>
	<path class="st0" d="M43.1,11.1L25.9,1.5c-1.2-0.6-2.6-0.6-3.7,0L4.9,11.1c-1.2,0.7-2,2-2,3.3v19.1c0,1.4,0.8,2.7,2,3.3l17.2,9.6   c1.2,0.6,2.6,0.6,3.7,0L43,36.8c1.2-0.7,2-2,2-3.3v-19C45.1,13.1,44.3,11.8,43.1,11.1z"/>
	<path class="st1" d="M30.2,20l-5.7-3.2c-0.3-0.2-0.6-0.2-0.9,0L17.8,20c-0.3,0.2-0.5,0.5-0.5,0.8v6.4c0,0.3,0.2,0.7,0.5,0.8   l5.7,3.2c0.3,0.2,0.6,0.2,0.9,0l5.7-3.2c0.3-0.2,0.5-0.5,0.5-0.8v-6.4C30.7,20.5,30.5,20.1,30.2,20z"/>
	<path class="st2" d="M14.4,29.4v-1.1v-7.9l-5.7-3.2v14.2c0,0.7,0.4,1.3,1,1.7l12.9,7.2v-6.4L14.4,29.4z"/>
	<path class="st3" d="M24.9,7.4c-0.6-0.3-1.3-0.3-1.9,0l-13,7.3l5.8,3.2l8.2-4.6l8,4.5l5.7-3.2L24.9,7.4z"/>
	<path class="st4" d="M33.6,20.2v8v1.1l-8.1,4.6v6.4l12.9-7.2c0.6-0.3,1-1,1-1.7V16.9L33.6,20.2z"/>
</g>
</svg>