<svg id="Layer_1" data-name="Layer 1" xmlns="http://www.w3.org/2000/svg" xmlns:xlink="http://www.w3.org/1999/xlink" viewBox="0 0 815 644"><defs><style>.cls-1{fill:none;}.cls-2{fill:#13202f;}.cls-3{fill:#dddbdc;opacity:0.2;}.cls-10,.cls-4{fill:#1e3044;}.cls-5{fill:#fff;}.cls-10,.cls-6{opacity:0.5;}.cls-7{clip-path:url(#clip-path);}.cls-8{filter:url(#AI_DartShadow2);}.cls-9{fill:#4c87f1;}.cls-11{fill:#122030;}</style><clipPath id="clip-path"><rect class="cls-1" width="815" height="644"/></clipPath><filter id="AI_DartShadow2" name="AI_DartShadow2"><feGaussianBlur result="blur" stdDeviation="10" in="SourceAlpha"/><feOffset result="offsetBlurredAlpha" in="blur"/><feMerge><feMergeNode in="offsetBlurredAlpha"/><feMergeNode in="SourceGraphic"/></feMerge></filter></defs><rect class="cls-2" width="815" height="644"/><path class="cls-3" d="M815,29.09v-1H780.73V0h-1V28.09h-52.1V0h-1V28.09h-52.1V0h-1V28.09h-52.1V0h-1V28.09h-52.1V0h-1V28.09h-52.1V0h-1V28.09h-52.1V0h-1V28.09H409V0h-1V28.09h-52.1V0h-1V28.09h-52.1V0h-1V28.09h-52.1V0h-1V28.09h-52.1V0h-1V28.09h-52.1V0h-1V28.09H90.43V0h-1V28.09H37.33V0h-1V28.09H0v1H36.33v52.1H0v1H36.33v52.1H0v1H36.33v52.1H0v1H36.33v52.1H0v1H36.33v52.1H0v1H36.33v52.1H0v1H36.33v52.1H0v1H36.33v52.1H0v1H36.33V506H0v1H36.33v52.1H0v1H36.33v52.1H0v1H36.33V644h1V613.19h52.1V644h1V613.19h52.1V644h1V613.19h52.1V644h1V613.19h52.1V644h1V613.19h52.1V644h1V613.19h52.1V644h1V613.19H408V644h1V613.19h52.1V644h1V613.19h52.1V644h1V613.19h52.1V644h1V613.19h52.1V644h1V613.19h52.1V644h1V613.19h52.1V644h1V613.19h52.1V644h1V613.19H815v-1H780.73v-52.1H815v-1H780.73V507H815v-1H780.73v-52.1H815v-1H780.73v-52.1H815v-1H780.73v-52.1H815v-1H780.73v-52.1H815v-1H780.73v-52.1H815v-1H780.73v-52.1H815v-1H780.73v-52.1H815v-1H780.73V82.19H815v-1H780.73V29.09Zm-88.37,0v52.1h-52.1V29.09Zm-370.7,265.5H408v52.1h-52.1Zm-1,52.1h-52.1v-52.1h52.1Zm54.1-52.1h52.1v52.1H409Zm53.1,0h52.1v52.1h-52.1Zm0-1v-52.1h52.1v52.1Zm-1,0H409v-52.1h52.1Zm-53.1,0h-52.1v-52.1H408Zm-53.1,0h-52.1v-52.1h52.1Zm-53.1,0h-52.1v-52.1h52.1Zm0,1v52.1h-52.1v-52.1Zm0,53.1v52.1h-52.1v-52.1Zm1,0h52.1v52.1h-52.1Zm53.1,0H408v52.1h-52.1Zm53.1,0h52.1v52.1H409Zm53.1,0h52.1v52.1h-52.1Zm53.1,0h52.1v52.1h-52.1Zm0-1v-52.1h52.1v52.1Zm0-53.1v-52.1h52.1v52.1Zm0-53.1v-52.1h52.1v52.1Zm-1,0h-52.1v-52.1h52.1Zm-53.1,0H409v-52.1h52.1Zm-53.1,0h-52.1v-52.1H408Zm-53.1,0h-52.1v-52.1h52.1Zm-53.1,0h-52.1v-52.1h52.1Zm-53.1,0h-52.1v-52.1h52.1Zm0,1v52.1h-52.1v-52.1Zm0,53.1v52.1h-52.1v-52.1Zm0,53.1v52.1h-52.1v-52.1Zm0,53.1v52.1h-52.1v-52.1Zm1,0h52.1v52.1h-52.1Zm53.1,0h52.1v52.1h-52.1Zm53.1,0H408v52.1h-52.1Zm53.1,0h52.1v52.1H409Zm53.1,0h52.1v52.1h-52.1Zm53.1,0h52.1v52.1h-52.1Zm53.1,0h52.1v52.1h-52.1Zm0-1v-52.1h52.1v52.1Zm0-53.1v-52.1h52.1v52.1Zm0-53.1v-52.1h52.1v52.1Zm0-53.1v-52.1h52.1v52.1Zm0-53.1v-52.1h52.1v52.1Zm-1,0h-52.1v-52.1h52.1Zm-53.1,0h-52.1v-52.1h52.1Zm-53.1,0H409v-52.1h52.1Zm-53.1,0h-52.1v-52.1H408Zm-53.1,0h-52.1v-52.1h52.1Zm-53.1,0h-52.1v-52.1h52.1Zm-53.1,0h-52.1v-52.1h52.1Zm-53.1,0h-52.1v-52.1h52.1Zm0,1v52.1h-52.1v-52.1Zm0,53.1v52.1h-52.1v-52.1Zm0,53.1v52.1h-52.1v-52.1Zm0,53.1v52.1h-52.1v-52.1Zm0,53.1v52.1h-52.1v-52.1Zm0,53.1V506h-52.1v-52.1Zm1,0h52.1V506h-52.1Zm53.1,0h52.1V506h-52.1Zm53.1,0h52.1V506h-52.1Zm53.1,0H408V506h-52.1Zm53.1,0h52.1V506H409Zm53.1,0h52.1V506h-52.1Zm53.1,0h52.1V506h-52.1Zm53.1,0h52.1V506h-52.1Zm53.1,0h52.1V506h-52.1Zm0-1v-52.1h52.1v52.1Zm0-53.1v-52.1h52.1v52.1Zm0-53.1v-52.1h52.1v52.1Zm0-53.1v-52.1h52.1v52.1Zm0-53.1v-52.1h52.1v52.1Zm0-53.1v-52.1h52.1v52.1Zm0-53.1V82.19h52.1v52.1Zm-1,0h-52.1V82.19h52.1Zm-53.1,0h-52.1V82.19h52.1Zm-53.1,0h-52.1V82.19h52.1Zm-53.1,0H409V82.19h52.1Zm-53.1,0h-52.1V82.19H408Zm-53.1,0h-52.1V82.19h52.1Zm-53.1,0h-52.1V82.19h52.1Zm-53.1,0h-52.1V82.19h52.1Zm-53.1,0h-52.1V82.19h52.1Zm-53.1,0H90.43V82.19h52.1Zm0,1v52.1H90.43v-52.1Zm0,53.1v52.1H90.43v-52.1Zm0,53.1v52.1H90.43v-52.1Zm0,53.1v52.1H90.43v-52.1Zm0,53.1v52.1H90.43v-52.1Zm0,53.1v52.1H90.43v-52.1Zm0,53.1V506H90.43v-52.1Zm0,53.1v52.1H90.43V507Zm1,0h52.1v52.1h-52.1Zm53.1,0h52.1v52.1h-52.1Zm53.1,0h52.1v52.1h-52.1Zm53.1,0h52.1v52.1h-52.1Zm53.1,0H408v52.1h-52.1Zm53.1,0h52.1v52.1H409Zm53.1,0h52.1v52.1h-52.1Zm53.1,0h52.1v52.1h-52.1Zm53.1,0h52.1v52.1h-52.1Zm53.1,0h52.1v52.1h-52.1Zm53.1,0h52.1v52.1h-52.1Zm0-1v-52.1h52.1V506Zm0-53.1v-52.1h52.1v52.1Zm0-53.1v-52.1h52.1v52.1Zm0-53.1v-52.1h52.1v52.1Zm0-53.1v-52.1h52.1v52.1Zm0-53.1v-52.1h52.1v52.1Zm0-53.1v-52.1h52.1v52.1Zm0-53.1V82.19h52.1v52.1Zm-1-105.2v52.1h-52.1V29.09Zm-53.1,0v52.1h-52.1V29.09Zm-53.1,0v52.1h-52.1V29.09Zm-53.1,0v52.1h-52.1V29.09Zm-53.1,0v52.1H409V29.09Zm-53.1,0v52.1h-52.1V29.09Zm-53.1,0v52.1h-52.1V29.09Zm-53.1,0v52.1h-52.1V29.09Zm-53.1,0v52.1h-52.1V29.09Zm-53.1,0v52.1h-52.1V29.09Zm-53.1,0v52.1H90.43V29.09Zm-105.2,0h52.1v52.1H37.33Zm0,53.1h52.1v52.1H37.33Zm0,53.1h52.1v52.1H37.33Zm0,53.1h52.1v52.1H37.33Zm0,53.1h52.1v52.1H37.33Zm0,53.1h52.1v52.1H37.33Zm0,53.1h52.1v52.1H37.33Zm0,53.1h52.1v52.1H37.33Zm0,53.1h52.1V506H37.33Zm0,53.1h52.1v52.1H37.33Zm0,105.2v-52.1h52.1v52.1Zm53.1,0v-52.1h52.1v52.1Zm53.1,0v-52.1h52.1v52.1Zm53.1,0v-52.1h52.1v52.1Zm53.1,0v-52.1h52.1v52.1Zm53.1,0v-52.1h52.1v52.1Zm53.1,0v-52.1H408v52.1Zm53.1,0v-52.1h52.1v52.1Zm53.1,0v-52.1h52.1v52.1Zm53.1,0v-52.1h52.1v52.1Zm53.1,0v-52.1h52.1v52.1Zm53.1,0v-52.1h52.1v52.1Zm53.1,0v-52.1h52.1v52.1Zm105.2,0h-52.1v-52.1h52.1Zm0-53.1h-52.1V507h52.1Zm0-53.1h-52.1v-52.1h52.1Zm0-53.1h-52.1v-52.1h52.1Zm0-53.1h-52.1v-52.1h52.1Zm0-53.1h-52.1v-52.1h52.1Zm0-53.1h-52.1v-52.1h52.1Zm0-53.1h-52.1v-52.1h52.1Zm0-53.1h-52.1v-52.1h52.1Zm0-53.1h-52.1V82.19h52.1Zm0-53.1h-52.1V29.09h52.1Z"/><rect class="cls-4" width="815" height="423"/><path class="cls-5" d="M82.24,72h-5V86.5H76V72H71V70.86H82.24Z"/><path class="cls-5" d="M93.27,86.5a5.39,5.39,0,0,1-.19-.79,8.46,8.46,0,0,1-.08-.88,5,5,0,0,1-.77.75,5.58,5.58,0,0,1-1,.59,5.49,5.49,0,0,1-1.12.4,5.18,5.18,0,0,1-1.26.15,4.7,4.7,0,0,1-1.52-.24,3.9,3.9,0,0,1-1.22-.67,3,3,0,0,1-.82-1A3.19,3.19,0,0,1,85,83.42a3.07,3.07,0,0,1,.44-1.7,3.31,3.31,0,0,1,1.19-1.13A5.61,5.61,0,0,1,88.4,80a10,10,0,0,1,2.07-.21H93V78.42a2.63,2.63,0,0,0-.26-1.15,2.4,2.4,0,0,0-.67-.84,2.75,2.75,0,0,0-1-.51,4.7,4.7,0,0,0-1.27-.17,4.22,4.22,0,0,0-1.19.16,3.4,3.4,0,0,0-1,.46,2.47,2.47,0,0,0-.7.74,1.91,1.91,0,0,0-.29,1H85.31a2.94,2.94,0,0,1,.39-1.37,3.52,3.52,0,0,1,1-1.07,4.58,4.58,0,0,1,1.43-.72,5.7,5.7,0,0,1,1.73-.26,6,6,0,0,1,1.73.24,4,4,0,0,1,1.41.71,3.44,3.44,0,0,1,1,1.18,3.86,3.86,0,0,1,.36,1.65v5.63a6.6,6.6,0,0,0,.1,1.17c.07.4.15.77.25,1.13v.13ZM89,85.58a4.56,4.56,0,0,0,2.43-.64,4.42,4.42,0,0,0,.92-.73,3.51,3.51,0,0,0,.62-.93V80.73H90.65a10.89,10.89,0,0,0-1.64.13,5,5,0,0,0-1.38.43,2.49,2.49,0,0,0-1,.79,2,2,0,0,0-.36,1.23,2.11,2.11,0,0,0,.21,1,2.21,2.21,0,0,0,.58.71,2.43,2.43,0,0,0,.86.45A3.32,3.32,0,0,0,89,85.58Z"/><path class="cls-5" d="M107.92,80.81a8.88,8.88,0,0,1-.27,2.19,6.2,6.2,0,0,1-.84,1.9,4.52,4.52,0,0,1-1.43,1.32,4,4,0,0,1-2,.5,4.48,4.48,0,0,1-2-.46,4,4,0,0,1-1.52-1.32l0,1.56H98.54V70h1.29v6.5a4.15,4.15,0,0,1,1.48-1.35,4,4,0,0,1,2-.49,4.18,4.18,0,0,1,2.06.49,4.28,4.28,0,0,1,1.43,1.31,6,6,0,0,1,.84,1.89,9.14,9.14,0,0,1,.27,2.23Zm-1.3-.23a8.47,8.47,0,0,0-.18-1.73,5.08,5.08,0,0,0-.59-1.54,3.5,3.5,0,0,0-1.09-1.11,3.17,3.17,0,0,0-1.68-.42A3.51,3.51,0,0,0,102,76a3.63,3.63,0,0,0-.92.47,3.33,3.33,0,0,0-.72.73,4.37,4.37,0,0,0-.52.92v5.42a3.53,3.53,0,0,0,.54.87,3.2,3.2,0,0,0,.76.66,3.37,3.37,0,0,0,.92.43,3.6,3.6,0,0,0,1,.15,3.06,3.06,0,0,0,1.65-.42,3.44,3.44,0,0,0,1.08-1.1,4.85,4.85,0,0,0,.6-1.54,7.84,7.84,0,0,0,.19-1.73Z"/><path class="cls-5" d="M111.69,86.5V70.86H116a7.56,7.56,0,0,1,1.84.25,4.85,4.85,0,0,1,1.59.74,3.94,3.94,0,0,1,1.13,1.27,3.64,3.64,0,0,1,.41,1.83,3.43,3.43,0,0,1-.2,1.2,3.61,3.61,0,0,1-.56.95,3.82,3.82,0,0,1-.82.72,5.72,5.72,0,0,1-1,.51,4.4,4.4,0,0,1,1.25.49,3.77,3.77,0,0,1,1,.82,4.16,4.16,0,0,1,.67,1.11,3.76,3.76,0,0,1,.24,1.35A4.09,4.09,0,0,1,121.1,84,4.14,4.14,0,0,1,120,85.33a5,5,0,0,1-1.57.86,6,6,0,0,1-1.85.31ZM113,77.88h3.15a5.26,5.26,0,0,0,1.31-.2,3.35,3.35,0,0,0,1.12-.55,2.87,2.87,0,0,0,.78-3.55,2.56,2.56,0,0,0-.83-.9,3.65,3.65,0,0,0-1.17-.51A5.48,5.48,0,0,0,116,72h-3Zm0,1.1v6.4h3.66a3.85,3.85,0,0,0,1.36-.24,3.51,3.51,0,0,0,1.13-.65,3.05,3.05,0,0,0,.77-1,3.12,3.12,0,0,0,.29-1.36,2.94,2.94,0,0,0-.28-1.32,2.76,2.76,0,0,0-.75-1,3.58,3.58,0,0,0-1.1-.61,4.47,4.47,0,0,0-1.32-.24Z"/><path class="cls-5" d="M132.87,86.5a4.37,4.37,0,0,1-.18-.79,8.46,8.46,0,0,1-.08-.88,5.06,5.06,0,0,1-.78.75,5.14,5.14,0,0,1-1,.59,5.71,5.71,0,0,1-1.12.4,5.18,5.18,0,0,1-1.26.15,4.7,4.7,0,0,1-1.52-.24,3.69,3.69,0,0,1-1.22-.67,3,3,0,0,1-1.12-2.39,3.08,3.08,0,0,1,.45-1.7,3.31,3.31,0,0,1,1.19-1.13A5.61,5.61,0,0,1,128,80a10,10,0,0,1,2.07-.21h2.51V78.42a2.63,2.63,0,0,0-.25-1.15,2.52,2.52,0,0,0-.67-.84,2.83,2.83,0,0,0-1-.51,4.72,4.72,0,0,0-1.28-.17,4.15,4.15,0,0,0-1.18.16,3.4,3.4,0,0,0-1,.46,2.5,2.5,0,0,0-.71.74,2,2,0,0,0-.29,1h-1.29a3.07,3.07,0,0,1,.4-1.37,3.52,3.52,0,0,1,1-1.07,4.63,4.63,0,0,1,1.42-.72,5.76,5.76,0,0,1,1.74-.26,6.08,6.08,0,0,1,1.73.24,4.07,4.07,0,0,1,1.41.71,3.3,3.3,0,0,1,.94,1.18,3.58,3.58,0,0,1,.36,1.65v5.63a6.62,6.62,0,0,0,.11,1.17,9.37,9.37,0,0,0,.25,1.13v.13Zm-4.24-.92a5.09,5.09,0,0,0,1.3-.16,5.19,5.19,0,0,0,1.13-.48,4.35,4.35,0,0,0,.91-.73,3.29,3.29,0,0,0,.62-.93V80.73h-2.34a10.76,10.76,0,0,0-1.63.13,5.15,5.15,0,0,0-1.39.43,2.49,2.49,0,0,0-1,.79,2,2,0,0,0-.36,1.23,2,2,0,0,0,.22,1,2.09,2.09,0,0,0,.58.71,2.43,2.43,0,0,0,.86.45A3.32,3.32,0,0,0,128.63,85.58Z"/><path class="cls-5" d="M145.78,74.66a7.73,7.73,0,0,1,1,.06,4.55,4.55,0,0,1,.81.17l-.16,1.23c-.3-.06-.6-.11-.91-.15a9.12,9.12,0,0,0-.92,0,4.85,4.85,0,0,0-2.77.77,4.15,4.15,0,0,0-1.6,2.38V86.5h-1.33V74.88h1.23l.09,2v.23a5.18,5.18,0,0,1,1.88-1.81A5.41,5.41,0,0,1,145.78,74.66Z"/><path class="cls-5" d="M173.93,80.81a8.88,8.88,0,0,1-.27,2.19,6.2,6.2,0,0,1-.84,1.9,4.59,4.59,0,0,1-1.42,1.32,4.07,4.07,0,0,1-2.05.5,4.48,4.48,0,0,1-2-.46,4,4,0,0,1-1.52-1.32l-.05,1.56h-1.21V70h1.29v6.5a4.24,4.24,0,0,1,1.48-1.35,4,4,0,0,1,2-.49,4,4,0,0,1,3.49,1.8,6,6,0,0,1,.84,1.89,9.14,9.14,0,0,1,.27,2.23Zm-1.3-.23a8.47,8.47,0,0,0-.18-1.73,5.08,5.08,0,0,0-.59-1.54,3.5,3.5,0,0,0-1.09-1.11,3.17,3.17,0,0,0-1.68-.42A3.51,3.51,0,0,0,168,76a3.63,3.63,0,0,0-.92.47,3.33,3.33,0,0,0-.72.73,4.37,4.37,0,0,0-.52.92v5.42a3.85,3.85,0,0,0,.54.87,3.2,3.2,0,0,0,.76.66,3.37,3.37,0,0,0,.92.43,3.6,3.6,0,0,0,1.05.15,3.06,3.06,0,0,0,1.65-.42,3.34,3.34,0,0,0,1.08-1.1,4.85,4.85,0,0,0,.6-1.54,7.84,7.84,0,0,0,.19-1.73Z"/><path class="cls-5" d="M185.49,84.69A4.28,4.28,0,0,1,184,86.18a4.51,4.51,0,0,1-2.25.54,4.26,4.26,0,0,1-1.7-.32,3.06,3.06,0,0,1-1.24-.91A4.1,4.1,0,0,1,178,84a6.7,6.7,0,0,1-.27-2V74.88H179v7.17a4.46,4.46,0,0,0,.71,2.66,2.51,2.51,0,0,0,2.13.9,3.81,3.81,0,0,0,2.35-.67,3.45,3.45,0,0,0,1.26-1.8V74.88h1.3V86.5h-1.21Z"/><path class="cls-5" d="M191.19,74.88h5.4V85.36h3.95V86.5h-9.35V85.36h4.11V76h-4.11Zm3.73-3.18a1.08,1.08,0,0,1,.23-.69.9.9,0,0,1,.75-.29.93.93,0,0,1,.75.29,1.08,1.08,0,0,1,.23.69,1,1,0,0,1-.23.66.92.92,0,0,1-.75.28.9.9,0,0,1-.75-.28A1,1,0,0,1,194.92,71.7Z"/><path class="cls-5" d="M204.4,70h5.41V85.36h3.93V86.5H204.4V85.36h4.12V71.15H204.4Z"/><path class="cls-5" d="M216.91,80.58a8.69,8.69,0,0,1,.29-2.23,6,6,0,0,1,.86-1.89,4.62,4.62,0,0,1,1.44-1.31,4.16,4.16,0,0,1,2-.49,4,4,0,0,1,2,.48A4.12,4.12,0,0,1,225,76.46V70h1.28V86.5h-1.21L225,85a4.28,4.28,0,0,1-1.5,1.28,4.38,4.38,0,0,1-2,.45,4,4,0,0,1-2-.5,4.78,4.78,0,0,1-1.44-1.32,6,6,0,0,1-.86-1.9,8.44,8.44,0,0,1-.29-2.19Zm1.3.23a7.84,7.84,0,0,0,.19,1.73,5.1,5.1,0,0,0,.6,1.54,3.4,3.4,0,0,0,1.1,1.1,3.06,3.06,0,0,0,1.65.42,3.84,3.84,0,0,0,1-.14,3.33,3.33,0,0,0,.9-.4,3.53,3.53,0,0,0,.75-.64,4,4,0,0,0,.55-.83V78a4.29,4.29,0,0,0-.53-.88,4,4,0,0,0-.73-.69,3.45,3.45,0,0,0-.9-.45,3.3,3.3,0,0,0-1.05-.16,3.11,3.11,0,0,0-1.67.42,3.53,3.53,0,0,0-1.1,1.11,4.87,4.87,0,0,0-.61,1.54,7.84,7.84,0,0,0-.19,1.73Z"/><path class="cls-5" d="M232.52,80.18a16.92,16.92,0,0,1,.37-3.58,18,18,0,0,1,1-3.23,12.38,12.38,0,0,1,1.54-2.62A7.55,7.55,0,0,1,237.37,69l.32.87a6.65,6.65,0,0,0-1.64,1.73A12,12,0,0,0,234.83,74a17,17,0,0,0-.76,2.93,20.08,20.08,0,0,0-.26,3.22v.22a20,20,0,0,0,.26,3.21,17.08,17.08,0,0,0,.76,2.94A12.09,12.09,0,0,0,236.05,89a7,7,0,0,0,1.64,1.76l-.32.83a7.64,7.64,0,0,1-1.92-1.79,11.45,11.45,0,0,1-1.54-2.61,16.76,16.76,0,0,1-1-3.21,17,17,0,0,1-.37-3.59Z"/><path class="cls-5" d="M243.71,86.5V70.86H248a7.56,7.56,0,0,1,1.84.25,4.85,4.85,0,0,1,1.59.74,3.94,3.94,0,0,1,1.13,1.27A3.64,3.64,0,0,1,253,75a3.43,3.43,0,0,1-.2,1.2,3.35,3.35,0,0,1-.56.95,3.82,3.82,0,0,1-.82.72,5.4,5.4,0,0,1-1,.51,4.4,4.4,0,0,1,1.25.49,3.82,3.82,0,0,1,1,.82,3.89,3.89,0,0,1,.66,1.11,3.76,3.76,0,0,1,.24,1.35,4,4,0,0,1-.39,1.85,4.14,4.14,0,0,1-1.07,1.38,4.87,4.87,0,0,1-1.57.86,6,6,0,0,1-1.85.31ZM245,77.88h3.15a5.19,5.19,0,0,0,1.31-.2,3.26,3.26,0,0,0,1.12-.55,2.87,2.87,0,0,0,.78-3.55,2.56,2.56,0,0,0-.83-.9,3.65,3.65,0,0,0-1.17-.51A5.41,5.41,0,0,0,248,72h-3Zm0,1.1v6.4h3.66a3.85,3.85,0,0,0,1.36-.24,3.51,3.51,0,0,0,1.13-.65,3.05,3.05,0,0,0,.77-1,3.12,3.12,0,0,0,.29-1.36,3.08,3.08,0,0,0-.27-1.32,2.9,2.9,0,0,0-.76-1,3.46,3.46,0,0,0-1.1-.61,4.47,4.47,0,0,0-1.32-.24Z"/><path class="cls-5" d="M264.7,84.69a4.13,4.13,0,0,1-1.53,1.49,4.46,4.46,0,0,1-2.25.54,4.3,4.3,0,0,1-1.7-.32,3.2,3.2,0,0,1-1.24-.91,4.26,4.26,0,0,1-.76-1.47,6.71,6.71,0,0,1-.26-2V74.88h1.28v7.17a4.47,4.47,0,0,0,.7,2.66,2.51,2.51,0,0,0,2.13.9,3.81,3.81,0,0,0,2.35-.67,3.4,3.4,0,0,0,1.26-1.8V74.88H266V86.5h-1.2Z"/><path class="cls-5" d="M270.41,74.88h5.39V85.36h3.95V86.5h-9.34V85.36h4.1V76h-4.1Zm3.72-3.18a1.08,1.08,0,0,1,.23-.69.9.9,0,0,1,.75-.29.92.92,0,0,1,.75.29,1.08,1.08,0,0,1,.23.69,1,1,0,0,1-.23.66.91.91,0,0,1-.75.28.9.9,0,0,1-.75-.28A1,1,0,0,1,274.13,71.7Z"/><path class="cls-5" d="M283.61,70H289V85.36H293V86.5h-9.34V85.36h4.12V71.15h-4.12Z"/><path class="cls-5" d="M296.12,80.58a8.69,8.69,0,0,1,.29-2.23,6.07,6.07,0,0,1,.87-1.89,4.41,4.41,0,0,1,1.44-1.31,4.09,4.09,0,0,1,2-.49,4.1,4.1,0,0,1,3.45,1.8V70h1.28V86.5h-1.2L304.22,85a4.28,4.28,0,0,1-1.5,1.28,4.38,4.38,0,0,1-2,.45,3.94,3.94,0,0,1-2-.5,4.55,4.55,0,0,1-1.44-1.32,6,6,0,0,1-.87-1.9,8.44,8.44,0,0,1-.29-2.19Zm1.3.23a8.49,8.49,0,0,0,.19,1.73,5.11,5.11,0,0,0,.61,1.54,3.37,3.37,0,0,0,1.09,1.1,3.1,3.1,0,0,0,1.66.42,3.82,3.82,0,0,0,1-.14,3.55,3.55,0,0,0,.91-.4,3.74,3.74,0,0,0,.74-.64,3.63,3.63,0,0,0,.55-.83V78a3.89,3.89,0,0,0-.53-.88,3.69,3.69,0,0,0-.73-.69,3.45,3.45,0,0,0-.9-.45,3.3,3.3,0,0,0-1.05-.16,3.14,3.14,0,0,0-1.67.42,3.64,3.64,0,0,0-1.1,1.11,5.11,5.11,0,0,0-.61,1.54,8.49,8.49,0,0,0-.19,1.73Z"/><path class="cls-5" d="M319.44,81.75a6.81,6.81,0,0,1-.52,2,5.45,5.45,0,0,1-1.05,1.58,4.67,4.67,0,0,1-1.56,1,5.18,5.18,0,0,1-2,.38,4.75,4.75,0,0,1-1.69-.29,4.5,4.5,0,0,1-1.35-.78,5.14,5.14,0,0,1-1-1.16,7.06,7.06,0,0,1-.71-1.43,8.53,8.53,0,0,1-.41-1.6,11.49,11.49,0,0,1-.15-1.64V77.55a11.49,11.49,0,0,1,.15-1.64,8.74,8.74,0,0,1,.41-1.6,7.06,7.06,0,0,1,.71-1.43,5.67,5.67,0,0,1,1-1.17,4.5,4.5,0,0,1,1.35-.78,4.76,4.76,0,0,1,1.69-.28,5.18,5.18,0,0,1,2,.37,4.67,4.67,0,0,1,1.56,1,5.23,5.23,0,0,1,1,1.58,6.4,6.4,0,0,1,.51,2h-1.27a7.13,7.13,0,0,0-.42-1.51,4.15,4.15,0,0,0-.75-1.24,3.38,3.38,0,0,0-1.14-.84,3.65,3.65,0,0,0-1.56-.31,3.34,3.34,0,0,0-2.39,1,4,4,0,0,0-.76,1,6.25,6.25,0,0,0-.5,1.22,8.39,8.39,0,0,0-.29,1.32,9.69,9.69,0,0,0-.09,1.3v2.29a10,10,0,0,0,.09,1.31,8.39,8.39,0,0,0,.29,1.32,6.25,6.25,0,0,0,.5,1.22,4.25,4.25,0,0,0,.76,1,3.34,3.34,0,0,0,2.39.95,3.82,3.82,0,0,0,1.57-.3,3.15,3.15,0,0,0,1.14-.82,4.22,4.22,0,0,0,.75-1.23,6.61,6.61,0,0,0,.41-1.53Z"/><path class="cls-5" d="M322.25,80.52a7.26,7.26,0,0,1,.36-2.25,5.77,5.77,0,0,1,1-1.86,5.06,5.06,0,0,1,6-1.27,5,5,0,0,1,1.63,1.27,5.77,5.77,0,0,1,1,1.86,7,7,0,0,1,.36,2.25v.35a7.26,7.26,0,0,1-.35,2.25,5.77,5.77,0,0,1-1,1.86,4.82,4.82,0,0,1-1.62,1.27,5,5,0,0,1-6-1.27,5.77,5.77,0,0,1-1-1.86,7.26,7.26,0,0,1-.36-2.25Zm1.29.35a6.29,6.29,0,0,0,.25,1.79,4.87,4.87,0,0,0,.76,1.51,3.55,3.55,0,0,0,1.22,1.06,3.71,3.71,0,0,0,3.35,0,3.52,3.52,0,0,0,1.21-1.06,4.65,4.65,0,0,0,.75-1.51,6.3,6.3,0,0,0,.26-1.79v-.35a6.16,6.16,0,0,0-.26-1.77,4.7,4.7,0,0,0-.75-1.52,3.72,3.72,0,0,0-1.23-1.07,3.69,3.69,0,0,0-3.34,0,3.69,3.69,0,0,0-1.22,1.07,5.14,5.14,0,0,0-.75,1.52,6.16,6.16,0,0,0-.25,1.77Z"/><path class="cls-5" d="M337.3,74.88l.09,2.18A4.89,4.89,0,0,1,339,75.32a4.34,4.34,0,0,1,2.32-.66,3.67,3.67,0,0,1,2.92,1.15,4.81,4.81,0,0,1,1,3.25V86.5H344V79.08a3.78,3.78,0,0,0-.73-2.46,2.71,2.71,0,0,0-2.23-.84,3.62,3.62,0,0,0-1.19.2,4.09,4.09,0,0,0-1,.56,4.4,4.4,0,0,0-.83.84,4.47,4.47,0,0,0-.58,1.05V86.5h-1.29V74.88Z"/><path class="cls-5" d="M353.6,71.9v3h4.31v1.05H353.6v7.32a3,3,0,0,0,.21,1.12,2,2,0,0,0,.54.72,2.14,2.14,0,0,0,.8.39,3.84,3.84,0,0,0,1,.12,8.38,8.38,0,0,0,1.1-.08l1-.15.2,1a5.07,5.07,0,0,1-1.13.27,8.8,8.8,0,0,1-1.36.1,5.3,5.3,0,0,1-1.42-.19,3.11,3.11,0,0,1-1.14-.6,2.87,2.87,0,0,1-.77-1.08,4.45,4.45,0,0,1-.29-1.61V75.93h-3.23V74.88h3.23v-3Z"/><path class="cls-5" d="M367.48,86.72a5.18,5.18,0,0,1-2.21-.46A5,5,0,0,1,363.56,85a5.49,5.49,0,0,1-1.11-1.81,6.23,6.23,0,0,1-.4-2.21v-.46a6.54,6.54,0,0,1,.41-2.32,6.08,6.08,0,0,1,1.1-1.87,5.15,5.15,0,0,1,1.65-1.25,4.65,4.65,0,0,1,2-.46,4.78,4.78,0,0,1,2.05.42,4.36,4.36,0,0,1,1.5,1.15,5,5,0,0,1,.92,1.69A6.9,6.9,0,0,1,372,80v.79h-8.7V81a5.16,5.16,0,0,0,.31,1.75,4.52,4.52,0,0,0,.85,1.46,3.93,3.93,0,0,0,3,1.4,4.27,4.27,0,0,0,1.94-.4A3.94,3.94,0,0,0,371,84.05l.82.61a5,5,0,0,1-.76.84,4.84,4.84,0,0,1-1,.65,5.86,5.86,0,0,1-1.18.42A6.06,6.06,0,0,1,367.48,86.72Zm-.24-11a3.53,3.53,0,0,0-1.44.29,3.64,3.64,0,0,0-1.15.83,4.53,4.53,0,0,0-.82,1.24,5.78,5.78,0,0,0-.44,1.56h7.36v-.14a4.75,4.75,0,0,0-.26-1.4,3.89,3.89,0,0,0-.69-1.21,3.52,3.52,0,0,0-1.09-.85A3.31,3.31,0,0,0,367.24,75.76Z"/><path class="cls-5" d="M380.35,79.63,384,74.88h1.56l-4.43,5.7,4.6,5.92h-1.52l-3.8-5-3.79,5h-1.53l4.59-5.92-4.42-5.7h1.53Z"/><path class="cls-5" d="M393.21,71.9v3h4.31v1.05h-4.31v7.32a3,3,0,0,0,.21,1.12,1.8,1.8,0,0,0,.54.72,2.09,2.09,0,0,0,.79.39,4,4,0,0,0,1,.12,8.51,8.51,0,0,0,1.1-.08l1-.15.19,1a4.94,4.94,0,0,1-1.13.27,8.58,8.58,0,0,1-1.35.1,5.38,5.38,0,0,1-1.43-.19,3.19,3.19,0,0,1-1.14-.6,3,3,0,0,1-.76-1.08,4.25,4.25,0,0,1-.29-1.61V75.93h-3.23V74.88h3.23v-3Z"/><path class="cls-5" d="M420,85.63a4,4,0,0,0,1.24-.19,3.07,3.07,0,0,0,1-.54,3,3,0,0,0,.74-.85,2.66,2.66,0,0,0,.33-1.14h1.23a3.51,3.51,0,0,1-.43,1.53,4.14,4.14,0,0,1-1,1.2,4.62,4.62,0,0,1-1.43.79,5,5,0,0,1-1.7.29,4.84,4.84,0,0,1-2.22-.49,4.59,4.59,0,0,1-1.57-1.29,5.5,5.5,0,0,1-.95-1.85,7.49,7.49,0,0,1-.31-2.17v-.46a7.49,7.49,0,0,1,.31-2.17,5.5,5.5,0,0,1,.95-1.85,4.59,4.59,0,0,1,1.57-1.29,4.71,4.71,0,0,1,2.21-.49,4.91,4.91,0,0,1,1.79.31,4.2,4.2,0,0,1,1.43.86,3.9,3.9,0,0,1,1,1.31,4.31,4.31,0,0,1,.4,1.66h-1.23a3.33,3.33,0,0,0-.31-1.22,3.21,3.21,0,0,0-.7-1,3.24,3.24,0,0,0-1-.64,3.66,3.66,0,0,0-1.3-.22,3.34,3.34,0,0,0-1.72.41,3.53,3.53,0,0,0-1.17,1.07,4.78,4.78,0,0,0-.66,1.51,7,7,0,0,0-.21,1.71v.46a7.1,7.1,0,0,0,.21,1.72,4.59,4.59,0,0,0,.66,1.51,3.53,3.53,0,0,0,1.17,1.07A3.36,3.36,0,0,0,420,85.63Z"/><path class="cls-5" d="M427.87,80.52a7,7,0,0,1,.36-2.25,5.59,5.59,0,0,1,1-1.86,5.06,5.06,0,0,1,6-1.27,5,5,0,0,1,1.63,1.27,5.77,5.77,0,0,1,1,1.86,7.57,7.57,0,0,1,.36,2.25v.35a7.26,7.26,0,0,1-.36,2.25,5.57,5.57,0,0,1-1,1.86,5,5,0,0,1-1.62,1.27,5,5,0,0,1-6-1.27,5.77,5.77,0,0,1-1-1.86,7,7,0,0,1-.36-2.25Zm1.28.35a6.3,6.3,0,0,0,.26,1.79,4.65,4.65,0,0,0,.75,1.51,3.65,3.65,0,0,0,1.22,1.06,3.42,3.42,0,0,0,1.68.4,3.36,3.36,0,0,0,1.67-.4A3.55,3.55,0,0,0,436,84.17a5.08,5.08,0,0,0,.75-1.51,6.29,6.29,0,0,0,.25-1.79v-.35a6.16,6.16,0,0,0-.25-1.77,4.93,4.93,0,0,0-.76-1.52,3.69,3.69,0,0,0-1.22-1.07,3.42,3.42,0,0,0-1.68-.4,3.38,3.38,0,0,0-1.67.4,3.66,3.66,0,0,0-1.21,1.07,4.7,4.7,0,0,0-.75,1.52,6.16,6.16,0,0,0-.26,1.77Z"/><path class="cls-5" d="M442.92,74.88l.09,2.18a4.87,4.87,0,0,1,1.63-1.74,4.36,4.36,0,0,1,2.32-.66,3.69,3.69,0,0,1,2.93,1.15,4.81,4.81,0,0,1,1,3.25V86.5h-1.29V79.08a3.78,3.78,0,0,0-.73-2.46,2.73,2.73,0,0,0-2.24-.84,3.57,3.57,0,0,0-1.18.2,4,4,0,0,0-1.86,1.4,4.5,4.5,0,0,0-.59,1.05V86.5h-1.29V74.88Z"/><path class="cls-5" d="M459.22,71.9v3h4.31v1.05h-4.31v7.32a3,3,0,0,0,.21,1.12,1.8,1.8,0,0,0,.54.72,2.09,2.09,0,0,0,.79.39,4,4,0,0,0,1,.12,8.38,8.38,0,0,0,1.1-.08l1-.15.19,1a4.81,4.81,0,0,1-1.13.27,8.58,8.58,0,0,1-1.35.1,5.43,5.43,0,0,1-1.43-.19,3.28,3.28,0,0,1-1.14-.6,3,3,0,0,1-.76-1.08,4.25,4.25,0,0,1-.29-1.61V75.93h-3.23V74.88h3.23v-3Z"/><path class="cls-5" d="M473.1,86.72A5.34,5.34,0,0,1,469.17,85a5.63,5.63,0,0,1-1.1-1.81,6.23,6.23,0,0,1-.4-2.21v-.46a6.54,6.54,0,0,1,.41-2.32,5.89,5.89,0,0,1,1.1-1.87,5,5,0,0,1,1.64-1.25,4.68,4.68,0,0,1,2-.46,4.8,4.8,0,0,1,2.06.42,4.24,4.24,0,0,1,1.49,1.15,4.87,4.87,0,0,1,.93,1.69,6.9,6.9,0,0,1,.33,2.07v.79H469V81a5.17,5.17,0,0,0,.32,1.75,4.68,4.68,0,0,0,.84,1.46,4,4,0,0,0,1.33,1,3.84,3.84,0,0,0,1.71.38,4.29,4.29,0,0,0,2-.4,4,4,0,0,0,1.48-1.18l.82.61a5,5,0,0,1-.77.84,4.77,4.77,0,0,1-1,.65,5.74,5.74,0,0,1-2.55.57Zm-.25-11a3.6,3.6,0,0,0-1.44.29,3.76,3.76,0,0,0-1.15.83,4.51,4.51,0,0,0-.81,1.24,5.44,5.44,0,0,0-.44,1.56h7.36v-.14a4.76,4.76,0,0,0-.27-1.4,3.87,3.87,0,0,0-.68-1.21,3.65,3.65,0,0,0-1.09-.85A3.35,3.35,0,0,0,472.85,75.76Z"/><path class="cls-5" d="M486,79.63l3.61-4.75h1.56l-4.43,5.7,4.6,5.92h-1.53l-3.79-5-3.79,5h-1.54l4.6-5.92-4.43-5.7h1.54Z"/><path class="cls-5" d="M498.83,71.9v3h4.31v1.05h-4.31v7.32a2.63,2.63,0,0,0,.21,1.12,1.88,1.88,0,0,0,.53.72,2.14,2.14,0,0,0,.8.39,3.84,3.84,0,0,0,1,.12,8.26,8.26,0,0,0,1.1-.08l1-.15.19,1a4.94,4.94,0,0,1-1.13.27,8.58,8.58,0,0,1-1.35.1,5.38,5.38,0,0,1-1.43-.19,3.11,3.11,0,0,1-1.14-.6,2.85,2.85,0,0,1-.76-1.08,4.06,4.06,0,0,1-.29-1.61V75.93h-3.24V74.88h3.24v-3Z"/><path class="cls-5" d="M514.51,80.35a17,17,0,0,1-.37,3.59,16.76,16.76,0,0,1-1,3.21,11.45,11.45,0,0,1-1.54,2.61,7.64,7.64,0,0,1-1.92,1.79l-.32-.83A6.39,6.39,0,0,0,511,89a11.92,11.92,0,0,0,1.22-2.45,17.08,17.08,0,0,0,.76-2.94,20.18,20.18,0,0,0,.26-3.22v-.22a19.11,19.11,0,0,0-.27-3.23,16,16,0,0,0-.78-2.94A12.44,12.44,0,0,0,511,71.53a6.91,6.91,0,0,0-1.61-1.73l.32-.83a7.55,7.55,0,0,1,1.91,1.78,12.38,12.38,0,0,1,1.54,2.62,18,18,0,0,1,1,3.23,16.92,16.92,0,0,1,.37,3.58Z"/><path class="cls-5" d="M542.54,90.84a4.59,4.59,0,0,1-1.71-.62,4.33,4.33,0,0,1-1.22-1.11,4.76,4.76,0,0,1-.73-1.5,5.84,5.84,0,0,1-.26-1.73V83.64a3,3,0,0,0-.77-2.22,3.19,3.19,0,0,0-2.22-.75v-.29h0v-.83a3.22,3.22,0,0,0,2.22-.75,2.94,2.94,0,0,0,.77-2.2V74.34a6.57,6.57,0,0,1,.24-1.73,4.9,4.9,0,0,1,.72-1.51A4.22,4.22,0,0,1,540.79,70a4.45,4.45,0,0,1,1.74-.62l.2.84a3.27,3.27,0,0,0-1.33.54,2.83,2.83,0,0,0-.86.93,4.11,4.11,0,0,0-.48,1.24,6.76,6.76,0,0,0-.15,1.44V76.6a4,4,0,0,1-.65,2.23,3.44,3.44,0,0,1-1.87,1.29,3.41,3.41,0,0,1,1.87,1.3,3.93,3.93,0,0,1,.65,2.22v2.24a5.57,5.57,0,0,0,.18,1.44,3.93,3.93,0,0,0,.53,1.22,3.5,3.5,0,0,0,.88.92,3.34,3.34,0,0,0,1.25.52Z"/><path class="cls-5" d="M106.17,104.66a8,8,0,0,1,1,.06,4.24,4.24,0,0,1,.8.17l-.16,1.23q-.45-.09-.9-.15c-.3,0-.61,0-.93,0a4.87,4.87,0,0,0-2.77.77,4.15,4.15,0,0,0-1.6,2.38v7.43h-1.33V104.88h1.24l.08,2v.23a5.18,5.18,0,0,1,1.88-1.81A5.41,5.41,0,0,1,106.17,104.66Z"/><path class="cls-5" d="M116.64,116.72a5.18,5.18,0,0,1-2.21-.46,5,5,0,0,1-1.71-1.22,5.49,5.49,0,0,1-1.11-1.81,6.23,6.23,0,0,1-.4-2.21v-.46a6.54,6.54,0,0,1,.41-2.32,6.08,6.08,0,0,1,1.1-1.87,5,5,0,0,1,1.65-1.25,4.65,4.65,0,0,1,2-.46,4.78,4.78,0,0,1,2,.42,4.36,4.36,0,0,1,1.5,1.15,5,5,0,0,1,.92,1.69,6.9,6.9,0,0,1,.33,2.07v.79h-8.7V111a5.16,5.16,0,0,0,.31,1.75,4.52,4.52,0,0,0,.85,1.46,3.93,3.93,0,0,0,3,1.4,4.27,4.27,0,0,0,1.94-.4,4,4,0,0,0,1.48-1.18l.82.61a5.45,5.45,0,0,1-.76.84,4.84,4.84,0,0,1-1,.65,5.86,5.86,0,0,1-1.18.42A6.06,6.06,0,0,1,116.64,116.72Zm-.24-11a3.53,3.53,0,0,0-1.44.29,3.64,3.64,0,0,0-1.15.83,4.53,4.53,0,0,0-.82,1.24,5.78,5.78,0,0,0-.44,1.56h7.36v-.14a4.75,4.75,0,0,0-.26-1.4,4.1,4.1,0,0,0-.69-1.21,3.52,3.52,0,0,0-1.09-.85A3.31,3.31,0,0,0,116.4,105.76Z"/><path class="cls-5" d="M129.17,101.9v3h4.31v1.05h-4.31v7.32a2.63,2.63,0,0,0,.21,1.12,1.88,1.88,0,0,0,.53.72,2.14,2.14,0,0,0,.8.39,3.84,3.84,0,0,0,1,.12,8.26,8.26,0,0,0,1.1-.08l1-.15.19,1a5.07,5.07,0,0,1-1.13.27,8.58,8.58,0,0,1-1.35.1,5.38,5.38,0,0,1-1.43-.19,3.11,3.11,0,0,1-1.14-.6,2.85,2.85,0,0,1-.76-1.08,4.06,4.06,0,0,1-.29-1.61v-7.31h-3.24v-1.05h3.24v-3Z"/><path class="cls-5" d="M145.88,114.69a4.13,4.13,0,0,1-1.53,1.49,4.46,4.46,0,0,1-2.25.54,4.3,4.3,0,0,1-1.7-.32,3.2,3.2,0,0,1-1.24-.91,4.26,4.26,0,0,1-.76-1.47,7.06,7.06,0,0,1-.26-2v-7.15h1.28v7.17a4.47,4.47,0,0,0,.7,2.66,2.51,2.51,0,0,0,2.13.9,3.81,3.81,0,0,0,2.35-.67,3.4,3.4,0,0,0,1.26-1.8v-8.26h1.3V116.5H146Z"/><path class="cls-5" d="M159,104.66a7.73,7.73,0,0,1,1,.06,4.2,4.2,0,0,1,.81.17l-.16,1.23q-.45-.09-.9-.15c-.3,0-.61,0-.93,0a4.85,4.85,0,0,0-2.77.77,4.15,4.15,0,0,0-1.6,2.38v7.43h-1.33V104.88h1.23l.09,2v.23a5.18,5.18,0,0,1,1.88-1.81A5.41,5.41,0,0,1,159,104.66Z"/><path class="cls-5" d="M165.67,104.88l.1,2.18a4.78,4.78,0,0,1,1.63-1.74,4.34,4.34,0,0,1,2.32-.66,3.67,3.67,0,0,1,2.92,1.15,4.81,4.81,0,0,1,1,3.25v7.44h-1.29v-7.42a3.72,3.72,0,0,0-.73-2.46,2.71,2.71,0,0,0-2.23-.84,3.62,3.62,0,0,0-1.19.2,4.27,4.27,0,0,0-1,.56,4.4,4.4,0,0,0-.83.84,4.47,4.47,0,0,0-.58,1.05v8.07h-1.29V104.88Z"/><path class="cls-5" d="M201.05,102h-5V116.5h-1.26V102h-5v-1.13h11.22Z"/><path class="cls-5" d="M212.09,116.5a5.39,5.39,0,0,1-.19-.79,8.46,8.46,0,0,1-.08-.88,4.64,4.64,0,0,1-.78.75,5.14,5.14,0,0,1-1,.59,5.49,5.49,0,0,1-1.12.4,5.18,5.18,0,0,1-1.26.15,4.7,4.7,0,0,1-1.52-.24,3.79,3.79,0,0,1-1.22-.67,3,3,0,0,1-.82-1,3.19,3.19,0,0,1-.29-1.36,3.07,3.07,0,0,1,.44-1.7,3.31,3.31,0,0,1,1.19-1.13,5.61,5.61,0,0,1,1.74-.64,10,10,0,0,1,2.07-.21h2.52v-1.32a2.78,2.78,0,0,0-.26-1.15,2.52,2.52,0,0,0-.67-.84,2.75,2.75,0,0,0-1-.51,4.7,4.7,0,0,0-1.27-.17,4.17,4.17,0,0,0-1.19.16,3.4,3.4,0,0,0-1,.46,2.35,2.35,0,0,0-.7.74,1.91,1.91,0,0,0-.29,1h-1.29a2.94,2.94,0,0,1,.39-1.37,3.52,3.52,0,0,1,1-1.07,4.63,4.63,0,0,1,1.42-.72,5.81,5.81,0,0,1,1.74-.26,6,6,0,0,1,1.73.24,4.07,4.07,0,0,1,1.41.71,3.44,3.44,0,0,1,1,1.18,3.86,3.86,0,0,1,.36,1.65v5.63a6.6,6.6,0,0,0,.1,1.17c.07.4.15.77.25,1.13v.13Zm-4.25-.92a4.56,4.56,0,0,0,2.43-.64,4.11,4.11,0,0,0,.91-.73,3.32,3.32,0,0,0,.63-.93v-2.55h-2.34a10.89,10.89,0,0,0-1.64.13,5,5,0,0,0-1.38.43,2.49,2.49,0,0,0-1,.79,2,2,0,0,0-.36,1.23,2.11,2.11,0,0,0,.21,1,2.21,2.21,0,0,0,.58.71,2.43,2.43,0,0,0,.86.45A3.32,3.32,0,0,0,207.84,115.58Z"/><path class="cls-5" d="M226.74,110.81a8.88,8.88,0,0,1-.27,2.19,6.2,6.2,0,0,1-.84,1.9,4.52,4.52,0,0,1-1.43,1.32,4,4,0,0,1-2,.5,4.48,4.48,0,0,1-2-.46,4,4,0,0,1-1.52-1.32l-.06,1.56h-1.2V100h1.29v6.5a4.15,4.15,0,0,1,1.48-1.35,4,4,0,0,1,2-.49,4.18,4.18,0,0,1,2.06.49,4.28,4.28,0,0,1,1.43,1.31,6.25,6.25,0,0,1,.84,1.89,9.14,9.14,0,0,1,.27,2.23Zm-1.3-.23a8.47,8.47,0,0,0-.18-1.73,5.36,5.36,0,0,0-.59-1.54,3.5,3.5,0,0,0-1.09-1.11,3.19,3.19,0,0,0-1.69-.42,3.49,3.49,0,0,0-1.08.17,3.63,3.63,0,0,0-.92.47,3.33,3.33,0,0,0-.72.73,4.37,4.37,0,0,0-.52.92v5.42a3.53,3.53,0,0,0,.54.87,3.36,3.36,0,0,0,.75.66,3.59,3.59,0,0,0,2,.58,3,3,0,0,0,1.64-.42,3.37,3.37,0,0,0,1.09-1.1,4.85,4.85,0,0,0,.6-1.54,7.84,7.84,0,0,0,.19-1.73Z"/><path class="cls-5" d="M230.51,116.5V100.86h4.28a7.56,7.56,0,0,1,1.84.25,4.85,4.85,0,0,1,1.59.74,3.94,3.94,0,0,1,1.13,1.27,3.64,3.64,0,0,1,.41,1.83,3.21,3.21,0,0,1-.21,1.2,3.33,3.33,0,0,1-.55.95,4.07,4.07,0,0,1-.82.72,6.07,6.07,0,0,1-1,.51,4.4,4.4,0,0,1,1.25.49,3.94,3.94,0,0,1,1,.82,3.89,3.89,0,0,1,.66,1.11,3.56,3.56,0,0,1,.25,1.35,4.22,4.22,0,0,1-.39,1.85,4.27,4.27,0,0,1-1.07,1.38,5.09,5.09,0,0,1-1.57.86,6,6,0,0,1-1.85.31Zm1.29-8.62H235a5.26,5.26,0,0,0,1.31-.2,3.35,3.35,0,0,0,1.12-.55,2.71,2.71,0,0,0,0-4.45,3.65,3.65,0,0,0-1.17-.51,5.48,5.48,0,0,0-1.34-.18h-3Zm0,1.1v6.4h3.66a3.89,3.89,0,0,0,1.36-.24,3.51,3.51,0,0,0,1.13-.65,3.19,3.19,0,0,0,.77-1,3.12,3.12,0,0,0,.29-1.36,2.94,2.94,0,0,0-.28-1.32,2.76,2.76,0,0,0-.75-1,3.52,3.52,0,0,0-1.11-.61,4.34,4.34,0,0,0-1.31-.24Z"/><path class="cls-5" d="M251.69,116.5a4.37,4.37,0,0,1-.18-.79c0-.29-.07-.58-.09-.88a5,5,0,0,1-.77.75,5.14,5.14,0,0,1-1,.59,5.71,5.71,0,0,1-1.12.4,5.18,5.18,0,0,1-1.26.15,4.7,4.7,0,0,1-1.52-.24,3.69,3.69,0,0,1-1.22-.67,3,3,0,0,1-1.12-2.39,3.16,3.16,0,0,1,.44-1.7,3.43,3.43,0,0,1,1.2-1.13,5.61,5.61,0,0,1,1.74-.64,10,10,0,0,1,2.07-.21h2.51v-1.32a2.63,2.63,0,0,0-.25-1.15,2.43,2.43,0,0,0-.68-.84,2.7,2.7,0,0,0-1-.51,4.77,4.77,0,0,0-1.28-.17,4.15,4.15,0,0,0-1.18.16,3.4,3.4,0,0,0-1,.46,2.5,2.5,0,0,0-.71.74,2,2,0,0,0-.29,1h-1.29a3,3,0,0,1,.4-1.37,3.52,3.52,0,0,1,1-1.07,4.63,4.63,0,0,1,1.42-.72,5.76,5.76,0,0,1,1.74-.26,6.08,6.08,0,0,1,1.73.24,4.07,4.07,0,0,1,1.41.71,3.3,3.3,0,0,1,.94,1.18,3.58,3.58,0,0,1,.36,1.65v5.63a6.62,6.62,0,0,0,.11,1.17,9.37,9.37,0,0,0,.25,1.13v.13Zm-4.24-.92a5,5,0,0,0,1.29-.16,5.07,5.07,0,0,0,1.14-.48,4.35,4.35,0,0,0,.91-.73,3.29,3.29,0,0,0,.62-.93v-2.55h-2.34a10.76,10.76,0,0,0-1.63.13,5,5,0,0,0-1.39.43,2.49,2.49,0,0,0-1,.79,2,2,0,0,0-.36,1.23,2,2,0,0,0,.22,1,2.09,2.09,0,0,0,.58.71,2.43,2.43,0,0,0,.86.45A3.32,3.32,0,0,0,247.45,115.58Z"/><path class="cls-5" d="M264.59,104.66a7.77,7.77,0,0,1,1,.06,4.55,4.55,0,0,1,.81.17l-.16,1.23c-.3-.06-.61-.11-.91-.15s-.61,0-.92,0a4.85,4.85,0,0,0-2.77.77,4.15,4.15,0,0,0-1.6,2.38v7.43h-1.33V104.88h1.23l.09,2v.23a5.18,5.18,0,0,1,1.88-1.81A5.4,5.4,0,0,1,264.59,104.66Z"/><path class="cls-5" d="M272.12,110.18a16.92,16.92,0,0,1,.38-3.58,16.5,16.5,0,0,1,1-3.23,12.36,12.36,0,0,1,1.53-2.62A7.42,7.42,0,0,1,277,99l.31.87a6.62,6.62,0,0,0-1.63,1.73,11.5,11.5,0,0,0-1.22,2.43,16.1,16.1,0,0,0-.76,2.93,19,19,0,0,0-.27,3.22v.22a18.88,18.88,0,0,0,.27,3.21,16.21,16.21,0,0,0,.76,2.94,11.59,11.59,0,0,0,1.22,2.44,6.92,6.92,0,0,0,1.63,1.76l-.31.83a7.68,7.68,0,0,1-1.93-1.79,11.8,11.8,0,0,1-1.53-2.61,15.46,15.46,0,0,1-1-3.21,17,17,0,0,1-.38-3.59Z"/><path class="cls-5" d="M287.59,101.9v3h4.31v1.05h-4.31v7.32a3,3,0,0,0,.21,1.12,1.9,1.9,0,0,0,.54.72,2.14,2.14,0,0,0,.8.39,3.84,3.84,0,0,0,1,.12,8.38,8.38,0,0,0,1.1-.08l1-.15.19,1a4.84,4.84,0,0,1-1.12.27,8.8,8.8,0,0,1-1.36.1,5.43,5.43,0,0,1-1.43-.19,3.15,3.15,0,0,1-1.13-.6,2.87,2.87,0,0,1-.77-1.08,4.45,4.45,0,0,1-.29-1.61v-7.31h-3.23v-1.05h3.23v-3Z"/><path class="cls-5" d="M304.5,116.5a4.37,4.37,0,0,1-.18-.79c0-.29-.07-.58-.09-.88a5,5,0,0,1-.77.75,5.14,5.14,0,0,1-1,.59,5.71,5.71,0,0,1-1.12.4,5.24,5.24,0,0,1-1.26.15,4.66,4.66,0,0,1-1.52-.24,3.84,3.84,0,0,1-1.23-.67,3,3,0,0,1-.81-1,3,3,0,0,1-.3-1.36,3.16,3.16,0,0,1,.44-1.7,3.34,3.34,0,0,1,1.2-1.13,5.61,5.61,0,0,1,1.74-.64,9.88,9.88,0,0,1,2.07-.21h2.51v-1.32a2.5,2.5,0,0,0-.26-1.15,2.29,2.29,0,0,0-.67-.84,2.75,2.75,0,0,0-1-.51,4.64,4.64,0,0,0-1.27-.17,4.27,4.27,0,0,0-1.19.16,3.53,3.53,0,0,0-1,.46,2.47,2.47,0,0,0-.7.74,2,2,0,0,0-.29,1h-1.29a2.94,2.94,0,0,1,.39-1.37,3.55,3.55,0,0,1,1-1.07,4.52,4.52,0,0,1,1.42-.72,5.75,5.75,0,0,1,1.73-.26,6.1,6.1,0,0,1,1.74.24,4.07,4.07,0,0,1,1.41.71,3.42,3.42,0,0,1,.94,1.18,3.86,3.86,0,0,1,.36,1.65v5.63a7.7,7.7,0,0,0,.1,1.17c.07.4.16.77.26,1.13v.13Zm-4.24-.92a5,5,0,0,0,1.29-.16,5.27,5.27,0,0,0,1.14-.48,4.63,4.63,0,0,0,.91-.73,3.51,3.51,0,0,0,.62-.93v-2.55h-2.34a10.66,10.66,0,0,0-1.63.13,5,5,0,0,0-1.39.43,2.49,2.49,0,0,0-1,.79,2,2,0,0,0-.36,1.23,2,2,0,0,0,.22,1,2.09,2.09,0,0,0,.58.71,2.43,2.43,0,0,0,.86.45A3.27,3.27,0,0,0,300.26,115.58Z"/><path class="cls-5" d="M319.15,110.81a8.88,8.88,0,0,1-.27,2.19,5.76,5.76,0,0,1-.84,1.9,4.49,4.49,0,0,1-1.42,1.32,4,4,0,0,1-2,.5,4.52,4.52,0,0,1-2-.46,4.08,4.08,0,0,1-1.52-1.32l0,1.56h-1.2V100h1.29v6.5a4.12,4.12,0,0,1,1.47-1.35,4.06,4.06,0,0,1,2-.49,4.21,4.21,0,0,1,2.06.49,4.28,4.28,0,0,1,1.43,1.31,6,6,0,0,1,.83,1.89,9.14,9.14,0,0,1,.27,2.23Zm-1.3-.23a8.47,8.47,0,0,0-.18-1.73,5.08,5.08,0,0,0-.59-1.54A3.3,3.3,0,0,0,316,106.2a3.12,3.12,0,0,0-1.68-.42,3.51,3.51,0,0,0-1.09.17,3.56,3.56,0,0,0-.91.47,3.37,3.37,0,0,0-.73.73,3.93,3.93,0,0,0-.51.92v5.42a3.53,3.53,0,0,0,.54.87,3.55,3.55,0,0,0,1.67,1.09,3.7,3.7,0,0,0,1.05.15,3.06,3.06,0,0,0,1.65-.42,3.25,3.25,0,0,0,1.08-1.1,5.11,5.11,0,0,0,.61-1.54,8.47,8.47,0,0,0,.18-1.73Z"/><path class="cls-5" d="M331,113.55a1.72,1.72,0,0,0-.26-.94,2.44,2.44,0,0,0-.74-.68,4.89,4.89,0,0,0-1.08-.48,11.74,11.74,0,0,0-1.3-.33c-.56-.12-1.1-.25-1.62-.41a6.65,6.65,0,0,1-1.4-.62,3.21,3.21,0,0,1-1-.92,2.61,2.61,0,0,1,0-2.68,3.45,3.45,0,0,1,1-1,4.81,4.81,0,0,1,1.4-.62,6.18,6.18,0,0,1,1.61-.21,6.7,6.7,0,0,1,1.77.23,4.57,4.57,0,0,1,1.44.68,3.4,3.4,0,0,1,1,1.09,3.22,3.22,0,0,1,.4,1.47H331a2.13,2.13,0,0,0-.3-1,2.52,2.52,0,0,0-.74-.75,3.84,3.84,0,0,0-1.05-.46,4.42,4.42,0,0,0-1.21-.16,5.29,5.29,0,0,0-1.13.12,3.34,3.34,0,0,0-1,.38,2.25,2.25,0,0,0-.7.63,1.61,1.61,0,0,0-.26.9,1.53,1.53,0,0,0,.25.92,2.2,2.2,0,0,0,.72.62,4.6,4.6,0,0,0,1,.42c.41.11.84.21,1.3.31a16.48,16.48,0,0,1,1.68.44,6.57,6.57,0,0,1,1.41.66,3.07,3.07,0,0,1,1,1,2.57,2.57,0,0,1,.35,1.36,2.6,2.6,0,0,1-.39,1.43,3.31,3.31,0,0,1-1,1,5.33,5.33,0,0,1-1.46.6,7.3,7.3,0,0,1-1.69.2,6.89,6.89,0,0,1-1.85-.24,5.41,5.41,0,0,1-1.52-.68,3.67,3.67,0,0,1-1.06-1.09,3,3,0,0,1-.43-1.46h1.29a2.24,2.24,0,0,0,.41,1.15,2.74,2.74,0,0,0,.86.73,4.06,4.06,0,0,0,1.11.39,7,7,0,0,0,1.19.11,5.81,5.81,0,0,0,1.17-.12,4.29,4.29,0,0,0,1.06-.38,2.38,2.38,0,0,0,.76-.64A1.51,1.51,0,0,0,331,113.55Z"/><path class="cls-5" d="M340.45,106.18a1.07,1.07,0,0,1,.29-.77,1,1,0,0,1,.8-.32,1.07,1.07,0,0,1,.81.32,1.08,1.08,0,0,1,.3.77,1,1,0,0,1-.3.74,1.09,1.09,0,0,1-.81.3,1.07,1.07,0,0,1-.8-.3A1,1,0,0,1,340.45,106.18Zm0,9.41a1.07,1.07,0,0,1,.29-.77,1,1,0,0,1,.8-.32,1.07,1.07,0,0,1,.81.32,1.08,1.08,0,0,1,.3.77,1,1,0,0,1-.3.74,1.09,1.09,0,0,1-.81.3,1.07,1.07,0,0,1-.8-.3A1,1,0,0,1,340.45,115.59Z"/><path class="cls-5" d="M369,99.72h-2.48v19H369v1.09H365.3V98.63H369Z"/><path class="cls-5" d="M135,132h-5V146.5H128.8V132h-5v-1.13H135Z"/><path class="cls-5" d="M146.08,146.5a5.39,5.39,0,0,1-.19-.79,8.46,8.46,0,0,1-.08-.88,4.64,4.64,0,0,1-.78.75,5.14,5.14,0,0,1-1,.59,5.49,5.49,0,0,1-1.12.4,5.18,5.18,0,0,1-1.26.15,4.7,4.7,0,0,1-1.52-.24,3.79,3.79,0,0,1-1.22-.67,3,3,0,0,1-.82-1,3.19,3.19,0,0,1-.29-1.36,3.07,3.07,0,0,1,.44-1.7,3.31,3.31,0,0,1,1.19-1.13,5.61,5.61,0,0,1,1.74-.64,10,10,0,0,1,2.07-.21h2.52v-1.32a2.78,2.78,0,0,0-.26-1.15,2.52,2.52,0,0,0-.67-.84,2.83,2.83,0,0,0-1-.51,4.72,4.72,0,0,0-1.28-.17,4.15,4.15,0,0,0-1.18.16,3.4,3.4,0,0,0-1,.46,2.35,2.35,0,0,0-.7.74,1.91,1.91,0,0,0-.29,1h-1.29a2.94,2.94,0,0,1,.39-1.37,3.52,3.52,0,0,1,1-1.07,4.63,4.63,0,0,1,1.42-.72,5.76,5.76,0,0,1,1.74-.26,6.08,6.08,0,0,1,1.73.24,4.07,4.07,0,0,1,1.41.71,3.44,3.44,0,0,1,.95,1.18,3.86,3.86,0,0,1,.36,1.65v5.63a6.6,6.6,0,0,0,.1,1.17c.07.4.15.77.25,1.13v.13Zm-4.25-.92a4.56,4.56,0,0,0,2.43-.64,4.35,4.35,0,0,0,.91-.73,3.32,3.32,0,0,0,.63-.93v-2.55h-2.34a10.79,10.79,0,0,0-1.64.13,5,5,0,0,0-1.38.43,2.42,2.42,0,0,0-1,.79,2,2,0,0,0-.36,1.23,2.11,2.11,0,0,0,.21.95,2.21,2.21,0,0,0,.58.71,2.43,2.43,0,0,0,.86.45A3.32,3.32,0,0,0,141.83,145.58Z"/><path class="cls-5" d="M160.73,140.81a8.43,8.43,0,0,1-.28,2.19,6,6,0,0,1-.83,1.9,4.52,4.52,0,0,1-1.43,1.32,4,4,0,0,1-2,.5,4.48,4.48,0,0,1-2-.46,4,4,0,0,1-1.52-1.32l-.06,1.56h-1.2V130h1.29v6.5a4.15,4.15,0,0,1,1.48-1.35,4,4,0,0,1,2-.49,4.18,4.18,0,0,1,2.06.49,4.28,4.28,0,0,1,1.43,1.31,6,6,0,0,1,.83,1.89,8.68,8.68,0,0,1,.28,2.23Zm-1.3-.23a8.47,8.47,0,0,0-.18-1.73,5.36,5.36,0,0,0-.59-1.54,3.43,3.43,0,0,0-1.1-1.11,3.12,3.12,0,0,0-1.68-.42,3.49,3.49,0,0,0-1.08.17,3.63,3.63,0,0,0-.92.47,3.12,3.12,0,0,0-.72.73,4.37,4.37,0,0,0-.52.92v5.42a3.53,3.53,0,0,0,.54.87,3.36,3.36,0,0,0,.75.66,3.43,3.43,0,0,0,.93.43,3.6,3.6,0,0,0,1,.15,3,3,0,0,0,1.64-.42,3.37,3.37,0,0,0,1.09-1.1,5.1,5.1,0,0,0,.6-1.54,7.84,7.84,0,0,0,.19-1.73Z"/><path class="cls-5" d="M166.51,140.18a16.92,16.92,0,0,1,.37-3.58,17.2,17.2,0,0,1,1-3.23,12,12,0,0,1,1.54-2.62,7.55,7.55,0,0,1,1.91-1.78l.31.87a6.78,6.78,0,0,0-1.63,1.73,12,12,0,0,0-1.22,2.43,17,17,0,0,0-.76,2.93,19,19,0,0,0-.26,3.22v.22a18.88,18.88,0,0,0,.26,3.21,17.08,17.08,0,0,0,.76,2.94A12.09,12.09,0,0,0,170,149a7.11,7.11,0,0,0,1.63,1.76l-.31.83a7.64,7.64,0,0,1-1.92-1.79,11.45,11.45,0,0,1-1.54-2.61,16.76,16.76,0,0,1-1-3.21,17,17,0,0,1-.37-3.59Z"/><path class="cls-5" d="M182,131.9v3h4.3v1.05H182v7.32a2.63,2.63,0,0,0,.21,1.12,1.88,1.88,0,0,0,.53.72,2.14,2.14,0,0,0,.8.39,3.84,3.84,0,0,0,1,.12,8.26,8.26,0,0,0,1.1-.08l1-.15.2,1a5.07,5.07,0,0,1-1.13.27,8.67,8.67,0,0,1-1.35.1,5.32,5.32,0,0,1-1.43-.19,3.11,3.11,0,0,1-1.14-.6,2.85,2.85,0,0,1-.76-1.08,4.06,4.06,0,0,1-.29-1.61v-7.31h-3.24v-1.05h3.24v-3Z"/><path class="cls-5" d="M195.86,146.72a5.3,5.3,0,0,1-3.93-1.68,5.49,5.49,0,0,1-1.11-1.81,6.46,6.46,0,0,1-.4-2.21v-.46a6.77,6.77,0,0,1,.41-2.32,6.08,6.08,0,0,1,1.1-1.87,5.15,5.15,0,0,1,1.65-1.25,4.65,4.65,0,0,1,2-.46,4.75,4.75,0,0,1,2,.42,4.36,4.36,0,0,1,1.5,1.15,5,5,0,0,1,.92,1.69,6.9,6.9,0,0,1,.33,2.07v.79h-8.7V141a5.41,5.41,0,0,0,.31,1.75,4.52,4.52,0,0,0,.85,1.46,3.93,3.93,0,0,0,3,1.4,4.27,4.27,0,0,0,1.94-.4,4,4,0,0,0,1.49-1.18l.81.61a5,5,0,0,1-.76.84,4.77,4.77,0,0,1-1,.65,6.19,6.19,0,0,1-1.19.42A6,6,0,0,1,195.86,146.72Zm-.25-11a3.6,3.6,0,0,0-1.44.29,3.64,3.64,0,0,0-1.15.83,4.53,4.53,0,0,0-.82,1.24,5.78,5.78,0,0,0-.44,1.56h7.36v-.14a4.45,4.45,0,0,0-.26-1.4,3.7,3.7,0,0,0-.69-1.21,3.52,3.52,0,0,0-1.09-.85A3.31,3.31,0,0,0,195.61,135.76Z"/><path class="cls-5" d="M208.72,139.63l3.61-4.75h1.56l-4.42,5.7,4.59,5.92h-1.52l-3.79-4.95L205,146.5h-1.53l4.6-5.92-4.43-5.7h1.54Z"/><path class="cls-5" d="M221.58,131.9v3h4.31v1.05h-4.31v7.32a3,3,0,0,0,.21,1.12,1.8,1.8,0,0,0,.54.72,2.17,2.17,0,0,0,.79.39,4,4,0,0,0,1,.12,8.38,8.38,0,0,0,1.1-.08l1-.15.19,1a4.84,4.84,0,0,1-1.12.27,8.8,8.8,0,0,1-1.36.1,5.43,5.43,0,0,1-1.43-.19,3.15,3.15,0,0,1-1.13-.6,2.87,2.87,0,0,1-.77-1.08,4.45,4.45,0,0,1-.29-1.61v-7.31H217v-1.05h3.23v-3Z"/><path class="cls-5" d="M234.83,136.18a1.12,1.12,0,0,1,.29-.77,1.06,1.06,0,0,1,.8-.32,1,1,0,0,1,.81.32,1.08,1.08,0,0,1,.3.77,1,1,0,0,1-.3.74,1.06,1.06,0,0,1-.81.3,1.09,1.09,0,0,1-.8-.3A1,1,0,0,1,234.83,136.18Zm0,9.41a1.12,1.12,0,0,1,.29-.77,1.06,1.06,0,0,1,.8-.32,1,1,0,0,1,.81.32,1.08,1.08,0,0,1,.3.77,1,1,0,0,1-.3.74,1.06,1.06,0,0,1-.81.3,1.09,1.09,0,0,1-.8-.3A1,1,0,0,1,234.83,145.59Z"/><path class="cls-5" d="M261.58,131.52l-.2,3.27h-1l.06-3.18V130h1.15Z"/><path class="cls-5" d="M278.67,142.66a2.78,2.78,0,0,0-.17-1,2.55,2.55,0,0,0-.46-.78,3.53,3.53,0,0,0-.68-.6,6.12,6.12,0,0,0-.83-.47c-.29-.14-.6-.26-.9-.37l-.89-.3c-.37-.11-.74-.24-1.12-.38a10.59,10.59,0,0,1-1.09-.48,6.72,6.72,0,0,1-1-.62,4.74,4.74,0,0,1-.82-.79,4,4,0,0,1-.55-1,3.53,3.53,0,0,1-.19-1.21,3.35,3.35,0,0,1,.43-1.72,4.06,4.06,0,0,1,1.13-1.27,4.86,4.86,0,0,1,1.58-.78,5.93,5.93,0,0,1,1.77-.26,5.54,5.54,0,0,1,1.9.32,5.05,5.05,0,0,1,1.58.92,4.33,4.33,0,0,1,1.09,1.44,4.55,4.55,0,0,1,.44,1.87h-1.3a4.66,4.66,0,0,0-.37-1.39,3.56,3.56,0,0,0-.78-1.08,3.36,3.36,0,0,0-1.13-.7,3.87,3.87,0,0,0-1.43-.26,4.8,4.8,0,0,0-1.3.18,3.69,3.69,0,0,0-1.15.54,2.86,2.86,0,0,0-.83.9,2.49,2.49,0,0,0-.31,1.27,2.32,2.32,0,0,0,.37,1.34,3.3,3.3,0,0,0,.94.92,6.1,6.1,0,0,0,1.25.63c.45.17.89.31,1.29.43s.77.25,1.15.39a11.47,11.47,0,0,1,1.13.51,7.93,7.93,0,0,1,1,.65,4,4,0,0,1,.82.83,3.71,3.71,0,0,1,.55,1,3.85,3.85,0,0,1,.2,1.25,3.49,3.49,0,0,1-.45,1.8,4,4,0,0,1-1.15,1.27,5.09,5.09,0,0,1-1.61.76,6.7,6.7,0,0,1-3.83,0,5.62,5.62,0,0,1-1.72-.89A4.36,4.36,0,0,1,270,144.1a4.27,4.27,0,0,1-.51-1.95h1.3a4.26,4.26,0,0,0,.45,1.49,3.38,3.38,0,0,0,.9,1.08,3.78,3.78,0,0,0,1.26.66,5.19,5.19,0,0,0,1.55.22,5.55,5.55,0,0,0,1.35-.17,4.15,4.15,0,0,0,1.19-.53,2.74,2.74,0,0,0,.84-.92A2.54,2.54,0,0,0,278.67,142.66Z"/><path class="cls-5" d="M284.6,137.12a4.82,4.82,0,0,1,1.63-1.78,4.3,4.3,0,0,1,2.33-.68,4.43,4.43,0,0,1,1.69.3,3.3,3.3,0,0,1,1.24.86,3.91,3.91,0,0,1,.76,1.38,6.06,6.06,0,0,1,.26,1.88v7.42h-1.29v-7.42a4.93,4.93,0,0,0-.18-1.39,2.61,2.61,0,0,0-.55-1,2.37,2.37,0,0,0-.93-.65,3.77,3.77,0,0,0-2.48,0,3.89,3.89,0,0,0-1,.54,4.35,4.35,0,0,0-.85.81,4.41,4.41,0,0,0-.6,1v8.15h-1.29V130h1.29Z"/><path class="cls-5" d="M295.84,140.52a7.27,7.27,0,0,1,.37-2.25,5.75,5.75,0,0,1,1-1.86,4.86,4.86,0,0,1,1.63-1.27,4.78,4.78,0,0,1,2.17-.48,4.83,4.83,0,0,1,3.81,1.75,5.61,5.61,0,0,1,1,1.86,7.57,7.57,0,0,1,.36,2.25v.35a7.57,7.57,0,0,1-.36,2.25,5.57,5.57,0,0,1-1,1.86,5,5,0,0,1-1.63,1.27,4.89,4.89,0,0,1-2.18.47,5,5,0,0,1-2.18-.47,4.86,4.86,0,0,1-1.63-1.27,5.77,5.77,0,0,1-1-1.86,7.27,7.27,0,0,1-.37-2.25Zm1.29.35a6.3,6.3,0,0,0,.26,1.79,4.65,4.65,0,0,0,.75,1.51,3.65,3.65,0,0,0,1.22,1.06,3.42,3.42,0,0,0,1.68.4,3.36,3.36,0,0,0,1.67-.4,3.55,3.55,0,0,0,1.22-1.06,4.84,4.84,0,0,0,.74-1.51,6,6,0,0,0,.26-1.79v-.35a5.84,5.84,0,0,0-.26-1.77,4.7,4.7,0,0,0-.75-1.52,3.79,3.79,0,0,0-1.22-1.07,3.42,3.42,0,0,0-1.68-.4,3.36,3.36,0,0,0-1.67.4,3.66,3.66,0,0,0-1.21,1.07,4.7,4.7,0,0,0-.75,1.52,6.16,6.16,0,0,0-.26,1.77Z"/><path class="cls-5" d="M314.67,146.72a5.21,5.21,0,0,1-2.21-.46,5.14,5.14,0,0,1-1.71-1.22,5.49,5.49,0,0,1-1.11-1.81,6.46,6.46,0,0,1-.4-2.21v-.46a6.77,6.77,0,0,1,.41-2.32,6.08,6.08,0,0,1,1.1-1.87,5.15,5.15,0,0,1,1.65-1.25,4.65,4.65,0,0,1,2-.46,4.78,4.78,0,0,1,2.05.42,4.36,4.36,0,0,1,1.5,1.15,5,5,0,0,1,.92,1.69,6.9,6.9,0,0,1,.33,2.07v.79h-8.7V141a5.41,5.41,0,0,0,.31,1.75,4.52,4.52,0,0,0,.85,1.46,3.93,3.93,0,0,0,3,1.4,4.27,4.27,0,0,0,1.94-.4,4,4,0,0,0,1.49-1.18l.81.61a5,5,0,0,1-.76.84,4.77,4.77,0,0,1-1,.65,6.19,6.19,0,0,1-1.19.42A6.06,6.06,0,0,1,314.67,146.72Zm-.24-11a3.53,3.53,0,0,0-1.44.29,3.64,3.64,0,0,0-1.15.83,4.53,4.53,0,0,0-.82,1.24,5.78,5.78,0,0,0-.44,1.56h7.36v-.14a4.45,4.45,0,0,0-.26-1.4,3.7,3.7,0,0,0-.69-1.21,3.52,3.52,0,0,0-1.09-.85A3.31,3.31,0,0,0,314.43,135.76Z"/><path class="cls-5" d="M331,143.55a1.72,1.72,0,0,0-.26-.94,2.44,2.44,0,0,0-.74-.68,4.89,4.89,0,0,0-1.08-.48,11.74,11.74,0,0,0-1.3-.33c-.56-.12-1.1-.25-1.62-.41a6.65,6.65,0,0,1-1.4-.62,3.21,3.21,0,0,1-1-.92,2.61,2.61,0,0,1,0-2.68,3.45,3.45,0,0,1,1-1,4.81,4.81,0,0,1,1.4-.62,6.18,6.18,0,0,1,1.61-.21,6.7,6.7,0,0,1,1.77.23,4.57,4.57,0,0,1,1.44.68,3.4,3.4,0,0,1,1,1.09,3.22,3.22,0,0,1,.4,1.47H331a2.13,2.13,0,0,0-.3-1,2.52,2.52,0,0,0-.74-.75,3.84,3.84,0,0,0-1.05-.46,4.42,4.42,0,0,0-1.21-.16,5.29,5.29,0,0,0-1.13.12,3.34,3.34,0,0,0-1,.38,2.25,2.25,0,0,0-.7.63,1.61,1.61,0,0,0-.26.9,1.53,1.53,0,0,0,.25.92,2.2,2.2,0,0,0,.72.62,4.6,4.6,0,0,0,1,.42c.41.11.84.21,1.3.31a16.48,16.48,0,0,1,1.68.44,6.57,6.57,0,0,1,1.41.66,3.07,3.07,0,0,1,1,1,2.57,2.57,0,0,1,.35,1.36,2.6,2.6,0,0,1-.39,1.43,3.31,3.31,0,0,1-1,1,5.33,5.33,0,0,1-1.46.6,7.3,7.3,0,0,1-1.69.2,6.89,6.89,0,0,1-1.85-.24,5.41,5.41,0,0,1-1.52-.68,3.67,3.67,0,0,1-1.06-1.09,3,3,0,0,1-.43-1.46h1.29a2.24,2.24,0,0,0,.41,1.15,2.74,2.74,0,0,0,.86.73,4.06,4.06,0,0,0,1.11.39,7,7,0,0,0,1.19.11,5.81,5.81,0,0,0,1.17-.12,4.29,4.29,0,0,0,1.06-.38,2.38,2.38,0,0,0,.76-.64A1.51,1.51,0,0,0,331,143.55Z"/><path class="cls-5" d="M340.79,131.52l-.19,3.27h-1l.05-3.18V130h1.15Z"/><path class="cls-5" d="M356.09,140.35a17.7,17.7,0,0,1-.37,3.59,16.09,16.09,0,0,1-1,3.21,11.8,11.8,0,0,1-1.53,2.61,7.68,7.68,0,0,1-1.93,1.79l-.31-.83a6.36,6.36,0,0,0,1.63-1.74,11.44,11.44,0,0,0,1.22-2.45,16.21,16.21,0,0,0,.76-2.94,19.08,19.08,0,0,0,.27-3.22v-.22a18.13,18.13,0,0,0-.28-3.23,16,16,0,0,0-.78-2.94,11.44,11.44,0,0,0-1.22-2.45,6.71,6.71,0,0,0-1.6-1.73l.31-.83a7.42,7.42,0,0,1,1.92,1.78,12.36,12.36,0,0,1,1.53,2.62,16.5,16.5,0,0,1,1,3.23,16.92,16.92,0,0,1,.38,3.58Z"/><path class="cls-5" d="M366.9,146.12a4.38,4.38,0,0,1-.1.95,5,5,0,0,1-.29.93,4.46,4.46,0,0,1-.47.89,4.74,4.74,0,0,1-.64.78l-.82-.52a5.07,5.07,0,0,0,.95-3v-1.68h1.37Z"/><path class="cls-5" d="M135,162h-5V176.5H128.8V162h-5v-1.13H135Z"/><path class="cls-5" d="M146.08,176.5a5.39,5.39,0,0,1-.19-.79,8.46,8.46,0,0,1-.08-.88,4.64,4.64,0,0,1-.78.75,5.14,5.14,0,0,1-1,.59,5.49,5.49,0,0,1-1.12.4,5.18,5.18,0,0,1-1.26.15,4.7,4.7,0,0,1-1.52-.24,3.79,3.79,0,0,1-1.22-.67,3,3,0,0,1-.82-1,3.19,3.19,0,0,1-.29-1.36,3.07,3.07,0,0,1,.44-1.7,3.31,3.31,0,0,1,1.19-1.13,5.61,5.61,0,0,1,1.74-.64,10,10,0,0,1,2.07-.21h2.52v-1.32a2.78,2.78,0,0,0-.26-1.15,2.52,2.52,0,0,0-.67-.84,2.83,2.83,0,0,0-1-.51,4.72,4.72,0,0,0-1.28-.17,4.15,4.15,0,0,0-1.18.16,3.4,3.4,0,0,0-1,.46,2.35,2.35,0,0,0-.7.74,1.91,1.91,0,0,0-.29,1h-1.29a2.94,2.94,0,0,1,.39-1.37,3.52,3.52,0,0,1,1-1.07,4.63,4.63,0,0,1,1.42-.72,5.76,5.76,0,0,1,1.74-.26,6.08,6.08,0,0,1,1.73.24,4.07,4.07,0,0,1,1.41.71,3.44,3.44,0,0,1,.95,1.18,3.86,3.86,0,0,1,.36,1.65v5.63a6.6,6.6,0,0,0,.1,1.17c.07.4.15.77.25,1.13v.13Zm-4.25-.92a4.56,4.56,0,0,0,2.43-.64,4.35,4.35,0,0,0,.91-.73,3.32,3.32,0,0,0,.63-.93v-2.55h-2.34a10.79,10.79,0,0,0-1.64.13,5,5,0,0,0-1.38.43,2.42,2.42,0,0,0-1,.79,2,2,0,0,0-.36,1.23,2.11,2.11,0,0,0,.21.95,2.21,2.21,0,0,0,.58.71,2.43,2.43,0,0,0,.86.45A3.32,3.32,0,0,0,141.83,175.58Z"/><path class="cls-5" d="M160.73,170.81a8.43,8.43,0,0,1-.28,2.19,6,6,0,0,1-.83,1.9,4.52,4.52,0,0,1-1.43,1.32,4,4,0,0,1-2,.5,4.48,4.48,0,0,1-2-.46,4,4,0,0,1-1.52-1.32l-.06,1.56h-1.2V160h1.29v6.5a4.15,4.15,0,0,1,1.48-1.35,4,4,0,0,1,2-.49,4.18,4.18,0,0,1,2.06.49,4.28,4.28,0,0,1,1.43,1.31,6,6,0,0,1,.83,1.89,8.68,8.68,0,0,1,.28,2.23Zm-1.3-.23a8.47,8.47,0,0,0-.18-1.73,5.36,5.36,0,0,0-.59-1.54,3.43,3.43,0,0,0-1.1-1.11,3.12,3.12,0,0,0-1.68-.42,3.49,3.49,0,0,0-1.08.17,3.63,3.63,0,0,0-.92.47,3.12,3.12,0,0,0-.72.73,4.37,4.37,0,0,0-.52.92v5.42a3.53,3.53,0,0,0,.54.87,3.36,3.36,0,0,0,.75.66,3.43,3.43,0,0,0,.93.43,3.6,3.6,0,0,0,1,.15,3,3,0,0,0,1.64-.42,3.37,3.37,0,0,0,1.09-1.1,5.1,5.1,0,0,0,.6-1.54,7.84,7.84,0,0,0,.19-1.73Z"/><path class="cls-5" d="M166.51,170.18a16.92,16.92,0,0,1,.37-3.58,17.2,17.2,0,0,1,1-3.23,12,12,0,0,1,1.54-2.62,7.55,7.55,0,0,1,1.91-1.78l.31.87a6.78,6.78,0,0,0-1.63,1.73,12,12,0,0,0-1.22,2.43,17,17,0,0,0-.76,2.93,19,19,0,0,0-.26,3.22v.22a18.88,18.88,0,0,0,.26,3.21,17.08,17.08,0,0,0,.76,2.94A12.09,12.09,0,0,0,170,179a7.11,7.11,0,0,0,1.63,1.76l-.31.83a7.64,7.64,0,0,1-1.92-1.79,11.45,11.45,0,0,1-1.54-2.61,16.76,16.76,0,0,1-1-3.21,17,17,0,0,1-.37-3.59Z"/><path class="cls-5" d="M182,161.9v3h4.3v1.05H182v7.32a2.63,2.63,0,0,0,.21,1.12,1.88,1.88,0,0,0,.53.72,2.14,2.14,0,0,0,.8.39,3.84,3.84,0,0,0,1,.12,8.26,8.26,0,0,0,1.1-.08l1-.15.2,1a5.07,5.07,0,0,1-1.13.27,8.67,8.67,0,0,1-1.35.1,5.32,5.32,0,0,1-1.43-.19,3.11,3.11,0,0,1-1.14-.6,2.85,2.85,0,0,1-.76-1.08,4.06,4.06,0,0,1-.29-1.61v-7.31h-3.24v-1.05h3.24v-3Z"/><path class="cls-5" d="M195.86,176.72a5.3,5.3,0,0,1-3.93-1.68,5.49,5.49,0,0,1-1.11-1.81,6.46,6.46,0,0,1-.4-2.21v-.46a6.77,6.77,0,0,1,.41-2.32,6.08,6.08,0,0,1,1.1-1.87,5.15,5.15,0,0,1,1.65-1.25,4.65,4.65,0,0,1,2-.46,4.75,4.75,0,0,1,2,.42,4.36,4.36,0,0,1,1.5,1.15,5,5,0,0,1,.92,1.69,6.9,6.9,0,0,1,.33,2.07v.79h-8.7V171a5.41,5.41,0,0,0,.31,1.75,4.52,4.52,0,0,0,.85,1.46,3.93,3.93,0,0,0,3,1.4,4.27,4.27,0,0,0,1.94-.4,4,4,0,0,0,1.49-1.18l.81.61a5,5,0,0,1-.76.84,4.77,4.77,0,0,1-1,.65,6.19,6.19,0,0,1-1.19.42A6,6,0,0,1,195.86,176.72Zm-.25-11a3.6,3.6,0,0,0-1.44.29,3.64,3.64,0,0,0-1.15.83,4.53,4.53,0,0,0-.82,1.24,5.78,5.78,0,0,0-.44,1.56h7.36v-.14a4.45,4.45,0,0,0-.26-1.4,3.7,3.7,0,0,0-.69-1.21,3.52,3.52,0,0,0-1.09-.85A3.31,3.31,0,0,0,195.61,165.76Z"/><path class="cls-5" d="M208.72,169.63l3.61-4.75h1.56l-4.42,5.7,4.59,5.92h-1.52l-3.79-4.95L205,176.5h-1.53l4.6-5.92-4.43-5.7h1.54Z"/><path class="cls-5" d="M221.58,161.9v3h4.31v1.05h-4.31v7.32a3,3,0,0,0,.21,1.12,1.8,1.8,0,0,0,.54.72,2.17,2.17,0,0,0,.79.39,4,4,0,0,0,1,.12,8.38,8.38,0,0,0,1.1-.08l1-.15.19,1a4.84,4.84,0,0,1-1.12.27,8.8,8.8,0,0,1-1.36.1,5.43,5.43,0,0,1-1.43-.19,3.15,3.15,0,0,1-1.13-.6,2.87,2.87,0,0,1-.77-1.08,4.45,4.45,0,0,1-.29-1.61v-7.31H217v-1.05h3.23v-3Z"/><path class="cls-5" d="M234.83,166.18a1.12,1.12,0,0,1,.29-.77,1.06,1.06,0,0,1,.8-.32,1,1,0,0,1,.81.32,1.08,1.08,0,0,1,.3.77,1,1,0,0,1-.3.74,1.06,1.06,0,0,1-.81.3,1.09,1.09,0,0,1-.8-.3A1,1,0,0,1,234.83,166.18Zm0,9.41a1.12,1.12,0,0,1,.29-.77,1.06,1.06,0,0,1,.8-.32,1,1,0,0,1,.81.32,1.08,1.08,0,0,1,.3.77,1,1,0,0,1-.3.74,1.06,1.06,0,0,1-.81.3,1.09,1.09,0,0,1-.8-.3A1,1,0,0,1,234.83,175.59Z"/><path class="cls-5" d="M261.58,161.52l-.2,3.27h-1l.06-3.18V160h1.15Z"/><path class="cls-5" d="M271.64,170.06v6.44h-1.29V160.86h4.92a6.35,6.35,0,0,1,1.93.34,5,5,0,0,1,1.57.92,4.29,4.29,0,0,1,1.06,1.45,5,5,0,0,1,0,3.84,4.21,4.21,0,0,1-1.06,1.43,4.58,4.58,0,0,1-1.57.89,6.15,6.15,0,0,1-1.93.33Zm0-1.09h3.63a4.19,4.19,0,0,0,1.44-.26,3.52,3.52,0,0,0,1.16-.68,3.25,3.25,0,0,0,.78-1.08,3.46,3.46,0,0,0,.29-1.44,3.8,3.8,0,0,0-.28-1.46,3.18,3.18,0,0,0-.78-1.11,3.42,3.42,0,0,0-1.16-.71,4.25,4.25,0,0,0-1.45-.27h-3.63Z"/><path class="cls-5" d="M291.3,176.5a4.37,4.37,0,0,1-.18-.79,8.46,8.46,0,0,1-.09-.88,5,5,0,0,1-.77.75,5.89,5.89,0,0,1-1,.59,5.81,5.81,0,0,1-1.13.4,5.16,5.16,0,0,1-1.25.15,4.66,4.66,0,0,1-1.52-.24,3.84,3.84,0,0,1-1.23-.67,2.9,2.9,0,0,1-.81-1,3,3,0,0,1-.3-1.36,3.16,3.16,0,0,1,.44-1.7,3.31,3.31,0,0,1,1.19-1.13,5.61,5.61,0,0,1,1.74-.64,10,10,0,0,1,2.08-.21H291v-1.32a2.63,2.63,0,0,0-.26-1.15,2.4,2.4,0,0,0-.67-.84,2.75,2.75,0,0,0-1-.51,4.64,4.64,0,0,0-1.27-.17,4.22,4.22,0,0,0-1.19.16,3.53,3.53,0,0,0-1,.46,2.47,2.47,0,0,0-.7.74,1.91,1.91,0,0,0-.29,1h-1.29a2.94,2.94,0,0,1,.39-1.37,3.65,3.65,0,0,1,1-1.07,4.69,4.69,0,0,1,1.43-.72,5.75,5.75,0,0,1,1.73-.26,6.1,6.1,0,0,1,1.74.24,3.94,3.94,0,0,1,1.4.71,3.33,3.33,0,0,1,.95,1.18,3.86,3.86,0,0,1,.36,1.65v5.63a6.6,6.6,0,0,0,.1,1.17c.07.4.15.77.25,1.13v.13Zm-4.24-.92a4.56,4.56,0,0,0,2.42-.64,4.42,4.42,0,0,0,.92-.73,3.51,3.51,0,0,0,.62-.93v-2.55h-2.34a10.66,10.66,0,0,0-1.63.13,4.93,4.93,0,0,0-1.39.43,2.49,2.49,0,0,0-1,.79,2,2,0,0,0-.36,1.23,2.11,2.11,0,0,0,.21.95,2.35,2.35,0,0,0,.58.71,2.52,2.52,0,0,0,.86.45A3.38,3.38,0,0,0,287.06,175.58Z"/><path class="cls-5" d="M297.69,164.88l.1,2.18a4.87,4.87,0,0,1,1.63-1.74,4.34,4.34,0,0,1,2.32-.66,3.65,3.65,0,0,1,2.92,1.15,4.71,4.71,0,0,1,1,3.25v7.44h-1.29v-7.42a3.72,3.72,0,0,0-.73-2.46,2.71,2.71,0,0,0-2.23-.84,3.62,3.62,0,0,0-1.19.2,4.27,4.27,0,0,0-1,.56,4.4,4.4,0,0,0-.83.84,4.47,4.47,0,0,0-.58,1.05v8.07h-1.29V164.88Z"/><path class="cls-5" d="M314,161.9v3h4.31v1.05H314v7.32a2.63,2.63,0,0,0,.21,1.12,1.88,1.88,0,0,0,.53.72,2.14,2.14,0,0,0,.8.39,3.84,3.84,0,0,0,1,.12,8.26,8.26,0,0,0,1.1-.08l1-.15.19,1a5.07,5.07,0,0,1-1.13.27,8.58,8.58,0,0,1-1.35.1,5.38,5.38,0,0,1-1.43-.19,3.11,3.11,0,0,1-1.14-.6,2.85,2.85,0,0,1-.76-1.08,4.06,4.06,0,0,1-.29-1.61v-7.31h-3.24v-1.05h3.24v-3Z"/><path class="cls-5" d="M331,173.55a1.72,1.72,0,0,0-.26-.94,2.44,2.44,0,0,0-.74-.68,4.89,4.89,0,0,0-1.08-.48,11.74,11.74,0,0,0-1.3-.33c-.56-.12-1.1-.25-1.62-.41a6.65,6.65,0,0,1-1.4-.62,3.21,3.21,0,0,1-1-.92,2.61,2.61,0,0,1,0-2.68,3.45,3.45,0,0,1,1-1,4.81,4.81,0,0,1,1.4-.62,6.18,6.18,0,0,1,1.61-.21,6.7,6.7,0,0,1,1.77.23,4.57,4.57,0,0,1,1.44.68,3.4,3.4,0,0,1,1,1.09,3.22,3.22,0,0,1,.4,1.47H331a2.13,2.13,0,0,0-.3-1,2.52,2.52,0,0,0-.74-.75,3.84,3.84,0,0,0-1.05-.46,4.42,4.42,0,0,0-1.21-.16,5.29,5.29,0,0,0-1.13.12,3.34,3.34,0,0,0-1,.38,2.25,2.25,0,0,0-.7.63,1.61,1.61,0,0,0-.26.9,1.53,1.53,0,0,0,.25.92,2.2,2.2,0,0,0,.72.62,4.6,4.6,0,0,0,1,.42c.41.11.84.21,1.3.31a16.48,16.48,0,0,1,1.68.44,6.57,6.57,0,0,1,1.41.66,3.07,3.07,0,0,1,1,1,2.57,2.57,0,0,1,.35,1.36,2.6,2.6,0,0,1-.39,1.43,3.31,3.31,0,0,1-1,1,5.33,5.33,0,0,1-1.46.6,7.3,7.3,0,0,1-1.69.2,6.89,6.89,0,0,1-1.85-.24,5.41,5.41,0,0,1-1.52-.68,3.67,3.67,0,0,1-1.06-1.09,3,3,0,0,1-.43-1.46h1.29a2.24,2.24,0,0,0,.41,1.15,2.74,2.74,0,0,0,.86.73,4.06,4.06,0,0,0,1.11.39,7,7,0,0,0,1.19.11,5.81,5.81,0,0,0,1.17-.12,4.29,4.29,0,0,0,1.06-.38,2.38,2.38,0,0,0,.76-.64A1.51,1.51,0,0,0,331,173.55Z"/><path class="cls-5" d="M340.79,161.52l-.19,3.27h-1l.05-3.18V160h1.15Z"/><path class="cls-5" d="M356.09,170.35a17.7,17.7,0,0,1-.37,3.59,16.09,16.09,0,0,1-1,3.21,11.8,11.8,0,0,1-1.53,2.61,7.68,7.68,0,0,1-1.93,1.79l-.31-.83a6.36,6.36,0,0,0,1.63-1.74,11.44,11.44,0,0,0,1.22-2.45,16.21,16.21,0,0,0,.76-2.94,19.08,19.08,0,0,0,.27-3.22v-.22a18.13,18.13,0,0,0-.28-3.23,16,16,0,0,0-.78-2.94,11.44,11.44,0,0,0-1.22-2.45,6.71,6.71,0,0,0-1.6-1.73l.31-.83a7.42,7.42,0,0,1,1.92,1.78,12.36,12.36,0,0,1,1.53,2.62,16.5,16.5,0,0,1,1,3.23,16.92,16.92,0,0,1,.38,3.58Z"/><path class="cls-5" d="M366.9,176.12a4.38,4.38,0,0,1-.1.95,5,5,0,0,1-.29.93,4.46,4.46,0,0,1-.47.89,4.74,4.74,0,0,1-.64.78l-.82-.52a5.07,5.07,0,0,0,.95-3v-1.68h1.37Z"/><path class="cls-5" d="M135,192h-5V206.5H128.8V192h-5v-1.13H135Z"/><path class="cls-5" d="M146.08,206.5a5.39,5.39,0,0,1-.19-.79,8.46,8.46,0,0,1-.08-.88,4.64,4.64,0,0,1-.78.75,5.14,5.14,0,0,1-1,.59,5.49,5.49,0,0,1-1.12.4,5.18,5.18,0,0,1-1.26.15,4.7,4.7,0,0,1-1.52-.24,3.79,3.79,0,0,1-1.22-.67,3,3,0,0,1-.82-1,3.19,3.19,0,0,1-.29-1.36,3.07,3.07,0,0,1,.44-1.7,3.31,3.31,0,0,1,1.19-1.13,5.61,5.61,0,0,1,1.74-.64,10,10,0,0,1,2.07-.21h2.52v-1.32a2.78,2.78,0,0,0-.26-1.15,2.52,2.52,0,0,0-.67-.84,2.83,2.83,0,0,0-1-.51,4.72,4.72,0,0,0-1.28-.17,4.15,4.15,0,0,0-1.18.16,3.4,3.4,0,0,0-1,.46,2.35,2.35,0,0,0-.7.74,1.91,1.91,0,0,0-.29,1h-1.29a2.94,2.94,0,0,1,.39-1.37,3.52,3.52,0,0,1,1-1.07,4.63,4.63,0,0,1,1.42-.72,5.76,5.76,0,0,1,1.74-.26,6.08,6.08,0,0,1,1.73.24,4.07,4.07,0,0,1,1.41.71,3.44,3.44,0,0,1,.95,1.18,3.86,3.86,0,0,1,.36,1.65v5.63a6.6,6.6,0,0,0,.1,1.17c.07.4.15.77.25,1.13v.13Zm-4.25-.92a4.56,4.56,0,0,0,2.43-.64,4.35,4.35,0,0,0,.91-.73,3.32,3.32,0,0,0,.63-.93v-2.55h-2.34a10.79,10.79,0,0,0-1.64.13,5,5,0,0,0-1.38.43,2.42,2.42,0,0,0-1,.79,2,2,0,0,0-.36,1.23,2.11,2.11,0,0,0,.21.95,2.21,2.21,0,0,0,.58.71,2.43,2.43,0,0,0,.86.45A3.32,3.32,0,0,0,141.83,205.58Z"/><path class="cls-5" d="M160.73,200.81a8.43,8.43,0,0,1-.28,2.19,6,6,0,0,1-.83,1.9,4.52,4.52,0,0,1-1.43,1.32,4,4,0,0,1-2,.5,4.48,4.48,0,0,1-2-.46,4,4,0,0,1-1.52-1.32l-.06,1.56h-1.2V190h1.29v6.5a4.15,4.15,0,0,1,1.48-1.35,4,4,0,0,1,2-.49,4.18,4.18,0,0,1,2.06.49,4.28,4.28,0,0,1,1.43,1.31,6,6,0,0,1,.83,1.89,8.68,8.68,0,0,1,.28,2.23Zm-1.3-.23a8.47,8.47,0,0,0-.18-1.73,5.36,5.36,0,0,0-.59-1.54,3.43,3.43,0,0,0-1.1-1.11,3.12,3.12,0,0,0-1.68-.42,3.49,3.49,0,0,0-1.08.17,3.63,3.63,0,0,0-.92.47,3.12,3.12,0,0,0-.72.73,4.37,4.37,0,0,0-.52.92v5.42a3.53,3.53,0,0,0,.54.87,3.36,3.36,0,0,0,.75.66,3.43,3.43,0,0,0,.93.43,3.6,3.6,0,0,0,1,.15,3,3,0,0,0,1.64-.42,3.37,3.37,0,0,0,1.09-1.1,5.1,5.1,0,0,0,.6-1.54,7.84,7.84,0,0,0,.19-1.73Z"/><path class="cls-5" d="M166.51,200.18a16.92,16.92,0,0,1,.37-3.58,17.2,17.2,0,0,1,1-3.23,12,12,0,0,1,1.54-2.62,7.55,7.55,0,0,1,1.91-1.78l.31.87a6.78,6.78,0,0,0-1.63,1.73,12,12,0,0,0-1.22,2.43,17,17,0,0,0-.76,2.93,19,19,0,0,0-.26,3.22v.22a18.88,18.88,0,0,0,.26,3.21,17.08,17.08,0,0,0,.76,2.94A12.09,12.09,0,0,0,170,209a7.11,7.11,0,0,0,1.63,1.76l-.31.83a7.64,7.64,0,0,1-1.92-1.79,11.45,11.45,0,0,1-1.54-2.61,16.76,16.76,0,0,1-1-3.21,17,17,0,0,1-.37-3.59Z"/><path class="cls-5" d="M182,191.9v3h4.3v1.05H182v7.32a2.63,2.63,0,0,0,.21,1.12,1.88,1.88,0,0,0,.53.72,2.14,2.14,0,0,0,.8.39,3.84,3.84,0,0,0,1,.12,8.26,8.26,0,0,0,1.1-.08l1-.15.2,1a5.07,5.07,0,0,1-1.13.27,8.67,8.67,0,0,1-1.35.1,5.32,5.32,0,0,1-1.43-.19,3.11,3.11,0,0,1-1.14-.6,2.85,2.85,0,0,1-.76-1.08,4.06,4.06,0,0,1-.29-1.61v-7.31h-3.24v-1.05h3.24v-3Z"/><path class="cls-5" d="M195.86,206.72a5.3,5.3,0,0,1-3.93-1.68,5.49,5.49,0,0,1-1.11-1.81,6.46,6.46,0,0,1-.4-2.21v-.46a6.77,6.77,0,0,1,.41-2.32,6.08,6.08,0,0,1,1.1-1.87,5.15,5.15,0,0,1,1.65-1.25,4.65,4.65,0,0,1,2-.46,4.75,4.75,0,0,1,2,.42,4.36,4.36,0,0,1,1.5,1.15,5,5,0,0,1,.92,1.69,6.9,6.9,0,0,1,.33,2.07v.79h-8.7V201a5.41,5.41,0,0,0,.31,1.75,4.52,4.52,0,0,0,.85,1.46,3.93,3.93,0,0,0,3,1.4,4.27,4.27,0,0,0,1.94-.4,4,4,0,0,0,1.49-1.18l.81.61a5,5,0,0,1-.76.84,4.77,4.77,0,0,1-1,.65,6.19,6.19,0,0,1-1.19.42A6,6,0,0,1,195.86,206.72Zm-.25-11a3.6,3.6,0,0,0-1.44.29,3.64,3.64,0,0,0-1.15.83,4.53,4.53,0,0,0-.82,1.24,5.78,5.78,0,0,0-.44,1.56h7.36v-.14a4.45,4.45,0,0,0-.26-1.4,3.7,3.7,0,0,0-.69-1.21,3.52,3.52,0,0,0-1.09-.85A3.31,3.31,0,0,0,195.61,195.76Z"/><path class="cls-5" d="M208.72,199.63l3.61-4.75h1.56l-4.42,5.7,4.59,5.92h-1.52l-3.79-4.95L205,206.5h-1.53l4.6-5.92-4.43-5.7h1.54Z"/><path class="cls-5" d="M221.58,191.9v3h4.31v1.05h-4.31v7.32a3,3,0,0,0,.21,1.12,1.8,1.8,0,0,0,.54.72,2.17,2.17,0,0,0,.79.39,4,4,0,0,0,1,.12,8.38,8.38,0,0,0,1.1-.08l1-.15.19,1a4.84,4.84,0,0,1-1.12.27,8.8,8.8,0,0,1-1.36.1,5.43,5.43,0,0,1-1.43-.19,3.15,3.15,0,0,1-1.13-.6,2.87,2.87,0,0,1-.77-1.08,4.45,4.45,0,0,1-.29-1.61v-7.31H217v-1.05h3.23v-3Z"/><path class="cls-5" d="M234.83,196.18a1.12,1.12,0,0,1,.29-.77,1.06,1.06,0,0,1,.8-.32,1,1,0,0,1,.81.32,1.08,1.08,0,0,1,.3.77,1,1,0,0,1-.3.74,1.06,1.06,0,0,1-.81.3,1.09,1.09,0,0,1-.8-.3A1,1,0,0,1,234.83,196.18Zm0,9.41a1.12,1.12,0,0,1,.29-.77,1.06,1.06,0,0,1,.8-.32,1,1,0,0,1,.81.32,1.08,1.08,0,0,1,.3.77,1,1,0,0,1-.3.74,1.06,1.06,0,0,1-.81.3,1.09,1.09,0,0,1-.8-.3A1,1,0,0,1,234.83,205.59Z"/><path class="cls-5" d="M261.58,191.52l-.2,3.27h-1l.06-3.18V190h1.15Z"/><path class="cls-5" d="M278.67,202.66a2.78,2.78,0,0,0-.17-1,2.55,2.55,0,0,0-.46-.78,3.53,3.53,0,0,0-.68-.6,6.12,6.12,0,0,0-.83-.47c-.29-.14-.6-.26-.9-.37l-.89-.3c-.37-.11-.74-.24-1.12-.38a10.59,10.59,0,0,1-1.09-.48,6.72,6.72,0,0,1-1-.62,4.74,4.74,0,0,1-.82-.79,4,4,0,0,1-.55-1,3.53,3.53,0,0,1-.19-1.21,3.35,3.35,0,0,1,.43-1.72,4.06,4.06,0,0,1,1.13-1.27,4.86,4.86,0,0,1,1.58-.78,5.93,5.93,0,0,1,1.77-.26,5.54,5.54,0,0,1,1.9.32,5.05,5.05,0,0,1,1.58.92,4.33,4.33,0,0,1,1.09,1.44,4.55,4.55,0,0,1,.44,1.87h-1.3a4.66,4.66,0,0,0-.37-1.39,3.56,3.56,0,0,0-.78-1.08,3.36,3.36,0,0,0-1.13-.7,3.87,3.87,0,0,0-1.43-.26,4.8,4.8,0,0,0-1.3.18,3.69,3.69,0,0,0-1.15.54,2.86,2.86,0,0,0-.83.9,2.49,2.49,0,0,0-.31,1.27,2.32,2.32,0,0,0,.37,1.34,3.3,3.3,0,0,0,.94.92,6.1,6.1,0,0,0,1.25.63c.45.17.89.31,1.29.43s.77.25,1.15.39a11.47,11.47,0,0,1,1.13.51,7.93,7.93,0,0,1,1,.65,4,4,0,0,1,.82.83,3.71,3.71,0,0,1,.55,1,3.85,3.85,0,0,1,.2,1.25,3.49,3.49,0,0,1-.45,1.8,4,4,0,0,1-1.15,1.27,5.09,5.09,0,0,1-1.61.76,6.7,6.7,0,0,1-3.83,0,5.62,5.62,0,0,1-1.72-.89A4.36,4.36,0,0,1,270,204.1a4.27,4.27,0,0,1-.51-1.95h1.3a4.26,4.26,0,0,0,.45,1.49,3.38,3.38,0,0,0,.9,1.08,3.78,3.78,0,0,0,1.26.66,5.19,5.19,0,0,0,1.55.22,5.55,5.55,0,0,0,1.35-.17,4.15,4.15,0,0,0,1.19-.53,2.74,2.74,0,0,0,.84-.92A2.54,2.54,0,0,0,278.67,202.66Z"/><path class="cls-5" d="M284.6,197.12a4.82,4.82,0,0,1,1.63-1.78,4.3,4.3,0,0,1,2.33-.68,4.43,4.43,0,0,1,1.69.3,3.3,3.3,0,0,1,1.24.86,3.91,3.91,0,0,1,.76,1.38,6.06,6.06,0,0,1,.26,1.88v7.42h-1.29v-7.42a4.93,4.93,0,0,0-.18-1.39,2.61,2.61,0,0,0-.55-1,2.37,2.37,0,0,0-.93-.65,3.77,3.77,0,0,0-2.48,0,3.89,3.89,0,0,0-1,.54,4.35,4.35,0,0,0-.85.81,4.41,4.41,0,0,0-.6,1v8.15h-1.29V190h1.29Z"/><path class="cls-5" d="M296.81,194.88h5.39v10.48h4v1.14h-9.35v-1.14h4.1V196h-4.1Zm3.73-3.18a1.08,1.08,0,0,1,.22-.69.91.91,0,0,1,.76-.29.89.89,0,0,1,.74.29,1,1,0,0,1,.23.69,1,1,0,0,1-.23.66.89.89,0,0,1-.74.28.91.91,0,0,1-.76-.28A1,1,0,0,1,300.54,191.7Z"/><path class="cls-5" d="M317.4,194.66a7.77,7.77,0,0,1,1,.06,4.55,4.55,0,0,1,.81.17l-.17,1.23q-.45-.09-.9-.15c-.3,0-.61-.05-.92-.05a4.85,4.85,0,0,0-2.77.77,4.1,4.1,0,0,0-1.6,2.38v7.43H311.5V194.88h1.23l.09,2v.23a5.18,5.18,0,0,1,1.88-1.81A5.4,5.4,0,0,1,317.4,194.66Z"/><path class="cls-5" d="M327.2,191.9v3h4.31v1.05H327.2v7.32a3,3,0,0,0,.21,1.12,1.8,1.8,0,0,0,.54.72,2.09,2.09,0,0,0,.79.39,4,4,0,0,0,1,.12,8.51,8.51,0,0,0,1.1-.08l1-.15.19,1a4.94,4.94,0,0,1-1.13.27,8.58,8.58,0,0,1-1.35.1,5.38,5.38,0,0,1-1.43-.19,3.11,3.11,0,0,1-1.14-.6,3,3,0,0,1-.76-1.08,4.25,4.25,0,0,1-.29-1.61v-7.31h-3.23v-1.05h3.23v-3Z"/><path class="cls-5" d="M344.23,203.55a1.65,1.65,0,0,0-.27-.94,2.44,2.44,0,0,0-.74-.68,4.89,4.89,0,0,0-1.08-.48,11.74,11.74,0,0,0-1.3-.33c-.56-.12-1.1-.25-1.62-.41a6.65,6.65,0,0,1-1.4-.62,3.17,3.17,0,0,1-1-.92,2.3,2.3,0,0,1-.37-1.34,2.44,2.44,0,0,1,.38-1.34,3.37,3.37,0,0,1,1-1,4.63,4.63,0,0,1,1.39-.62,6.18,6.18,0,0,1,1.61-.21,6.7,6.7,0,0,1,1.77.23,4.57,4.57,0,0,1,1.44.68,3.4,3.4,0,0,1,1,1.09,3.1,3.1,0,0,1,.4,1.47h-1.29a1.92,1.92,0,0,0-.3-1,2.41,2.41,0,0,0-.74-.75,3.84,3.84,0,0,0-1.05-.46,4.42,4.42,0,0,0-1.21-.16,5.35,5.35,0,0,0-1.13.12,3.34,3.34,0,0,0-1,.38,2.25,2.25,0,0,0-.7.63,1.61,1.61,0,0,0-.26.9,1.53,1.53,0,0,0,.25.92,2.31,2.31,0,0,0,.72.62,4.51,4.51,0,0,0,1.06.42c.4.11.83.21,1.29.31a15.82,15.82,0,0,1,1.68.44,6.35,6.35,0,0,1,1.41.66,3.07,3.07,0,0,1,1,1,2.48,2.48,0,0,1,.35,1.36,2.6,2.6,0,0,1-.39,1.43,3.31,3.31,0,0,1-1,1,5.2,5.2,0,0,1-1.46.6,7.3,7.3,0,0,1-1.69.2,6.82,6.82,0,0,1-1.84-.24,5.35,5.35,0,0,1-1.53-.68,3.67,3.67,0,0,1-1.06-1.09,3,3,0,0,1-.43-1.46h1.29a2.24,2.24,0,0,0,.42,1.15,2.54,2.54,0,0,0,.86.73,4.06,4.06,0,0,0,1.11.39,6.82,6.82,0,0,0,1.18.11,5.81,5.81,0,0,0,1.17-.12,4,4,0,0,0,1.06-.38,2.38,2.38,0,0,0,.76-.64A1.58,1.58,0,0,0,344.23,203.55Z"/><path class="cls-5" d="M354,191.52l-.19,3.27h-1l0-3.18V190H354Z"/><path class="cls-5" d="M369.29,200.35a17.7,17.7,0,0,1-.37,3.59,16.76,16.76,0,0,1-1,3.21,12.22,12.22,0,0,1-1.54,2.61,7.51,7.51,0,0,1-1.93,1.79l-.31-.83a6.36,6.36,0,0,0,1.63-1.74,11.44,11.44,0,0,0,1.22-2.45,16.21,16.21,0,0,0,.77-2.94,20.18,20.18,0,0,0,.26-3.22v-.22a19.11,19.11,0,0,0-.27-3.23A17.77,17.77,0,0,0,367,194a11.94,11.94,0,0,0-1.23-2.45,6.71,6.71,0,0,0-1.6-1.73l.31-.83a7.42,7.42,0,0,1,1.92,1.78,12.82,12.82,0,0,1,1.54,2.62,17.19,17.19,0,0,1,1,3.23,16.92,16.92,0,0,1,.38,3.58Z"/><path class="cls-5" d="M380.11,206.12a5.17,5.17,0,0,1-.4,1.88,5,5,0,0,1-.46.89,5.38,5.38,0,0,1-.65.78l-.81-.52a5.06,5.06,0,0,0,.94-3v-1.68h1.38Z"/><path class="cls-5" d="M125.18,224.88h5.4v10.48h3.95v1.14h-9.35v-1.14h4.11V226h-4.11Zm3.73-3.18a1.08,1.08,0,0,1,.23-.69,1.1,1.1,0,0,1,1.49,0,1,1,0,0,1,.24.69,1,1,0,0,1-.24.66,1.13,1.13,0,0,1-1.49,0A1,1,0,0,1,128.91,221.7Z"/><path class="cls-5" d="M147.05,225.93h-4.63l0,10.57h-1.34V225.93H138v-1.05h3.17V224a5.09,5.09,0,0,1,.38-2,3.51,3.51,0,0,1,1-1.33,3.78,3.78,0,0,1,1.44-.73,6.68,6.68,0,0,1,1.76-.22,9.28,9.28,0,0,1,1.19.07c.39,0,.78.13,1.18.22l-.16,1.09a8.52,8.52,0,0,0-1-.19,7.82,7.82,0,0,0-1.1-.07,5,5,0,0,0-1.31.15,2.87,2.87,0,0,0-1.07.51,2.51,2.51,0,0,0-.73,1,4,4,0,0,0-.28,1.53v.93h4.63Z"/><path class="cls-5" d="M166.52,230.18a16.92,16.92,0,0,1,.37-3.58,18,18,0,0,1,1-3.23,12.38,12.38,0,0,1,1.54-2.62,7.55,7.55,0,0,1,1.91-1.78l.32.87a6.65,6.65,0,0,0-1.64,1.73,12,12,0,0,0-1.22,2.43,17,17,0,0,0-.76,2.93,20.08,20.08,0,0,0-.26,3.22v.22a20,20,0,0,0,.26,3.21,17.08,17.08,0,0,0,.76,2.94,12.09,12.09,0,0,0,1.22,2.44,7,7,0,0,0,1.64,1.76l-.32.83a7.64,7.64,0,0,1-1.92-1.79,11.45,11.45,0,0,1-1.54-2.61,16.76,16.76,0,0,1-1-3.21,17,17,0,0,1-.37-3.59Z"/><path class="cls-5" d="M187.1,230.81a8.88,8.88,0,0,1-.27,2.19,6.2,6.2,0,0,1-.84,1.9,4.59,4.59,0,0,1-1.42,1.32,4.07,4.07,0,0,1-2,.5,4.62,4.62,0,0,1-2-.42,4.09,4.09,0,0,1-1.52-1.22V241h-1.29V224.88h1.21l.05,1.59a4.22,4.22,0,0,1,7,0,6,6,0,0,1,.84,1.89,9.14,9.14,0,0,1,.27,2.23Zm-1.29-.23a7.84,7.84,0,0,0-.19-1.73,5.13,5.13,0,0,0-.62-1.54,3.6,3.6,0,0,0-1.12-1.11,3.11,3.11,0,0,0-1.67-.42,3.19,3.19,0,0,0-1,.16,3.14,3.14,0,0,0-.9.44,4.12,4.12,0,0,0-.72.67,4.21,4.21,0,0,0-.53.87v5.76a3.51,3.51,0,0,0,3.21,1.95,3,3,0,0,0,1.66-.43,3.37,3.37,0,0,0,1.11-1.11,5.08,5.08,0,0,0,.62-1.55,7.77,7.77,0,0,0,.19-1.73Z"/><path class="cls-5" d="M198.59,224.66a7.77,7.77,0,0,1,1,.06,4.55,4.55,0,0,1,.81.17l-.16,1.23c-.3-.06-.61-.11-.91-.15s-.61-.05-.92-.05a4.85,4.85,0,0,0-2.77.77,4.15,4.15,0,0,0-1.6,2.38v7.43h-1.33V224.88h1.23l.09,2v.23a5.18,5.18,0,0,1,1.88-1.81A5.4,5.4,0,0,1,198.59,224.66Z"/><path class="cls-5" d="M203.44,230.52a7.57,7.57,0,0,1,.36-2.25,5.77,5.77,0,0,1,1-1.86,5,5,0,0,1,7.61,0,5.77,5.77,0,0,1,1,1.86,7.27,7.27,0,0,1,.37,2.25v.35a7.57,7.57,0,0,1-.36,2.25,5.59,5.59,0,0,1-1,1.86,4.82,4.82,0,0,1-1.62,1.27,5.31,5.31,0,0,1-4.37,0,4.82,4.82,0,0,1-1.62-1.27,5.61,5.61,0,0,1-1-1.86,7.57,7.57,0,0,1-.36-2.25Zm1.29.35a6,6,0,0,0,.26,1.79,4.65,4.65,0,0,0,.75,1.51,3.55,3.55,0,0,0,1.22,1.06,3.71,3.71,0,0,0,3.35,0,3.52,3.52,0,0,0,1.21-1.06,4.65,4.65,0,0,0,.75-1.51,6.3,6.3,0,0,0,.26-1.79v-.35a6.16,6.16,0,0,0-.26-1.77,4.7,4.7,0,0,0-.75-1.52,3.72,3.72,0,0,0-1.23-1.07,3.69,3.69,0,0,0-3.34,0,3.69,3.69,0,0,0-1.22,1.07,4.89,4.89,0,0,0-.74,1.52,5.84,5.84,0,0,0-.26,1.77Z"/><path class="cls-5" d="M217.35,224.88l0,1.3a2.92,2.92,0,0,1,1-1.09,3.13,3.13,0,0,1,2.44-.31,2,2,0,0,1,1.14.8,2.77,2.77,0,0,1,.31.62,3.16,3.16,0,0,1,1-1.09,2.87,2.87,0,0,1,1.6-.45,2.72,2.72,0,0,1,1.25.26,2.24,2.24,0,0,1,.82.7,2.79,2.79,0,0,1,.45,1,5.37,5.37,0,0,1,.13,1.22v8.64h-1.2v-8.64a3.82,3.82,0,0,0-.08-.75,2.08,2.08,0,0,0-.26-.67,1.39,1.39,0,0,0-.53-.49,1.69,1.69,0,0,0-.86-.17,2.42,2.42,0,0,0-.91.17,1.84,1.84,0,0,0-.61.42,1.88,1.88,0,0,0-.38.58,3.83,3.83,0,0,0-.2.63v8.92h-1.2v-8.75a3.38,3.38,0,0,0-.08-.72,1.92,1.92,0,0,0-.26-.64,1.53,1.53,0,0,0-.52-.45,1.79,1.79,0,0,0-.85-.16,2.51,2.51,0,0,0-.88.16,1.85,1.85,0,0,0-.6.4,2,2,0,0,0-.38.58,3.29,3.29,0,0,0-.23.69l0,8.89h-1.21V224.88Z"/><path class="cls-5" d="M229.84,230.52a7.27,7.27,0,0,1,.37-2.25,5.75,5.75,0,0,1,1-1.86,4.86,4.86,0,0,1,1.63-1.27,4.78,4.78,0,0,1,2.17-.48,4.83,4.83,0,0,1,3.81,1.75,5.61,5.61,0,0,1,1,1.86,7.57,7.57,0,0,1,.36,2.25v.35a7.57,7.57,0,0,1-.36,2.25,5.57,5.57,0,0,1-1,1.86,5,5,0,0,1-1.63,1.27,4.89,4.89,0,0,1-2.18.47,5,5,0,0,1-2.18-.47,4.86,4.86,0,0,1-1.63-1.27,5.77,5.77,0,0,1-1-1.86,7.27,7.27,0,0,1-.37-2.25Zm1.29.35a6.3,6.3,0,0,0,.26,1.79,4.65,4.65,0,0,0,.75,1.51,3.65,3.65,0,0,0,1.22,1.06,3.42,3.42,0,0,0,1.68.4,3.36,3.36,0,0,0,1.67-.4,3.55,3.55,0,0,0,1.22-1.06,4.84,4.84,0,0,0,.74-1.51,6,6,0,0,0,.26-1.79v-.35a5.84,5.84,0,0,0-.26-1.77,4.7,4.7,0,0,0-.75-1.52,3.79,3.79,0,0,0-1.22-1.07,3.42,3.42,0,0,0-1.68-.4,3.36,3.36,0,0,0-1.67.4,3.66,3.66,0,0,0-1.21,1.07,4.7,4.7,0,0,0-.75,1.52,6.16,6.16,0,0,0-.26,1.77Z"/><path class="cls-5" d="M251.36,232.14h-6L244,236.5h-1.3l5.1-15.64H249l5,15.64h-1.28ZM245.77,231H251l-2.6-8.23Z"/><path class="cls-5" d="M261.63,235.63a3.86,3.86,0,0,0,1.23-.19,3.12,3.12,0,0,0,1-.54,3,3,0,0,0,.73-.85,2.66,2.66,0,0,0,.33-1.14h1.24a3.65,3.65,0,0,1-.43,1.53,4.31,4.31,0,0,1-1,1.2,4.86,4.86,0,0,1-1.43.79,5.1,5.1,0,0,1-1.7.29,4.84,4.84,0,0,1-2.22-.49,4.63,4.63,0,0,1-1.58-1.29,5.48,5.48,0,0,1-.94-1.85,7.5,7.5,0,0,1-.32-2.17v-.46a7.5,7.5,0,0,1,.32-2.17,5.48,5.48,0,0,1,.94-1.85,4.63,4.63,0,0,1,1.58-1.29,4.68,4.68,0,0,1,2.21-.49,5,5,0,0,1,1.79.31,4.3,4.3,0,0,1,1.43.86,4.19,4.19,0,0,1,1,1.31,4.5,4.5,0,0,1,.4,1.66H265a3.13,3.13,0,0,0-.3-1.22,3.24,3.24,0,0,0-.71-1,3.14,3.14,0,0,0-1-.64,3.6,3.6,0,0,0-1.29-.22,3.32,3.32,0,0,0-1.72.41,3.44,3.44,0,0,0-1.17,1.07,4.78,4.78,0,0,0-.66,1.51,7,7,0,0,0-.21,1.71v.46a7.1,7.1,0,0,0,.21,1.72,4.59,4.59,0,0,0,.66,1.51,3.44,3.44,0,0,0,1.17,1.07A3.33,3.33,0,0,0,261.63,235.63Z"/><path class="cls-5" d="M274.4,221.9v3h4.31v1.05H274.4v7.32a3,3,0,0,0,.21,1.12,1.8,1.8,0,0,0,.54.72,2.09,2.09,0,0,0,.79.39,4,4,0,0,0,1,.12,8.38,8.38,0,0,0,1.1-.08l1-.15.19,1a4.84,4.84,0,0,1-1.12.27,8.8,8.8,0,0,1-1.36.1,5.43,5.43,0,0,1-1.43-.19,3.28,3.28,0,0,1-1.14-.6,3,3,0,0,1-.76-1.08,4.45,4.45,0,0,1-.29-1.61v-7.31h-3.23v-1.05h3.23v-3Z"/><path class="cls-5" d="M283.62,224.88H289v10.48H293v1.14h-9.34v-1.14h4.1V226h-4.1Zm3.73-3.18a1.08,1.08,0,0,1,.22-.69,1.11,1.11,0,0,1,1.5,0,1.08,1.08,0,0,1,.23.69,1,1,0,0,1-.23.66,1.14,1.14,0,0,1-1.5,0A1,1,0,0,1,287.35,221.7Z"/><path class="cls-5" d="M301,234.76l0,.23.07-.23,4-9.88h1.35l-4.89,11.62H300.5l-4.9-11.62h1.34Z"/><path class="cls-5" d="M314.69,236.72a5.3,5.3,0,0,1-3.93-1.68,5.49,5.49,0,0,1-1.11-1.81,6.46,6.46,0,0,1-.4-2.21v-.46a7,7,0,0,1,.41-2.32,6.08,6.08,0,0,1,1.1-1.87,5.15,5.15,0,0,1,1.65-1.25,4.65,4.65,0,0,1,2-.46,4.75,4.75,0,0,1,2.05.42,4.36,4.36,0,0,1,1.5,1.15,5,5,0,0,1,.92,1.69,6.9,6.9,0,0,1,.33,2.07v.79h-8.7V231a5.41,5.41,0,0,0,.31,1.75,4.52,4.52,0,0,0,.85,1.46,3.93,3.93,0,0,0,3,1.4,4.24,4.24,0,0,0,1.94-.4,4,4,0,0,0,1.49-1.18l.81.61a5,5,0,0,1-.76.84,4.77,4.77,0,0,1-1,.65,5.74,5.74,0,0,1-2.55.57Zm-.25-11a3.6,3.6,0,0,0-1.44.29,3.64,3.64,0,0,0-1.15.83,4.53,4.53,0,0,0-.82,1.24,5.78,5.78,0,0,0-.44,1.56H318v-.14a4.45,4.45,0,0,0-.26-1.4,3.7,3.7,0,0,0-.69-1.21,3.52,3.52,0,0,0-1.09-.85A3.31,3.31,0,0,0,314.44,225.76Z"/><path class="cls-5" d="M329.69,230.35a17,17,0,0,1-.37,3.59,16.76,16.76,0,0,1-1,3.21,11.8,11.8,0,0,1-1.53,2.61,7.85,7.85,0,0,1-1.93,1.79l-.31-.83a6.52,6.52,0,0,0,1.63-1.74,11.92,11.92,0,0,0,1.22-2.45,17.08,17.08,0,0,0,.76-2.94,19.08,19.08,0,0,0,.26-3.22v-.22a19.11,19.11,0,0,0-.27-3.23,16,16,0,0,0-.78-2.94,11.92,11.92,0,0,0-1.22-2.45,6.88,6.88,0,0,0-1.6-1.73l.31-.83a7.55,7.55,0,0,1,1.91,1.78,12,12,0,0,1,1.54,2.62,17.2,17.2,0,0,1,1,3.23,16.92,16.92,0,0,1,.37,3.58Z"/><path class="cls-5" d="M359.49,222h-5V236.5h-1.26V222h-5v-1.13h11.22Z"/><path class="cls-5" d="M370.52,236.5a4.37,4.37,0,0,1-.18-.79c0-.29-.07-.58-.09-.88a5,5,0,0,1-.77.75,5.14,5.14,0,0,1-1,.59,5.71,5.71,0,0,1-1.12.4,5.18,5.18,0,0,1-1.26.15,4.7,4.7,0,0,1-1.52-.24,3.69,3.69,0,0,1-1.22-.67,3,3,0,0,1-1.12-2.39,3.16,3.16,0,0,1,.44-1.7,3.43,3.43,0,0,1,1.2-1.13,5.61,5.61,0,0,1,1.74-.64,10,10,0,0,1,2.07-.21h2.51v-1.32a2.63,2.63,0,0,0-.25-1.15,2.43,2.43,0,0,0-.68-.84,2.7,2.7,0,0,0-1-.51,4.77,4.77,0,0,0-1.28-.17,4.15,4.15,0,0,0-1.18.16,3.4,3.4,0,0,0-1,.46,2.5,2.5,0,0,0-.71.74,2,2,0,0,0-.29,1h-1.29a3,3,0,0,1,.4-1.37,3.52,3.52,0,0,1,1-1.07,4.63,4.63,0,0,1,1.42-.72,5.76,5.76,0,0,1,1.74-.26,6.08,6.08,0,0,1,1.73.24,4.07,4.07,0,0,1,1.41.71,3.3,3.3,0,0,1,.94,1.18,3.58,3.58,0,0,1,.36,1.65v5.63a6.62,6.62,0,0,0,.11,1.17,9.37,9.37,0,0,0,.25,1.13v.13Zm-4.24-.92a5,5,0,0,0,1.29-.16,5.07,5.07,0,0,0,1.14-.48,4.35,4.35,0,0,0,.91-.73,3.29,3.29,0,0,0,.62-.93v-2.55H367.9a10.76,10.76,0,0,0-1.63.13,5,5,0,0,0-1.39.43,2.49,2.49,0,0,0-1,.79,2,2,0,0,0-.36,1.23,2,2,0,0,0,.22.95,2.09,2.09,0,0,0,.58.71,2.43,2.43,0,0,0,.86.45A3.32,3.32,0,0,0,366.28,235.58Z"/><path class="cls-5" d="M385.18,230.81a8.88,8.88,0,0,1-.28,2.19,5.76,5.76,0,0,1-.84,1.9,4.49,4.49,0,0,1-1.42,1.32,4,4,0,0,1-2,.5,4.52,4.52,0,0,1-2-.46,4.08,4.08,0,0,1-1.52-1.32L377,236.5h-1.2V220h1.29v6.5a4.12,4.12,0,0,1,1.47-1.35,4.08,4.08,0,0,1,2-.49,4.21,4.21,0,0,1,2.06.49,4.28,4.28,0,0,1,1.43,1.31,6,6,0,0,1,.83,1.89,9.14,9.14,0,0,1,.28,2.23Zm-1.3-.23a8.49,8.49,0,0,0-.19-1.73,5.08,5.08,0,0,0-.59-1.54A3.3,3.3,0,0,0,382,226.2a3.12,3.12,0,0,0-1.68-.42,3.4,3.4,0,0,0-1.08.17,3.47,3.47,0,0,0-.92.47,3.37,3.37,0,0,0-.73.73,3.93,3.93,0,0,0-.51.92v5.42a3.53,3.53,0,0,0,.54.87,3.36,3.36,0,0,0,.75.66,3.29,3.29,0,0,0,.93.43,3.58,3.58,0,0,0,1,.15,3.06,3.06,0,0,0,1.65-.42,3.37,3.37,0,0,0,1.09-1.1,5.37,5.37,0,0,0,.6-1.54,8.49,8.49,0,0,0,.19-1.73Z"/><path class="cls-5" d="M391,230.18a16.92,16.92,0,0,1,.37-3.58,16.5,16.5,0,0,1,1-3.23,12.36,12.36,0,0,1,1.53-2.62,7.42,7.42,0,0,1,1.92-1.78l.31.87a6.62,6.62,0,0,0-1.63,1.73,11.5,11.5,0,0,0-1.22,2.43,16.1,16.1,0,0,0-.76,2.93,19,19,0,0,0-.27,3.22v.22a18.88,18.88,0,0,0,.27,3.21,16.21,16.21,0,0,0,.76,2.94,11.59,11.59,0,0,0,1.22,2.44,6.92,6.92,0,0,0,1.63,1.76l-.31.83a7.68,7.68,0,0,1-1.93-1.79,11.8,11.8,0,0,1-1.53-2.61,15.46,15.46,0,0,1-1-3.21,17,17,0,0,1-.37-3.59Z"/><path class="cls-5" d="M406.42,221.9v3h4.31v1.05h-4.31v7.32a3,3,0,0,0,.21,1.12,1.9,1.9,0,0,0,.54.72,2.14,2.14,0,0,0,.8.39,3.84,3.84,0,0,0,1,.12,8.38,8.38,0,0,0,1.1-.08l1-.15.19,1a4.84,4.84,0,0,1-1.12.27,8.8,8.8,0,0,1-1.36.1,5.43,5.43,0,0,1-1.43-.19,3.15,3.15,0,0,1-1.13-.6,2.87,2.87,0,0,1-.77-1.08,4.45,4.45,0,0,1-.29-1.61v-7.31h-3.23v-1.05h3.23v-3Z"/><path class="cls-5" d="M420.3,236.72a5.18,5.18,0,0,1-2.21-.46,5,5,0,0,1-1.71-1.22,5.49,5.49,0,0,1-1.11-1.81,6.23,6.23,0,0,1-.4-2.21v-.46a6.54,6.54,0,0,1,.41-2.32,6.08,6.08,0,0,1,1.1-1.87,5,5,0,0,1,1.65-1.25,4.65,4.65,0,0,1,2-.46,4.78,4.78,0,0,1,2.05.42,4.36,4.36,0,0,1,1.5,1.15,5,5,0,0,1,.92,1.69,6.9,6.9,0,0,1,.33,2.07v.79h-8.7V231a5.16,5.16,0,0,0,.31,1.75,4.52,4.52,0,0,0,.85,1.46,3.93,3.93,0,0,0,3,1.4,4.27,4.27,0,0,0,1.94-.4,3.94,3.94,0,0,0,1.48-1.18l.82.61a5.45,5.45,0,0,1-.76.84,5.13,5.13,0,0,1-1,.65,5.86,5.86,0,0,1-1.18.42A6.06,6.06,0,0,1,420.3,236.72Zm-.24-11a3.53,3.53,0,0,0-1.44.29,3.64,3.64,0,0,0-1.15.83,4.53,4.53,0,0,0-.82,1.24,5.78,5.78,0,0,0-.44,1.56h7.36v-.14a4.46,4.46,0,0,0-.27-1.4,3.87,3.87,0,0,0-.68-1.21,3.52,3.52,0,0,0-1.09-.85A3.31,3.31,0,0,0,420.06,225.76Z"/><path class="cls-5" d="M433.17,229.63l3.61-4.75h1.56l-4.43,5.7,4.6,5.92H437l-3.8-4.95-3.79,4.95h-1.53l4.59-5.92-4.42-5.7h1.53Z"/><path class="cls-5" d="M446,221.9v3h4.31v1.05H446v7.32a3,3,0,0,0,.21,1.12,1.8,1.8,0,0,0,.54.72,2.09,2.09,0,0,0,.79.39,4,4,0,0,0,1,.12,8.51,8.51,0,0,0,1.1-.08l1-.15.19,1a4.94,4.94,0,0,1-1.13.27,8.58,8.58,0,0,1-1.35.1,5.38,5.38,0,0,1-1.43-.19,3.11,3.11,0,0,1-1.14-.6,3,3,0,0,1-.76-1.08,4.25,4.25,0,0,1-.29-1.61v-7.31h-3.23v-1.05h3.23v-3Z"/><path class="cls-5" d="M459.28,226.18a1.07,1.07,0,0,1,.29-.77,1,1,0,0,1,.8-.32,1.07,1.07,0,0,1,.81.32,1.08,1.08,0,0,1,.3.77,1,1,0,0,1-.3.74,1.09,1.09,0,0,1-.81.3,1.07,1.07,0,0,1-.8-.3A1,1,0,0,1,459.28,226.18Zm0,9.41a1.07,1.07,0,0,1,.29-.77,1,1,0,0,1,.8-.32,1.07,1.07,0,0,1,.81.32,1.08,1.08,0,0,1,.3.77,1,1,0,0,1-.3.74,1.09,1.09,0,0,1-.81.3,1.07,1.07,0,0,1-.8-.3A1,1,0,0,1,459.28,235.59Z"/><path class="cls-5" d="M486,221.52l-.19,3.27h-1l.05-3.18V220H486Z"/><path class="cls-5" d="M504.33,229.72a13.29,13.29,0,0,1-.14,1.63,9.48,9.48,0,0,1-.4,1.61,7.86,7.86,0,0,1-.7,1.46,5.23,5.23,0,0,1-1,1.19,4.28,4.28,0,0,1-1.33.81,4.61,4.61,0,0,1-4.7-.81,5.3,5.3,0,0,1-1-1.19,7.6,7.6,0,0,1-.69-1.47,8.64,8.64,0,0,1-.41-1.61,11.35,11.35,0,0,1-.15-1.62v-2.06A11.62,11.62,0,0,1,494,226a9.72,9.72,0,0,1,.4-1.61,7.25,7.25,0,0,1,.69-1.46,5.37,5.37,0,0,1,1-1.21,4.42,4.42,0,0,1,1.32-.81,5,5,0,0,1,3.37,0,4.66,4.66,0,0,1,1.34.81,5.23,5.23,0,0,1,1,1.19,8.27,8.27,0,0,1,.7,1.47,9.72,9.72,0,0,1,.4,1.61,13.28,13.28,0,0,1,.14,1.64Zm-1.27-2.08a11.92,11.92,0,0,0-.1-1.3,7.38,7.38,0,0,0-.28-1.32,6.57,6.57,0,0,0-.49-1.23,4.62,4.62,0,0,0-.75-1,3.68,3.68,0,0,0-1-.7,3.39,3.39,0,0,0-1.35-.25,3.13,3.13,0,0,0-1.33.26,3.35,3.35,0,0,0-1,.7,4.29,4.29,0,0,0-.74,1,6,6,0,0,0-.5,1.23,7.38,7.38,0,0,0-.28,1.32,11.94,11.94,0,0,0-.1,1.29v2.08a11.92,11.92,0,0,0,.1,1.3,8.65,8.65,0,0,0,.29,1.32,6.57,6.57,0,0,0,.49,1.23,4.4,4.4,0,0,0,.75,1,3.48,3.48,0,0,0,1,.7,3.22,3.22,0,0,0,1.35.27,3.18,3.18,0,0,0,1.34-.27,3.35,3.35,0,0,0,1-.7,4.4,4.4,0,0,0,.75-1,6.57,6.57,0,0,0,.49-1.23A7.54,7.54,0,0,0,503,231c0-.45.08-.88.09-1.3Z"/><path class="cls-5" d="M515.55,234.69a4.13,4.13,0,0,1-1.53,1.49,4.46,4.46,0,0,1-2.25.54,4.3,4.3,0,0,1-1.7-.32,3.2,3.2,0,0,1-1.24-.91,4.26,4.26,0,0,1-.76-1.47,7.06,7.06,0,0,1-.26-2v-7.15h1.28v7.17a4.39,4.39,0,0,0,.71,2.66,2.48,2.48,0,0,0,2.12.9,3.86,3.86,0,0,0,2.36-.67,3.38,3.38,0,0,0,1.25-1.8v-8.26h1.3V236.5h-1.2Z"/><path class="cls-5" d="M525.24,221.9v3h4.31v1.05h-4.31v7.32a3,3,0,0,0,.21,1.12,1.8,1.8,0,0,0,.54.72,2.06,2.06,0,0,0,.8.39,3.84,3.84,0,0,0,1,.12,8.38,8.38,0,0,0,1.1-.08l1-.15.19,1a4.84,4.84,0,0,1-1.12.27,8.8,8.8,0,0,1-1.36.1,5.43,5.43,0,0,1-1.43-.19,3.15,3.15,0,0,1-1.13-.6,2.87,2.87,0,0,1-.77-1.08,4.45,4.45,0,0,1-.29-1.61v-7.31H520.7v-1.05h3.23v-3Z"/><path class="cls-5" d="M534.46,220h5.41v15.36h3.94v1.14h-9.35v-1.14h4.12V221.15h-4.12Z"/><path class="cls-5" d="M552.32,236.72A5.3,5.3,0,0,1,548.4,235a5.49,5.49,0,0,1-1.11-1.81,6.46,6.46,0,0,1-.4-2.21v-.46a6.77,6.77,0,0,1,.41-2.32,6.08,6.08,0,0,1,1.1-1.87,5.15,5.15,0,0,1,1.65-1.25,4.65,4.65,0,0,1,2-.46,4.78,4.78,0,0,1,2,.42,4.36,4.36,0,0,1,1.5,1.15,5,5,0,0,1,.92,1.69,6.9,6.9,0,0,1,.33,2.07v.79h-8.7V231a5.16,5.16,0,0,0,.31,1.75,4.52,4.52,0,0,0,.85,1.46,3.93,3.93,0,0,0,3,1.4,4.27,4.27,0,0,0,1.94-.4,3.94,3.94,0,0,0,1.48-1.18l.82.61a5,5,0,0,1-.76.84,5.05,5.05,0,0,1-1,.65,6.19,6.19,0,0,1-1.19.42A6.06,6.06,0,0,1,552.32,236.72Zm-.24-11a3.53,3.53,0,0,0-1.44.29,3.64,3.64,0,0,0-1.15.83,4.53,4.53,0,0,0-.82,1.24,5.78,5.78,0,0,0-.44,1.56h7.36v-.14a4.45,4.45,0,0,0-.26-1.4,3.7,3.7,0,0,0-.69-1.21,3.52,3.52,0,0,0-1.09-.85A3.31,3.31,0,0,0,552.08,225.76Z"/><path class="cls-5" d="M564.85,221.9v3h4.31v1.05h-4.31v7.32a3,3,0,0,0,.21,1.12,1.8,1.8,0,0,0,.54.72,2.09,2.09,0,0,0,.79.39,4,4,0,0,0,1,.12,8.53,8.53,0,0,0,1.11-.08l1-.15.19,1a4.94,4.94,0,0,1-1.13.27,8.58,8.58,0,0,1-1.35.1,5.38,5.38,0,0,1-1.43-.19,3.11,3.11,0,0,1-1.14-.6,3,3,0,0,1-.76-1.08,4.25,4.25,0,0,1-.29-1.61v-7.31h-3.23v-1.05h3.23v-3Z"/><path class="cls-5" d="M578.44,221.52l-.19,3.27h-1l0-3.18V220h1.15Z"/><path class="cls-5" d="M593.74,230.35a17.7,17.7,0,0,1-.37,3.59,16.09,16.09,0,0,1-1,3.21,11.8,11.8,0,0,1-1.53,2.61,7.68,7.68,0,0,1-1.93,1.79l-.31-.83A6.36,6.36,0,0,0,590.2,239a11.44,11.44,0,0,0,1.22-2.45,16.21,16.21,0,0,0,.76-2.94,19.08,19.08,0,0,0,.27-3.22v-.22a18.13,18.13,0,0,0-.28-3.23,16,16,0,0,0-.78-2.94,11.44,11.44,0,0,0-1.22-2.45,6.71,6.71,0,0,0-1.6-1.73l.31-.83a7.42,7.42,0,0,1,1.92,1.78,12.36,12.36,0,0,1,1.53,2.62,16.5,16.5,0,0,1,1,3.23,16.92,16.92,0,0,1,.38,3.58Z"/><path class="cls-5" d="M604.55,236.12a4.38,4.38,0,0,1-.1.95,5,5,0,0,1-.29.93,4.46,4.46,0,0,1-.47.89,4.74,4.74,0,0,1-.64.78l-.82-.52a5.07,5.07,0,0,0,.95-3v-1.68h1.37Z"/><path class="cls-5" d="M101,248.63h3.72v21.22H101v-1.09h2.47v-19H101Z"/><path class="cls-5" d="M118.45,260.35a17.7,17.7,0,0,1-.37,3.59,16.76,16.76,0,0,1-1,3.21,12.22,12.22,0,0,1-1.54,2.61,7.51,7.51,0,0,1-1.93,1.79l-.31-.83a6.36,6.36,0,0,0,1.63-1.74,11.44,11.44,0,0,0,1.22-2.45,16.21,16.21,0,0,0,.77-2.94,20.18,20.18,0,0,0,.26-3.22v-.22a18.13,18.13,0,0,0-.28-3.23,16.84,16.84,0,0,0-.77-2.94,11.94,11.94,0,0,0-1.23-2.45,6.71,6.71,0,0,0-1.6-1.73l.31-.83a7.42,7.42,0,0,1,1.92,1.78,12.82,12.82,0,0,1,1.54,2.62,17.19,17.19,0,0,1,1,3.23,16.92,16.92,0,0,1,.38,3.58Z"/><path class="cls-5" d="M130.8,266.12a4.38,4.38,0,0,1-.1.95,5.9,5.9,0,0,1-.29.93,5,5,0,0,1-.47.89,5.31,5.31,0,0,1-.64.78l-.82-.52a5.07,5.07,0,0,0,1-3v-1.68h1.37Zm-1.63-9.94a1.12,1.12,0,0,1,.29-.77,1.06,1.06,0,0,1,.8-.32,1,1,0,0,1,.81.32,1.08,1.08,0,0,1,.3.77,1,1,0,0,1-.3.74,1.06,1.06,0,0,1-.81.3,1.09,1.09,0,0,1-.8-.3A1,1,0,0,1,129.17,256.18Z"/><path class="cls-5" d="M73.54,300a3.39,3.39,0,0,0,1.26-.52,3.5,3.5,0,0,0,.88-.92,4.13,4.13,0,0,0,.53-1.23,6.58,6.58,0,0,0,.18-1.43v-2.24a3.78,3.78,0,0,1,.65-2.22,3.41,3.41,0,0,1,1.87-1.3A3.44,3.44,0,0,1,77,288.83a3.82,3.82,0,0,1-.65-2.23v-2.26a8.36,8.36,0,0,0-.15-1.44,4.11,4.11,0,0,0-.48-1.24,2.94,2.94,0,0,0-.86-.93,3.28,3.28,0,0,0-1.32-.54l.19-.84a4.5,4.5,0,0,1,1.74.62,4.22,4.22,0,0,1,1.21,1.13,4.48,4.48,0,0,1,.72,1.51,6.18,6.18,0,0,1,.24,1.73v2.26a2.91,2.91,0,0,0,.77,2.2,3.19,3.19,0,0,0,2.22.75v.3h0v.53h0v.29a3.19,3.19,0,0,0-2.22.75,3,3,0,0,0-.77,2.22v2.24a5.84,5.84,0,0,1-.25,1.73,4.76,4.76,0,0,1-.73,1.5,4.37,4.37,0,0,1-1.23,1.11,4.59,4.59,0,0,1-1.71.62Z"/><g class="cls-6"><g class="cls-7"><g class="cls-8"><path class="cls-9" d="M694.46,644V388.25A40.26,40.26,0,0,0,654.2,348H160.8a40.26,40.26,0,0,0-40.26,40.25V644Z"/></g></g></g><path class="cls-9" d="M694.46,644V388.25A40.26,40.26,0,0,0,654.2,348H160.8a40.26,40.26,0,0,0-40.26,40.25V644Z"/><path class="cls-5" d="M333.46,468.05a10.06,10.06,0,0,1-3.38-2.49,9.77,9.77,0,0,1-2.11-4l3.06-1.25a7.85,7.85,0,0,0,2.37,4,6,6,0,0,0,4.08,1.55,6.29,6.29,0,0,0,4-1.26,4.16,4.16,0,0,0,1.62-3.46,4,4,0,0,0-1.38-3.11,13.61,13.61,0,0,0-4.51-2.28l-1.69-.6a13.54,13.54,0,0,1-4.68-2.68,5.92,5.92,0,0,1-1.81-4.6,6.53,6.53,0,0,1,1.05-3.57,7.68,7.68,0,0,1,2.95-2.62,9.78,9.78,0,0,1,8.3-.11,8.53,8.53,0,0,1,2.77,2.11,8,8,0,0,1,1.45,2.45l-3,1.29a5.27,5.27,0,0,0-5.28-3.66,5.54,5.54,0,0,0-3.55,1.17,3.61,3.61,0,0,0-1.47,2.94,3.16,3.16,0,0,0,1.25,2.58,12.63,12.63,0,0,0,3.77,1.87l1.77.6a14.92,14.92,0,0,1,5.36,3.11,6.77,6.77,0,0,1,1.92,5.08,7.06,7.06,0,0,1-1.34,4.37,8,8,0,0,1-3.37,2.61,11.09,11.09,0,0,1-4.19.82A9.66,9.66,0,0,1,333.46,468.05Z"/><path class="cls-5" d="M350.41,441.29h3.21v7.95l-.15,2.64h.15a6.3,6.3,0,0,1,2.51-2.45,7.44,7.44,0,0,1,3.75-1,6.85,6.85,0,0,1,5.36,2.06,7.84,7.84,0,0,1,1.84,5.45v12.33h-3.2V456.45a5.06,5.06,0,0,0-1.32-3.85,4.81,4.81,0,0,0-3.44-1.24,4.7,4.7,0,0,0-2.77.9,6.64,6.64,0,0,0-2.73,5.32v10.71h-3.21Z"/><path class="cls-5" d="M375.46,467.54a9.51,9.51,0,0,1-3.53-3.7,11.22,11.22,0,0,1,0-10.33,9.45,9.45,0,0,1,3.53-3.7,10.21,10.21,0,0,1,10.18,0,9.45,9.45,0,0,1,3.53,3.7,11.22,11.22,0,0,1,0,10.33,9.51,9.51,0,0,1-3.53,3.7,10.27,10.27,0,0,1-10.18,0Zm8.39-2.44a6.45,6.45,0,0,0,2.45-2.54,8.58,8.58,0,0,0,0-7.77,6.46,6.46,0,0,0-5.75-3.43,6.52,6.52,0,0,0-5.79,3.43,8.66,8.66,0,0,0,0,7.77,6.57,6.57,0,0,0,5.79,3.43A6.39,6.39,0,0,0,383.85,465.1Z"/><path class="cls-5" d="M393.83,449.05h3.05v2.87H397a7,7,0,0,1,2.62-2.47,7.91,7.91,0,0,1,4-1,8.6,8.6,0,0,1,4.69,1.32,9.15,9.15,0,0,1,3.3,3.66,12,12,0,0,1,0,10.51,9.13,9.13,0,0,1-3.3,3.63,8.52,8.52,0,0,1-4.69,1.32,7.91,7.91,0,0,1-4-1,7.13,7.13,0,0,1-2.62-2.44h-.15l.15,2.64v8.34h-3.2Zm12.56,16a6.48,6.48,0,0,0,2.34-2.57,9,9,0,0,0,0-7.69,6.48,6.48,0,0,0-2.34-2.57,5.93,5.93,0,0,0-6.28,0,6.63,6.63,0,0,0-2.34,2.57,8.75,8.75,0,0,0,0,7.69,6.63,6.63,0,0,0,2.34,2.57,5.93,5.93,0,0,0,6.28,0Z"/><path class="cls-5" d="M416,449.05h3.06v2.87h.15a7,7,0,0,1,2.62-2.47,7.9,7.9,0,0,1,3.94-1,8.63,8.63,0,0,1,4.7,1.32,9.22,9.22,0,0,1,3.3,3.66,12,12,0,0,1,0,10.51,9.21,9.21,0,0,1-3.3,3.63,8.55,8.55,0,0,1-4.7,1.32,7.9,7.9,0,0,1-3.94-1,7.05,7.05,0,0,1-2.62-2.44h-.15l.15,2.64v8.34H416Zm12.56,16a6.41,6.41,0,0,0,2.34-2.57,8.93,8.93,0,0,0,0-7.69,6.41,6.41,0,0,0-2.34-2.57,5.89,5.89,0,0,0-3.13-.9,5.82,5.82,0,0,0-3.14.9,6.63,6.63,0,0,0-2.34,2.57,8.75,8.75,0,0,0,0,7.69,6.63,6.63,0,0,0,2.34,2.57,5.82,5.82,0,0,0,3.14.9A5.89,5.89,0,0,0,428.56,465.09Z"/><path class="cls-5" d="M438.79,444.83a2.29,2.29,0,0,1,0-3.26,2.31,2.31,0,0,1,3.26,3.26,2.29,2.29,0,0,1-3.26,0Zm0,4.22H442v19.24h-3.21Z"/><path class="cls-5" d="M447.05,449.05h3.05v2.83h.15a6.53,6.53,0,0,1,2.53-2.43,7.37,7.37,0,0,1,3.7-1,6.78,6.78,0,0,1,5.3,2,7.85,7.85,0,0,1,1.83,5.49v12.33H460.4V456.45a5.16,5.16,0,0,0-1.28-3.89,5,5,0,0,0-3.51-1.2,4.71,4.71,0,0,0-2.77.86,5.78,5.78,0,0,0-1.91,2.29,6.79,6.79,0,0,0-.68,3v10.82h-3.2Z"/><path class="cls-5" d="M470.87,475.46a7.76,7.76,0,0,1-3-3.81l2.94-1.25a5.51,5.51,0,0,0,2.09,2.7,6,6,0,0,0,3.53,1,6.22,6.22,0,0,0,4.62-1.67,6.47,6.47,0,0,0,1.64-4.74v-2.15h-.15a7,7,0,0,1-2.66,2.39,8.09,8.09,0,0,1-3.91.92,8.38,8.38,0,0,1-4.54-1.29,9.13,9.13,0,0,1-3.26-3.63,12.17,12.17,0,0,1,0-10.58,9.09,9.09,0,0,1,3.26-3.64,8.31,8.31,0,0,1,4.54-1.3,8.1,8.1,0,0,1,3.91.93,6.88,6.88,0,0,1,2.66,2.43h.15v-2.76h3v18.49q0,4.63-2.56,7.07a10.64,10.64,0,0,1-12.35.85Zm8.75-10.35a6.34,6.34,0,0,0,2.26-2.53,9.49,9.49,0,0,0,0-7.85,6.15,6.15,0,0,0-2.26-2.51,6.17,6.17,0,0,0-6.32,0,6.11,6.11,0,0,0-2.28,2.53,8.34,8.34,0,0,0-.85,3.9,8.5,8.5,0,0,0,.85,3.93,5.92,5.92,0,0,0,5.45,3.39A5.85,5.85,0,0,0,479.62,465.11Z"/><path class="cls-5" d="M175.22,561.15a6.75,6.75,0,0,1-2.32-1.72,6.58,6.58,0,0,1-1.46-2.74l2.11-.86a5.43,5.43,0,0,0,1.63,2.73,4.11,4.11,0,0,0,2.81,1.07,4.29,4.29,0,0,0,2.73-.87,2.86,2.86,0,0,0,1.12-2.38,2.76,2.76,0,0,0-1-2.15,9.15,9.15,0,0,0-3.11-1.57l-1.17-.42a9.42,9.42,0,0,1-3.22-1.84,4.11,4.11,0,0,1-1.25-3.18,4.39,4.39,0,0,1,.73-2.45,5.18,5.18,0,0,1,2-1.81,6.72,6.72,0,0,1,5.72-.08,5.9,5.9,0,0,1,1.91,1.46,5.28,5.28,0,0,1,1,1.69l-2.05.88a3.65,3.65,0,0,0-3.64-2.52,3.81,3.81,0,0,0-2.45.81,2.48,2.48,0,0,0-1,2,2.17,2.17,0,0,0,.86,1.79,8.93,8.93,0,0,0,2.6,1.28l1.22.42a10.35,10.35,0,0,1,3.69,2.14,4.68,4.68,0,0,1,1.33,3.5,4.85,4.85,0,0,1-.93,3,5.44,5.44,0,0,1-2.32,1.79,7.63,7.63,0,0,1-2.89.57A6.62,6.62,0,0,1,175.22,561.15Z"/><path class="cls-5" d="M186.91,542.7h2.21v5.49L189,550h.1a4.27,4.27,0,0,1,1.73-1.69,5.14,5.14,0,0,1,2.59-.68,4.69,4.69,0,0,1,3.69,1.42,5.38,5.38,0,0,1,1.27,3.75v8.51h-2.21v-8.17a3.47,3.47,0,0,0-.91-2.65,3.29,3.29,0,0,0-2.36-.86,3.17,3.17,0,0,0-1.91.63,4.32,4.32,0,0,0-1.38,1.61,4.41,4.41,0,0,0-.51,2v7.39h-2.21Z"/><path class="cls-5" d="M204.17,560.8a6.62,6.62,0,0,1-2.43-2.55,7.74,7.74,0,0,1,0-7.13,6.52,6.52,0,0,1,2.43-2.54,7,7,0,0,1,7,0,6.52,6.52,0,0,1,2.43,2.54,7.66,7.66,0,0,1,0,7.13,6.62,6.62,0,0,1-2.43,2.55,7.09,7.09,0,0,1-7,0Zm5.79-1.68a4.55,4.55,0,0,0,1.69-1.76,5.91,5.91,0,0,0,0-5.35,4.62,4.62,0,0,0-1.69-1.76,4.53,4.53,0,0,0-2.28-.61,4.58,4.58,0,0,0-2.28.61,4.53,4.53,0,0,0-1.71,1.76,6,6,0,0,0,0,5.35,4.55,4.55,0,0,0,6.27,1.76Z"/><path class="cls-5" d="M219.57,560.82a6.28,6.28,0,0,1-2.36-2.51,7.59,7.59,0,0,1-.84-3.6,7.9,7.9,0,0,1,.79-3.52,6.39,6.39,0,0,1,2.26-2.59,6,6,0,0,1,3.37-1,6.37,6.37,0,0,1,3.38.87,5.77,5.77,0,0,1,2.2,2.41,7.74,7.74,0,0,1,.76,3.51,4.07,4.07,0,0,1,0,.67h-10.5a5.14,5.14,0,0,0,.73,2.55,4.25,4.25,0,0,0,1.65,1.56,4.4,4.4,0,0,0,2.09.52,4.26,4.26,0,0,0,3.93-2.39l1.87.91a6.58,6.58,0,0,1-2.32,2.53,7,7,0,0,1-7,0Zm7.22-7.54a4.32,4.32,0,0,0-.46-1.66,3.71,3.71,0,0,0-1.3-1.41,4.07,4.07,0,0,0-2.24-.57,3.81,3.81,0,0,0-2.65,1,4.75,4.75,0,0,0-1.43,2.64Z"/><path class="cls-5" d="M232.9,560.73a5.42,5.42,0,0,1-2-2.56l2-.88a4,4,0,0,0,1.47,1.84,3.74,3.74,0,0,0,2.14.65,4.31,4.31,0,0,0,2.14-.5,1.63,1.63,0,0,0,.18-2.79,6.9,6.9,0,0,0-2.21-.87l-1.61-.41a5.79,5.79,0,0,1-2.6-1.33,3.33,3.33,0,0,1-.33-4.43,4.38,4.38,0,0,1,1.84-1.34,6.45,6.45,0,0,1,2.46-.47,6.33,6.33,0,0,1,3.11.75,4.31,4.31,0,0,1,1.94,2.11l-1.92.88a3.22,3.22,0,0,0-3.15-1.76,3.6,3.6,0,0,0-1.91.5,1.49,1.49,0,0,0-.82,1.29,1.43,1.43,0,0,0,.57,1.18,4.4,4.4,0,0,0,1.72.74l1.92.5a6.34,6.34,0,0,1,2.94,1.47,3.21,3.21,0,0,1,1,2.38,3.48,3.48,0,0,1-.7,2.14,4.5,4.5,0,0,1-1.9,1.42,6.89,6.89,0,0,1-2.66.49A6.05,6.05,0,0,1,232.9,560.73Z"/><path class="cls-5" d="M309.91,542.7h6.26a6.08,6.08,0,0,1,2.89.7,5.58,5.58,0,0,1,2.12,2,5.52,5.52,0,0,1,0,5.69,5.55,5.55,0,0,1-2.12,2,6.08,6.08,0,0,1-2.89.7h-4.05v7.6h-2.21Zm6.31,8.92a3.4,3.4,0,0,0,1.84-.5,3.56,3.56,0,0,0,1.23-1.27,3.28,3.28,0,0,0,0-3.28,3.56,3.56,0,0,0-1.23-1.27,3.4,3.4,0,0,0-1.84-.49h-4.1v6.81Z"/><path class="cls-5" d="M325.56,561.16a4.3,4.3,0,0,1-1.77-1.57,4.2,4.2,0,0,1-.62-2.28,3.87,3.87,0,0,1,1.58-3.29,6.5,6.5,0,0,1,4-1.18,9.28,9.28,0,0,1,2.23.26,5.48,5.48,0,0,1,1.57.6v-.81a3,3,0,0,0-1-2.38,3.91,3.91,0,0,0-2.63-.89,4.5,4.5,0,0,0-2,.48,3.65,3.65,0,0,0-1.49,1.34l-1.66-1.25a5.24,5.24,0,0,1,2.15-1.87,6.85,6.85,0,0,1,3-.68,6,6,0,0,1,4.24,1.42,5,5,0,0,1,1.54,3.86v8.4h-2.11v-1.9h-.1a4.78,4.78,0,0,1-1.72,1.64,5,5,0,0,1-2.57.67A5.75,5.75,0,0,1,325.56,561.16Zm4.89-1.95a4.31,4.31,0,0,0,1.53-1.53,4.07,4.07,0,0,0,.57-2.11,5.69,5.69,0,0,0-1.53-.68,7.14,7.14,0,0,0-1.93-.26,4.26,4.26,0,0,0-2.74.76,2.38,2.38,0,0,0-.92,2,2.15,2.15,0,0,0,.83,1.77,3.23,3.23,0,0,0,2.11.67A4,4,0,0,0,330.45,559.21Z"/><path class="cls-5" d="M337.72,548.06h2.11v2h.1a4.51,4.51,0,0,1,1.75-1.68,5,5,0,0,1,2.54-.69,4.68,4.68,0,0,1,3.66,1.39,5.43,5.43,0,0,1,1.26,3.78v8.51h-2.21v-8.17a3.55,3.55,0,0,0-.89-2.68,3.37,3.37,0,0,0-2.41-.83,3.21,3.21,0,0,0-1.91.6,4,4,0,0,0-1.32,1.57,4.69,4.69,0,0,0-.47,2v7.47h-2.21Z"/><path class="cls-5" d="M355.26,561.47a3.56,3.56,0,0,1-1.16-.72,3.69,3.69,0,0,1-1-2.78v-7.91h-2.31v-2h2.31v-3.75h2.21v3.75h3.25v2h-3.25v7.39a2.62,2.62,0,0,0,.42,1.64,1.78,1.78,0,0,0,1.43.59,2.59,2.59,0,0,0,1.46-.44v2.15a3,3,0,0,1-.8.26,4.9,4.9,0,0,1-1,.08A4.3,4.3,0,0,1,355.26,561.47Z"/><path class="cls-5" d="M362.5,560.73a5.51,5.51,0,0,1-2-2.56l2-.88a4,4,0,0,0,1.47,1.84,3.74,3.74,0,0,0,2.14.65,4.31,4.31,0,0,0,2.14-.5,1.63,1.63,0,0,0,.18-2.79,6.9,6.9,0,0,0-2.21-.87l-1.61-.41a5.79,5.79,0,0,1-2.6-1.33,3.33,3.33,0,0,1-.33-4.43,4.41,4.41,0,0,1,1.83-1.34,6.54,6.54,0,0,1,2.47-.47,6.33,6.33,0,0,1,3.11.75A4.31,4.31,0,0,1,371,550.5l-1.93.88a3.2,3.2,0,0,0-3.14-1.76,3.6,3.6,0,0,0-1.91.5,1.49,1.49,0,0,0-.82,1.29,1.43,1.43,0,0,0,.57,1.18,4.4,4.4,0,0,0,1.72.74l1.92.5a6.34,6.34,0,0,1,2.94,1.47,3.21,3.21,0,0,1,1,2.38,3.48,3.48,0,0,1-.7,2.14,4.5,4.5,0,0,1-1.9,1.42,6.89,6.89,0,0,1-2.66.49A6.05,6.05,0,0,1,362.5,560.73Z"/><path class="cls-5" d="M444.37,561.15a6.79,6.79,0,0,1-3.79-4.46l2.11-.86a5.38,5.38,0,0,0,1.64,2.73,4.07,4.07,0,0,0,2.8,1.07,4.29,4.29,0,0,0,2.73-.87,2.86,2.86,0,0,0,1.12-2.38,2.72,2.72,0,0,0-1-2.15,9.09,9.09,0,0,0-3.1-1.57l-1.17-.42a9.38,9.38,0,0,1-3.23-1.84,4.11,4.11,0,0,1-1.24-3.18,4.47,4.47,0,0,1,.72-2.45,5.18,5.18,0,0,1,2-1.81,6.72,6.72,0,0,1,5.72-.08,5.9,5.9,0,0,1,1.91,1.46,5.28,5.28,0,0,1,1,1.69l-2.05.88a3.65,3.65,0,0,0-3.64-2.52,3.78,3.78,0,0,0-2.44.81,2.46,2.46,0,0,0-1,2,2.2,2.2,0,0,0,.86,1.79,9.07,9.07,0,0,0,2.6,1.28l1.22.42a10.27,10.27,0,0,1,3.69,2.14,4.64,4.64,0,0,1,1.33,3.5,4.91,4.91,0,0,1-.92,3,5.53,5.53,0,0,1-2.33,1.79,7.63,7.63,0,0,1-2.89.57A6.57,6.57,0,0,1,444.37,561.15Z"/><path class="cls-5" d="M456.05,542.7h2.21v5.49l-.1,1.82h.1a4.33,4.33,0,0,1,1.73-1.69,5.14,5.14,0,0,1,2.59-.68,4.69,4.69,0,0,1,3.69,1.42,5.38,5.38,0,0,1,1.27,3.75v8.51h-2.21v-8.17a3.47,3.47,0,0,0-.91-2.65,3.29,3.29,0,0,0-2.36-.86,3.19,3.19,0,0,0-1.91.63,4.59,4.59,0,0,0-1.89,3.66v7.39h-2.21Z"/><path class="cls-5" d="M470.9,545.14a1.59,1.59,0,0,1,2.25-2.24,1.62,1.62,0,0,1,0,2.24,1.58,1.58,0,0,1-2.25,0Zm0,2.92h2.21v13.26h-2.21Z"/><path class="cls-5" d="M476.59,548.06h2.11v2.1h.1a2.85,2.85,0,0,1,1.59-1.64,6.36,6.36,0,0,1,2.47-.46,5,5,0,0,1,.93.07v2.27a5.28,5.28,0,0,0-1.19-.11,3.62,3.62,0,0,0-2.74,1.09,3.83,3.83,0,0,0-1.06,2.81v7.13h-2.21Zm13.46,13.2a3.27,3.27,0,0,1-1.16-.7,3.6,3.6,0,0,1-1-2.73v-7.77h-2.31v-2h2.31v-3.75h2.21v3.75h3.25v2h-3.25v7.23a2.56,2.56,0,0,0,.42,1.61,1.77,1.77,0,0,0,1.43.57,2.55,2.55,0,0,0,1.45-.44v2.16a3.85,3.85,0,0,1-.79.26,5.86,5.86,0,0,1-1,.07A4,4,0,0,1,490.05,561.26Z"/><path class="cls-5" d="M497.29,560.73a5.45,5.45,0,0,1-2-2.56l2-.88a3.92,3.92,0,0,0,1.47,1.84,3.72,3.72,0,0,0,2.14.65,4.3,4.3,0,0,0,2.13-.5,1.62,1.62,0,0,0,.18-2.79,6.71,6.71,0,0,0-2.21-.87l-1.61-.41a5.84,5.84,0,0,1-2.6-1.33,3.34,3.34,0,0,1-.32-4.43,4.41,4.41,0,0,1,1.83-1.34,6.5,6.5,0,0,1,2.47-.47,6.36,6.36,0,0,1,3.11.75,4.29,4.29,0,0,1,1.93,2.11l-1.92.88a3.22,3.22,0,0,0-3.15-1.76,3.65,3.65,0,0,0-1.91.5,1.51,1.51,0,0,0-.82,1.29,1.41,1.41,0,0,0,.58,1.18,4.42,4.42,0,0,0,1.71.74l1.93.5a6.25,6.25,0,0,1,2.93,1.47,3.21,3.21,0,0,1,1,2.38,3.42,3.42,0,0,1-.7,2.14,4.44,4.44,0,0,1-1.9,1.42,6.87,6.87,0,0,1-2.65.49A6,6,0,0,1,497.29,560.73Z"/><path class="cls-5" d="M575.12,560.43a9.3,9.3,0,0,1-3.43-3.53,10.19,10.19,0,0,1,0-9.78,9.49,9.49,0,0,1,16.59,0,10.19,10.19,0,0,1,0,9.78,9.61,9.61,0,0,1-13.16,3.53Zm8.54-1.78a7.09,7.09,0,0,0,2.65-2.7,8.41,8.41,0,0,0,0-7.88,7.32,7.32,0,0,0-10-2.7,7.16,7.16,0,0,0-2.65,2.7,8.49,8.49,0,0,0,0,7.88,7.32,7.32,0,0,0,10,2.7Z"/><path class="cls-5" d="M593.49,560.33a5.69,5.69,0,0,1-1.26-3.93v-8.34h2.21v8a3.9,3.9,0,0,0,.86,2.79,3.06,3.06,0,0,0,2.31.88,3.41,3.41,0,0,0,2-.6,4.08,4.08,0,0,0,1.35-1.56,4.46,4.46,0,0,0,.48-2v-7.48h2.21v13.26h-2.1v-1.93h-.11a4.32,4.32,0,0,1-1.74,1.67,5.12,5.12,0,0,1-2.55.67A4.67,4.67,0,0,1,593.49,560.33Z"/><path class="cls-5" d="M610.65,561.47a3.46,3.46,0,0,1-1.16-.72,3.69,3.69,0,0,1-1-2.78v-7.91h-2.31v-2h2.31v-3.75h2.21v3.75h3.25v2h-3.25v7.39a2.62,2.62,0,0,0,.42,1.64,1.76,1.76,0,0,0,1.43.59,2.53,2.53,0,0,0,1.45-.44v2.15a2.82,2.82,0,0,1-.79.26,4.9,4.9,0,0,1-1,.08A4.3,4.3,0,0,1,610.65,561.47Z"/><path class="cls-5" d="M616.69,542.7h2.21v18.62h-2.21Z"/><path class="cls-5" d="M624.55,560.82a6.28,6.28,0,0,1-2.36-2.51,7.59,7.59,0,0,1-.84-3.6,7.9,7.9,0,0,1,.79-3.52,6.39,6.39,0,0,1,2.26-2.59,6,6,0,0,1,3.37-1,6.37,6.37,0,0,1,3.38.87,5.77,5.77,0,0,1,2.2,2.41,7.74,7.74,0,0,1,.76,3.51,4.07,4.07,0,0,1-.05.67h-10.5a5.14,5.14,0,0,0,.73,2.55,4.25,4.25,0,0,0,1.65,1.56,4.4,4.4,0,0,0,2.09.52,4.26,4.26,0,0,0,3.93-2.39l1.87.91a6.58,6.58,0,0,1-2.32,2.53,7,7,0,0,1-7,0Zm7.22-7.54a4.32,4.32,0,0,0-.46-1.66,3.71,3.71,0,0,0-1.3-1.41,4.07,4.07,0,0,0-2.24-.57,3.81,3.81,0,0,0-2.65,1,4.75,4.75,0,0,0-1.43,2.64Z"/><path class="cls-5" d="M639.9,561.47a3.46,3.46,0,0,1-1.16-.72,3.69,3.69,0,0,1-1-2.78v-7.91h-2.31v-2h2.31v-3.75h2.21v3.75h3.25v2h-3.25v7.39a2.62,2.62,0,0,0,.42,1.64,1.76,1.76,0,0,0,1.43.59,2.55,2.55,0,0,0,1.45-.44v2.15a2.93,2.93,0,0,1-.79.26,4.94,4.94,0,0,1-1,.08A4.28,4.28,0,0,1,639.9,561.47Z"/><rect class="cls-5" x="120.54" y="585.46" width="171.9" height="4.95"/><rect class="cls-10" x="120.54" y="590.68" width="573.91" height="53.32"/><rect class="cls-1" x="0.26" width="814.74" height="644"/><rect class="cls-11" y="643" width="815" height="1"/></svg>