<svg id="Layer_1" data-name="Layer 1" xmlns="http://www.w3.org/2000/svg" viewBox="0 0 815 644"><defs><style>.cls-1{fill:#294058;}.cls-2{fill:#dddbdc;opacity:0.2;}.cls-3{fill:#13202f;}.cls-4{fill:#1e3044;}.cls-5{fill:#546679;}.cls-6{fill:#4c87f1;}</style></defs><rect class="cls-1" width="815" height="644"/><path class="cls-2" d="M815,29.09v-1H780.73V0h-1V28.09h-52.1V0h-1V28.09h-52.1V0h-1V28.09h-52.1V0h-1V28.09h-52.1V0h-1V28.09h-52.1V0h-1V28.09h-52.1V0h-1V28.09H409V0h-1V28.09h-52.1V0h-1V28.09h-52.1V0h-1V28.09h-52.1V0h-1V28.09h-52.1V0h-1V28.09h-52.1V0h-1V28.09H90.43V0h-1V28.09H37.33V0h-1V28.09H0v1H36.33v52.1H0v1H36.33v52.1H0v1H36.33v52.1H0v1H36.33v52.1H0v1H36.33v52.1H0v1H36.33v52.1H0v1H36.33v52.1H0v1H36.33v52.1H0v1H36.33V506H0v1H36.33v52.1H0v1H36.33v52.1H0v1H36.33V644h1V613.19h52.1V644h1V613.19h52.1V644h1V613.19h52.1V644h1V613.19h52.1V644h1V613.19h52.1V644h1V613.19h52.1V644h1V613.19H408V644h1V613.19h52.1V644h1V613.19h52.1V644h1V613.19h52.1V644h1V613.19h52.1V644h1V613.19h52.1V644h1V613.19h52.1V644h1V613.19h52.1V644h1V613.19H815v-1H780.73v-52.1H815v-1H780.73V507H815v-1H780.73v-52.1H815v-1H780.73v-52.1H815v-1H780.73v-52.1H815v-1H780.73v-52.1H815v-1H780.73v-52.1H815v-1H780.73v-52.1H815v-1H780.73v-52.1H815v-1H780.73V82.19H815v-1H780.73V29.09Zm-88.37,0v52.1h-52.1V29.09Zm-370.7,265.5H408v52.1h-52.1Zm-1,52.1h-52.1v-52.1h52.1Zm54.1-52.1h52.1v52.1H409Zm53.1,0h52.1v52.1h-52.1Zm0-1v-52.1h52.1v52.1Zm-1,0H409v-52.1h52.1Zm-53.1,0h-52.1v-52.1H408Zm-53.1,0h-52.1v-52.1h52.1Zm-53.1,0h-52.1v-52.1h52.1Zm0,1v52.1h-52.1v-52.1Zm0,53.1v52.1h-52.1v-52.1Zm1,0h52.1v52.1h-52.1Zm53.1,0H408v52.1h-52.1Zm53.1,0h52.1v52.1H409Zm53.1,0h52.1v52.1h-52.1Zm53.1,0h52.1v52.1h-52.1Zm0-1v-52.1h52.1v52.1Zm0-53.1v-52.1h52.1v52.1Zm0-53.1v-52.1h52.1v52.1Zm-1,0h-52.1v-52.1h52.1Zm-53.1,0H409v-52.1h52.1Zm-53.1,0h-52.1v-52.1H408Zm-53.1,0h-52.1v-52.1h52.1Zm-53.1,0h-52.1v-52.1h52.1Zm-53.1,0h-52.1v-52.1h52.1Zm0,1v52.1h-52.1v-52.1Zm0,53.1v52.1h-52.1v-52.1Zm0,53.1v52.1h-52.1v-52.1Zm0,53.1v52.1h-52.1v-52.1Zm1,0h52.1v52.1h-52.1Zm53.1,0h52.1v52.1h-52.1Zm53.1,0H408v52.1h-52.1Zm53.1,0h52.1v52.1H409Zm53.1,0h52.1v52.1h-52.1Zm53.1,0h52.1v52.1h-52.1Zm53.1,0h52.1v52.1h-52.1Zm0-1v-52.1h52.1v52.1Zm0-53.1v-52.1h52.1v52.1Zm0-53.1v-52.1h52.1v52.1Zm0-53.1v-52.1h52.1v52.1Zm0-53.1v-52.1h52.1v52.1Zm-1,0h-52.1v-52.1h52.1Zm-53.1,0h-52.1v-52.1h52.1Zm-53.1,0H409v-52.1h52.1Zm-53.1,0h-52.1v-52.1H408Zm-53.1,0h-52.1v-52.1h52.1Zm-53.1,0h-52.1v-52.1h52.1Zm-53.1,0h-52.1v-52.1h52.1Zm-53.1,0h-52.1v-52.1h52.1Zm0,1v52.1h-52.1v-52.1Zm0,53.1v52.1h-52.1v-52.1Zm0,53.1v52.1h-52.1v-52.1Zm0,53.1v52.1h-52.1v-52.1Zm0,53.1v52.1h-52.1v-52.1Zm0,53.1V506h-52.1v-52.1Zm1,0h52.1V506h-52.1Zm53.1,0h52.1V506h-52.1Zm53.1,0h52.1V506h-52.1Zm53.1,0H408V506h-52.1Zm53.1,0h52.1V506H409Zm53.1,0h52.1V506h-52.1Zm53.1,0h52.1V506h-52.1Zm53.1,0h52.1V506h-52.1Zm53.1,0h52.1V506h-52.1Zm0-1v-52.1h52.1v52.1Zm0-53.1v-52.1h52.1v52.1Zm0-53.1v-52.1h52.1v52.1Zm0-53.1v-52.1h52.1v52.1Zm0-53.1v-52.1h52.1v52.1Zm0-53.1v-52.1h52.1v52.1Zm0-53.1V82.19h52.1v52.1Zm-1,0h-52.1V82.19h52.1Zm-53.1,0h-52.1V82.19h52.1Zm-53.1,0h-52.1V82.19h52.1Zm-53.1,0H409V82.19h52.1Zm-53.1,0h-52.1V82.19H408Zm-53.1,0h-52.1V82.19h52.1Zm-53.1,0h-52.1V82.19h52.1Zm-53.1,0h-52.1V82.19h52.1Zm-53.1,0h-52.1V82.19h52.1Zm-53.1,0H90.43V82.19h52.1Zm0,1v52.1H90.43v-52.1Zm0,53.1v52.1H90.43v-52.1Zm0,53.1v52.1H90.43v-52.1Zm0,53.1v52.1H90.43v-52.1Zm0,53.1v52.1H90.43v-52.1Zm0,53.1v52.1H90.43v-52.1Zm0,53.1V506H90.43v-52.1Zm0,53.1v52.1H90.43V507Zm1,0h52.1v52.1h-52.1Zm53.1,0h52.1v52.1h-52.1Zm53.1,0h52.1v52.1h-52.1Zm53.1,0h52.1v52.1h-52.1Zm53.1,0H408v52.1h-52.1Zm53.1,0h52.1v52.1H409Zm53.1,0h52.1v52.1h-52.1Zm53.1,0h52.1v52.1h-52.1Zm53.1,0h52.1v52.1h-52.1Zm53.1,0h52.1v52.1h-52.1Zm53.1,0h52.1v52.1h-52.1Zm0-1v-52.1h52.1V506Zm0-53.1v-52.1h52.1v52.1Zm0-53.1v-52.1h52.1v52.1Zm0-53.1v-52.1h52.1v52.1Zm0-53.1v-52.1h52.1v52.1Zm0-53.1v-52.1h52.1v52.1Zm0-53.1v-52.1h52.1v52.1Zm0-53.1V82.19h52.1v52.1Zm-1-105.2v52.1h-52.1V29.09Zm-53.1,0v52.1h-52.1V29.09Zm-53.1,0v52.1h-52.1V29.09Zm-53.1,0v52.1h-52.1V29.09Zm-53.1,0v52.1H409V29.09Zm-53.1,0v52.1h-52.1V29.09Zm-53.1,0v52.1h-52.1V29.09Zm-53.1,0v52.1h-52.1V29.09Zm-53.1,0v52.1h-52.1V29.09Zm-53.1,0v52.1h-52.1V29.09Zm-53.1,0v52.1H90.43V29.09Zm-105.2,0h52.1v52.1H37.33Zm0,53.1h52.1v52.1H37.33Zm0,53.1h52.1v52.1H37.33Zm0,53.1h52.1v52.1H37.33Zm0,53.1h52.1v52.1H37.33Zm0,53.1h52.1v52.1H37.33Zm0,53.1h52.1v52.1H37.33Zm0,53.1h52.1v52.1H37.33Zm0,53.1h52.1V506H37.33Zm0,53.1h52.1v52.1H37.33Zm0,105.2v-52.1h52.1v52.1Zm53.1,0v-52.1h52.1v52.1Zm53.1,0v-52.1h52.1v52.1Zm53.1,0v-52.1h52.1v52.1Zm53.1,0v-52.1h52.1v52.1Zm53.1,0v-52.1h52.1v52.1Zm53.1,0v-52.1H408v52.1Zm53.1,0v-52.1h52.1v52.1Zm53.1,0v-52.1h52.1v52.1Zm53.1,0v-52.1h52.1v52.1Zm53.1,0v-52.1h52.1v52.1Zm53.1,0v-52.1h52.1v52.1Zm53.1,0v-52.1h52.1v52.1Zm105.2,0h-52.1v-52.1h52.1Zm0-53.1h-52.1V507h52.1Zm0-53.1h-52.1v-52.1h52.1Zm0-53.1h-52.1v-52.1h52.1Zm0-53.1h-52.1v-52.1h52.1Zm0-53.1h-52.1v-52.1h52.1Zm0-53.1h-52.1v-52.1h52.1Zm0-53.1h-52.1v-52.1h52.1Zm0-53.1h-52.1v-52.1h52.1Zm0-53.1h-52.1V82.19h52.1Zm0-53.1h-52.1V29.09h52.1Z"/><path class="cls-3" d="M745.24,105.46H0V644H755.61V115.84A10.37,10.37,0,0,0,745.24,105.46Z"/><rect class="cls-4" y="179.74" width="755.61" height="99.21"/><path class="cls-5" d="M2.29,361.54a8.55,8.55,0,0,1,.29-2.22,6,6,0,0,1,.87-1.9,4.41,4.41,0,0,1,1.44-1.31,4.09,4.09,0,0,1,2-.48,4.06,4.06,0,0,1,3.45,1.79V351h1.28v16.5h-1.2L10.39,366a4.08,4.08,0,0,1-1.5,1.28,4.38,4.38,0,0,1-2,.45,3.94,3.94,0,0,1-2-.5,4.33,4.33,0,0,1-1.44-1.32A6.07,6.07,0,0,1,2.58,364a8.57,8.57,0,0,1-.29-2.2Zm1.3.23a8.41,8.41,0,0,0,.19,1.73A5,5,0,0,0,4.39,365a3.28,3.28,0,0,0,1.09,1.1,3.1,3.1,0,0,0,1.66.42,3.82,3.82,0,0,0,1-.14,3.55,3.55,0,0,0,.91-.4,4,4,0,0,0,.74-.63,3.69,3.69,0,0,0,.55-.84v-5.63a4.12,4.12,0,0,0-.53-.88,3.37,3.37,0,0,0-.73-.68,3.19,3.19,0,0,0-.9-.46,3.6,3.6,0,0,0-1.05-.16,3.05,3.05,0,0,0-1.67.43,3.5,3.5,0,0,0-1.1,1.1,5.07,5.07,0,0,0-.61,1.55,8.31,8.31,0,0,0-.19,1.72Z"/><path class="cls-5" d="M38.46,358.74H28.88V357.6h9.58Zm0,4.42H28.88V362h9.58Z"/><path class="cls-5" d="M63.29,365.65a4.2,4.2,0,0,1-1.53,1.49,4.51,4.51,0,0,1-2.25.54,4.31,4.31,0,0,1-1.71-.31,3.12,3.12,0,0,1-1.23-.92A4.11,4.11,0,0,1,55.8,365a7,7,0,0,1-.26-2v-7.16h1.28V363a4.38,4.38,0,0,0,.71,2.65,2.51,2.51,0,0,0,2.13.9,3.89,3.89,0,0,0,2.35-.66,3.52,3.52,0,0,0,1.26-1.81l0-8.26h1.3v11.62h-1.2Z"/><path class="cls-5" d="M78.09,361.77a9,9,0,0,1-.27,2.2,6.25,6.25,0,0,1-.84,1.89,4.3,4.3,0,0,1-1.43,1.32,4,4,0,0,1-2,.5,4.62,4.62,0,0,1-2-.42A4,4,0,0,1,70,366.05v5.88H68.72V355.84h1.21l0,1.59a4.32,4.32,0,0,1,1.5-1.33,4.6,4.6,0,0,1,4.07,0A4.28,4.28,0,0,1,77,357.42a6,6,0,0,1,.84,1.9,9,9,0,0,1,.27,2.22Zm-1.29-.23a7.68,7.68,0,0,0-.19-1.72,4.86,4.86,0,0,0-.63-1.55,3.34,3.34,0,0,0-1.11-1.1,3,3,0,0,0-1.67-.43,3.3,3.3,0,0,0-1,.16,3.21,3.21,0,0,0-.89.44,3.31,3.31,0,0,0-.72.68,4,4,0,0,0-.53.86v5.76a3.5,3.5,0,0,0,1.29,1.43,3.54,3.54,0,0,0,1.92.52,3,3,0,0,0,1.66-.43A3.27,3.27,0,0,0,76,365.05a5,5,0,0,0,.62-1.55,7.77,7.77,0,0,0,.19-1.73Z"/><path class="cls-5" d="M81.51,361.54a8.15,8.15,0,0,1,.29-2.22,6,6,0,0,1,.86-1.9,4.41,4.41,0,0,1,1.44-1.31,4.16,4.16,0,0,1,2-.48,4,4,0,0,1,3.44,1.79V351h1.28v16.5h-1.2l0-1.51a4,4,0,0,1-1.51,1.28,4.35,4.35,0,0,1-2,.45,4,4,0,0,1-2-.5,4.33,4.33,0,0,1-1.44-1.32A6,6,0,0,1,81.8,364a8.16,8.16,0,0,1-.29-2.2Zm1.3.23A8.4,8.4,0,0,0,83,363.5,5,5,0,0,0,83.6,365a3.22,3.22,0,0,0,1.1,1.1,3.06,3.06,0,0,0,1.65.42,3.9,3.9,0,0,0,1-.14,3.64,3.64,0,0,0,.9-.4,4,4,0,0,0,.74-.63,3.69,3.69,0,0,0,.55-.84v-5.63a4.12,4.12,0,0,0-.53-.88,3.57,3.57,0,0,0-.72-.68,3.39,3.39,0,0,0-.91-.46,3.55,3.55,0,0,0-1-.16,3,3,0,0,0-1.66.43,3.4,3.4,0,0,0-1.1,1.1,4.84,4.84,0,0,0-.62,1.55,8.3,8.3,0,0,0-.18,1.72Z"/><path class="cls-5" d="M103.09,367.46a5.09,5.09,0,0,1-.19-.79,8.46,8.46,0,0,1-.08-.88,4.64,4.64,0,0,1-.78.75,5.18,5.18,0,0,1-1,.6,5.48,5.48,0,0,1-1.12.39,5.18,5.18,0,0,1-1.26.15,4.7,4.7,0,0,1-1.52-.24,3.77,3.77,0,0,1-1.22-.66,3,3,0,0,1-1.11-2.4,3.07,3.07,0,0,1,.44-1.7,3.4,3.4,0,0,1,1.19-1.13,5.87,5.87,0,0,1,1.74-.64,10.69,10.69,0,0,1,2.07-.2h2.52v-1.32a2.79,2.79,0,0,0-.26-1.16,2.62,2.62,0,0,0-.67-.84,3.1,3.1,0,0,0-1-.51,4.7,4.7,0,0,0-1.27-.17,4.17,4.17,0,0,0-1.19.16,3.4,3.4,0,0,0-1,.46,2.35,2.35,0,0,0-.7.74,1.94,1.94,0,0,0-.29,1H95.13a2.9,2.9,0,0,1,.39-1.36,3.44,3.44,0,0,1,1-1.08,4.86,4.86,0,0,1,1.42-.72,5.76,5.76,0,0,1,1.74-.25,6.4,6.4,0,0,1,1.73.23,4.25,4.25,0,0,1,1.41.71,3.54,3.54,0,0,1,.95,1.18,3.94,3.94,0,0,1,.36,1.66V365a6.77,6.77,0,0,0,.1,1.17c.07.39.15.77.25,1.12v.13Zm-4.25-.92a4.63,4.63,0,0,0,1.3-.16,5,5,0,0,0,1.13-.48,3.84,3.84,0,0,0,.91-.73,3.19,3.19,0,0,0,.63-.93V361.7h-2.34a10.91,10.91,0,0,0-1.64.12,5,5,0,0,0-1.38.43,2.59,2.59,0,0,0-1,.79,2,2,0,0,0-.36,1.23,2,2,0,0,0,.79,1.66,2.43,2.43,0,0,0,.86.45A3.32,3.32,0,0,0,98.84,366.54Z"/><path class="cls-5" d="M112.58,352.87v3h4.31v1.05h-4.31v7.32a3,3,0,0,0,.21,1.12,1.8,1.8,0,0,0,.54.72,2.09,2.09,0,0,0,.79.39,4,4,0,0,0,1,.12,8.33,8.33,0,0,0,1.1-.07l1-.15.19,1a4.35,4.35,0,0,1-1.12.28,10.24,10.24,0,0,1-1.36.09,5,5,0,0,1-1.43-.19,2.86,2.86,0,0,1-1.13-.6,2.91,2.91,0,0,1-.77-1.07,4.51,4.51,0,0,1-.29-1.62v-7.31H108v-1.05h3.23v-3Z"/><path class="cls-5" d="M126.46,367.68a5.29,5.29,0,0,1-2.21-.45,5.2,5.2,0,0,1-1.72-1.23,5.53,5.53,0,0,1-1.1-1.81,6.18,6.18,0,0,1-.4-2.2v-.47a6.54,6.54,0,0,1,.41-2.32,6.2,6.2,0,0,1,1.1-1.87,5.26,5.26,0,0,1,1.64-1.25,4.67,4.67,0,0,1,2-.45,5,5,0,0,1,2.06.41,4.49,4.49,0,0,1,1.5,1.15,5.11,5.11,0,0,1,.92,1.69A7,7,0,0,1,131,361v.79h-8.7V362a5.1,5.1,0,0,0,.31,1.74,4.57,4.57,0,0,0,.85,1.47,4,4,0,0,0,1.32,1,3.72,3.72,0,0,0,1.72.38,4.4,4.4,0,0,0,1.94-.39,4.15,4.15,0,0,0,1.48-1.19l.82.62a5,5,0,0,1-.76.83,5.13,5.13,0,0,1-1,.65,5.31,5.31,0,0,1-1.18.42A6.06,6.06,0,0,1,126.46,367.68Zm-.25-11a3.51,3.51,0,0,0-2.58,1.12,4.32,4.32,0,0,0-.82,1.24,5.62,5.62,0,0,0-.44,1.56h7.36v-.14a4.82,4.82,0,0,0-.27-1.4,4,4,0,0,0-.68-1.21,3.52,3.52,0,0,0-1.09-.85A3.32,3.32,0,0,0,126.21,356.72Z"/><path class="cls-5" d="M134.31,361.54a8.55,8.55,0,0,1,.29-2.22,6.25,6.25,0,0,1,.87-1.9,4.41,4.41,0,0,1,1.44-1.31,4.19,4.19,0,0,1,5.48,1.31V351h1.28v16.5h-1.2l-.06-1.51a4,4,0,0,1-1.5,1.28,4.35,4.35,0,0,1-2,.45,4,4,0,0,1-2-.5,4.33,4.33,0,0,1-1.44-1.32,6.3,6.3,0,0,1-.87-1.89,8.57,8.57,0,0,1-.29-2.2Zm1.3.23a8.41,8.41,0,0,0,.19,1.73,5,5,0,0,0,.61,1.54,3.28,3.28,0,0,0,1.09,1.1,3.12,3.12,0,0,0,1.66.42,4,4,0,0,0,1-.14,3.64,3.64,0,0,0,.9-.4,4,4,0,0,0,.74-.63,3.69,3.69,0,0,0,.55-.84v-5.63a4.12,4.12,0,0,0-.53-.88,3.57,3.57,0,0,0-.72-.68,3.39,3.39,0,0,0-.91-.46,3.6,3.6,0,0,0-1-.16,3,3,0,0,0-1.66.43,3.43,3.43,0,0,0-1.11,1.1,5.07,5.07,0,0,0-.61,1.55,8.31,8.31,0,0,0-.19,1.72Z"/><path class="cls-5" d="M151.65,366.55a1.08,1.08,0,0,1,.3-.77,1,1,0,0,1,.8-.31,1,1,0,0,1,1.1,1.08,1,1,0,0,1-.29.75,1.13,1.13,0,0,1-.81.29,1.09,1.09,0,0,1-.8-.29A1,1,0,0,1,151.65,366.55Z"/><path class="cls-5" d="M170.08,356.89h-4.63l0,10.57h-1.34l0-10.57H161v-1.05h3.18v-.92a4.94,4.94,0,0,1,.37-2,3.51,3.51,0,0,1,1-1.33,3.93,3.93,0,0,1,1.44-.73,6.68,6.68,0,0,1,1.76-.22,9.14,9.14,0,0,1,1.19.08c.39.05.78.12,1.18.21l-.16,1.1a8.28,8.28,0,0,0-1-.2,8,8,0,0,0-1.11-.07,5.47,5.47,0,0,0-1.31.15,2.87,2.87,0,0,0-1.07.51,2.51,2.51,0,0,0-.73,1,3.83,3.83,0,0,0-.27,1.54v.92h4.63Z"/><path class="cls-5" d="M174.62,355.84H180v10.49h4v1.13h-9.34v-1.13h4.1V357h-4.1Zm3.73-3.18a1.12,1.12,0,0,1,.22-.69,1.11,1.11,0,0,1,1.5,0,1.12,1.12,0,0,1,.23.69,1,1,0,0,1-.23.66,1.11,1.11,0,0,1-1.5,0A1,1,0,0,1,178.35,352.66Z"/><path class="cls-5" d="M195.21,355.63c.32,0,.65,0,1,.05a4.24,4.24,0,0,1,.8.17l-.16,1.24a9.17,9.17,0,0,0-1.82-.21,4.76,4.76,0,0,0-2.77.78,4.1,4.1,0,0,0-1.61,2.37l0,7.43H189.3V355.84h1.24l.08,2v.24a5.18,5.18,0,0,1,1.88-1.81A5.44,5.44,0,0,1,195.21,355.63Z"/><path class="cls-5" d="M208.83,364.51a1.59,1.59,0,0,0-.27-.93,2.31,2.31,0,0,0-.73-.69,4.45,4.45,0,0,0-1.08-.47,11.73,11.73,0,0,0-1.3-.34,16,16,0,0,1-1.62-.41,6,6,0,0,1-1.4-.62,3.21,3.21,0,0,1-1-.92,2.35,2.35,0,0,1-.36-1.34,2.46,2.46,0,0,1,.37-1.34,3.49,3.49,0,0,1,1-1,5.09,5.09,0,0,1,1.4-.62,6.64,6.64,0,0,1,1.61-.2,6.31,6.31,0,0,1,1.77.23,4.66,4.66,0,0,1,1.44.67,3.4,3.4,0,0,1,1,1.09,3.22,3.22,0,0,1,.4,1.48h-1.29a2.13,2.13,0,0,0-.3-1,2.52,2.52,0,0,0-.74-.75,3.84,3.84,0,0,0-1.05-.46,4.9,4.9,0,0,0-1.21-.16,5.29,5.29,0,0,0-1.13.12,3.64,3.64,0,0,0-1,.38,2.25,2.25,0,0,0-.7.63,1.54,1.54,0,0,0-.26.9,1.45,1.45,0,0,0,.25.92,2,2,0,0,0,.71.62,4.69,4.69,0,0,0,1.06.42c.41.11.84.22,1.3.31a17.19,17.19,0,0,1,1.68.44,6.57,6.57,0,0,1,1.41.66,3.07,3.07,0,0,1,1,1,2.82,2.82,0,0,1,0,2.79,3.42,3.42,0,0,1-1,1,4.77,4.77,0,0,1-1.46.6,7.32,7.32,0,0,1-1.7.2,6.87,6.87,0,0,1-1.84-.24,4.9,4.9,0,0,1-1.52-.68,3.55,3.55,0,0,1-1.06-1.09,2.9,2.9,0,0,1-.43-1.46H202a2.2,2.2,0,0,0,.41,1.15,2.62,2.62,0,0,0,.86.73,3.49,3.49,0,0,0,1.11.39,6,6,0,0,0,1.18.11,5.83,5.83,0,0,0,1.18-.12,3.73,3.73,0,0,0,1-.38,2.2,2.2,0,0,0,.77-.64A1.55,1.55,0,0,0,208.83,364.51Z"/><path class="cls-5" d="M218.21,352.87v3h4.31v1.05h-4.31v7.32a3,3,0,0,0,.21,1.12,1.8,1.8,0,0,0,.54.72,2.09,2.09,0,0,0,.79.39,4,4,0,0,0,1,.12,8.44,8.44,0,0,0,1.1-.07l1-.15.19,1a4.44,4.44,0,0,1-1.13.28,10,10,0,0,1-1.35.09,5,5,0,0,1-1.43-.19,2.9,2.9,0,0,1-1.14-.6,3,3,0,0,1-.76-1.07,4.3,4.3,0,0,1-.29-1.62v-7.31h-3.23v-1.05h3.23v-3Z"/><path class="cls-5" d="M2.31,399.54a9,9,0,0,1,.28-2.22,5.79,5.79,0,0,1,.86-1.9,4.41,4.41,0,0,1,1.44-1.31,4.13,4.13,0,0,1,2-.48,4.26,4.26,0,0,1,2,.47,4.12,4.12,0,0,1,1.47,1.35l.06-1.61h1.2v11.42a6,6,0,0,1-.33,1.95,4.5,4.5,0,0,1-.93,1.54,4.33,4.33,0,0,1-1.47,1,5,5,0,0,1-1.93.35A5.91,5.91,0,0,1,5.93,410a5,5,0,0,1-1.09-.37,5.22,5.22,0,0,1-1-.62,4,4,0,0,1-.85-.88l.72-.78A4.1,4.1,0,0,0,6.92,409a3.78,3.78,0,0,0,1.47-.27A2.9,2.9,0,0,0,9.47,408a3.2,3.2,0,0,0,.67-1.17,5,5,0,0,0,.24-1.5V404a4.09,4.09,0,0,1-1.5,1.25,4.42,4.42,0,0,1-2,.44,4,4,0,0,1-2-.5,4.33,4.33,0,0,1-1.44-1.32A6,6,0,0,1,2.6,402a8.57,8.57,0,0,1-.29-2.2Zm1.29.23a8.41,8.41,0,0,0,.19,1.73A5,5,0,0,0,4.4,403a3.28,3.28,0,0,0,1.09,1.1,3.12,3.12,0,0,0,1.66.42,4,4,0,0,0,1-.14A3.59,3.59,0,0,0,9.1,404a3.49,3.49,0,0,0,.74-.65,3.41,3.41,0,0,0,.54-.85V397a4.33,4.33,0,0,0-.52-.89,3.46,3.46,0,0,0-.72-.71,3.39,3.39,0,0,0-.91-.46,3.32,3.32,0,0,0-1.06-.17,3.05,3.05,0,0,0-1.67.43,3.5,3.5,0,0,0-1.1,1.1,5.07,5.07,0,0,0-.61,1.55,8.31,8.31,0,0,0-.19,1.72Z"/><path class="cls-5" d="M17.9,399.15a17.38,17.38,0,0,1,1.4-6.81,12.3,12.3,0,0,1,1.54-2.62,7.46,7.46,0,0,1,1.92-1.79l.31.87a6.61,6.61,0,0,0-1.63,1.73A10.91,10.91,0,0,0,20.22,393a16,16,0,0,0-.77,2.92,20.12,20.12,0,0,0-.26,3.23v.21a20.08,20.08,0,0,0,.26,3.22,16.1,16.1,0,0,0,.77,2.93,10.91,10.91,0,0,0,1.22,2.44,6.8,6.8,0,0,0,1.63,1.77l-.31.82a7.34,7.34,0,0,1-1.93-1.79,12.22,12.22,0,0,1-1.54-2.61,16.76,16.76,0,0,1-1-3.21,17.55,17.55,0,0,1-.37-3.59Z"/><path class="cls-5" d="M6.43,442.55a1.12,1.12,0,0,1,.29-.77,1.05,1.05,0,0,1,.8-.31,1.07,1.07,0,0,1,.82.31,1.12,1.12,0,0,1,.29.77,1.05,1.05,0,0,1-.29.75,1.14,1.14,0,0,1-.82.29,1.12,1.12,0,0,1-.8-.29A1.05,1.05,0,0,1,6.43,442.55Z"/><path class="cls-5" d="M20.17,428.87v3h4.31v1.05H20.17v7.32a2.63,2.63,0,0,0,.21,1.12,1.88,1.88,0,0,0,.53.72,2.14,2.14,0,0,0,.8.39,3.84,3.84,0,0,0,1,.12,8.23,8.23,0,0,0,1.1-.07l1-.15.19,1a4.44,4.44,0,0,1-1.13.28,10,10,0,0,1-1.35.09,5,5,0,0,1-1.43-.19,2.84,2.84,0,0,1-1.14-.6,2.89,2.89,0,0,1-.76-1.07,4.12,4.12,0,0,1-.29-1.62v-7.31H15.62v-1.05h3.24v-3Z"/><path class="cls-5" d="M28.42,437.48a7.15,7.15,0,0,1,.36-2.24,5.93,5.93,0,0,1,1-1.87,5.11,5.11,0,0,1,6-1.27,5,5,0,0,1,1.63,1.27,5.93,5.93,0,0,1,1,1.87,6.87,6.87,0,0,1,.36,2.24v.35a7.26,7.26,0,0,1-.35,2.25,5.77,5.77,0,0,1-1,1.86,4.7,4.7,0,0,1-1.62,1.27,5.31,5.31,0,0,1-4.37,0,4.83,4.83,0,0,1-1.63-1.27,5.77,5.77,0,0,1-1-1.86,7.26,7.26,0,0,1-.36-2.25Zm1.29.35a6.29,6.29,0,0,0,.25,1.79,5,5,0,0,0,.76,1.52,3.78,3.78,0,0,0,1.22,1.06,3.79,3.79,0,0,0,3.35,0,3.74,3.74,0,0,0,1.21-1.06,4.8,4.8,0,0,0,.75-1.52,6.3,6.3,0,0,0,.26-1.79v-.35a6.16,6.16,0,0,0-.26-1.77,4.7,4.7,0,0,0-.75-1.52,3.84,3.84,0,0,0-1.23-1.07,3.49,3.49,0,0,0-1.67-.4,3.44,3.44,0,0,0-1.67.4,3.81,3.81,0,0,0-1.22,1.07,4.91,4.91,0,0,0-.75,1.52,6.16,6.16,0,0,0-.25,1.77Z"/><path class="cls-5" d="M50.85,439.62a2.68,2.68,0,0,0-.17-1,2.44,2.44,0,0,0-.46-.78,3.58,3.58,0,0,0-.68-.61,6.12,6.12,0,0,0-.83-.47,8.88,8.88,0,0,0-.9-.36l-.89-.3-1.12-.38c-.37-.15-.74-.31-1.09-.49a6.72,6.72,0,0,1-1-.62,4.4,4.4,0,0,1-.82-.79,3.6,3.6,0,0,1-.54-1,3.72,3.72,0,0,1,.23-2.94,4.17,4.17,0,0,1,1.13-1.27,5.3,5.3,0,0,1,1.58-.78,6.27,6.27,0,0,1,1.77-.26,5.5,5.5,0,0,1,1.9.33,4.84,4.84,0,0,1,1.58.91,4.43,4.43,0,0,1,1.09,1.44,4.59,4.59,0,0,1,.44,1.87h-1.3a4.66,4.66,0,0,0-.37-1.39,3.4,3.4,0,0,0-.78-1.08,3.53,3.53,0,0,0-1.13-.7,3.87,3.87,0,0,0-1.43-.25,5.21,5.21,0,0,0-1.3.17,3.69,3.69,0,0,0-1.15.54,3,3,0,0,0-.83.9,2.5,2.5,0,0,0-.31,1.28,2.31,2.31,0,0,0,.37,1.33,3.43,3.43,0,0,0,.94.92,6.1,6.1,0,0,0,1.25.63c.45.17.89.31,1.29.44s.77.24,1.15.39a8.15,8.15,0,0,1,1.13.51,7,7,0,0,1,1,.65,4,4,0,0,1,.82.82,3.6,3.6,0,0,1,.55,1,3.87,3.87,0,0,1,.2,1.26,3.47,3.47,0,0,1-.45,1.79,4,4,0,0,1-1.15,1.27,5.11,5.11,0,0,1-1.61.77,7.08,7.08,0,0,1-1.83.25,6.73,6.73,0,0,1-2-.3,5.59,5.59,0,0,1-1.72-.88,4.49,4.49,0,0,1-1.23-1.44,4.27,4.27,0,0,1-.51-1.95H43a4.26,4.26,0,0,0,.45,1.49,3.42,3.42,0,0,0,.9,1.09,3.86,3.86,0,0,0,1.26.65,5.19,5.19,0,0,0,1.55.22,5.55,5.55,0,0,0,1.35-.17,3.67,3.67,0,0,0,1.19-.53,2.88,2.88,0,0,0,.85-.92A2.61,2.61,0,0,0,50.85,439.62Z"/><path class="cls-5" d="M59.77,428.87v3h4.31v1.05H59.77v7.32a3,3,0,0,0,.21,1.12,1.9,1.9,0,0,0,.54.72,2.14,2.14,0,0,0,.8.39,3.84,3.84,0,0,0,1,.12,8.33,8.33,0,0,0,1.1-.07l1-.15.2,1a4.55,4.55,0,0,1-1.13.28,10.24,10.24,0,0,1-1.36.09,4.93,4.93,0,0,1-1.42-.19,2.84,2.84,0,0,1-1.14-.6,2.91,2.91,0,0,1-.77-1.07,4.51,4.51,0,0,1-.29-1.62v-7.31H55.23v-1.05h3.23v-3Z"/><path class="cls-5" d="M76.38,431.63c.32,0,.65,0,1,.05a4.24,4.24,0,0,1,.8.17L78,433.09a9.17,9.17,0,0,0-1.82-.21,4.76,4.76,0,0,0-2.77.78A4.1,4.1,0,0,0,71.79,436l0,7.43H70.47V431.84h1.24l.08,2v.24a5.18,5.18,0,0,1,1.88-1.81A5.44,5.44,0,0,1,76.38,431.63Z"/><path class="cls-5" d="M82.19,431.84h5.4v10.49h4v1.13H82.19v-1.13H86.3V433H82.19Zm3.73-3.18a1.12,1.12,0,0,1,.23-.69,1.1,1.1,0,0,1,1.49,0,1.07,1.07,0,0,1,.24.69,1,1,0,0,1-.24.66,1.1,1.1,0,0,1-1.49,0A1,1,0,0,1,85.92,428.66Z"/><path class="cls-5" d="M96.28,431.84l.09,2.18A4.86,4.86,0,0,1,98,432.29a4.17,4.17,0,0,1,2.32-.66,3.71,3.71,0,0,1,2.92,1.14,4.83,4.83,0,0,1,1,3.25v7.44H103V436a3.75,3.75,0,0,0-.73-2.45,2.77,2.77,0,0,0-2.24-.85,3.33,3.33,0,0,0-1.18.21,3.55,3.55,0,0,0-1,.56,3.84,3.84,0,0,0-.83.83,4.78,4.78,0,0,0-.59,1.06v8.06H95.09V431.84Z"/><path class="cls-5" d="M107.93,437.54a8.55,8.55,0,0,1,.28-2.22,6,6,0,0,1,.85-1.9,4.62,4.62,0,0,1,1.44-1.31,4.17,4.17,0,0,1,2-.48,4.25,4.25,0,0,1,2,.47,4.15,4.15,0,0,1,1.48,1.35l0-1.61h1.21v11.42a5.78,5.78,0,0,1-.34,1.95,4.33,4.33,0,0,1-.92,1.54,4.43,4.43,0,0,1-1.47,1,5,5,0,0,1-1.93.35,5.82,5.82,0,0,1-1.08-.11,4.84,4.84,0,0,1-1.09-.37,5.22,5.22,0,0,1-1-.62,3.74,3.74,0,0,1-.85-.88l.72-.78a4.1,4.1,0,0,0,3.24,1.68,3.78,3.78,0,0,0,1.47-.27,2.9,2.9,0,0,0,1.08-.76,3.35,3.35,0,0,0,.67-1.17,5,5,0,0,0,.24-1.5V442a4.09,4.09,0,0,1-1.5,1.25,4.42,4.42,0,0,1-2,.44,4,4,0,0,1-2-.5,4.4,4.4,0,0,1-1.43-1.32,6,6,0,0,1-.85-1.89,8.57,8.57,0,0,1-.29-2.2Zm1.29.23a7.77,7.77,0,0,0,.19,1.73A4.77,4.77,0,0,0,110,441a3.19,3.19,0,0,0,1.09,1.1,3.08,3.08,0,0,0,1.66.42,4,4,0,0,0,1-.14,3.38,3.38,0,0,0,.9-.42,3.31,3.31,0,0,0,.75-.65,3.72,3.72,0,0,0,.54-.85V435a4,4,0,0,0-.53-.89,3.23,3.23,0,0,0-.72-.71,3.19,3.19,0,0,0-.9-.46,3.32,3.32,0,0,0-1.06-.17,3,3,0,0,0-1.67.43,3.4,3.4,0,0,0-1.1,1.1,4.83,4.83,0,0,0-.61,1.55,7.68,7.68,0,0,0-.19,1.72Z"/><path class="cls-5" d="M123.52,437.15a16.92,16.92,0,0,1,1.4-6.81,11.9,11.9,0,0,1,1.54-2.62,7.6,7.6,0,0,1,1.91-1.79l.32.87a6.81,6.81,0,0,0-1.64,1.73,11.83,11.83,0,0,0-1.22,2.44,16.84,16.84,0,0,0-.76,2.92,19,19,0,0,0-.26,3.23v.21a19,19,0,0,0,.26,3.22,17,17,0,0,0,.76,2.93,11.83,11.83,0,0,0,1.22,2.44,7,7,0,0,0,1.64,1.77l-.32.82a7.46,7.46,0,0,1-1.92-1.79,11.82,11.82,0,0,1-1.54-2.61,17.05,17.05,0,0,1-1.39-6.8Z"/><path class="cls-5" d="M141.47,437.31a17.05,17.05,0,0,1-1.39,6.8,12.22,12.22,0,0,1-1.54,2.61,7.34,7.34,0,0,1-1.93,1.79l-.31-.82a6.66,6.66,0,0,0,1.63-1.74,11.67,11.67,0,0,0,1.22-2.45,16.11,16.11,0,0,0,.77-2.95,20.08,20.08,0,0,0,.26-3.22v-.21a19.14,19.14,0,0,0-.27-3.24,18,18,0,0,0-.78-2.94,11.6,11.6,0,0,0-1.23-2.44,6.76,6.76,0,0,0-1.6-1.74l.31-.83a7.46,7.46,0,0,1,1.92,1.79,12.3,12.3,0,0,1,1.54,2.62,17.38,17.38,0,0,1,1.4,6.81Z"/><path class="cls-5" d="M152.29,443.09a4.31,4.31,0,0,1-.11.94,4.63,4.63,0,0,1-.29.94,4.91,4.91,0,0,1-.46.88,4.08,4.08,0,0,1-.65.78l-.81-.51a5.11,5.11,0,0,0,.94-3v-1.68h1.38Z"/><path class="cls-5" d="M10.67,481.46a4.18,4.18,0,0,1-.18-.79c0-.29-.07-.58-.09-.88a5,5,0,0,1-.77.75,5.18,5.18,0,0,1-1,.6,5.69,5.69,0,0,1-1.12.39,5.24,5.24,0,0,1-1.26.15,4.66,4.66,0,0,1-1.52-.24,3.82,3.82,0,0,1-1.23-.66,3.15,3.15,0,0,1-.81-1,3,3,0,0,1-.3-1.36,3.16,3.16,0,0,1,.44-1.7,3.43,3.43,0,0,1,1.2-1.13,5.87,5.87,0,0,1,1.74-.64,10.61,10.61,0,0,1,2.07-.2h2.51v-1.32a2.64,2.64,0,0,0-.26-1.16,2.38,2.38,0,0,0-.67-.84,3.1,3.1,0,0,0-1-.51,4.64,4.64,0,0,0-1.27-.17,4.27,4.27,0,0,0-1.19.16,3.53,3.53,0,0,0-1,.46,2.47,2.47,0,0,0-.7.74,2,2,0,0,0-.29,1H2.71a2.9,2.9,0,0,1,.39-1.36,3.47,3.47,0,0,1,1-1.08,4.74,4.74,0,0,1,1.42-.72,5.74,5.74,0,0,1,1.73-.25,6.48,6.48,0,0,1,1.74.23,4.25,4.25,0,0,1,1.41.71,3.51,3.51,0,0,1,.94,1.18,3.94,3.94,0,0,1,.36,1.66V479a6.77,6.77,0,0,0,.1,1.17c.07.39.16.77.26,1.12v.13Zm-4.24-.92a4.56,4.56,0,0,0,1.29-.16,5.27,5.27,0,0,0,1.14-.48,4.29,4.29,0,0,0,.91-.73,3.36,3.36,0,0,0,.62-.93V475.7H8.05a10.68,10.68,0,0,0-1.63.12,4.93,4.93,0,0,0-1.39.43,2.59,2.59,0,0,0-1,.79,2,2,0,0,0-.36,1.23,2.09,2.09,0,0,0,.8,1.66,2.35,2.35,0,0,0,.86.45A3.27,3.27,0,0,0,6.43,480.54Z"/><path class="cls-5" d="M20.21,471.14a1.08,1.08,0,0,1,.3-.77,1,1,0,0,1,.8-.31,1.06,1.06,0,0,1,.81.31,1.12,1.12,0,0,1,.29.77,1.05,1.05,0,0,1-.29.75,1.13,1.13,0,0,1-.81.29,1.09,1.09,0,0,1-.8-.29A1,1,0,0,1,20.21,471.14Zm0,9.41a1.08,1.08,0,0,1,.3-.77,1,1,0,0,1,.8-.31,1.06,1.06,0,0,1,.81.31,1.12,1.12,0,0,1,.29.77,1.05,1.05,0,0,1-.29.75,1.13,1.13,0,0,1-.81.29,1.09,1.09,0,0,1-.8-.29A1,1,0,0,1,20.21,480.55Z"/><path class="cls-5" d="M50.68,485.8a4.45,4.45,0,0,1-1.71-.61,4.38,4.38,0,0,1-1.22-1.12,4.83,4.83,0,0,1-.74-1.49,6.72,6.72,0,0,1-.26-1.74v-2.23a3,3,0,0,0-.76-2.23,3.19,3.19,0,0,0-2.22-.75v-.29h0v-.83a3.27,3.27,0,0,0,2.22-.74,2.94,2.94,0,0,0,.76-2.21V469.3a6.57,6.57,0,0,1,.25-1.73,4.74,4.74,0,0,1,.72-1.5,4.13,4.13,0,0,1,1.21-1.14,4.62,4.62,0,0,1,1.73-.62l.21.85a3.2,3.2,0,0,0-1.33.53,3,3,0,0,0-.87.93,4.2,4.2,0,0,0-.47,1.24A7.47,7.47,0,0,0,48,469.3v2.26a3.87,3.87,0,0,1-.65,2.23,3.35,3.35,0,0,1-1.86,1.29,3.42,3.42,0,0,1,1.86,1.3,3.89,3.89,0,0,1,.65,2.23v2.23a6,6,0,0,0,.19,1.44,4.05,4.05,0,0,0,.52,1.22,3.39,3.39,0,0,0,.89.92,3.27,3.27,0,0,0,1.25.52Z"/><path class="cls-5" d="M6.27,506.26a5.07,5.07,0,0,1,.09-.94,4.89,4.89,0,0,1,.29-.94,4.39,4.39,0,0,1,.47-.88,4,4,0,0,1,.64-.78l.74.54a5.54,5.54,0,0,0-.72,1.41,5.2,5.2,0,0,0-.26,1.56v1.36H6.27Z"/><path class="cls-5" d="M20.17,504.87v3h4.31v1.05H20.17v7.32a2.63,2.63,0,0,0,.21,1.12,1.88,1.88,0,0,0,.53.72,2.14,2.14,0,0,0,.8.39,3.84,3.84,0,0,0,1,.12,8.23,8.23,0,0,0,1.1-.07l1-.15.19,1a4.44,4.44,0,0,1-1.13.28,10,10,0,0,1-1.35.09,5,5,0,0,1-1.43-.19,2.84,2.84,0,0,1-1.14-.6,2.89,2.89,0,0,1-.76-1.07,4.12,4.12,0,0,1-.29-1.62v-7.31H15.62v-1.05h3.24v-3Z"/><path class="cls-5" d="M29.38,507.84h5.4v10.49h3.95v1.13H29.38v-1.13h4.11V509H29.38Zm3.73-3.18a1.12,1.12,0,0,1,.23-.69.9.9,0,0,1,.75-.29.93.93,0,0,1,.75.29,1.12,1.12,0,0,1,.23.69,1,1,0,0,1-.23.66.93.93,0,0,1-.75.29.9.9,0,0,1-.75-.29A1,1,0,0,1,33.11,504.66Z"/><path class="cls-5" d="M46.57,504.87v3h4.31v1.05H46.57v7.32a3,3,0,0,0,.21,1.12,1.8,1.8,0,0,0,.54.72,2.09,2.09,0,0,0,.79.39,4,4,0,0,0,1,.12,8.44,8.44,0,0,0,1.1-.07l1-.15.19,1a4.46,4.46,0,0,1-1.12.28,10.24,10.24,0,0,1-1.36.09,5,5,0,0,1-1.43-.19,3,3,0,0,1-1.14-.6,3,3,0,0,1-.76-1.07,4.51,4.51,0,0,1-.29-1.62v-7.31H42v-1.05h3.23v-3Z"/><path class="cls-5" d="M55.79,503H61.2v15.37h3.93v1.13H55.79v-1.13h4.12V504.11H55.79Z"/><path class="cls-5" d="M73.65,519.68a5.32,5.32,0,0,1-2.21-.45A5.06,5.06,0,0,1,69.73,518a5.39,5.39,0,0,1-1.11-1.81,6.18,6.18,0,0,1-.4-2.2v-.47a6.54,6.54,0,0,1,.41-2.32,6.2,6.2,0,0,1,1.1-1.87,5.3,5.3,0,0,1,1.65-1.25,4.64,4.64,0,0,1,2-.45,4.94,4.94,0,0,1,2,.41,4.49,4.49,0,0,1,1.5,1.15,5.11,5.11,0,0,1,.92,1.69,7,7,0,0,1,.33,2.07v.79h-8.7V514a5.1,5.1,0,0,0,.31,1.74,4.57,4.57,0,0,0,.85,1.47,4,4,0,0,0,1.32,1,3.75,3.75,0,0,0,1.72.38,4.4,4.4,0,0,0,1.94-.39A4.07,4.07,0,0,0,77.13,517l.82.62a4.57,4.57,0,0,1-.76.83,4.84,4.84,0,0,1-1,.65,5.31,5.31,0,0,1-1.18.42A6.06,6.06,0,0,1,73.65,519.68Zm-.24-11A3.37,3.37,0,0,0,72,509a3.46,3.46,0,0,0-1.15.82,4.53,4.53,0,0,0-.82,1.24,6,6,0,0,0-.44,1.56h7.36v-.14a4.81,4.81,0,0,0-.26-1.4,4,4,0,0,0-.69-1.21,3.52,3.52,0,0,0-1.09-.85A3.31,3.31,0,0,0,73.41,508.72Z"/><path class="cls-5" d="M87.36,504.19a4.45,4.45,0,0,1-.1.95,5.9,5.9,0,0,1-.29.93,5,5,0,0,1-.47.88,4.44,4.44,0,0,1-.64.78l-.74-.56a5.27,5.27,0,0,0,.72-1.39,4.92,4.92,0,0,0,.25-1.57v-1.35h1.27Z"/><path class="cls-5" d="M99.42,509.14a1.08,1.08,0,0,1,.3-.77,1,1,0,0,1,.8-.31,1.06,1.06,0,0,1,.81.31,1.08,1.08,0,0,1,.3.77,1,1,0,0,1-.3.75,1.13,1.13,0,0,1-.81.29,1.11,1.11,0,0,1-.8-.29A1,1,0,0,1,99.42,509.14Zm0,9.41a1.08,1.08,0,0,1,.3-.77,1,1,0,0,1,.8-.31,1.06,1.06,0,0,1,.81.31,1.08,1.08,0,0,1,.3.77,1,1,0,0,1-.3.75,1.13,1.13,0,0,1-.81.29,1.11,1.11,0,0,1-.8-.29A1,1,0,0,1,99.42,518.55Z"/><path class="cls-5" d="M109.7,515.69l.35,2.07.43-2.07,2-7.85h.91l2,7.85.43,2.12.38-2.12,1.59-7.85h1.19l-2.58,11.62h-1l-2-8-.35-1.85-.34,1.85-2,8h-1l-2.58-11.62h1.19Z"/><path class="cls-5" d="M120.83,513.48a7.16,7.16,0,0,1,.37-2.24,5.72,5.72,0,0,1,1-1.87,4.82,4.82,0,0,1,3.8-1.74,4.78,4.78,0,0,1,3.81,1.74,5.56,5.56,0,0,1,1,1.87,7.16,7.16,0,0,1,.37,2.24v.35a7.57,7.57,0,0,1-.36,2.25,5.42,5.42,0,0,1-1,1.86,4.7,4.7,0,0,1-1.62,1.27,4.89,4.89,0,0,1-2.18.47,5,5,0,0,1-2.18-.47,4.64,4.64,0,0,1-1.63-1.27,5.42,5.42,0,0,1-1-1.86,7.27,7.27,0,0,1-.37-2.25Zm1.29.35a6.3,6.3,0,0,0,.26,1.79,4.8,4.8,0,0,0,.75,1.52,3.88,3.88,0,0,0,1.22,1.06,3.79,3.79,0,0,0,3.35,0,3.78,3.78,0,0,0,1.22-1.06,5,5,0,0,0,.74-1.52,6.3,6.3,0,0,0,.26-1.79v-.35a6.16,6.16,0,0,0-.26-1.77,4.7,4.7,0,0,0-.75-1.52,3.91,3.91,0,0,0-1.22-1.07,3.53,3.53,0,0,0-1.68-.4,3.46,3.46,0,0,0-1.67.4,3.77,3.77,0,0,0-1.21,1.07,4.7,4.7,0,0,0-.75,1.52,6.16,6.16,0,0,0-.26,1.77Z"/><path class="cls-5" d="M134.31,513.54a8.55,8.55,0,0,1,.29-2.22,6.25,6.25,0,0,1,.87-1.9,4.41,4.41,0,0,1,1.44-1.31,4.19,4.19,0,0,1,5.48,1.31V503h1.28v16.5h-1.2l-.06-1.51a4,4,0,0,1-1.5,1.28,4.35,4.35,0,0,1-2,.45,4,4,0,0,1-2-.5,4.33,4.33,0,0,1-1.44-1.32,6.3,6.3,0,0,1-.87-1.89,8.57,8.57,0,0,1-.29-2.2Zm1.3.23a8.41,8.41,0,0,0,.19,1.73,5,5,0,0,0,.61,1.54,3.28,3.28,0,0,0,1.09,1.1,3.12,3.12,0,0,0,1.66.42,4,4,0,0,0,1-.14,3.64,3.64,0,0,0,.9-.4,4,4,0,0,0,.74-.63,3.69,3.69,0,0,0,.55-.84v-5.63a4.12,4.12,0,0,0-.53-.88,3.57,3.57,0,0,0-.72-.68,3.39,3.39,0,0,0-.91-.46,3.6,3.6,0,0,0-1-.16,3,3,0,0,0-1.66.43,3.43,3.43,0,0,0-1.11,1.1,5.07,5.07,0,0,0-.61,1.55,8.31,8.31,0,0,0-.19,1.72Z"/><path class="cls-5" d="M151.65,518.55a1.08,1.08,0,0,1,.3-.77,1,1,0,0,1,.8-.31,1,1,0,0,1,1.1,1.08,1,1,0,0,1-.29.75,1.13,1.13,0,0,1-.81.29,1.09,1.09,0,0,1-.8-.29A1,1,0,0,1,151.65,518.55Z"/><path class="cls-5" d="M165.39,504.87v3h4.31v1.05h-4.31v7.32a3,3,0,0,0,.21,1.12,1.8,1.8,0,0,0,.54.72,2.09,2.09,0,0,0,.79.39,4,4,0,0,0,1,.12,8.44,8.44,0,0,0,1.1-.07l1-.15.19,1a4.44,4.44,0,0,1-1.13.28,10,10,0,0,1-1.35.09,5,5,0,0,1-1.43-.19,3,3,0,0,1-1.14-.6,3,3,0,0,1-.76-1.07,4.3,4.3,0,0,1-.29-1.62v-7.31h-3.23v-1.05h3.23v-3Z"/><path class="cls-5" d="M174.61,507.84H180v10.49H184v1.13h-9.34v-1.13h4.1V509h-4.1Zm3.73-3.18a1.12,1.12,0,0,1,.22-.69,1.11,1.11,0,0,1,1.5,0,1.12,1.12,0,0,1,.23.69,1,1,0,0,1-.23.66,1.11,1.11,0,0,1-1.5,0A1,1,0,0,1,178.34,504.66Z"/><path class="cls-5" d="M191.8,504.87v3h4.3v1.05h-4.3v7.32a2.63,2.63,0,0,0,.21,1.12,1.88,1.88,0,0,0,.53.72,2.14,2.14,0,0,0,.8.39,3.84,3.84,0,0,0,1,.12,8.23,8.23,0,0,0,1.1-.07l1-.15.2,1a4.55,4.55,0,0,1-1.13.28,10.2,10.2,0,0,1-1.35.09,5,5,0,0,1-1.43-.19,2.84,2.84,0,0,1-1.14-.6,2.89,2.89,0,0,1-.76-1.07,4.12,4.12,0,0,1-.29-1.62v-7.31h-3.24v-1.05h3.24v-3Z"/><path class="cls-5" d="M201,503h5.42v15.37h3.93v1.13H201v-1.13h4.13V504.11H201Z"/><path class="cls-5" d="M218.88,519.68a5.37,5.37,0,0,1-2.22-.45A5.27,5.27,0,0,1,215,518a5.55,5.55,0,0,1-1.11-1.81,6.41,6.41,0,0,1-.4-2.2v-.47a6.78,6.78,0,0,1,.42-2.32,5.81,5.81,0,0,1,1.1-1.87,5.15,5.15,0,0,1,1.64-1.25,4.67,4.67,0,0,1,2-.45,4.9,4.9,0,0,1,2.05.41,4.3,4.3,0,0,1,1.5,1.15,5.11,5.11,0,0,1,.92,1.69,7,7,0,0,1,.33,2.07v.79h-8.7V514a5.35,5.35,0,0,0,.31,1.74,4.76,4.76,0,0,0,.85,1.47,4.23,4.23,0,0,0,1.32,1,3.78,3.78,0,0,0,1.72.38,4.37,4.37,0,0,0,1.94-.39,4.18,4.18,0,0,0,1.49-1.19l.81.62a4.57,4.57,0,0,1-.76.83,4.77,4.77,0,0,1-1,.65,5.39,5.39,0,0,1-1.19.42A6,6,0,0,1,218.88,519.68Zm-.25-11a3.51,3.51,0,0,0-2.59,1.12,4.53,4.53,0,0,0-.82,1.24,6,6,0,0,0-.44,1.56h7.36v-.14a4.5,4.5,0,0,0-.26-1.4,3.81,3.81,0,0,0-.69-1.21,3.52,3.52,0,0,0-1.09-.85A3.31,3.31,0,0,0,218.63,508.72Z"/><path class="cls-5" d="M231.5,519.09a5,5,0,0,1-.1.94,6.37,6.37,0,0,1-.29.94,5,5,0,0,1-.47.88,4.08,4.08,0,0,1-.65.78l-.81-.51a5.11,5.11,0,0,0,.94-3v-1.68h1.38Z"/><path class="cls-5" d="M6.27,544.26a5.07,5.07,0,0,1,.09-.94,4.89,4.89,0,0,1,.29-.94,4.39,4.39,0,0,1,.47-.88,4,4,0,0,1,.64-.78l.74.54a5.54,5.54,0,0,0-.72,1.41,5.2,5.2,0,0,0-.26,1.56v1.36H6.27Z"/><path class="cls-5" d="M15.49,551.54a8.55,8.55,0,0,1,.29-2.22,6.25,6.25,0,0,1,.87-1.9,4.41,4.41,0,0,1,1.44-1.31,4.19,4.19,0,0,1,5.48,1.31V541h1.28v16.5h-1.2L23.59,556a3.93,3.93,0,0,1-1.5,1.28,4.35,4.35,0,0,1-2,.45,4,4,0,0,1-2-.5,4.33,4.33,0,0,1-1.44-1.32,6.3,6.3,0,0,1-.87-1.89,8.57,8.57,0,0,1-.29-2.2Zm1.3.23A8.41,8.41,0,0,0,17,553.5a5,5,0,0,0,.61,1.54,3.22,3.22,0,0,0,1.1,1.1,3.06,3.06,0,0,0,1.65.42,4,4,0,0,0,1-.14,3.64,3.64,0,0,0,.9-.4,4,4,0,0,0,.74-.63,3.69,3.69,0,0,0,.55-.84v-5.63A4.12,4.12,0,0,0,23,548a3.57,3.57,0,0,0-.72-.68,3.39,3.39,0,0,0-.91-.46,3.6,3.6,0,0,0-1.05-.16,3,3,0,0,0-1.66.43,3.31,3.31,0,0,0-1.1,1.1,4.84,4.84,0,0,0-.62,1.55,8.31,8.31,0,0,0-.19,1.72Z"/><path class="cls-5" d="M34.05,557.68a5.37,5.37,0,0,1-2.22-.45A5.27,5.27,0,0,1,30.12,556,5.55,5.55,0,0,1,29,554.19a6.41,6.41,0,0,1-.4-2.2v-.47A6.78,6.78,0,0,1,29,549.2a5.81,5.81,0,0,1,1.1-1.87,5.15,5.15,0,0,1,1.64-1.25,4.67,4.67,0,0,1,2-.45,4.9,4.9,0,0,1,2.05.41,4.3,4.3,0,0,1,1.5,1.15,5.11,5.11,0,0,1,.92,1.69A7,7,0,0,1,38.6,551v.79H29.9V552a5.35,5.35,0,0,0,.31,1.74,4.76,4.76,0,0,0,.85,1.47,4.23,4.23,0,0,0,1.32,1,3.78,3.78,0,0,0,1.72.38A4.37,4.37,0,0,0,36,556.2,4.18,4.18,0,0,0,37.53,555l.81.62a4.57,4.57,0,0,1-.76.83,4.77,4.77,0,0,1-1,.65,5.39,5.39,0,0,1-1.19.42A6,6,0,0,1,34.05,557.68Zm-.25-11a3.51,3.51,0,0,0-2.59,1.12,4.53,4.53,0,0,0-.82,1.24,6,6,0,0,0-.44,1.56h7.36v-.14a4.5,4.5,0,0,0-.26-1.4,3.81,3.81,0,0,0-.69-1.21,3.52,3.52,0,0,0-1.09-.85A3.31,3.31,0,0,0,33.8,546.72Z"/><path class="cls-5" d="M50.4,554.51a1.59,1.59,0,0,0-.27-.93,2.34,2.34,0,0,0-.74-.69,4.45,4.45,0,0,0-1.08-.47,11.73,11.73,0,0,0-1.3-.34,16,16,0,0,1-1.62-.41,6.18,6.18,0,0,1-1.4-.62,3.17,3.17,0,0,1-1-.92,2.28,2.28,0,0,1-.37-1.34,2.46,2.46,0,0,1,.38-1.34,3.49,3.49,0,0,1,1-1,4.9,4.9,0,0,1,1.39-.62,6.64,6.64,0,0,1,1.61-.2,6.31,6.31,0,0,1,1.77.23,4.55,4.55,0,0,1,1.44.67,3.4,3.4,0,0,1,1,1.09,3.11,3.11,0,0,1,.4,1.48H50.32a1.93,1.93,0,0,0-.3-1,2.41,2.41,0,0,0-.74-.75,3.84,3.84,0,0,0-1.05-.46,4.84,4.84,0,0,0-1.21-.16,5.35,5.35,0,0,0-1.13.12,3.64,3.64,0,0,0-1,.38,2.25,2.25,0,0,0-.7.63,1.61,1.61,0,0,0-.26.9,1.51,1.51,0,0,0,.25.92,2.08,2.08,0,0,0,.72.62,4.6,4.6,0,0,0,1.05.42c.41.11.84.22,1.3.31a15.82,15.82,0,0,1,1.68.44,6.35,6.35,0,0,1,1.41.66,3.07,3.07,0,0,1,1,1,2.52,2.52,0,0,1,.35,1.37,2.59,2.59,0,0,1-.39,1.42,3.31,3.31,0,0,1-1,1,4.67,4.67,0,0,1-1.46.6,7.3,7.3,0,0,1-1.69.2,6.82,6.82,0,0,1-1.84-.24,4.85,4.85,0,0,1-1.53-.68,3.67,3.67,0,0,1-1.06-1.09,3,3,0,0,1-.43-1.46h1.29a2.21,2.21,0,0,0,.42,1.15,2.49,2.49,0,0,0,.85.73,3.55,3.55,0,0,0,1.12.39,6.11,6.11,0,0,0,2.36,0,3.85,3.85,0,0,0,1-.38,2.26,2.26,0,0,0,.76-.64A1.56,1.56,0,0,0,50.4,554.51Z"/><path class="cls-5" d="M60.2,556.59a4.16,4.16,0,0,0,1.23-.18,3.34,3.34,0,0,0,1-.55,2.88,2.88,0,0,0,.74-.85,2.48,2.48,0,0,0,.32-1.13h1.24a3.43,3.43,0,0,1-.43,1.52,4,4,0,0,1-1,1.2,4.73,4.73,0,0,1-1.43.79,5.06,5.06,0,0,1-1.7.29,4.57,4.57,0,0,1-3.79-1.77,5.64,5.64,0,0,1-.95-1.86,7.5,7.5,0,0,1-.32-2.17v-.45a7.51,7.51,0,0,1,.32-2.18,5.59,5.59,0,0,1,.95-1.85A4.59,4.59,0,0,1,58,546.11a4.83,4.83,0,0,1,2.21-.48,5.17,5.17,0,0,1,1.79.3,4.37,4.37,0,0,1,1.43.86,4.15,4.15,0,0,1,1,1.31,4.36,4.36,0,0,1,.4,1.66H63.53a3.08,3.08,0,0,0-.3-1.21,3.12,3.12,0,0,0-.71-1,3.17,3.17,0,0,0-1-.63,3.66,3.66,0,0,0-1.3-.23,3.34,3.34,0,0,0-2.89,1.48,4.78,4.78,0,0,0-.66,1.51,7.17,7.17,0,0,0-.21,1.72v.45a7.25,7.25,0,0,0,.21,1.73,4.68,4.68,0,0,0,.66,1.51,3.54,3.54,0,0,0,1.17,1.07A3.46,3.46,0,0,0,60.2,556.59Z"/><path class="cls-5" d="M76.38,545.63c.32,0,.65,0,1,0a4.24,4.24,0,0,1,.8.17L78,547.09a9.17,9.17,0,0,0-1.82-.21,4.76,4.76,0,0,0-2.77.78A4.1,4.1,0,0,0,71.79,550l0,7.43H70.47V545.84h1.24l.08,2v.24a5.18,5.18,0,0,1,1.88-1.81A5.44,5.44,0,0,1,76.38,545.63Z"/><path class="cls-5" d="M82.19,545.84h5.4v10.49h4v1.13H82.19v-1.13H86.3V547H82.19Zm3.73-3.18a1.12,1.12,0,0,1,.23-.69,1.1,1.1,0,0,1,1.49,0,1.07,1.07,0,0,1,.24.69,1,1,0,0,1-.24.66,1.1,1.1,0,0,1-1.49,0A1,1,0,0,1,85.92,542.66Z"/><path class="cls-5" d="M104.49,551.77a9,9,0,0,1-.27,2.2,5.8,5.8,0,0,1-.84,1.89,4.27,4.27,0,0,1-1.42,1.32,4,4,0,0,1-2,.5,4.64,4.64,0,0,1-2-.42,4,4,0,0,1-1.51-1.21v5.88H95.13V545.84h1.2l0,1.59a4.27,4.27,0,0,1,1.51-1.33,4.14,4.14,0,0,1,2-.47,4.21,4.21,0,0,1,2.06.48,4.28,4.28,0,0,1,1.43,1.31,6,6,0,0,1,.83,1.9,9,9,0,0,1,.27,2.22Zm-1.29-.23a7.68,7.68,0,0,0-.19-1.72,5.08,5.08,0,0,0-.62-1.55,3.53,3.53,0,0,0-1.11-1.1,3.05,3.05,0,0,0-1.67-.43,3.21,3.21,0,0,0-1,.16,3.08,3.08,0,0,0-.89.44A3.31,3.31,0,0,0,97,548a4,4,0,0,0-.53.86v5.76a3.44,3.44,0,0,0,3.21,2,3,3,0,0,0,1.66-.43,3.34,3.34,0,0,0,1.1-1.11,4.75,4.75,0,0,0,.62-1.55,7.77,7.77,0,0,0,.19-1.73Z"/><path class="cls-5" d="M112.58,542.87v3h4.31v1h-4.31v7.32a3,3,0,0,0,.21,1.12,1.8,1.8,0,0,0,.54.72,2.09,2.09,0,0,0,.79.39,4,4,0,0,0,1,.12,8.33,8.33,0,0,0,1.1-.07l1-.15.19,1a4.35,4.35,0,0,1-1.12.28,10.24,10.24,0,0,1-1.36.09,5,5,0,0,1-1.43-.19,2.86,2.86,0,0,1-1.13-.6,2.91,2.91,0,0,1-.77-1.07,4.51,4.51,0,0,1-.29-1.62v-7.31H108v-1h3.23v-3Z"/><path class="cls-5" d="M121.8,545.84h5.39v10.49h4v1.13H121.8v-1.13h4.1V547h-4.1Zm3.73-3.18a1.12,1.12,0,0,1,.22-.69,1.11,1.11,0,0,1,1.5,0,1.06,1.06,0,0,1,.23.69,1,1,0,0,1-.23.66,1.11,1.11,0,0,1-1.5,0A1,1,0,0,1,125.53,542.66Z"/><path class="cls-5" d="M134,551.48a7.16,7.16,0,0,1,.37-2.24,5.74,5.74,0,0,1,1-1.87,5.11,5.11,0,0,1,6-1.27,5,5,0,0,1,1.63,1.27,5.93,5.93,0,0,1,1,1.87,7.45,7.45,0,0,1,.36,2.24v.35a7.57,7.57,0,0,1-.36,2.25,5.57,5.57,0,0,1-1,1.86,4.83,4.83,0,0,1-1.63,1.27,4.89,4.89,0,0,1-2.18.47,5,5,0,0,1-2.18-.47,4.83,4.83,0,0,1-1.63-1.27,5.77,5.77,0,0,1-1-1.86,7.27,7.27,0,0,1-.37-2.25Zm1.29.35a6.3,6.3,0,0,0,.26,1.79,4.8,4.8,0,0,0,.75,1.52,3.88,3.88,0,0,0,1.22,1.06,3.53,3.53,0,0,0,1.68.39,3.46,3.46,0,0,0,1.67-.39,3.78,3.78,0,0,0,1.22-1.06,5.26,5.26,0,0,0,.75-1.52,6.29,6.29,0,0,0,.25-1.79v-.35a6.16,6.16,0,0,0-.25-1.77,4.93,4.93,0,0,0-.76-1.52,3.91,3.91,0,0,0-1.22-1.07,3.53,3.53,0,0,0-1.68-.4,3.49,3.49,0,0,0-1.67.4,3.77,3.77,0,0,0-1.21,1.07,4.7,4.7,0,0,0-.75,1.52,6.16,6.16,0,0,0-.26,1.77Z"/><path class="cls-5" d="M149.08,545.84l.1,2.18a4.84,4.84,0,0,1,1.63-1.73,4.19,4.19,0,0,1,2.32-.66,3.72,3.72,0,0,1,2.93,1.14,4.83,4.83,0,0,1,1,3.25v7.44h-1.29V550a3.75,3.75,0,0,0-.73-2.45,2.77,2.77,0,0,0-2.24-.85,3.33,3.33,0,0,0-1.18.21,3.55,3.55,0,0,0-1,.56,3.84,3.84,0,0,0-.83.83,4.78,4.78,0,0,0-.59,1.06v8.06H147.9V545.84Z"/><path class="cls-5" d="M166.57,542.19a4.45,4.45,0,0,1-.1.95,5,5,0,0,1-.29.93,4.39,4.39,0,0,1-.47.88,4,4,0,0,1-.64.78l-.74-.56a5.27,5.27,0,0,0,.72-1.39,5.21,5.21,0,0,0,.26-1.57v-1.35h1.26Z"/><path class="cls-5" d="M178.64,547.14a1.07,1.07,0,0,1,.29-.77,1.05,1.05,0,0,1,.8-.31,1,1,0,0,1,.81.31,1.08,1.08,0,0,1,.3.77,1,1,0,0,1-.3.75,1.1,1.1,0,0,1-.81.29,1.12,1.12,0,0,1-.8-.29A1,1,0,0,1,178.64,547.14Zm0,9.41a1.07,1.07,0,0,1,.29-.77,1.05,1.05,0,0,1,.8-.31,1,1,0,0,1,.81.31,1.08,1.08,0,0,1,.3.77,1,1,0,0,1-.3.75,1.1,1.1,0,0,1-.81.29,1.12,1.12,0,0,1-.8-.29A1,1,0,0,1,178.64,556.55Z"/><path class="cls-5" d="M188.92,553.69l.34,2.07.43-2.07,2-7.85h.9l2,7.85.43,2.12.38-2.12,1.59-7.85h1.19l-2.58,11.62h-1l-2.05-8-.34-1.85-.35,1.85-2,8h-1l-2.58-11.62h1.19Z"/><path class="cls-5" d="M200.05,551.48a6.87,6.87,0,0,1,.36-2.24,5.93,5.93,0,0,1,1-1.87,5.11,5.11,0,0,1,6-1.27,5,5,0,0,1,1.63,1.27,5.93,5.93,0,0,1,1,1.87,7.15,7.15,0,0,1,.36,2.24v.35a7.26,7.26,0,0,1-.36,2.25,5.57,5.57,0,0,1-1,1.86,4.89,4.89,0,0,1-1.62,1.27,5.31,5.31,0,0,1-4.37,0,4.73,4.73,0,0,1-1.63-1.27,5.77,5.77,0,0,1-1-1.86,7,7,0,0,1-.36-2.25Zm1.28.35a6.3,6.3,0,0,0,.26,1.79,5,5,0,0,0,.75,1.52,3.88,3.88,0,0,0,1.22,1.06,3.81,3.81,0,0,0,3.36,0,3.85,3.85,0,0,0,1.21-1.06,5.26,5.26,0,0,0,.75-1.52,6.29,6.29,0,0,0,.25-1.79v-.35a6.16,6.16,0,0,0-.25-1.77,4.93,4.93,0,0,0-.76-1.52,3.81,3.81,0,0,0-1.22-1.07,3.53,3.53,0,0,0-1.68-.4,3.49,3.49,0,0,0-1.67.4,3.77,3.77,0,0,0-1.21,1.07,4.7,4.7,0,0,0-.75,1.52,6.16,6.16,0,0,0-.26,1.77Z"/><path class="cls-5" d="M213.53,551.54a8.15,8.15,0,0,1,.29-2.22,6,6,0,0,1,.86-1.9,4.41,4.41,0,0,1,1.44-1.31,4.16,4.16,0,0,1,2-.48,4.08,4.08,0,0,1,2,.47,4.21,4.21,0,0,1,1.47,1.32V541h1.27v16.5h-1.2l-.05-1.51a4,4,0,0,1-1.51,1.28,4.31,4.31,0,0,1-2,.45,4,4,0,0,1-2-.5,4.33,4.33,0,0,1-1.44-1.32,6,6,0,0,1-.86-1.89,8.16,8.16,0,0,1-.29-2.2Zm1.3.23a7.77,7.77,0,0,0,.19,1.73,4.76,4.76,0,0,0,.6,1.54,3.31,3.31,0,0,0,1.1,1.1,3.06,3.06,0,0,0,1.65.42,3.9,3.9,0,0,0,1-.14,3.64,3.64,0,0,0,.9-.4,3.74,3.74,0,0,0,.74-.63,4.1,4.1,0,0,0,.56-.84v-5.63a4.61,4.61,0,0,0-.54-.88,3.57,3.57,0,0,0-.72-.68,3.19,3.19,0,0,0-.9-.46,3.62,3.62,0,0,0-1.06-.16,3,3,0,0,0-1.66.43,3.4,3.4,0,0,0-1.1,1.1,4.61,4.61,0,0,0-.61,1.55,7.68,7.68,0,0,0-.19,1.72Z"/><path class="cls-5" d="M230.87,556.55a1.07,1.07,0,0,1,.29-.77,1,1,0,0,1,.8-.31,1.06,1.06,0,0,1,.81.31,1.08,1.08,0,0,1,.3.77,1,1,0,0,1-.3.75,1.13,1.13,0,0,1-.81.29,1.11,1.11,0,0,1-.8-.29A1,1,0,0,1,230.87,556.55Z"/><path class="cls-5" d="M239.93,551.54a8.55,8.55,0,0,1,.29-2.22,5.81,5.81,0,0,1,.87-1.9,4.41,4.41,0,0,1,1.44-1.31,4.09,4.09,0,0,1,2-.48,4.06,4.06,0,0,1,3.45,1.79V541h1.28v16.5h-1.21L248,556a4.08,4.08,0,0,1-1.5,1.28,4.38,4.38,0,0,1-2,.45,3.94,3.94,0,0,1-2-.5,4.33,4.33,0,0,1-1.44-1.32,5.85,5.85,0,0,1-.87-1.89,8.57,8.57,0,0,1-.29-2.2Zm1.3.23a7.77,7.77,0,0,0,.19,1.73A4.77,4.77,0,0,0,242,555a3.28,3.28,0,0,0,1.09,1.1,3.08,3.08,0,0,0,1.66.42,3.82,3.82,0,0,0,1-.14,3.33,3.33,0,0,0,.9-.4,3.8,3.8,0,0,0,.75-.63,4.06,4.06,0,0,0,.55-.84v-5.63a4.12,4.12,0,0,0-.53-.88,3.37,3.37,0,0,0-.73-.68,3.19,3.19,0,0,0-.9-.46,3.6,3.6,0,0,0-1-.16,3,3,0,0,0-1.67.43,3.4,3.4,0,0,0-1.1,1.1,4.83,4.83,0,0,0-.61,1.55,7.68,7.68,0,0,0-.19,1.72Z"/><path class="cls-5" d="M258.48,557.68a5.32,5.32,0,0,1-2.21-.45,5.06,5.06,0,0,1-1.71-1.23,5.39,5.39,0,0,1-1.11-1.81,6.18,6.18,0,0,1-.4-2.2v-.47a6.54,6.54,0,0,1,.41-2.32,6.2,6.2,0,0,1,1.1-1.87,5.3,5.3,0,0,1,1.65-1.25,4.64,4.64,0,0,1,2-.45,4.94,4.94,0,0,1,2.05.41,4.49,4.49,0,0,1,1.5,1.15,5.11,5.11,0,0,1,.92,1.69A7,7,0,0,1,263,551v.79h-8.7V552a5.1,5.1,0,0,0,.31,1.74,4.57,4.57,0,0,0,.85,1.47,4,4,0,0,0,1.32,1,3.75,3.75,0,0,0,1.72.38,4.4,4.4,0,0,0,1.94-.39A4.07,4.07,0,0,0,262,555l.82.62a4.57,4.57,0,0,1-.76.83,4.84,4.84,0,0,1-1,.65,5.31,5.31,0,0,1-1.18.42A6.06,6.06,0,0,1,258.48,557.68Zm-.24-11a3.37,3.37,0,0,0-1.44.3,3.46,3.46,0,0,0-1.15.82,4.53,4.53,0,0,0-.82,1.24,6,6,0,0,0-.44,1.56h7.36v-.14a4.81,4.81,0,0,0-.26-1.4,4,4,0,0,0-.69-1.21,3.52,3.52,0,0,0-1.09-.85A3.31,3.31,0,0,0,258.24,546.72Z"/><path class="cls-5" d="M274.83,554.51a1.59,1.59,0,0,0-.27-.93,2.31,2.31,0,0,0-.73-.69,4.45,4.45,0,0,0-1.08-.47,11.73,11.73,0,0,0-1.3-.34,16,16,0,0,1-1.62-.41,6,6,0,0,1-1.4-.62,3.21,3.21,0,0,1-1-.92,2.35,2.35,0,0,1-.36-1.34,2.46,2.46,0,0,1,.37-1.34,3.49,3.49,0,0,1,1-1,5.09,5.09,0,0,1,1.4-.62,6.64,6.64,0,0,1,1.61-.2,6.31,6.31,0,0,1,1.77.23,4.66,4.66,0,0,1,1.44.67,3.4,3.4,0,0,1,1,1.09,3.22,3.22,0,0,1,.4,1.48h-1.29a2.13,2.13,0,0,0-.3-1,2.52,2.52,0,0,0-.74-.75,3.84,3.84,0,0,0-1.05-.46,4.9,4.9,0,0,0-1.21-.16,5.29,5.29,0,0,0-1.13.12,3.64,3.64,0,0,0-1,.38,2.25,2.25,0,0,0-.7.63,1.54,1.54,0,0,0-.26.9,1.45,1.45,0,0,0,.25.92,2,2,0,0,0,.71.62,4.69,4.69,0,0,0,1.06.42c.41.11.84.22,1.3.31a17.19,17.19,0,0,1,1.68.44,6.57,6.57,0,0,1,1.41.66,3.07,3.07,0,0,1,1,1,2.82,2.82,0,0,1,0,2.79,3.42,3.42,0,0,1-1,1,4.77,4.77,0,0,1-1.46.6,7.32,7.32,0,0,1-1.7.2,6.87,6.87,0,0,1-1.84-.24,4.9,4.9,0,0,1-1.52-.68,3.55,3.55,0,0,1-1.06-1.09,2.9,2.9,0,0,1-.43-1.46H268a2.2,2.2,0,0,0,.41,1.15,2.62,2.62,0,0,0,.86.73,3.49,3.49,0,0,0,1.11.39,6,6,0,0,0,1.18.11,5.83,5.83,0,0,0,1.18-.12,3.73,3.73,0,0,0,1.05-.38,2.2,2.2,0,0,0,.77-.64A1.55,1.55,0,0,0,274.83,554.51Z"/><path class="cls-5" d="M284.64,556.59a4.16,4.16,0,0,0,1.23-.18,3.34,3.34,0,0,0,1-.55,2.84,2.84,0,0,0,.73-.85,2.62,2.62,0,0,0,.33-1.13h1.24a3.57,3.57,0,0,1-.43,1.52,4,4,0,0,1-1,1.2,4.86,4.86,0,0,1-1.43.79,5.1,5.1,0,0,1-1.7.29,4.61,4.61,0,0,1-3.8-1.77,5.62,5.62,0,0,1-.94-1.86,7.5,7.5,0,0,1-.32-2.17v-.45a7.51,7.51,0,0,1,.32-2.18,5.57,5.57,0,0,1,.94-1.85,4.63,4.63,0,0,1,1.58-1.29,4.8,4.8,0,0,1,2.21-.48,5.21,5.21,0,0,1,1.79.3,4.47,4.47,0,0,1,1.43.86,4.31,4.31,0,0,1,1,1.31,4.55,4.55,0,0,1,.4,1.66H288a3.08,3.08,0,0,0-.3-1.21,3.29,3.29,0,0,0-.71-1,3.12,3.12,0,0,0-1-.63,3.57,3.57,0,0,0-1.29-.23,3.34,3.34,0,0,0-2.89,1.48,4.78,4.78,0,0,0-.66,1.51,7.17,7.17,0,0,0-.21,1.72v.45a7.25,7.25,0,0,0,.21,1.73,4.68,4.68,0,0,0,.66,1.51,3.54,3.54,0,0,0,1.17,1.07A3.43,3.43,0,0,0,284.64,556.59Z"/><path class="cls-5" d="M300.82,545.63c.32,0,.64,0,1,0a4.2,4.2,0,0,1,.81.17l-.16,1.24a9.16,9.16,0,0,0-1.83-.21,4.78,4.78,0,0,0-2.77.78,4.09,4.09,0,0,0-1.6,2.37v7.43h-1.33V545.84h1.24l.08,2v.24a5.1,5.1,0,0,1,1.88-1.81A5.41,5.41,0,0,1,300.82,545.63Z"/><path class="cls-5" d="M306.63,545.84H312v10.49h4v1.13h-9.35v-1.13h4.1V547h-4.1Zm3.73-3.18a1.12,1.12,0,0,1,.22-.69,1.11,1.11,0,0,1,1.5,0,1.06,1.06,0,0,1,.23.69,1,1,0,0,1-.23.66,1.11,1.11,0,0,1-1.5,0A1,1,0,0,1,310.36,542.66Z"/><path class="cls-5" d="M328.93,551.77a9,9,0,0,1-.27,2.2,6,6,0,0,1-.84,1.89,4.37,4.37,0,0,1-1.42,1.32,4.07,4.07,0,0,1-2,.5,4.62,4.62,0,0,1-2-.42,4.07,4.07,0,0,1-1.52-1.21v5.88h-1.29V545.84h1.21l.05,1.59a4.32,4.32,0,0,1,1.5-1.33,4.62,4.62,0,0,1,4.08,0,4.25,4.25,0,0,1,1.42,1.31,6,6,0,0,1,.84,1.9,9,9,0,0,1,.27,2.22Zm-1.29-.23a7.68,7.68,0,0,0-.19-1.72,5.08,5.08,0,0,0-.62-1.55,3.46,3.46,0,0,0-1.12-1.1,3,3,0,0,0-1.67-.43,3.19,3.19,0,0,0-1,.16,3.14,3.14,0,0,0-.9.44,3.83,3.83,0,0,0-.72.68,4.41,4.41,0,0,0-.53.86v5.76a3.5,3.5,0,0,0,1.29,1.43,3.54,3.54,0,0,0,1.92.52,3,3,0,0,0,1.66-.43,3.27,3.27,0,0,0,1.11-1.11,5,5,0,0,0,.62-1.55,7.77,7.77,0,0,0,.19-1.73Z"/><path class="cls-5" d="M337,542.87v3h4.31v1H337v7.32a3,3,0,0,0,.21,1.12,1.8,1.8,0,0,0,.54.72,2.09,2.09,0,0,0,.79.39,4,4,0,0,0,1,.12,8.48,8.48,0,0,0,1.11-.07l1-.15.19,1a4.44,4.44,0,0,1-1.13.28,10,10,0,0,1-1.35.09,5,5,0,0,1-1.43-.19,2.84,2.84,0,0,1-1.14-.6,3,3,0,0,1-.76-1.07,4.3,4.3,0,0,1-.29-1.62v-7.31h-3.23v-1h3.23v-3Z"/><path class="cls-5" d="M346.24,545.84h5.39v10.49h3.95v1.13h-9.34v-1.13h4.1V547h-4.1Zm3.72-3.18a1.12,1.12,0,0,1,.23-.69.9.9,0,0,1,.75-.29.93.93,0,0,1,.75.29,1.12,1.12,0,0,1,.23.69,1,1,0,0,1-.23.66.93.93,0,0,1-.75.29.9.9,0,0,1-.75-.29A1,1,0,0,1,350,542.66Z"/><path class="cls-5" d="M358.47,551.48a7.16,7.16,0,0,1,.37-2.24,5.72,5.72,0,0,1,1-1.87,5,5,0,0,1,7.61,0,5.56,5.56,0,0,1,1,1.87,7.16,7.16,0,0,1,.37,2.24v.35a7.57,7.57,0,0,1-.36,2.25,5.42,5.42,0,0,1-1,1.86,4.7,4.7,0,0,1-1.62,1.27,5.31,5.31,0,0,1-4.37,0,4.7,4.7,0,0,1-1.62-1.27,5.42,5.42,0,0,1-1-1.86,7.27,7.27,0,0,1-.37-2.25Zm1.29.35a6.3,6.3,0,0,0,.26,1.79,4.8,4.8,0,0,0,.75,1.52A3.88,3.88,0,0,0,362,556.2a3.79,3.79,0,0,0,3.35,0,3.74,3.74,0,0,0,1.21-1.06,4.8,4.8,0,0,0,.75-1.52,6.3,6.3,0,0,0,.26-1.79v-.35a6.16,6.16,0,0,0-.26-1.77,4.7,4.7,0,0,0-.75-1.52,3.91,3.91,0,0,0-1.22-1.07,3.53,3.53,0,0,0-1.68-.4,3.46,3.46,0,0,0-1.67.4,3.77,3.77,0,0,0-1.21,1.07,4.7,4.7,0,0,0-.75,1.52,6.16,6.16,0,0,0-.26,1.77Z"/><path class="cls-5" d="M373.52,545.84l.1,2.18a4.84,4.84,0,0,1,1.63-1.73,4.17,4.17,0,0,1,2.32-.66,3.68,3.68,0,0,1,2.92,1.14,4.72,4.72,0,0,1,1,3.25v7.44h-1.29V550a3.69,3.69,0,0,0-.73-2.45,2.75,2.75,0,0,0-2.23-.85,3.39,3.39,0,0,0-1.19.21,3.68,3.68,0,0,0-1,.56,4.08,4.08,0,0,0-.83.83,4.75,4.75,0,0,0-.58,1.06v8.06h-1.29V545.84Z"/><path class="cls-5" d="M389.92,557.09a4.29,4.29,0,0,1-.1.94,5.36,5.36,0,0,1-.29.94,4.91,4.91,0,0,1-.46.88,4.49,4.49,0,0,1-.65.78l-.82-.51a5.12,5.12,0,0,0,.95-3v-1.68h1.37Z"/><path class="cls-5" d="M6.27,582.26a5.07,5.07,0,0,1,.09-.94,4.89,4.89,0,0,1,.29-.94,4.39,4.39,0,0,1,.47-.88,4,4,0,0,1,.64-.78l.74.54a5.54,5.54,0,0,0-.72,1.41,5.2,5.2,0,0,0-.26,1.56v1.36H6.27Z"/><path class="cls-5" d="M15.49,589.54a8.55,8.55,0,0,1,.29-2.22,6.25,6.25,0,0,1,.87-1.9,4.41,4.41,0,0,1,1.44-1.31,4.19,4.19,0,0,1,5.48,1.31V579h1.28v16.5h-1.2L23.59,594a3.93,3.93,0,0,1-1.5,1.28,4.35,4.35,0,0,1-2,.45,4,4,0,0,1-2-.5,4.33,4.33,0,0,1-1.44-1.32,6.3,6.3,0,0,1-.87-1.89,8.57,8.57,0,0,1-.29-2.2Zm1.3.23A8.41,8.41,0,0,0,17,591.5a5,5,0,0,0,.61,1.54,3.22,3.22,0,0,0,1.1,1.1,3.06,3.06,0,0,0,1.65.42,4,4,0,0,0,1-.14,3.64,3.64,0,0,0,.9-.4,4,4,0,0,0,.74-.63,3.69,3.69,0,0,0,.55-.84v-5.63A4.12,4.12,0,0,0,23,586a3.57,3.57,0,0,0-.72-.68,3.39,3.39,0,0,0-.91-.46,3.6,3.6,0,0,0-1.05-.16,3,3,0,0,0-1.66.43,3.31,3.31,0,0,0-1.1,1.1,4.84,4.84,0,0,0-.62,1.55,8.31,8.31,0,0,0-.19,1.72Z"/><path class="cls-5" d="M37.08,595.46a5.09,5.09,0,0,1-.19-.79,8.46,8.46,0,0,1-.08-.88,4.64,4.64,0,0,1-.78.75,5.18,5.18,0,0,1-1,.6,5.69,5.69,0,0,1-1.12.39,5.18,5.18,0,0,1-1.26.15,4.7,4.7,0,0,1-1.52-.24,3.77,3.77,0,0,1-1.22-.66,3,3,0,0,1-1.11-2.4,3.07,3.07,0,0,1,.44-1.7,3.4,3.4,0,0,1,1.19-1.13,5.87,5.87,0,0,1,1.74-.64,10.69,10.69,0,0,1,2.07-.2H36.8v-1.32a2.79,2.79,0,0,0-.26-1.16,2.62,2.62,0,0,0-.67-.84,3.2,3.2,0,0,0-1-.51,4.72,4.72,0,0,0-1.28-.17,4.15,4.15,0,0,0-1.18.16,3.4,3.4,0,0,0-1,.46,2.35,2.35,0,0,0-.7.74,1.94,1.94,0,0,0-.29,1H29.12a2.9,2.9,0,0,1,.39-1.36,3.44,3.44,0,0,1,1-1.08,4.86,4.86,0,0,1,1.42-.72,5.76,5.76,0,0,1,1.74-.25,6.46,6.46,0,0,1,1.73.23,4.25,4.25,0,0,1,1.41.71,3.54,3.54,0,0,1,.95,1.18,3.94,3.94,0,0,1,.36,1.66V593a6.77,6.77,0,0,0,.1,1.17c.07.39.15.77.25,1.12v.13Zm-4.25-.92a4.68,4.68,0,0,0,1.3-.16,5,5,0,0,0,1.13-.48,4.05,4.05,0,0,0,.91-.73,3.19,3.19,0,0,0,.63-.93V589.7H34.45a10.78,10.78,0,0,0-1.63.12,5,5,0,0,0-1.38.43,2.54,2.54,0,0,0-1,.79,2,2,0,0,0-.35,1.23,2,2,0,0,0,.79,1.66,2.43,2.43,0,0,0,.86.45A3.32,3.32,0,0,0,32.83,594.54Z"/><path class="cls-5" d="M46.57,580.87v3h4.31v1H46.57v7.32a3,3,0,0,0,.21,1.12,1.8,1.8,0,0,0,.54.72,2.09,2.09,0,0,0,.79.39,4,4,0,0,0,1,.12,8.44,8.44,0,0,0,1.1-.07l1-.15.19,1a4.46,4.46,0,0,1-1.12.28,10.24,10.24,0,0,1-1.36.09,5,5,0,0,1-1.43-.19,3,3,0,0,1-1.14-.6,3,3,0,0,1-.76-1.07,4.51,4.51,0,0,1-.29-1.62v-7.31H42v-1h3.23v-3Z"/><path class="cls-5" d="M60.45,595.68a5.29,5.29,0,0,1-2.21-.45A5.06,5.06,0,0,1,56.53,594a5.39,5.39,0,0,1-1.11-1.81A6.18,6.18,0,0,1,55,590v-.47a6.54,6.54,0,0,1,.41-2.32,6,6,0,0,1,1.1-1.87,5.26,5.26,0,0,1,1.64-1.25,4.67,4.67,0,0,1,2-.45,5,5,0,0,1,2.06.41,4.35,4.35,0,0,1,1.49,1.15,5,5,0,0,1,.93,1.69A7,7,0,0,1,65,589v.79H56.3V590a5.36,5.36,0,0,0,.32,1.74,4.73,4.73,0,0,0,.84,1.47,4.15,4.15,0,0,0,1.33,1,3.71,3.71,0,0,0,1.71.38,4.42,4.42,0,0,0,2-.39A4.15,4.15,0,0,0,63.93,593l.82.62a5,5,0,0,1-.76.83,5.13,5.13,0,0,1-1,.65,5.49,5.49,0,0,1-1.18.42A6.06,6.06,0,0,1,60.45,595.68Zm-.25-11a3.46,3.46,0,0,0-2.58,1.12,4.12,4.12,0,0,0-.82,1.24,5.62,5.62,0,0,0-.44,1.56h7.36v-.14a4.51,4.51,0,0,0-.27-1.4,4,4,0,0,0-.68-1.21,3.52,3.52,0,0,0-1.09-.85A3.32,3.32,0,0,0,60.2,584.72Z"/><path class="cls-5" d="M74.16,580.19a5.2,5.2,0,0,1-.1.95,5.9,5.9,0,0,1-.29.93,5.71,5.71,0,0,1-.47.88,4.08,4.08,0,0,1-.65.78l-.74-.56a5,5,0,0,0,.73-1.39,5.22,5.22,0,0,0,.25-1.57v-1.35h1.27Z"/><path class="cls-5" d="M86.22,585.14a1.08,1.08,0,0,1,.3-.77,1,1,0,0,1,.8-.31,1,1,0,0,1,1.1,1.08,1,1,0,0,1-.29.75,1.13,1.13,0,0,1-.81.29,1.09,1.09,0,0,1-.8-.29A1,1,0,0,1,86.22,585.14Zm0,9.41a1.08,1.08,0,0,1,.3-.77,1,1,0,0,1,.8-.31,1,1,0,0,1,1.1,1.08,1,1,0,0,1-.29.75,1.13,1.13,0,0,1-.81.29,1.09,1.09,0,0,1-.8-.29A1,1,0,0,1,86.22,594.55Z"/><path class="cls-5" d="M96.5,591.69l.35,2.07.43-2.07,2-7.85h.9l2,7.85.43,2.12.37-2.12,1.59-7.85h1.2l-2.58,11.62h-1l-2-8-.35-1.85-.34,1.85-2,8h-1l-2.58-11.62h1.19Z"/><path class="cls-5" d="M107.63,589.48a7.16,7.16,0,0,1,.37-2.24,5.72,5.72,0,0,1,1-1.87,5,5,0,0,1,7.61,0,5.56,5.56,0,0,1,1,1.87,7.16,7.16,0,0,1,.37,2.24v.35a7.57,7.57,0,0,1-.36,2.25,5.59,5.59,0,0,1-1,1.86,4.7,4.7,0,0,1-1.62,1.27,5.31,5.31,0,0,1-4.37,0,4.7,4.7,0,0,1-1.62-1.27,5.42,5.42,0,0,1-1-1.86,7.27,7.27,0,0,1-.37-2.25Zm1.29.35a6.3,6.3,0,0,0,.26,1.79,4.8,4.8,0,0,0,.75,1.52,3.88,3.88,0,0,0,1.22,1.06,3.79,3.79,0,0,0,3.35,0,3.74,3.74,0,0,0,1.21-1.06,4.8,4.8,0,0,0,.75-1.52,6.3,6.3,0,0,0,.26-1.79v-.35a6.16,6.16,0,0,0-.26-1.77,4.7,4.7,0,0,0-.75-1.52,3.84,3.84,0,0,0-1.23-1.07,3.69,3.69,0,0,0-3.34,0,3.81,3.81,0,0,0-1.22,1.07,4.89,4.89,0,0,0-.74,1.52,6.16,6.16,0,0,0-.26,1.77Z"/><path class="cls-5" d="M121.11,589.54a8.55,8.55,0,0,1,.29-2.22,6,6,0,0,1,.87-1.9,4.41,4.41,0,0,1,1.44-1.31,4.09,4.09,0,0,1,2-.48,4.06,4.06,0,0,1,3.45,1.79V579h1.28v16.5h-1.2l-.06-1.51a4.08,4.08,0,0,1-1.5,1.28,4.38,4.38,0,0,1-2,.45,3.94,3.94,0,0,1-2-.5,4.33,4.33,0,0,1-1.44-1.32,6.07,6.07,0,0,1-.87-1.89,8.57,8.57,0,0,1-.29-2.2Zm1.3.23a7.77,7.77,0,0,0,.19,1.73,4.77,4.77,0,0,0,.61,1.54,3.28,3.28,0,0,0,1.09,1.1,3.08,3.08,0,0,0,1.66.42,3.82,3.82,0,0,0,1-.14,3.55,3.55,0,0,0,.91-.4,4,4,0,0,0,.74-.63,3.69,3.69,0,0,0,.55-.84v-5.63a4.12,4.12,0,0,0-.53-.88,3.62,3.62,0,0,0-.73-.68,3.19,3.19,0,0,0-.9-.46,3.6,3.6,0,0,0-1-.16,3,3,0,0,0-1.67.43,3.4,3.4,0,0,0-1.1,1.1,4.83,4.83,0,0,0-.61,1.55,7.68,7.68,0,0,0-.19,1.72Z"/><path class="cls-5" d="M138.45,594.55a1.08,1.08,0,0,1,.3-.77,1,1,0,0,1,.8-.31,1.06,1.06,0,0,1,.81.31,1.12,1.12,0,0,1,.29.77,1.05,1.05,0,0,1-.29.75,1.13,1.13,0,0,1-.81.29,1.09,1.09,0,0,1-.8-.29A1,1,0,0,1,138.45,594.55Z"/><path class="cls-5" d="M147.52,589.54a8.15,8.15,0,0,1,.29-2.22,6,6,0,0,1,.86-1.9,4.41,4.41,0,0,1,1.44-1.31,4.16,4.16,0,0,1,2-.48,4,4,0,0,1,3.44,1.79V579h1.28v16.5h-1.2l0-1.51a4,4,0,0,1-1.51,1.28,4.32,4.32,0,0,1-2,.45,4,4,0,0,1-2-.5,4.33,4.33,0,0,1-1.44-1.32,6,6,0,0,1-.86-1.89,8.16,8.16,0,0,1-.29-2.2Zm1.3.23a8.4,8.4,0,0,0,.18,1.73,5,5,0,0,0,.61,1.54,3.31,3.31,0,0,0,1.1,1.1,3.06,3.06,0,0,0,1.65.42,3.9,3.9,0,0,0,1-.14,3.64,3.64,0,0,0,.9-.4,3.74,3.74,0,0,0,.74-.63,3.69,3.69,0,0,0,.55-.84v-5.63a4.12,4.12,0,0,0-.53-.88,3.57,3.57,0,0,0-.72-.68,3.33,3.33,0,0,0-.9-.46,3.67,3.67,0,0,0-1.06-.16,3,3,0,0,0-1.66.43,3.4,3.4,0,0,0-1.1,1.1,4.84,4.84,0,0,0-.62,1.55,8.3,8.3,0,0,0-.18,1.72Z"/><path class="cls-5" d="M169.1,595.46a5.09,5.09,0,0,1-.19-.79,8.46,8.46,0,0,1-.08-.88,5,5,0,0,1-.77.75,5.62,5.62,0,0,1-1,.6,5.48,5.48,0,0,1-1.12.39,5.18,5.18,0,0,1-1.26.15,4.6,4.6,0,0,1-1.51-.24,3.82,3.82,0,0,1-1.23-.66,3,3,0,0,1-1.11-2.4,3.07,3.07,0,0,1,.44-1.7,3.4,3.4,0,0,1,1.19-1.13,5.87,5.87,0,0,1,1.74-.64,10.69,10.69,0,0,1,2.07-.2h2.52v-1.32a2.79,2.79,0,0,0-.26-1.16,2.49,2.49,0,0,0-.67-.84,3.1,3.1,0,0,0-1-.51,4.7,4.7,0,0,0-1.27-.17,4.17,4.17,0,0,0-1.19.16,3.4,3.4,0,0,0-1,.46,2.47,2.47,0,0,0-.7.74,1.94,1.94,0,0,0-.29,1h-1.29a2.9,2.9,0,0,1,.39-1.36,3.44,3.44,0,0,1,1-1.08,4.8,4.8,0,0,1,1.43-.72,5.7,5.7,0,0,1,1.73-.25,6.4,6.4,0,0,1,1.73.23,4.16,4.16,0,0,1,1.41.71,3.54,3.54,0,0,1,.95,1.18,3.94,3.94,0,0,1,.36,1.66V593a6.77,6.77,0,0,0,.1,1.17c.07.39.15.77.25,1.12v.13Zm-4.25-.92a4.59,4.59,0,0,0,1.3-.16,5,5,0,0,0,1.13-.48,4.11,4.11,0,0,0,.92-.73,3.36,3.36,0,0,0,.62-.93V589.7h-2.34a10.91,10.91,0,0,0-1.64.12,5,5,0,0,0-1.38.43,2.59,2.59,0,0,0-1,.79,2,2,0,0,0-.36,1.23,2,2,0,0,0,.79,1.66,2.43,2.43,0,0,0,.86.45A3.32,3.32,0,0,0,164.85,594.54Z"/><path class="cls-5" d="M178.59,580.87v3h4.31v1h-4.31v7.32a3,3,0,0,0,.21,1.12,2,2,0,0,0,.54.72,2.17,2.17,0,0,0,.79.39,4,4,0,0,0,1,.12,8.33,8.33,0,0,0,1.1-.07l1-.15.19,1a4.35,4.35,0,0,1-1.12.28,10.24,10.24,0,0,1-1.36.09,5,5,0,0,1-1.43-.19,2.86,2.86,0,0,1-1.13-.6,2.91,2.91,0,0,1-.77-1.07,4.51,4.51,0,0,1-.29-1.62v-7.31h-3.23v-1h3.23v-3Z"/><path class="cls-5" d="M192.47,595.68a5.32,5.32,0,0,1-2.21-.45,5.06,5.06,0,0,1-1.71-1.23,5.39,5.39,0,0,1-1.11-1.81,6.18,6.18,0,0,1-.4-2.2v-.47a6.54,6.54,0,0,1,.41-2.32,6.2,6.2,0,0,1,1.1-1.87,5.19,5.19,0,0,1,1.65-1.25,4.64,4.64,0,0,1,2-.45,4.94,4.94,0,0,1,2.05.41,4.49,4.49,0,0,1,1.5,1.15,5.11,5.11,0,0,1,.92,1.69A7,7,0,0,1,197,589v.79h-8.7V590a5.1,5.1,0,0,0,.31,1.74,4.57,4.57,0,0,0,.85,1.47,4,4,0,0,0,1.32,1,3.75,3.75,0,0,0,1.72.38,4.4,4.4,0,0,0,1.94-.39A4.15,4.15,0,0,0,196,593l.82.62a5,5,0,0,1-.76.83,5.13,5.13,0,0,1-1,.65,5.31,5.31,0,0,1-1.18.42A6.06,6.06,0,0,1,192.47,595.68Zm-.24-11a3.37,3.37,0,0,0-1.44.3,3.46,3.46,0,0,0-1.15.82,4.32,4.32,0,0,0-.82,1.24,6,6,0,0,0-.44,1.56h7.36v-.14a4.51,4.51,0,0,0-.27-1.4,4,4,0,0,0-.68-1.21,3.52,3.52,0,0,0-1.09-.85A3.31,3.31,0,0,0,192.23,584.72Z"/><path class="cls-5" d="M205.09,595.09a4.29,4.29,0,0,1-.1.94,5.36,5.36,0,0,1-.29.94,4.91,4.91,0,0,1-.46.88,4.49,4.49,0,0,1-.65.78l-.82-.51a5.12,5.12,0,0,0,.95-3v-1.68h1.37Z"/><path class="cls-5" d="M6.27,620.26a5.07,5.07,0,0,1,.09-.94,4.89,4.89,0,0,1,.29-.94,4.39,4.39,0,0,1,.47-.88,4,4,0,0,1,.64-.78l.74.54a5.54,5.54,0,0,0-.72,1.41,5.2,5.2,0,0,0-.26,1.56v1.36H6.27Z"/><path class="cls-5" d="M20.6,632.59a4.16,4.16,0,0,0,1.23-.18,3.28,3.28,0,0,0,1-.55,2.88,2.88,0,0,0,.74-.85,2.62,2.62,0,0,0,.33-1.13h1.23a3.43,3.43,0,0,1-.43,1.52,3.77,3.77,0,0,1-1,1.2,4.62,4.62,0,0,1-1.43.79,5,5,0,0,1-1.69.29,4.58,4.58,0,0,1-3.8-1.77,5.62,5.62,0,0,1-.94-1.86,7.17,7.17,0,0,1-.32-2.17v-.45a7.19,7.19,0,0,1,.32-2.18,5.57,5.57,0,0,1,.94-1.85,4.59,4.59,0,0,1,1.57-1.29,4.84,4.84,0,0,1,2.22-.48,5.12,5.12,0,0,1,1.78.3,4.37,4.37,0,0,1,1.43.86,4.18,4.18,0,0,1,1,1.31,4.54,4.54,0,0,1,.39,1.66H23.93a3.08,3.08,0,0,0-.3-1.21,3.29,3.29,0,0,0-.71-1,3.22,3.22,0,0,0-1-.63,3.65,3.65,0,0,0-1.29-.23,3.46,3.46,0,0,0-1.73.41,3.5,3.5,0,0,0-1.16,1.07,4.78,4.78,0,0,0-.66,1.51,7.17,7.17,0,0,0-.21,1.72v.45a7.25,7.25,0,0,0,.21,1.73,4.68,4.68,0,0,0,.66,1.51,3.61,3.61,0,0,0,1.16,1.07A3.5,3.5,0,0,0,20.6,632.59Z"/><path class="cls-5" d="M37.08,633.46a5.09,5.09,0,0,1-.19-.79,8.46,8.46,0,0,1-.08-.88,4.64,4.64,0,0,1-.78.75,5.18,5.18,0,0,1-1,.6,5.69,5.69,0,0,1-1.12.39,5.18,5.18,0,0,1-1.26.15,4.7,4.7,0,0,1-1.52-.24,3.77,3.77,0,0,1-1.22-.66,3,3,0,0,1-1.11-2.4,3.07,3.07,0,0,1,.44-1.7,3.4,3.4,0,0,1,1.19-1.13,5.87,5.87,0,0,1,1.74-.64,10.69,10.69,0,0,1,2.07-.2H36.8v-1.32a2.79,2.79,0,0,0-.26-1.16,2.62,2.62,0,0,0-.67-.84,3.2,3.2,0,0,0-1-.51,4.72,4.72,0,0,0-1.28-.17,4.15,4.15,0,0,0-1.18.16,3.4,3.4,0,0,0-1,.46,2.35,2.35,0,0,0-.7.74,1.94,1.94,0,0,0-.29,1H29.12a2.9,2.9,0,0,1,.39-1.36,3.44,3.44,0,0,1,1-1.08,4.86,4.86,0,0,1,1.42-.72,5.76,5.76,0,0,1,1.74-.25,6.46,6.46,0,0,1,1.73.23,4.25,4.25,0,0,1,1.41.71,3.54,3.54,0,0,1,.95,1.18,3.94,3.94,0,0,1,.36,1.66V631a6.77,6.77,0,0,0,.1,1.17c.07.39.15.77.25,1.12v.13Zm-4.25-.92a4.68,4.68,0,0,0,1.3-.16,5,5,0,0,0,1.13-.48,4.05,4.05,0,0,0,.91-.73,3.19,3.19,0,0,0,.63-.93V627.7H34.45a10.78,10.78,0,0,0-1.63.12,5,5,0,0,0-1.38.43,2.54,2.54,0,0,0-1,.79,2,2,0,0,0-.35,1.23,2,2,0,0,0,.79,1.66,2.43,2.43,0,0,0,.86.45A3.32,3.32,0,0,0,32.83,632.54Z"/><path class="cls-5" d="M46.57,618.87v3h4.31v1H46.57v7.32a3,3,0,0,0,.21,1.12,1.8,1.8,0,0,0,.54.72,2.09,2.09,0,0,0,.79.39,4,4,0,0,0,1,.12,8.44,8.44,0,0,0,1.1-.07l1-.15.19,1a4.46,4.46,0,0,1-1.12.28,10.24,10.24,0,0,1-1.36.09,5,5,0,0,1-1.43-.19,3,3,0,0,1-1.14-.6,3,3,0,0,1-.76-1.07,4.51,4.51,0,0,1-.29-1.62v-7.31H42v-1h3.23v-3Z"/><path class="cls-5" d="M60.45,633.68a5.29,5.29,0,0,1-2.21-.45A5.06,5.06,0,0,1,56.53,632a5.39,5.39,0,0,1-1.11-1.81A6.18,6.18,0,0,1,55,628v-.47a6.54,6.54,0,0,1,.41-2.32,6,6,0,0,1,1.1-1.87,5.26,5.26,0,0,1,1.64-1.25,4.67,4.67,0,0,1,2-.45,5,5,0,0,1,2.06.41,4.35,4.35,0,0,1,1.49,1.15,5,5,0,0,1,.93,1.69A7,7,0,0,1,65,627v.79H56.3V628a5.36,5.36,0,0,0,.32,1.74,4.73,4.73,0,0,0,.84,1.47,4.15,4.15,0,0,0,1.33,1,3.71,3.71,0,0,0,1.71.38,4.42,4.42,0,0,0,2-.39A4.15,4.15,0,0,0,63.93,631l.82.62a5,5,0,0,1-.76.83,5.13,5.13,0,0,1-1,.65,5.49,5.49,0,0,1-1.18.42A6.06,6.06,0,0,1,60.45,633.68Zm-.25-11a3.46,3.46,0,0,0-2.58,1.12,4.12,4.12,0,0,0-.82,1.24,5.62,5.62,0,0,0-.44,1.56h7.36v-.14a4.51,4.51,0,0,0-.27-1.4,4,4,0,0,0-.68-1.21,3.52,3.52,0,0,0-1.09-.85A3.32,3.32,0,0,0,60.2,622.72Z"/><path class="cls-5" d="M68.33,627.54a9,9,0,0,1,.27-2.22,6,6,0,0,1,.86-1.9,4.41,4.41,0,0,1,1.44-1.31,4.13,4.13,0,0,1,2-.48,4.26,4.26,0,0,1,2,.47,4.12,4.12,0,0,1,1.47,1.35l.06-1.61h1.2v11.42a6,6,0,0,1-.33,2,4.5,4.5,0,0,1-.93,1.54,4.33,4.33,0,0,1-1.47,1,4.92,4.92,0,0,1-1.93.35A5.8,5.8,0,0,1,72,638a4.91,4.91,0,0,1-1.1-.37,5.22,5.22,0,0,1-1-.62,4,4,0,0,1-.85-.88l.72-.78A4.1,4.1,0,0,0,72.93,637a3.83,3.83,0,0,0,1.48-.27,2.86,2.86,0,0,0,1.07-.76,3.07,3.07,0,0,0,.67-1.17,5,5,0,0,0,.24-1.5V632a4.09,4.09,0,0,1-1.5,1.25,4.39,4.39,0,0,1-2,.44,4,4,0,0,1-2-.5,4.33,4.33,0,0,1-1.44-1.32,6,6,0,0,1-.85-1.89,8.56,8.56,0,0,1-.28-2.2Zm1.28.23a8.41,8.41,0,0,0,.19,1.73,5,5,0,0,0,.61,1.54,3.28,3.28,0,0,0,1.09,1.1,3.12,3.12,0,0,0,1.66.42,4,4,0,0,0,1-.14,3.59,3.59,0,0,0,.91-.42,3.49,3.49,0,0,0,.74-.65,3.41,3.41,0,0,0,.54-.85V625a4.33,4.33,0,0,0-.52-.89,3.46,3.46,0,0,0-.72-.71,3.39,3.39,0,0,0-.91-.46,3.32,3.32,0,0,0-1.06-.17,3,3,0,0,0-1.66.43,3.43,3.43,0,0,0-1.11,1.1,5.07,5.07,0,0,0-.61,1.55,8.31,8.31,0,0,0-.19,1.72Z"/><path class="cls-5" d="M81.23,627.48a7.15,7.15,0,0,1,.36-2.24,5.93,5.93,0,0,1,1-1.87,5.11,5.11,0,0,1,6-1.27,5,5,0,0,1,1.63,1.27,5.93,5.93,0,0,1,1,1.87,7.15,7.15,0,0,1,.36,2.24v.35a7,7,0,0,1-.36,2.25,5.57,5.57,0,0,1-1,1.86,4.89,4.89,0,0,1-1.62,1.27,5.31,5.31,0,0,1-4.37,0,4.83,4.83,0,0,1-1.63-1.27,5.77,5.77,0,0,1-1-1.86,7.26,7.26,0,0,1-.36-2.25Zm1.29.35a6.29,6.29,0,0,0,.25,1.79,5,5,0,0,0,.76,1.52,3.74,3.74,0,0,0,1.21,1.06,3.54,3.54,0,0,0,1.69.39,3.49,3.49,0,0,0,1.67-.39,3.85,3.85,0,0,0,1.21-1.06,5,5,0,0,0,.75-1.52,6.29,6.29,0,0,0,.25-1.79v-.35a6.16,6.16,0,0,0-.25-1.77,4.93,4.93,0,0,0-.76-1.52,3.81,3.81,0,0,0-1.22-1.07,3.53,3.53,0,0,0-1.68-.4,3.49,3.49,0,0,0-1.67.4,3.88,3.88,0,0,0-1.21,1.07,4.91,4.91,0,0,0-.75,1.52,6.16,6.16,0,0,0-.25,1.77Z"/><path class="cls-5" d="M102.79,621.63c.32,0,.64,0,1,0a4.37,4.37,0,0,1,.81.17l-.16,1.24a9.39,9.39,0,0,0-1.83-.21,4.78,4.78,0,0,0-2.77.78A4.09,4.09,0,0,0,98.2,626v7.43H96.88V621.84h1.23l.09,2v.24a5.1,5.1,0,0,1,1.88-1.81A5.41,5.41,0,0,1,102.79,621.63Z"/><path class="cls-5" d="M112.67,631.1l.24.63,4.2-9.89h1.46l-6,13.48a7.37,7.37,0,0,1-.56,1,4.43,4.43,0,0,1-.76.91,3.36,3.36,0,0,1-1,.65,3.19,3.19,0,0,1-1.31.25,4.13,4.13,0,0,1-.57,0l-.53-.1.15-1.08.46.05.46,0a2.2,2.2,0,0,0,.9-.19,2.81,2.81,0,0,0,.72-.5,4.12,4.12,0,0,0,.56-.69,6.23,6.23,0,0,0,.41-.75l.79-1.72L107,621.84h1.45Z"/><path class="cls-5" d="M127,618.19a5.2,5.2,0,0,1-.1.95,5,5,0,0,1-.3.93,4.91,4.91,0,0,1-.46.88,4.08,4.08,0,0,1-.65.78l-.74-.56a5.62,5.62,0,0,0,.73-1.39,5.22,5.22,0,0,0,.25-1.57v-1.35H127Z"/><path class="cls-5" d="M139,623.14a1.08,1.08,0,0,1,.3-.77,1,1,0,0,1,.8-.31,1.06,1.06,0,0,1,.81.31,1.12,1.12,0,0,1,.29.77,1.05,1.05,0,0,1-.29.75,1.13,1.13,0,0,1-.81.29,1.09,1.09,0,0,1-.8-.29A1,1,0,0,1,139,623.14Zm0,9.41a1.08,1.08,0,0,1,.3-.77,1,1,0,0,1,.8-.31,1.06,1.06,0,0,1,.81.31,1.12,1.12,0,0,1,.29.77,1.05,1.05,0,0,1-.29.75,1.13,1.13,0,0,1-.81.29,1.09,1.09,0,0,1-.8-.29A1,1,0,0,1,139,632.55Z"/><path class="cls-5" d="M149.31,629.69l.34,2.07.43-2.07,2-7.85h.9l2,7.85.43,2.12.37-2.12,1.59-7.85h1.2l-2.58,11.62h-1l-2.06-8-.34-1.85-.34,1.85-2,8h-1.05l-2.57-11.62h1.19Z"/><path class="cls-5" d="M160.44,627.48a7.45,7.45,0,0,1,.36-2.24,5.93,5.93,0,0,1,1-1.87,5,5,0,0,1,7.61,0,5.93,5.93,0,0,1,1,1.87,7.16,7.16,0,0,1,.37,2.24v.35a7.57,7.57,0,0,1-.36,2.25,5.77,5.77,0,0,1-1,1.86,4.7,4.7,0,0,1-1.62,1.27,5.31,5.31,0,0,1-4.37,0,4.7,4.7,0,0,1-1.62-1.27,5.61,5.61,0,0,1-1-1.86,7.57,7.57,0,0,1-.36-2.25Zm1.29.35a6,6,0,0,0,.26,1.79,4.8,4.8,0,0,0,.75,1.52A3.78,3.78,0,0,0,164,632.2a3.79,3.79,0,0,0,3.35,0,3.74,3.74,0,0,0,1.21-1.06,4.8,4.8,0,0,0,.75-1.52,6.3,6.3,0,0,0,.26-1.79v-.35a6.16,6.16,0,0,0-.26-1.77,4.7,4.7,0,0,0-.75-1.52,3.84,3.84,0,0,0-1.23-1.07,3.69,3.69,0,0,0-3.34,0,3.81,3.81,0,0,0-1.22,1.07,4.89,4.89,0,0,0-.74,1.52,5.84,5.84,0,0,0-.26,1.77Z"/><path class="cls-5" d="M173.92,627.54a8.55,8.55,0,0,1,.29-2.22,5.81,5.81,0,0,1,.87-1.9,4.41,4.41,0,0,1,1.44-1.31,4.09,4.09,0,0,1,2-.48,4.06,4.06,0,0,1,3.45,1.79V617h1.28v16.5h-1.21l0-1.51a4.08,4.08,0,0,1-1.5,1.28,4.38,4.38,0,0,1-2,.45,3.94,3.94,0,0,1-2-.5,4.33,4.33,0,0,1-1.44-1.32,5.85,5.85,0,0,1-.87-1.89,8.57,8.57,0,0,1-.29-2.2Zm1.3.23a7.77,7.77,0,0,0,.19,1.73A4.77,4.77,0,0,0,176,631a3.19,3.19,0,0,0,1.09,1.1,3.08,3.08,0,0,0,1.66.42,3.82,3.82,0,0,0,1-.14,3.33,3.33,0,0,0,.9-.4,3.8,3.8,0,0,0,.75-.63,4.06,4.06,0,0,0,.55-.84v-5.63a4.12,4.12,0,0,0-.53-.88,3.62,3.62,0,0,0-.73-.68,3.19,3.19,0,0,0-.9-.46,3.6,3.6,0,0,0-1.05-.16,3,3,0,0,0-1.67.43,3.4,3.4,0,0,0-1.1,1.1,4.83,4.83,0,0,0-.61,1.55,7.68,7.68,0,0,0-.19,1.72Z"/><path class="cls-5" d="M191.26,632.55a1.12,1.12,0,0,1,.29-.77,1.05,1.05,0,0,1,.8-.31,1.07,1.07,0,0,1,.82.31,1.12,1.12,0,0,1,.29.77,1.05,1.05,0,0,1-.29.75,1.14,1.14,0,0,1-.82.29,1.12,1.12,0,0,1-.8-.29A1.05,1.05,0,0,1,191.26,632.55Z"/><path class="cls-5" d="M205.43,632.59a4.16,4.16,0,0,0,1.23-.18,3.28,3.28,0,0,0,1-.55,2.88,2.88,0,0,0,.74-.85,2.62,2.62,0,0,0,.33-1.13H210a3.43,3.43,0,0,1-.43,1.52,3.77,3.77,0,0,1-1,1.2,4.62,4.62,0,0,1-1.43.79,5,5,0,0,1-1.69.29,4.89,4.89,0,0,1-2.23-.48,4.83,4.83,0,0,1-1.57-1.29,5.62,5.62,0,0,1-.94-1.86,7.17,7.17,0,0,1-.32-2.17v-.45a7.19,7.19,0,0,1,.32-2.18,5.57,5.57,0,0,1,.94-1.85,4.59,4.59,0,0,1,1.57-1.29,4.84,4.84,0,0,1,2.22-.48,5.12,5.12,0,0,1,1.78.3,4.37,4.37,0,0,1,1.43.86,4.18,4.18,0,0,1,1,1.31,4.54,4.54,0,0,1,.39,1.66h-1.23a3.08,3.08,0,0,0-.3-1.21,3.29,3.29,0,0,0-.71-1,3.22,3.22,0,0,0-1-.63,3.65,3.65,0,0,0-1.29-.23,3.46,3.46,0,0,0-1.73.41,3.5,3.5,0,0,0-1.16,1.07,4.78,4.78,0,0,0-.66,1.51,7.17,7.17,0,0,0-.21,1.72v.45a7.25,7.25,0,0,0,.21,1.73,4.68,4.68,0,0,0,.66,1.51,3.61,3.61,0,0,0,1.16,1.07A3.5,3.5,0,0,0,205.43,632.59Z"/><path class="cls-5" d="M221.91,633.46a5.09,5.09,0,0,1-.19-.79,8.46,8.46,0,0,1-.08-.88,4.64,4.64,0,0,1-.78.75,5.18,5.18,0,0,1-1,.6,5.69,5.69,0,0,1-1.12.39,5.18,5.18,0,0,1-1.26.15,4.7,4.7,0,0,1-1.52-.24,3.77,3.77,0,0,1-1.22-.66,3,3,0,0,1-1.11-2.4,3.07,3.07,0,0,1,.44-1.7,3.4,3.4,0,0,1,1.19-1.13,5.87,5.87,0,0,1,1.74-.64,10.69,10.69,0,0,1,2.07-.2h2.52v-1.32a2.79,2.79,0,0,0-.26-1.16,2.62,2.62,0,0,0-.67-.84,3.2,3.2,0,0,0-1-.51,4.72,4.72,0,0,0-1.28-.17,4.15,4.15,0,0,0-1.18.16,3.4,3.4,0,0,0-1,.46,2.35,2.35,0,0,0-.7.74,1.94,1.94,0,0,0-.29,1H214a2.9,2.9,0,0,1,.39-1.36,3.44,3.44,0,0,1,1-1.08,4.86,4.86,0,0,1,1.42-.72,5.76,5.76,0,0,1,1.74-.25,6.46,6.46,0,0,1,1.73.23,4.25,4.25,0,0,1,1.41.71,3.54,3.54,0,0,1,.95,1.18,3.94,3.94,0,0,1,.36,1.66V631a6.77,6.77,0,0,0,.1,1.17c.07.39.15.77.25,1.12v.13Zm-4.25-.92a4.68,4.68,0,0,0,1.3-.16,5,5,0,0,0,1.13-.48,4.05,4.05,0,0,0,.91-.73,3.19,3.19,0,0,0,.63-.93V627.7h-2.35a10.78,10.78,0,0,0-1.63.12,5,5,0,0,0-1.38.43,2.62,2.62,0,0,0-1,.79,2,2,0,0,0-.35,1.23,2,2,0,0,0,.79,1.66,2.43,2.43,0,0,0,.86.45A3.32,3.32,0,0,0,217.66,632.54Z"/><path class="cls-5" d="M231.4,618.87v3h4.31v1H231.4v7.32a3,3,0,0,0,.21,1.12,1.8,1.8,0,0,0,.54.72,2.09,2.09,0,0,0,.79.39,4,4,0,0,0,1,.12,8.44,8.44,0,0,0,1.1-.07l1-.15.19,1a4.46,4.46,0,0,1-1.12.28,10.24,10.24,0,0,1-1.36.09,5,5,0,0,1-1.43-.19,3,3,0,0,1-1.14-.6,3,3,0,0,1-.76-1.07,4.51,4.51,0,0,1-.29-1.62v-7.31h-3.23v-1h3.23v-3Z"/><path class="cls-5" d="M245.28,633.68a5.29,5.29,0,0,1-2.21-.45,5.06,5.06,0,0,1-1.71-1.23,5.39,5.39,0,0,1-1.11-1.81,6.18,6.18,0,0,1-.4-2.2v-.47a6.54,6.54,0,0,1,.41-2.32,6,6,0,0,1,1.1-1.87,5.26,5.26,0,0,1,1.64-1.25,4.67,4.67,0,0,1,2-.45,5,5,0,0,1,2.06.41,4.35,4.35,0,0,1,1.49,1.15,5,5,0,0,1,.93,1.69,7,7,0,0,1,.33,2.07v.79h-8.71V628a5.36,5.36,0,0,0,.32,1.74,4.73,4.73,0,0,0,.84,1.47,4.15,4.15,0,0,0,1.33,1,3.71,3.71,0,0,0,1.71.38,4.42,4.42,0,0,0,1.95-.39,4.15,4.15,0,0,0,1.48-1.19l.82.62a5,5,0,0,1-.76.83,5.13,5.13,0,0,1-1,.65,5.31,5.31,0,0,1-1.18.42A6.06,6.06,0,0,1,245.28,633.68Zm-.25-11a3.46,3.46,0,0,0-2.58,1.12,4.32,4.32,0,0,0-.82,1.24,5.62,5.62,0,0,0-.44,1.56h7.36v-.14a4.51,4.51,0,0,0-.27-1.4,4,4,0,0,0-.68-1.21,3.52,3.52,0,0,0-1.09-.85A3.32,3.32,0,0,0,245,622.72Z"/><path class="cls-5" d="M253.16,627.54a9,9,0,0,1,.27-2.22,6,6,0,0,1,.86-1.9,4.41,4.41,0,0,1,1.44-1.31,4.13,4.13,0,0,1,2-.48,4.26,4.26,0,0,1,2,.47,4.12,4.12,0,0,1,1.47,1.35l.06-1.61h1.2v11.42a6,6,0,0,1-.33,2,4.5,4.5,0,0,1-.93,1.54,4.33,4.33,0,0,1-1.47,1,4.92,4.92,0,0,1-1.93.35,5.8,5.8,0,0,1-1.07-.11,4.91,4.91,0,0,1-1.1-.37,5.22,5.22,0,0,1-1-.62,4,4,0,0,1-.85-.88l.72-.78a4.1,4.1,0,0,0,3.24,1.68,3.83,3.83,0,0,0,1.48-.27,2.86,2.86,0,0,0,1.07-.76,3.07,3.07,0,0,0,.67-1.17,5,5,0,0,0,.24-1.5V632a4.09,4.09,0,0,1-1.5,1.25,4.39,4.39,0,0,1-2,.44,4,4,0,0,1-2-.5,4.33,4.33,0,0,1-1.44-1.32,6,6,0,0,1-.85-1.89,8.56,8.56,0,0,1-.28-2.2Zm1.28.23a8.41,8.41,0,0,0,.19,1.73,5,5,0,0,0,.61,1.54,3.28,3.28,0,0,0,1.09,1.1,3.12,3.12,0,0,0,1.66.42,4,4,0,0,0,1-.14,3.59,3.59,0,0,0,.91-.42,3.49,3.49,0,0,0,.74-.65,3.41,3.41,0,0,0,.54-.85V625a4.33,4.33,0,0,0-.52-.89,3.46,3.46,0,0,0-.72-.71,3.39,3.39,0,0,0-.91-.46,3.32,3.32,0,0,0-1.06-.17,3,3,0,0,0-1.66.43,3.43,3.43,0,0,0-1.11,1.1,5.07,5.07,0,0,0-.61,1.55,8.31,8.31,0,0,0-.19,1.72Z"/><path class="cls-5" d="M266.06,627.48a7.15,7.15,0,0,1,.36-2.24,5.93,5.93,0,0,1,1-1.87,5.11,5.11,0,0,1,6-1.27,5,5,0,0,1,1.63,1.27,5.93,5.93,0,0,1,1,1.87,7.15,7.15,0,0,1,.36,2.24v.35a7,7,0,0,1-.36,2.25,5.57,5.57,0,0,1-1,1.86,4.89,4.89,0,0,1-1.62,1.27,5.31,5.31,0,0,1-4.37,0,4.83,4.83,0,0,1-1.63-1.27,5.77,5.77,0,0,1-1-1.86,7.26,7.26,0,0,1-.36-2.25Zm1.29.35a6.29,6.29,0,0,0,.25,1.79,5,5,0,0,0,.76,1.52,3.74,3.74,0,0,0,1.21,1.06,3.54,3.54,0,0,0,1.69.39,3.49,3.49,0,0,0,1.67-.39,3.85,3.85,0,0,0,1.21-1.06,5,5,0,0,0,.75-1.52,6.29,6.29,0,0,0,.25-1.79v-.35a6.16,6.16,0,0,0-.25-1.77,4.93,4.93,0,0,0-.76-1.52,3.81,3.81,0,0,0-1.22-1.07,3.53,3.53,0,0,0-1.68-.4,3.49,3.49,0,0,0-1.67.4,3.88,3.88,0,0,0-1.21,1.07,4.91,4.91,0,0,0-.75,1.52,6.16,6.16,0,0,0-.25,1.77Z"/><path class="cls-5" d="M287.62,621.63c.32,0,.64,0,1,0a4.37,4.37,0,0,1,.81.17l-.16,1.24a7,7,0,0,0-.9-.15,7.14,7.14,0,0,0-.93-.06,4.78,4.78,0,0,0-2.77.78A4.09,4.09,0,0,0,283,626v7.43h-1.33V621.84h1.23l.09,2v.24a5.1,5.1,0,0,1,1.88-1.81A5.41,5.41,0,0,1,287.62,621.63Z"/><path class="cls-5" d="M297.5,631.1l.24.63,4.2-9.89h1.46l-6,13.48a7.37,7.37,0,0,1-.56,1,4.43,4.43,0,0,1-.76.91,3.36,3.36,0,0,1-1,.65,3.19,3.19,0,0,1-1.31.25,4.13,4.13,0,0,1-.57,0l-.53-.1.15-1.08.46.05.46,0a2.2,2.2,0,0,0,.9-.19,2.81,2.81,0,0,0,.72-.5,4.12,4.12,0,0,0,.56-.69,6.23,6.23,0,0,0,.41-.75l.79-1.72-5.22-11.32h1.45Z"/><path class="cls-5" d="M310.71,633.09a4.29,4.29,0,0,1-.1.94,5.36,5.36,0,0,1-.29.94,5,5,0,0,1-.47.88,4,4,0,0,1-.64.78l-.82-.51a5.12,5.12,0,0,0,.95-3v-1.68h1.37Z"/><path class="cls-6" d="M641.84,223.54v12.79h-1.69V223.54ZM647.91,235v1.38h-6.4V235Z"/><path class="cls-6" d="M659.12,229.53v.81a8.56,8.56,0,0,1-.36,2.58,5.39,5.39,0,0,1-1,1.94,4.54,4.54,0,0,1-1.62,1.23,5.13,5.13,0,0,1-2.11.42,5.05,5.05,0,0,1-2.08-.42,4.66,4.66,0,0,1-1.63-1.23,5.6,5.6,0,0,1-1.07-1.94,8.23,8.23,0,0,1-.38-2.58v-.81a8.24,8.24,0,0,1,.37-2.58,5.75,5.75,0,0,1,1.06-1.94,4.54,4.54,0,0,1,1.63-1.23,5.43,5.43,0,0,1,4.19,0,4.46,4.46,0,0,1,1.63,1.23,5.73,5.73,0,0,1,1,1.94A8.56,8.56,0,0,1,659.12,229.53Zm-1.68.81v-.83a7.74,7.74,0,0,0-.23-2,4.31,4.31,0,0,0-.68-1.48,2.9,2.9,0,0,0-1.1-.9,3.26,3.26,0,0,0-1.46-.31,3.19,3.19,0,0,0-1.43.31,3,3,0,0,0-1.09.9,4.52,4.52,0,0,0-.7,1.48,7.72,7.72,0,0,0-.24,2v.83a7.74,7.74,0,0,0,.24,2,4.59,4.59,0,0,0,.71,1.49,3.18,3.18,0,0,0,1.1.91,3.33,3.33,0,0,0,1.43.31,3.45,3.45,0,0,0,1.47-.31,2.94,2.94,0,0,0,1.08-.91,4.17,4.17,0,0,0,.67-1.49A7.77,7.77,0,0,0,657.44,230.34Z"/><path class="cls-6" d="M671.11,230v4.68a3.89,3.89,0,0,1-.76.79,4.68,4.68,0,0,1-1.42.76,7.32,7.32,0,0,1-2.35.32,5.51,5.51,0,0,1-2.14-.41,4.62,4.62,0,0,1-1.7-1.2,5.37,5.37,0,0,1-1.11-1.91,7.82,7.82,0,0,1-.39-2.56v-1a8.7,8.7,0,0,1,.34-2.55,5.31,5.31,0,0,1,1-1.92,4.24,4.24,0,0,1,1.61-1.19,5.6,5.6,0,0,1,2.2-.41,5.34,5.34,0,0,1,2.46.51,3.78,3.78,0,0,1,1.54,1.39,5,5,0,0,1,.72,2h-1.7A3.44,3.44,0,0,0,669,226a2.48,2.48,0,0,0-1-.91,3.2,3.2,0,0,0-1.61-.35,3.53,3.53,0,0,0-1.54.32,2.9,2.9,0,0,0-1.07.93,4.48,4.48,0,0,0-.63,1.47,8.29,8.29,0,0,0-.2,1.95v1a7,7,0,0,0,.25,2,4.3,4.3,0,0,0,.75,1.48,3.12,3.12,0,0,0,1.15.93,3.49,3.49,0,0,0,1.49.32,5.34,5.34,0,0,0,1.47-.16,3,3,0,0,0,.88-.36,2.65,2.65,0,0,0,.48-.41v-2.87h-3V230Z"/><path class="cls-6" d="M683.37,230v4.68a4.08,4.08,0,0,1-.75.79,4.88,4.88,0,0,1-1.43.76,7.32,7.32,0,0,1-2.35.32,5.55,5.55,0,0,1-2.14-.41,4.62,4.62,0,0,1-1.7-1.2,5.37,5.37,0,0,1-1.11-1.91,7.82,7.82,0,0,1-.39-2.56v-1a8.7,8.7,0,0,1,.34-2.55,5.31,5.31,0,0,1,1-1.92,4.31,4.31,0,0,1,1.61-1.19,5.64,5.64,0,0,1,2.2-.41,5.34,5.34,0,0,1,2.46.51,3.87,3.87,0,0,1,1.55,1.39,5,5,0,0,1,.71,2h-1.7a3.44,3.44,0,0,0-.45-1.27,2.41,2.41,0,0,0-1-.91,3.2,3.2,0,0,0-1.61-.35,3.53,3.53,0,0,0-1.54.32A2.9,2.9,0,0,0,676,226a4.48,4.48,0,0,0-.63,1.47,8.29,8.29,0,0,0-.2,1.95v1a6.67,6.67,0,0,0,.26,2,4.28,4.28,0,0,0,.74,1.48,3.12,3.12,0,0,0,1.15.93,3.49,3.49,0,0,0,1.49.32,5.34,5.34,0,0,0,1.47-.16,3,3,0,0,0,.88-.36,2.65,2.65,0,0,0,.48-.41v-2.87h-3V230Z"/><path class="cls-6" d="M688,223.54v12.79H686.3V223.54Z"/><path class="cls-6" d="M700.91,223.54v12.79h-1.7l-6.44-9.87v9.87h-1.7V223.54h1.7l6.47,9.89v-9.89Z"/><path class="cls-6" d="M713.37,230v4.68a3.89,3.89,0,0,1-.76.79,4.63,4.63,0,0,1-1.43.76,7.21,7.21,0,0,1-2.34.32,5.6,5.6,0,0,1-2.15-.41,4.59,4.59,0,0,1-1.69-1.2,5.37,5.37,0,0,1-1.11-1.91,7.82,7.82,0,0,1-.39-2.56v-1a8.7,8.7,0,0,1,.34-2.55,5.3,5.3,0,0,1,1-1.92,4.27,4.27,0,0,1,1.62-1.19,5.6,5.6,0,0,1,2.2-.41,5.34,5.34,0,0,1,2.46.51,3.84,3.84,0,0,1,1.54,1.39,5.13,5.13,0,0,1,.72,2h-1.7a3.63,3.63,0,0,0-.45-1.27,2.55,2.55,0,0,0-1-.91,3.23,3.23,0,0,0-1.61-.35,3.5,3.5,0,0,0-1.54.32A2.9,2.9,0,0,0,706,226a4.48,4.48,0,0,0-.63,1.47,8.27,8.27,0,0,0-.21,1.95v1a7,7,0,0,0,.26,2,4.28,4.28,0,0,0,.74,1.48,3.23,3.23,0,0,0,1.16.93,3.49,3.49,0,0,0,1.49.32,5.44,5.44,0,0,0,1.47-.16,3.07,3.07,0,0,0,.88-.36,2.65,2.65,0,0,0,.48-.41v-2.87h-3V230Z"/><path class="cls-6" d="M616.63,223.24H624v2.44h-7.34Zm0,4.89H624v2.44h-7.34Zm0,4.88H624v2.45h-7.34Zm-4.88-9.77h2.44v2.44h-2.44Zm0,4.89h2.44v2.44h-2.44Zm0,4.88h2.44v2.45h-2.44Zm16-14.66H608a1.1,1.1,0,0,0-1.1,1.1v19.8a1.18,1.18,0,0,0,1.1,1.1h19.8a1.29,1.29,0,0,0,1.1-1.1v-19.8A1.18,1.18,0,0,0,627.76,218.35Zm-1.35,19.55H609.3V220.79h17.11Z"/><path class="cls-6" d="M477.35,223.54v12.79h-1.69V223.54Zm1.77,12.79h-2.67V235h2.66a4.24,4.24,0,0,0,2.28-.57,3.65,3.65,0,0,0,1.38-1.62,6,6,0,0,0,.46-2.44v-.78a6.89,6.89,0,0,0-.26-2,4.12,4.12,0,0,0-.78-1.45,3.39,3.39,0,0,0-1.24-.9,4.41,4.41,0,0,0-1.68-.31h-2.89v-1.38h2.89a6,6,0,0,1,2.29.41,5,5,0,0,1,1.79,1.21,5.32,5.32,0,0,1,1.16,1.89,7.59,7.59,0,0,1,.4,2.51v.76a7.49,7.49,0,0,1-.4,2.5,5.21,5.21,0,0,1-1.17,1.89,4.86,4.86,0,0,1-1.83,1.2A6.5,6.5,0,0,1,479.12,236.33Z"/><path class="cls-6" d="M489.16,223.54v12.79h-1.69V223.54Zm6.35,0v1.38h-6.69v-1.38Zm-.81,5.5v1.38h-5.88V229Zm.9,5.91v1.38h-6.78V235Z"/><path class="cls-6" d="M502.26,230.35H499l0-1.37h2.94a3.14,3.14,0,0,0,1.28-.24,2,2,0,0,0,.85-.71,2,2,0,0,0,.3-1.1,2.2,2.2,0,0,0-.27-1.15,1.59,1.59,0,0,0-.82-.65,3.91,3.91,0,0,0-1.39-.21H499.4v11.41h-1.7V223.54h4.19a7.25,7.25,0,0,1,1.76.19,3.7,3.7,0,0,1,1.31.62,2.6,2.6,0,0,1,.82,1.06,3.74,3.74,0,0,1,.29,1.54,2.59,2.59,0,0,1-.41,1.42,3.07,3.07,0,0,1-1.12,1,4.48,4.48,0,0,1-1.67.51Zm-.08,6h-3.83l1-1.38h2.87a3.06,3.06,0,0,0,1.38-.28,2.06,2.06,0,0,0,.86-.79,2.4,2.4,0,0,0,.3-1.22,2.73,2.73,0,0,0-.25-1.23,1.77,1.77,0,0,0-.8-.8,3.08,3.08,0,0,0-1.41-.28h-2.42l0-1.37h3.31l.36.5a3.11,3.11,0,0,1,1.56.52,3,3,0,0,1,1,1.13,3.32,3.32,0,0,1,.34,1.51,3.77,3.77,0,0,1-.52,2,3.31,3.31,0,0,1-1.48,1.25A5.44,5.44,0,0,1,502.18,236.33Z"/><path class="cls-6" d="M516.24,223.54h1.68v8.65a4.21,4.21,0,0,1-.64,2.4,4,4,0,0,1-1.7,1.44,5.51,5.51,0,0,1-2.3.48,5.58,5.58,0,0,1-2.35-.48,3.81,3.81,0,0,1-1.66-1.44,4.37,4.37,0,0,1-.61-2.4v-8.65h1.68v8.65a3.25,3.25,0,0,0,.37,1.65,2.25,2.25,0,0,0,1,1,3.89,3.89,0,0,0,3.09,0,2.27,2.27,0,0,0,1-1,3.36,3.36,0,0,0,.37-1.65Z"/><path class="cls-6" d="M530,230v4.68a4.08,4.08,0,0,1-.75.79,4.75,4.75,0,0,1-1.43.76,7.29,7.29,0,0,1-2.34.32,5.57,5.57,0,0,1-2.15-.41,4.62,4.62,0,0,1-1.7-1.2,5.37,5.37,0,0,1-1.11-1.91,7.82,7.82,0,0,1-.39-2.56v-1a8.7,8.7,0,0,1,.34-2.55,5.47,5.47,0,0,1,1-1.92,4.27,4.27,0,0,1,1.62-1.19,5.55,5.55,0,0,1,2.19-.41,5.34,5.34,0,0,1,2.46.51,3.87,3.87,0,0,1,1.55,1.39,5,5,0,0,1,.71,2h-1.69a3.64,3.64,0,0,0-.46-1.27,2.41,2.41,0,0,0-1-.91,3.18,3.18,0,0,0-1.61-.35,3.53,3.53,0,0,0-1.54.32,2.9,2.9,0,0,0-1.07.93,4.48,4.48,0,0,0-.63,1.47,8.86,8.86,0,0,0-.2,1.95v1a6.67,6.67,0,0,0,.26,2,4.28,4.28,0,0,0,.74,1.48,3.15,3.15,0,0,0,1.16.93,3.43,3.43,0,0,0,1.49.32A5.31,5.31,0,0,0,527,235a3,3,0,0,0,.88-.36,3.19,3.19,0,0,0,.49-.41v-2.87h-3V230Z"/><path class="cls-6" d="M542.3,230v4.68a3.8,3.8,0,0,1-.75.79,4.75,4.75,0,0,1-1.43.76,7.29,7.29,0,0,1-2.34.32,5.57,5.57,0,0,1-2.15-.41,4.62,4.62,0,0,1-1.7-1.2,5.37,5.37,0,0,1-1.11-1.91,7.82,7.82,0,0,1-.39-2.56v-1a9,9,0,0,1,.34-2.55,5.47,5.47,0,0,1,1-1.92,4.27,4.27,0,0,1,1.62-1.19,5.59,5.59,0,0,1,2.19-.41,5.34,5.34,0,0,1,2.46.51,3.87,3.87,0,0,1,1.55,1.39,5,5,0,0,1,.71,2h-1.69a3.64,3.64,0,0,0-.46-1.27,2.41,2.41,0,0,0-1-.91,3.18,3.18,0,0,0-1.61-.35,3.45,3.45,0,0,0-1.53.32A2.86,2.86,0,0,0,535,226a4.26,4.26,0,0,0-.62,1.47,8.27,8.27,0,0,0-.21,1.95v1a6.67,6.67,0,0,0,.26,2,4.28,4.28,0,0,0,.74,1.48,3.15,3.15,0,0,0,1.16.93,3.43,3.43,0,0,0,1.49.32,5.31,5.31,0,0,0,1.46-.16,3,3,0,0,0,.88-.36,3.19,3.19,0,0,0,.49-.41v-2.87h-3V230Z"/><path class="cls-6" d="M546.8,223.54v12.79h-1.69V223.54Zm6.35,0v1.38h-6.69v-1.38Zm-.81,5.5v1.38h-5.88V229Zm.9,5.91v1.38h-6.78V235Z"/><path class="cls-6" d="M555.34,223.54h4.23A6.09,6.09,0,0,1,562,224a3.3,3.3,0,0,1,1.52,1.3,4,4,0,0,1,.53,2.11,3.47,3.47,0,0,1-1.38,2.83,4.34,4.34,0,0,1-1.59.75l-.47.19h-4l0-1.38h3a3.29,3.29,0,0,0,1.52-.32,2.25,2.25,0,0,0,.91-.87,2.33,2.33,0,0,0,.31-1.2,2.8,2.8,0,0,0-.29-1.3,1.93,1.93,0,0,0-.91-.85,3.67,3.67,0,0,0-1.6-.31H557v11.41h-1.69Zm7.48,12.79-3.11-5.8h1.76l3.16,5.71v.1Z"/><path class="cls-6" d="M465,224h-3.74a8,8,0,0,0-2.43-2.61l2.17-2.17-1.88-1.88-2.89,2.89a7.89,7.89,0,0,0-1.89-.23,7.68,7.68,0,0,0-1.88.23l-2.91-2.89-1.88,1.88,2.16,2.17a8,8,0,0,0-2.41,2.61h-3.75v2.67h2.79a8.43,8.43,0,0,0-.12,1.33v1.34h-2.67V232h2.67v1.34a8.43,8.43,0,0,0,.12,1.33h-2.79v2.67h3.75a8,8,0,0,0,13.84,0H465v-2.67h-2.78a9.81,9.81,0,0,0,.12-1.33V232H465v-2.66h-2.66V228a9.81,9.81,0,0,0-.12-1.33H465Zm-5.33,5.34v4a6.09,6.09,0,0,1-.09.93l-.14.87L459,236a5.32,5.32,0,0,1-9.23,0l-.49-.85-.13-.87a5,5,0,0,1-.1-.94V228a4.81,4.81,0,0,1,.1-.93l.13-.87.49-.86a5.32,5.32,0,0,1,1.62-1.75l.76-.52,1-.24a5,5,0,0,1,2.52,0l.91.21.81.56a5.22,5.22,0,0,1,1.62,1.75l.5.87.14.86a5.85,5.85,0,0,1,.09.92Zm-8,2.66H457v2.67h-5.33Zm0-5.33H457v2.67h-5.33Z"/><path class="cls-6" d="M89.78,223.54v12.79h-1.7V223.54Zm6.23,0v1.38h-6.6v-1.38Zm-.87,5.75v1.39H89.41v-1.39Z"/><path class="cls-6" d="M99.73,223.54v12.79H98V223.54ZM105.79,235v1.38h-6.4V235Z"/><path class="cls-6" d="M114.57,223.54h1.69v8.65a4.21,4.21,0,0,1-.64,2.4,4,4,0,0,1-1.7,1.44,5.51,5.51,0,0,1-2.3.48,5.58,5.58,0,0,1-2.35-.48,3.81,3.81,0,0,1-1.66-1.44,4.37,4.37,0,0,1-.61-2.4v-8.65h1.68v8.65a3.36,3.36,0,0,0,.36,1.65,2.27,2.27,0,0,0,1,1,3.53,3.53,0,0,0,1.54.32,3.57,3.57,0,0,0,1.55-.32,2.25,2.25,0,0,0,1-1,3.25,3.25,0,0,0,.37-1.65Z"/><path class="cls-6" d="M127.77,223.54v1.38h-9.89v-1.38Zm-4.12,0v12.79H122V223.54Z"/><path class="cls-6" d="M138.65,223.54v1.38h-9.89v-1.38Zm-4.12,0v12.79h-1.67V223.54Z"/><path class="cls-6" d="M142.24,223.54v12.79h-1.7V223.54Zm6.35,0v1.38H141.9v-1.38Zm-.81,5.5v1.38H141.9V229Zm.9,5.91v1.38H141.9V235Z"/><path class="cls-6" d="M150.78,223.54H155a6.12,6.12,0,0,1,2.44.43,3.3,3.3,0,0,1,1.52,1.3,4,4,0,0,1,.52,2.11,3.42,3.42,0,0,1-1.37,2.83,4.34,4.34,0,0,1-1.59.75l-.47.19h-4l0-1.38h3a3.33,3.33,0,0,0,1.53-.32,2.31,2.31,0,0,0,.91-.87,2.44,2.44,0,0,0,.31-1.2,2.8,2.8,0,0,0-.29-1.3,2,2,0,0,0-.91-.85,3.67,3.67,0,0,0-1.6-.31h-2.54v11.41h-1.69Zm7.48,12.79-3.12-5.8h1.77l3.16,5.71v.1Z"/><path class="cls-6" d="M168.15,223.54v12.79h-1.7V223.54Z"/><path class="cls-6" d="M181.07,223.54v12.79h-1.7l-6.45-9.87v9.87h-1.69V223.54h1.69l6.47,9.89v-9.89Z"/><path class="cls-6" d="M190.89,233.1a2.2,2.2,0,0,0-.14-.8,1.63,1.63,0,0,0-.47-.63,4.32,4.32,0,0,0-.93-.53,12.74,12.74,0,0,0-1.5-.52,13.58,13.58,0,0,1-1.72-.63,6.32,6.32,0,0,1-1.31-.79,3.23,3.23,0,0,1-.83-1,3,3,0,0,1-.29-1.33,3,3,0,0,1,.31-1.38,3.2,3.2,0,0,1,.88-1.1,4.14,4.14,0,0,1,1.38-.74,5.79,5.79,0,0,1,1.78-.26,5,5,0,0,1,2.45.55,3.92,3.92,0,0,1,1.53,1.43,3.65,3.65,0,0,1,.53,1.89h-1.69a2.55,2.55,0,0,0-.31-1.28,2.09,2.09,0,0,0-.93-.88,3.47,3.47,0,0,0-1.58-.32,3.58,3.58,0,0,0-1.49.27,1.92,1.92,0,0,0-.88.74,2,2,0,0,0-.28,1.06,1.52,1.52,0,0,0,.17.74,1.86,1.86,0,0,0,.53.61,5,5,0,0,0,.93.52,12.74,12.74,0,0,0,1.36.45,12.13,12.13,0,0,1,1.88.69,5,5,0,0,1,1.31.85,2.89,2.89,0,0,1,.76,1.06,3.34,3.34,0,0,1,.25,1.34,3.18,3.18,0,0,1-.31,1.42,3,3,0,0,1-.91,1.08,4.22,4.22,0,0,1-1.41.69,6.54,6.54,0,0,1-1.83.24,6.17,6.17,0,0,1-1.75-.25,4.93,4.93,0,0,1-1.55-.74,3.7,3.7,0,0,1-1.12-1.21,3.34,3.34,0,0,1-.42-1.69H185a2.33,2.33,0,0,0,.26,1.13,2.1,2.1,0,0,0,.7.78,2.81,2.81,0,0,0,1,.45,4.6,4.6,0,0,0,1.18.15,3.92,3.92,0,0,0,1.5-.25,2.07,2.07,0,0,0,.94-.7A1.88,1.88,0,0,0,190.89,233.1Z"/><path class="cls-6" d="M199.48,231.31h-3.42v-1.38h3.42a3.51,3.51,0,0,0,1.6-.31,2.09,2.09,0,0,0,.91-.88,2.8,2.8,0,0,0,.28-1.28,2.75,2.75,0,0,0-.28-1.24,2.28,2.28,0,0,0-.91-.94,3.13,3.13,0,0,0-1.6-.36h-3v11.41h-1.69V223.54h4.72a5.38,5.38,0,0,1,2.45.5,3.52,3.52,0,0,1,1.52,1.38,4,4,0,0,1,.52,2,4.09,4.09,0,0,1-.52,2.1,3.28,3.28,0,0,1-1.52,1.32A6,6,0,0,1,199.48,231.31Z"/><path class="cls-6" d="M207.81,223.54v12.79h-1.7V223.54Zm6.34,0v1.38h-6.69v-1.38Zm-.8,5.5v1.38h-5.89V229Zm.89,5.91v1.38h-6.78V235Z"/><path class="cls-6" d="M224.07,232.26h1.69a5.34,5.34,0,0,1-.7,2.17,4,4,0,0,1-1.59,1.52,5.37,5.37,0,0,1-2.57.56,4.83,4.83,0,0,1-2-.42,4.77,4.77,0,0,1-1.58-1.2,5.56,5.56,0,0,1-1-1.88,7.7,7.7,0,0,1-.36-2.43V229.3a7.77,7.77,0,0,1,.36-2.44,5.38,5.38,0,0,1,1-1.87,4.32,4.32,0,0,1,1.62-1.21,5.75,5.75,0,0,1,4.59.12,4.11,4.11,0,0,1,1.56,1.51,5.62,5.62,0,0,1,.69,2.23h-1.69a4.73,4.73,0,0,0-.46-1.54,2.35,2.35,0,0,0-1-1,3.28,3.28,0,0,0-1.61-.35,3.41,3.41,0,0,0-1.5.32,3,3,0,0,0-1.08.93,4,4,0,0,0-.65,1.43,7.11,7.11,0,0,0-.22,1.85v1.3a7.65,7.65,0,0,0,.2,1.76,4.52,4.52,0,0,0,.6,1.45,2.84,2.84,0,0,0,1,1,2.89,2.89,0,0,0,1.47.36,3.82,3.82,0,0,0,1.73-.34,2.32,2.32,0,0,0,1-1A5.27,5.27,0,0,0,224.07,232.26Z"/><path class="cls-6" d="M236.64,223.54v1.38h-9.88v-1.38Zm-4.11,0v12.79h-1.67V223.54Z"/><path class="cls-6" d="M248.15,229.53v.81a8.56,8.56,0,0,1-.36,2.58,5.55,5.55,0,0,1-1,1.94,4.54,4.54,0,0,1-1.62,1.23,5.13,5.13,0,0,1-2.11.42,5.05,5.05,0,0,1-2.08-.42,4.7,4.7,0,0,1-1.64-1.23,5.58,5.58,0,0,1-1.06-1.94,8,8,0,0,1-.38-2.58v-.81a8.24,8.24,0,0,1,.37-2.58,5.58,5.58,0,0,1,1.06-1.94,4.54,4.54,0,0,1,1.63-1.23,5.05,5.05,0,0,1,2.08-.42,5.13,5.13,0,0,1,2.11.42,4.54,4.54,0,0,1,1.63,1.23,5.55,5.55,0,0,1,1,1.94A8.24,8.24,0,0,1,248.15,229.53Zm-1.68.81v-.83a8.19,8.19,0,0,0-.23-2,4.31,4.31,0,0,0-.68-1.48,3,3,0,0,0-1.1-.9,3.29,3.29,0,0,0-1.46-.31,3.19,3.19,0,0,0-1.43.31,3,3,0,0,0-1.09.9,4.52,4.52,0,0,0-.7,1.48,7.72,7.72,0,0,0-.24,2v.83a7.74,7.74,0,0,0,.24,2,4.39,4.39,0,0,0,.71,1.49,3.09,3.09,0,0,0,1.1.91,3.3,3.3,0,0,0,1.43.31,3.37,3.37,0,0,0,1.46-.31,3,3,0,0,0,1.09-.91,4.17,4.17,0,0,0,.67-1.49A8.22,8.22,0,0,0,246.47,230.34Z"/><path class="cls-6" d="M250.68,223.54h4.24a6.12,6.12,0,0,1,2.44.43,3.35,3.35,0,0,1,1.52,1.3,4,4,0,0,1,.52,2.11A3.55,3.55,0,0,1,259,229a3.34,3.34,0,0,1-1,1.23,4.37,4.37,0,0,1-1.58.75l-.48.19h-4l0-1.38h3a3.26,3.26,0,0,0,1.52-.32,2.25,2.25,0,0,0,.91-.87,2.33,2.33,0,0,0,.31-1.2,2.68,2.68,0,0,0-.29-1.3,1.89,1.89,0,0,0-.91-.85,3.63,3.63,0,0,0-1.59-.31h-2.54v11.41h-1.7Zm7.48,12.79-3.11-5.8h1.77l3.15,5.71v.1Z"/><path class="cls-6" d="M74.28,217.36H63.37a2.18,2.18,0,0,0-2.17,2.18v19.64a2.18,2.18,0,0,0,2.17,2.18H74.28a2.19,2.19,0,0,0,2.18-2.18V219.53A2.18,2.18,0,0,0,74.28,217.36Zm0,19.62H63.37V221.71H74.28Z"/><path class="cls-6" d="M338.26,223.54v1.38h-9.88v-1.38Zm-4.11,0v12.79h-1.67V223.54Z"/><path class="cls-6" d="M342,223.54v12.79h-1.7V223.54Z"/><path class="cls-6" d="M345.06,223.54h1.45l.23,7.8v5h-1.68Zm.53,0h1.65L351.43,234l4.18-10.43h1.66l-5.21,12.79h-1.28Zm10.75,0h1.45v12.79h-1.68v-5Z"/><path class="cls-6" d="M362.47,223.54v12.79h-1.7V223.54Zm6.34,0v1.38h-6.68v-1.38ZM368,229v1.38h-5.88V229Zm.89,5.91v1.38h-6.77V235Z"/><path class="cls-6" d="M372.7,223.54v12.79H371V223.54ZM378.76,235v1.38h-6.39V235Z"/><path class="cls-6" d="M382.52,223.54v12.79h-1.7V223.54Z"/><path class="cls-6" d="M395.44,223.54v12.79h-1.71l-6.44-9.87v9.87h-1.7V223.54h1.7l6.47,9.89v-9.89Z"/><path class="cls-6" d="M400.13,223.54v12.79h-1.7V223.54Zm6.35,0v1.38h-6.69v-1.38Zm-.81,5.5v1.38h-5.88V229Zm.89,5.91v1.38h-6.77V235Z"/><path class="cls-6" d="M309.82,224.21h-2.4v7.2h7.2V229h-4.8Zm-.34-6.86a12,12,0,1,0,12,12A12,12,0,0,0,309.48,217.35Zm0,21.6a9.6,9.6,0,1,1,9.6-9.6A9.62,9.62,0,0,1,309.48,239Z"/></svg>