<?xml version="1.0" encoding="utf-8"?>
<!-- Generator: Adobe Illustrator 25.3.1, SVG Export Plug-In . SVG Version: 6.00 Build 0)  -->
<svg version="1.1" id="Layer_1" xmlns="http://www.w3.org/2000/svg" xmlns:xlink="http://www.w3.org/1999/xlink" x="0px" y="0px"
	 viewBox="0 0 815 644" style="enable-background:new 0 0 815 644;" xml:space="preserve">
<style type="text/css">
	.st0{fill:#13202F;}
	.st1{opacity:0.2;fill:#DDDBDC;enable-background:new    ;}
	.st2{opacity:0.4;}
	.st3{clip-path:url(#SVGID_2_);}
	.st4{fill:#294058;}
	.st5{fill:#92B5F5;}
	.st6{opacity:0.2;fill:#92B5F5;enable-background:new    ;}
	.st7{fill:#FFFFFF;}
	.st8{opacity:0.4;fill:#FFFFFF;}
</style>
<rect class="st0" width="815" height="644"/>
<path class="st1" d="M815,29.1v-1h-34.3V0h-1v28.1h-52.1V0h-1v28.1h-52.1V0h-1v28.1h-52.1V0h-1v28.1h-52.1V0h-1v28.1h-52.1V0h-1
	v28.1h-52.1V0h-1v28.1H409V0h-1v28.1h-52.1V0h-1v28.1h-52.1V0h-1v28.1h-52.1V0h-1v28.1h-52.1V0h-1v28.1h-52.1V0h-1v28.1H90.4V0h-1
	v28.1H37.3V0h-1v28.1H0v1h36.3v52.1H0v1h36.3v52.1H0v1h36.3v52.1H0v1h36.3v52.1H0v1h36.3v52.1H0v1h36.3v52.1H0v1h36.3v52.1H0v1h36.3
	v52.1H0v1h36.3V506H0v1h36.3v52.1H0v1h36.3v52.1H0v1h36.3V644h1v-30.8h52.1V644h1v-30.8h52.1V644h1v-30.8h52.1V644h1v-30.8h52.1V644
	h1v-30.8h52.1V644h1v-30.8h52.1V644h1v-30.8H408V644h1v-30.8h52.1V644h1v-30.8h52.1V644h1v-30.8h52.1V644h1v-30.8h52.1V644h1v-30.8
	h52.1V644h1v-30.8h52.1V644h1v-30.8h52.1V644h1v-30.8H815v-1h-34.3v-52.1H815v-1h-34.3V507H815v-1h-34.3v-52.1H815v-1h-34.3v-52.1
	H815v-1h-34.3v-52.1H815v-1h-34.3v-52.1H815v-1h-34.3v-52.1H815v-1h-34.3v-52.1H815v-1h-34.3v-52.1H815v-1h-34.3V82.2H815v-1h-34.3
	V29.1H815z M726.6,29.1v52.1h-52.1V29.1H726.6z M355.9,294.6H408v52.1h-52.1V294.6z M354.9,346.7h-52.1v-52.1h52.1V346.7z
	 M409,294.6h52.1v52.1H409V294.6z M462.1,294.6h52.1v52.1h-52.1V294.6z M462.1,293.6v-52.1h52.1v52.1H462.1z M461.1,293.6H409v-52.1
	h52.1V293.6z M408,293.6h-52.1v-52.1H408V293.6z M354.9,293.6h-52.1v-52.1h52.1V293.6z M301.8,293.6h-52.1v-52.1h52.1V293.6z
	 M301.8,294.6v52.1h-52.1v-52.1H301.8z M301.8,347.7v52.1h-52.1v-52.1H301.8z M302.8,347.7h52.1v52.1h-52.1V347.7z M355.9,347.7H408
	v52.1h-52.1V347.7z M409,347.7h52.1v52.1H409V347.7z M462.1,347.7h52.1v52.1h-52.1V347.7z M515.2,347.7h52.1v52.1h-52.1V347.7z
	 M515.2,346.7v-52.1h52.1v52.1H515.2z M515.2,293.6v-52.1h52.1v52.1H515.2z M515.2,240.5v-52.1h52.1v52.1H515.2z M514.2,240.5h-52.1
	v-52.1h52.1V240.5z M461.1,240.5H409v-52.1h52.1V240.5z M408,240.5h-52.1v-52.1H408V240.5z M354.9,240.5h-52.1v-52.1h52.1V240.5z
	 M301.8,240.5h-52.1v-52.1h52.1V240.5z M248.7,240.5h-52.1v-52.1h52.1L248.7,240.5L248.7,240.5z M248.7,241.5v52.1h-52.1v-52.1
	H248.7z M248.7,294.6v52.1h-52.1v-52.1H248.7z M248.7,347.7v52.1h-52.1v-52.1H248.7z M248.7,400.8v52.1h-52.1v-52.1H248.7z
	 M249.7,400.8h52.1v52.1h-52.1L249.7,400.8L249.7,400.8z M302.8,400.8h52.1v52.1h-52.1V400.8z M355.9,400.8H408v52.1h-52.1V400.8z
	 M409,400.8h52.1v52.1H409V400.8z M462.1,400.8h52.1v52.1h-52.1V400.8z M515.2,400.8h52.1v52.1h-52.1V400.8z M568.3,400.8h52.1v52.1
	h-52.1V400.8z M568.3,399.8v-52.1h52.1v52.1H568.3z M568.3,346.7v-52.1h52.1v52.1H568.3z M568.3,293.6v-52.1h52.1v52.1H568.3z
	 M568.3,240.5v-52.1h52.1v52.1H568.3z M568.3,187.4v-52.1h52.1v52.1H568.3z M567.3,187.4h-52.1v-52.1h52.1V187.4z M514.2,187.4
	h-52.1v-52.1h52.1V187.4z M461.1,187.4H409v-52.1h52.1V187.4z M408,187.4h-52.1v-52.1H408V187.4z M354.9,187.4h-52.1v-52.1h52.1
	V187.4z M301.8,187.4h-52.1v-52.1h52.1V187.4z M248.7,187.4h-52.1v-52.1h52.1L248.7,187.4L248.7,187.4z M195.6,187.4h-52.1v-52.1
	h52.1V187.4z M195.6,188.4v52.1h-52.1v-52.1H195.6z M195.6,241.5v52.1h-52.1v-52.1H195.6z M195.6,294.6v52.1h-52.1v-52.1H195.6z
	 M195.6,347.7v52.1h-52.1v-52.1H195.6z M195.6,400.8v52.1h-52.1v-52.1H195.6z M195.6,453.9V506h-52.1v-52.1H195.6z M196.6,453.9
	h52.1V506h-52.1V453.9z M249.7,453.9h52.1V506h-52.1L249.7,453.9L249.7,453.9z M302.8,453.9h52.1V506h-52.1V453.9z M355.9,453.9H408
	V506h-52.1V453.9z M409,453.9h52.1V506H409V453.9z M462.1,453.9h52.1V506h-52.1V453.9z M515.2,453.9h52.1V506h-52.1V453.9z
	 M568.3,453.9h52.1V506h-52.1V453.9z M621.4,453.9h52.1V506h-52.1V453.9z M621.4,452.9v-52.1h52.1v52.1H621.4z M621.4,399.8v-52.1
	h52.1v52.1H621.4z M621.4,346.7v-52.1h52.1v52.1H621.4z M621.4,293.6v-52.1h52.1v52.1H621.4z M621.4,240.5v-52.1h52.1v52.1H621.4z
	 M621.4,187.4v-52.1h52.1v52.1H621.4z M621.4,134.3V82.2h52.1v52.1L621.4,134.3z M620.4,134.3h-52.1V82.2h52.1V134.3z M567.3,134.3
	h-52.1V82.2h52.1V134.3z M514.2,134.3h-52.1V82.2h52.1V134.3z M461.1,134.3H409V82.2h52.1V134.3z M408,134.3h-52.1V82.2H408V134.3z
	 M354.9,134.3h-52.1V82.2h52.1V134.3z M301.8,134.3h-52.1V82.2h52.1V134.3z M248.7,134.3h-52.1V82.2h52.1L248.7,134.3L248.7,134.3z
	 M195.6,134.3h-52.1V82.2h52.1V134.3z M142.5,134.3H90.4V82.2h52.1V134.3z M142.5,135.3v52.1H90.4v-52.1L142.5,135.3L142.5,135.3z
	 M142.5,188.4v52.1H90.4v-52.1H142.5z M142.5,241.5v52.1H90.4v-52.1H142.5z M142.5,294.6v52.1H90.4v-52.1H142.5z M142.5,347.7v52.1
	H90.4v-52.1H142.5z M142.5,400.8v52.1H90.4v-52.1H142.5z M142.5,453.9V506H90.4v-52.1H142.5z M142.5,507v52.1H90.4V507H142.5z
	 M143.5,507h52.1v52.1h-52.1V507z M196.6,507h52.1v52.1h-52.1V507z M249.7,507h52.1v52.1h-52.1L249.7,507L249.7,507z M302.8,507
	h52.1v52.1h-52.1V507z M355.9,507H408v52.1h-52.1V507z M409,507h52.1v52.1H409V507z M462.1,507h52.1v52.1h-52.1V507z M515.2,507
	h52.1v52.1h-52.1V507z M568.3,507h52.1v52.1h-52.1V507z M621.4,507h52.1v52.1h-52.1V507z M674.5,507h52.1v52.1h-52.1V507z
	 M674.5,506v-52.1h52.1V506H674.5z M674.5,452.9v-52.1h52.1v52.1H674.5z M674.5,399.8v-52.1h52.1v52.1H674.5z M674.5,346.7v-52.1
	h52.1v52.1H674.5z M674.5,293.6v-52.1h52.1v52.1H674.5z M674.5,240.5v-52.1h52.1v52.1H674.5z M674.5,187.4v-52.1h52.1v52.1H674.5z
	 M674.5,134.3V82.2h52.1v52.1L674.5,134.3z M673.5,29.1v52.1h-52.1V29.1H673.5z M620.4,29.1v52.1h-52.1V29.1H620.4z M567.3,29.1
	v52.1h-52.1V29.1H567.3z M514.2,29.1v52.1h-52.1V29.1H514.2z M461.1,29.1v52.1H409V29.1H461.1z M408,29.1v52.1h-52.1V29.1H408z
	 M354.9,29.1v52.1h-52.1V29.1H354.9z M301.8,29.1v52.1h-52.1V29.1H301.8z M248.7,29.1v52.1h-52.1V29.1H248.7z M195.6,29.1v52.1
	h-52.1V29.1H195.6z M142.5,29.1v52.1H90.4V29.1H142.5z M37.3,29.1h52.1v52.1H37.3V29.1z M37.3,82.2h52.1v52.1H37.3V82.2z
	 M37.3,135.3h52.1v52.1H37.3V135.3z M37.3,188.4h52.1v52.1H37.3V188.4z M37.3,241.5h52.1v52.1H37.3V241.5z M37.3,294.6h52.1v52.1
	H37.3V294.6z M37.3,347.7h52.1v52.1H37.3V347.7z M37.3,400.8h52.1v52.1H37.3V400.8z M37.3,453.9h52.1V506H37.3V453.9z M37.3,507
	h52.1v52.1H37.3V507z M37.3,612.2v-52.1h52.1v52.1H37.3z M90.4,612.2v-52.1h52.1v52.1H90.4z M143.5,612.2v-52.1h52.1v52.1H143.5z
	 M196.6,612.2v-52.1h52.1v52.1H196.6z M249.7,612.2v-52.1h52.1v52.1H249.7z M302.8,612.2v-52.1h52.1v52.1H302.8z M355.9,612.2v-52.1
	H408v52.1H355.9z M409,612.2v-52.1h52.1v52.1H409z M462.1,612.2v-52.1h52.1v52.1H462.1z M515.2,612.2v-52.1h52.1v52.1H515.2z
	 M568.3,612.2v-52.1h52.1v52.1H568.3z M621.4,612.2v-52.1h52.1v52.1H621.4z M674.5,612.2v-52.1h52.1v52.1H674.5z M779.7,612.2h-52.1
	v-52.1h52.1V612.2z M779.7,559.1h-52.1V507h52.1V559.1z M779.7,506h-52.1v-52.1h52.1V506z M779.7,452.9h-52.1v-52.1h52.1V452.9z
	 M779.7,399.8h-52.1v-52.1h52.1V399.8z M779.7,346.7h-52.1v-52.1h52.1V346.7z M779.7,293.6h-52.1v-52.1h52.1V293.6z M779.7,240.5
	h-52.1v-52.1h52.1V240.5z M779.7,187.4h-52.1v-52.1h52.1V187.4z M779.7,134.3h-52.1V82.2h52.1V134.3z M779.7,81.2h-52.1V29.1h52.1
	V81.2z"/>
<g class="st2">
	<g>
		<g>
			<g>
				<g>
					<defs>
						<rect id="SVGID_1_" width="815" height="644"/>
					</defs>
					<clipPath id="SVGID_2_">
						<use xlink:href="#SVGID_1_"  style="overflow:visible;"/>
					</clipPath>
					<g class="st3">
						<g>
							<path class="st4" d="M815,644V102.7H126.8c-9.1,0-16.4,7.4-16.4,16.4V644H815z"/>
						</g>
					</g>
				</g>
			</g>
		</g>
	</g>
</g>
<path class="st4" d="M815,644V102.7H126.8c-9.1,0-16.4,7.4-16.4,16.4V644H815z"/>
<path class="st5" d="M180.2,144.5c-5,0-9.1-4.1-9.1-9.1s4.1-9.1,9.1-9.1s9.1,4.1,9.1,9.1l0,0C189.2,140.4,185.2,144.5,180.2,144.5z
	 M180.2,127.3c-4.5,0-8.1,3.6-8.1,8.1s3.6,8.1,8.1,8.1s8.1-3.6,8.1-8.1l0,0C188.2,130.9,184.6,127.3,180.2,127.3z"/>
<path class="st5" d="M210,144.5c-5,0-9.1-4.1-9.1-9.1s4.1-9.1,9.1-9.1s9.1,4.1,9.1,9.1S215,144.5,210,144.5L210,144.5z M210,127.3
	c-4.5,0-8.1,3.6-8.1,8.1s3.6,8.1,8.1,8.1s8.1-3.6,8.1-8.1l0,0C218.1,130.9,214.5,127.3,210,127.3z"/>
<path class="st5" d="M239.8,144.5c-5,0-9.1-4.1-9.1-9.1s4.1-9.1,9.1-9.1s9.1,4.1,9.1,9.1l0,0C248.9,140.4,244.8,144.5,239.8,144.5z
	 M239.8,127.3c-4.5,0-8.1,3.6-8.1,8.1s3.6,8.1,8.1,8.1s8.1-3.6,8.1-8.1l0,0C247.9,130.9,244.3,127.3,239.8,127.3z"/>
<rect x="110.3" y="164" class="st6" width="704.7" height="1"/>
<g>
	<g>
		<path class="st7" d="M185.1,265.3c0-0.5-0.1-1-0.3-1.4c-0.2-0.4-0.5-0.8-0.9-1.1c-0.4-0.3-0.8-0.6-1.3-0.8c-0.5-0.2-1-0.5-1.6-0.7
			c-0.7-0.2-1.4-0.5-2-0.8s-1.2-0.7-1.6-1.1s-0.8-0.9-1.1-1.5c-0.3-0.6-0.4-1.2-0.4-2c0-0.7,0.1-1.4,0.4-1.9c0.2-0.6,0.6-1.1,1-1.5
			s0.9-0.7,1.5-1c0.6-0.2,1.2-0.4,1.9-0.5v-2.6h1.3v2.6c0.7,0.1,1.4,0.2,1.9,0.5s1.1,0.7,1.5,1.2c0.4,0.5,0.7,1.1,0.9,1.7
			s0.3,1.4,0.3,2.2H185c0-0.6-0.1-1.2-0.3-1.8s-0.4-1-0.8-1.4s-0.7-0.7-1.2-0.9c-0.5-0.2-1-0.3-1.6-0.3c-0.5,0-1,0.1-1.5,0.2
			c-0.5,0.2-0.9,0.4-1.2,0.7s-0.6,0.7-0.8,1.1c-0.2,0.4-0.3,0.9-0.3,1.5c0,0.6,0.1,1.1,0.3,1.5c0.2,0.4,0.5,0.8,0.9,1.1
			c0.4,0.3,0.8,0.6,1.3,0.8c0.5,0.2,1.1,0.5,1.7,0.7c0.7,0.2,1.4,0.5,2,0.8c0.6,0.3,1.2,0.6,1.6,1.1c0.5,0.4,0.8,0.9,1.1,1.5
			c0.3,0.6,0.4,1.2,0.4,2c0,0.7-0.1,1.4-0.4,1.9c-0.2,0.6-0.6,1.1-1,1.5c-0.4,0.4-0.9,0.7-1.5,1c-0.6,0.2-1.2,0.4-1.9,0.4v2.4h-1.3
			v-2.4c-0.7-0.1-1.4-0.2-2-0.4c-0.6-0.2-1.2-0.6-1.7-1c-0.5-0.5-0.9-1-1.2-1.7c-0.3-0.7-0.4-1.5-0.5-2.4h1.5c0,0.7,0.1,1.4,0.4,1.9
			c0.2,0.5,0.6,1,1,1.3c0.4,0.3,0.9,0.6,1.4,0.8s1.1,0.2,1.6,0.2c0.5,0,1.1-0.1,1.5-0.2c0.5-0.2,0.9-0.4,1.3-0.7s0.7-0.7,0.9-1.1
			C185,266.4,185.1,265.9,185.1,265.3z"/>
		<path class="st7" d="M204.8,262.9c0-0.9,0.1-1.8,0.3-2.6c0.2-0.8,0.6-1.6,1-2.2c0.5-0.6,1-1.2,1.7-1.5c0.7-0.4,1.5-0.6,2.4-0.6
			c0.9,0,1.7,0.2,2.3,0.6c0.7,0.4,1.3,0.9,1.7,1.6v-7.6h1.5v19.5h-1.4l-0.1-1.8c-0.5,0.7-1.1,1.2-1.8,1.5c-0.7,0.4-1.5,0.5-2.3,0.5
			c-0.9,0-1.7-0.2-2.4-0.6c-0.7-0.4-1.2-0.9-1.7-1.6c-0.5-0.6-0.8-1.4-1-2.2c-0.2-0.8-0.3-1.7-0.3-2.6V262.9z M206.4,263.2
			c0,0.7,0.1,1.4,0.2,2c0.1,0.7,0.4,1.3,0.7,1.8c0.3,0.5,0.8,1,1.3,1.3s1.2,0.5,2,0.5c0.4,0,0.8-0.1,1.2-0.2
			c0.4-0.1,0.7-0.3,1.1-0.5c0.3-0.2,0.6-0.5,0.9-0.8c0.3-0.3,0.5-0.6,0.7-1v-6.7c-0.2-0.4-0.4-0.7-0.6-1c-0.2-0.3-0.5-0.6-0.9-0.8
			c-0.3-0.2-0.7-0.4-1.1-0.5c-0.4-0.1-0.8-0.2-1.2-0.2c-0.8,0-1.4,0.2-2,0.5c-0.5,0.3-1,0.8-1.3,1.3c-0.3,0.5-0.6,1.1-0.7,1.8
			c-0.1,0.7-0.2,1.4-0.2,2V263.2z"/>
		<path class="st7" d="M229.7,269.9c-0.1-0.3-0.2-0.6-0.2-0.9c-0.1-0.3-0.1-0.7-0.1-1c-0.3,0.3-0.6,0.6-0.9,0.9
			c-0.3,0.3-0.7,0.5-1.1,0.7c-0.4,0.2-0.9,0.4-1.3,0.5c-0.5,0.1-1,0.2-1.5,0.2c-0.6,0-1.2-0.1-1.8-0.3c-0.6-0.2-1-0.4-1.4-0.8
			c-0.4-0.3-0.7-0.7-1-1.2c-0.2-0.5-0.3-1-0.3-1.6c0-0.8,0.2-1.5,0.5-2c0.3-0.5,0.8-1,1.4-1.3c0.6-0.3,1.3-0.6,2.1-0.8
			c0.8-0.2,1.6-0.2,2.5-0.2h3v-1.6c0-0.5-0.1-1-0.3-1.4c-0.2-0.4-0.5-0.7-0.8-1c-0.3-0.3-0.7-0.5-1.2-0.6c-0.5-0.1-1-0.2-1.5-0.2
			c-0.5,0-1,0.1-1.4,0.2s-0.8,0.3-1.2,0.5s-0.6,0.5-0.8,0.9c-0.2,0.3-0.3,0.7-0.3,1.2l-1.5,0c0-0.6,0.2-1.1,0.5-1.6
			c0.3-0.5,0.7-0.9,1.1-1.3c0.5-0.4,1-0.6,1.7-0.8c0.6-0.2,1.3-0.3,2-0.3c0.7,0,1.4,0.1,2.1,0.3c0.6,0.2,1.2,0.5,1.7,0.8
			s0.8,0.8,1.1,1.4c0.3,0.6,0.4,1.2,0.4,2v6.7c0,0.5,0,0.9,0.1,1.4c0.1,0.5,0.2,0.9,0.3,1.3l0,0.2H229.7z M224.7,268.8
			c0.5,0,1-0.1,1.5-0.2c0.5-0.1,0.9-0.3,1.3-0.6c0.4-0.2,0.8-0.5,1.1-0.9c0.3-0.3,0.6-0.7,0.7-1.1v-3h-2.8c-0.7,0-1.3,0.1-1.9,0.2
			c-0.6,0.1-1.2,0.3-1.6,0.5c-0.5,0.2-0.9,0.5-1.1,0.9c-0.3,0.4-0.4,0.9-0.4,1.5c0,0.4,0.1,0.8,0.3,1.1c0.2,0.3,0.4,0.6,0.7,0.8
			c0.3,0.2,0.6,0.4,1,0.5C223.8,268.7,224.2,268.8,224.7,268.8z"/>
		<path class="st7" d="M244.3,255.9c0.4,0,0.8,0,1.1,0.1c0.4,0,0.7,0.1,1,0.2l-0.2,1.5c-0.4-0.1-0.7-0.1-1.1-0.2s-0.7-0.1-1.1-0.1
			c-1.3,0-2.4,0.3-3.3,0.9c-0.9,0.6-1.5,1.5-1.9,2.8l0,8.8h-1.6v-13.7h1.5l0.1,2.4v0.3c0.6-0.9,1.3-1.6,2.2-2.1
			C242,256.2,243.1,255.9,244.3,255.9z"/>
		<path class="st7" d="M255.2,252.6v3.5h5.1v1.2h-5.1v8.6c0,0.5,0.1,1,0.2,1.3c0.2,0.4,0.4,0.6,0.6,0.8c0.3,0.2,0.6,0.4,0.9,0.5
			c0.4,0.1,0.8,0.1,1.2,0.1c0.4,0,0.9,0,1.3-0.1s0.8-0.1,1.1-0.2l0.2,1.2c-0.4,0.1-0.8,0.3-1.3,0.3c-0.5,0.1-1.1,0.1-1.6,0.1
			c-0.6,0-1.2-0.1-1.7-0.2c-0.5-0.1-1-0.4-1.3-0.7c-0.4-0.3-0.7-0.7-0.9-1.3c-0.2-0.5-0.3-1.2-0.3-1.9v-8.6h-3.8v-1.2h3.8v-3.5
			H255.2z"/>
		<path class="st7" d="M285.6,268.9c0.5,0,1-0.1,1.5-0.2c0.5-0.1,0.9-0.4,1.2-0.6s0.6-0.6,0.9-1c0.2-0.4,0.4-0.8,0.4-1.3h1.5
			c0,0.7-0.2,1.3-0.5,1.8s-0.7,1-1.2,1.4c-0.5,0.4-1.1,0.7-1.7,0.9c-0.6,0.2-1.3,0.3-2,0.3c-1,0-1.9-0.2-2.6-0.6
			c-0.7-0.4-1.4-0.9-1.9-1.5s-0.9-1.4-1.1-2.2c-0.2-0.8-0.4-1.7-0.4-2.6v-0.5c0-0.9,0.1-1.7,0.4-2.6c0.2-0.8,0.6-1.6,1.1-2.2
			s1.1-1.1,1.9-1.5c0.7-0.4,1.6-0.6,2.6-0.6c0.8,0,1.5,0.1,2.1,0.4c0.6,0.2,1.2,0.6,1.7,1c0.5,0.4,0.9,1,1.1,1.5
			c0.3,0.6,0.4,1.3,0.5,2h-1.5c0-0.5-0.1-1-0.4-1.4c-0.2-0.4-0.5-0.8-0.8-1.1c-0.3-0.3-0.8-0.6-1.2-0.7s-1-0.3-1.5-0.3
			c-0.8,0-1.5,0.2-2,0.5c-0.6,0.3-1,0.7-1.4,1.3s-0.6,1.1-0.8,1.8c-0.2,0.7-0.2,1.3-0.2,2v0.5c0,0.7,0.1,1.4,0.2,2s0.4,1.3,0.8,1.8
			c0.4,0.5,0.8,0.9,1.4,1.3C284.1,268.7,284.8,268.9,285.6,268.9z"/>
		<path class="st7" d="M294.2,262.8c0-0.9,0.2-1.8,0.4-2.7s0.7-1.6,1.2-2.2c0.5-0.6,1.2-1.1,1.9-1.5c0.8-0.4,1.6-0.6,2.6-0.6
			c1,0,1.8,0.2,2.6,0.6c0.8,0.4,1.4,0.9,1.9,1.5c0.5,0.6,0.9,1.4,1.2,2.2s0.4,1.7,0.4,2.7v0.4c0,0.9-0.2,1.8-0.4,2.7
			c-0.3,0.8-0.7,1.6-1.2,2.2c-0.5,0.6-1.2,1.1-1.9,1.5c-0.8,0.4-1.6,0.6-2.6,0.6s-1.8-0.2-2.6-0.6c-0.8-0.4-1.4-0.9-1.9-1.5
			c-0.5-0.6-0.9-1.4-1.2-2.2s-0.4-1.7-0.4-2.7V262.8z M295.7,263.2c0,0.7,0.1,1.4,0.3,2.1s0.5,1.3,0.9,1.8c0.4,0.5,0.9,0.9,1.4,1.2
			s1.2,0.5,2,0.5c0.7,0,1.4-0.2,2-0.5s1-0.7,1.4-1.2c0.4-0.5,0.7-1.1,0.9-1.8s0.3-1.4,0.3-2.1v-0.4c0-0.7-0.1-1.4-0.3-2.1
			s-0.5-1.3-0.9-1.8c-0.4-0.5-0.9-0.9-1.4-1.3c-0.6-0.3-1.2-0.5-2-0.5c-0.7,0-1.4,0.2-2,0.5c-0.6,0.3-1,0.7-1.4,1.3
			c-0.4,0.5-0.7,1.1-0.9,1.8s-0.3,1.4-0.3,2.1V263.2z"/>
		<path class="st7" d="M310,256.2l0,1.5c0.3-0.5,0.7-1,1.1-1.3c0.5-0.3,1.1-0.5,1.8-0.5c0.4,0,0.7,0,1,0.1c0.3,0.1,0.6,0.2,0.8,0.4
			c0.2,0.2,0.4,0.4,0.6,0.6c0.2,0.2,0.3,0.5,0.4,0.7c0.3-0.5,0.7-0.9,1.2-1.3c0.5-0.3,1.1-0.5,1.9-0.5c0.6,0,1.1,0.1,1.5,0.3
			c0.4,0.2,0.7,0.5,1,0.8c0.2,0.3,0.4,0.7,0.5,1.2c0.1,0.5,0.2,0.9,0.2,1.4l0,10.2h-1.4l0-10.2c0-0.3,0-0.6-0.1-0.9
			c-0.1-0.3-0.2-0.6-0.3-0.8c-0.1-0.2-0.4-0.4-0.6-0.6s-0.6-0.2-1-0.2c-0.4,0-0.8,0.1-1.1,0.2s-0.5,0.3-0.7,0.5s-0.3,0.4-0.4,0.7
			c-0.1,0.2-0.2,0.5-0.2,0.8l0,10.5h-1.4l0-10.3c0-0.3,0-0.6-0.1-0.9c-0.1-0.3-0.2-0.5-0.3-0.7c-0.1-0.2-0.4-0.4-0.6-0.5
			c-0.3-0.1-0.6-0.2-1-0.2s-0.8,0.1-1,0.2c-0.3,0.1-0.5,0.3-0.7,0.5c-0.2,0.2-0.3,0.4-0.5,0.7c-0.1,0.3-0.2,0.5-0.3,0.8l0,10.5h-1.4
			v-13.7H310z"/>
		<path class="st7" d="M336,263.2c0,0.9-0.1,1.8-0.3,2.6c-0.2,0.8-0.5,1.6-1,2.2c-0.4,0.6-1,1.2-1.7,1.6c-0.7,0.4-1.5,0.6-2.4,0.6
			c-0.9,0-1.6-0.2-2.3-0.5s-1.3-0.8-1.8-1.4v7h-1.5v-19h1.4l0.1,1.9c0.5-0.7,1.1-1.2,1.8-1.6c0.7-0.4,1.5-0.6,2.4-0.6
			c0.9,0,1.8,0.2,2.4,0.6c0.7,0.4,1.2,0.9,1.7,1.5c0.4,0.6,0.8,1.4,1,2.2c0.2,0.8,0.3,1.7,0.3,2.6V263.2z M334.5,262.9
			c0-0.7-0.1-1.4-0.2-2s-0.4-1.3-0.7-1.8c-0.3-0.5-0.8-1-1.3-1.3c-0.5-0.3-1.2-0.5-2-0.5c-0.4,0-0.9,0.1-1.2,0.2
			c-0.4,0.1-0.7,0.3-1.1,0.5c-0.3,0.2-0.6,0.5-0.9,0.8c-0.2,0.3-0.5,0.7-0.6,1v6.8c0.4,0.7,0.9,1.3,1.5,1.7s1.4,0.6,2.3,0.6
			c0.8,0,1.4-0.2,2-0.5c0.5-0.3,1-0.8,1.3-1.3c0.3-0.5,0.6-1.1,0.7-1.8c0.2-0.7,0.2-1.4,0.2-2.1V262.9z"/>
		<path class="st7" d="M340.2,256.2h6.4v12.4h4.7v1.3h-11v-1.3h4.8v-11h-4.8V256.2z M344.6,252.4c0-0.3,0.1-0.6,0.3-0.8
			s0.5-0.3,0.9-0.3c0.4,0,0.7,0.1,0.9,0.3c0.2,0.2,0.3,0.5,0.3,0.8c0,0.3-0.1,0.6-0.3,0.8c-0.2,0.2-0.5,0.3-0.9,0.3
			c-0.4,0-0.7-0.1-0.9-0.3C344.7,253,344.6,252.7,344.6,252.4z"/>
		<path class="st7" d="M355.2,250.4h6.4v18.2h4.6v1.3h-11v-1.3h4.9v-16.8h-4.9V250.4z"/>
		<path class="st7" d="M375.6,270.1c-1,0-1.8-0.2-2.6-0.5s-1.5-0.8-2-1.4c-0.6-0.6-1-1.3-1.3-2.1c-0.3-0.8-0.5-1.7-0.5-2.6v-0.5
			c0-1,0.2-1.9,0.5-2.7s0.8-1.6,1.3-2.2c0.6-0.6,1.2-1.1,1.9-1.5c0.7-0.4,1.5-0.5,2.4-0.5c0.9,0,1.7,0.2,2.4,0.5
			c0.7,0.3,1.3,0.8,1.8,1.4c0.5,0.6,0.8,1.2,1.1,2c0.2,0.8,0.4,1.6,0.4,2.5v0.9h-10.3v0.3c0,0.7,0.1,1.4,0.4,2.1
			c0.2,0.7,0.6,1.2,1,1.7s1,0.9,1.6,1.2c0.6,0.3,1.3,0.5,2,0.5c0.8,0,1.6-0.1,2.3-0.5s1.3-0.8,1.8-1.4l1,0.7c-0.3,0.4-0.6,0.7-0.9,1
			c-0.3,0.3-0.7,0.6-1.2,0.8c-0.4,0.2-0.9,0.4-1.4,0.5S376.2,270.1,375.6,270.1z M375.3,257.2c-0.6,0-1.2,0.1-1.7,0.3
			c-0.5,0.2-1,0.6-1.4,1c-0.4,0.4-0.7,0.9-1,1.5c-0.3,0.6-0.4,1.2-0.5,1.8h8.7v-0.2c0-0.6-0.1-1.1-0.3-1.7c-0.2-0.5-0.5-1-0.8-1.4
			c-0.4-0.4-0.8-0.7-1.3-1S376,257.2,375.3,257.2z"/>
		<path class="st7" d="M405.5,270.1c-1,0-1.8-0.2-2.6-0.5s-1.5-0.8-2-1.4c-0.6-0.6-1-1.3-1.3-2.1c-0.3-0.8-0.5-1.7-0.5-2.6v-0.5
			c0-1,0.2-1.9,0.5-2.7s0.8-1.6,1.3-2.2c0.6-0.6,1.2-1.1,1.9-1.5c0.7-0.4,1.5-0.5,2.4-0.5c0.9,0,1.7,0.2,2.4,0.5
			c0.7,0.3,1.3,0.8,1.8,1.4c0.5,0.6,0.8,1.2,1.1,2c0.2,0.8,0.4,1.6,0.4,2.5v0.9h-10.3v0.3c0,0.7,0.1,1.4,0.4,2.1
			c0.2,0.7,0.6,1.2,1,1.7s1,0.9,1.6,1.2c0.6,0.3,1.3,0.5,2,0.5c0.8,0,1.6-0.1,2.3-0.5s1.3-0.8,1.8-1.4l1,0.7c-0.3,0.4-0.6,0.7-0.9,1
			c-0.3,0.3-0.7,0.6-1.2,0.8c-0.4,0.2-0.9,0.4-1.4,0.5S406.1,270.1,405.5,270.1z M405.2,257.2c-0.6,0-1.2,0.1-1.7,0.3
			c-0.5,0.2-1,0.6-1.4,1c-0.4,0.4-0.7,0.9-1,1.5c-0.3,0.6-0.4,1.2-0.5,1.8h8.7v-0.2c0-0.6-0.1-1.1-0.3-1.7c-0.2-0.5-0.5-1-0.8-1.4
			c-0.4-0.4-0.8-0.7-1.3-1S405.9,257.2,405.2,257.2z"/>
		<path class="st7" d="M420.1,261.8l4.3-5.6h1.8l-5.2,6.7l5.4,7h-1.8l-4.5-5.9l-4.5,5.9h-1.8l5.4-7l-5.2-6.7h1.8L420.1,261.8z"/>
		<path class="st7" d="M435.4,270.1c-1,0-1.8-0.2-2.6-0.5s-1.5-0.8-2-1.4c-0.6-0.6-1-1.3-1.3-2.1c-0.3-0.8-0.5-1.7-0.5-2.6v-0.5
			c0-1,0.2-1.9,0.5-2.7s0.8-1.6,1.3-2.2c0.6-0.6,1.2-1.1,1.9-1.5c0.7-0.4,1.5-0.5,2.4-0.5c0.9,0,1.7,0.2,2.4,0.5
			c0.7,0.3,1.3,0.8,1.8,1.4c0.5,0.6,0.8,1.2,1.1,2c0.2,0.8,0.4,1.6,0.4,2.5v0.9h-10.3v0.3c0,0.7,0.1,1.4,0.4,2.1
			c0.2,0.7,0.6,1.2,1,1.7s1,0.9,1.6,1.2c0.6,0.3,1.3,0.5,2,0.5c0.8,0,1.6-0.1,2.3-0.5s1.3-0.8,1.8-1.4l1,0.7c-0.3,0.4-0.6,0.7-0.9,1
			c-0.3,0.3-0.7,0.6-1.2,0.8c-0.4,0.2-0.9,0.4-1.4,0.5S436,270.1,435.4,270.1z M435.1,257.2c-0.6,0-1.2,0.1-1.7,0.3
			c-0.5,0.2-1,0.6-1.4,1c-0.4,0.4-0.7,0.9-1,1.5c-0.3,0.6-0.4,1.2-0.5,1.8h8.7v-0.2c0-0.6-0.1-1.1-0.3-1.7c-0.2-0.5-0.5-1-0.8-1.4
			c-0.4-0.4-0.8-0.7-1.3-1S435.8,257.2,435.1,257.2z"/>
		<path class="st7" d="M461,258.8c0.5-0.9,1.1-1.6,1.9-2.1c0.8-0.5,1.7-0.8,2.8-0.8c0.8,0,1.4,0.1,2,0.3c0.6,0.2,1.1,0.6,1.5,1
			c0.4,0.4,0.7,1,0.9,1.6c0.2,0.6,0.3,1.4,0.3,2.2v8.8h-1.5v-8.8c0-0.6-0.1-1.2-0.2-1.6c-0.1-0.5-0.4-0.9-0.7-1.2
			c-0.3-0.3-0.7-0.6-1.1-0.8c-0.4-0.2-1-0.3-1.5-0.3c-0.5,0-0.9,0.1-1.4,0.2c-0.4,0.2-0.8,0.4-1.2,0.6c-0.4,0.3-0.7,0.6-1,1
			c-0.3,0.4-0.5,0.8-0.7,1.2v9.6h-1.5v-19.5h1.5V258.8z"/>
		<path class="st7" d="M480.3,270.1c-1,0-1.8-0.2-2.6-0.5s-1.5-0.8-2-1.4c-0.6-0.6-1-1.3-1.3-2.1c-0.3-0.8-0.5-1.7-0.5-2.6v-0.5
			c0-1,0.2-1.9,0.5-2.7s0.8-1.6,1.3-2.2c0.6-0.6,1.2-1.1,1.9-1.5c0.7-0.4,1.5-0.5,2.4-0.5c0.9,0,1.7,0.2,2.4,0.5
			c0.7,0.3,1.3,0.8,1.8,1.4c0.5,0.6,0.8,1.2,1.1,2c0.2,0.8,0.4,1.6,0.4,2.5v0.9h-10.3v0.3c0,0.7,0.1,1.4,0.4,2.1
			c0.2,0.7,0.6,1.2,1,1.7s1,0.9,1.6,1.2c0.6,0.3,1.3,0.5,2,0.5c0.8,0,1.6-0.1,2.3-0.5s1.3-0.8,1.8-1.4l1,0.7c-0.3,0.4-0.6,0.7-0.9,1
			c-0.3,0.3-0.7,0.6-1.2,0.8c-0.4,0.2-0.9,0.4-1.4,0.5S480.9,270.1,480.3,270.1z M480,257.2c-0.6,0-1.2,0.1-1.7,0.3
			c-0.5,0.2-1,0.6-1.4,1c-0.4,0.4-0.7,0.9-1,1.5c-0.3,0.6-0.4,1.2-0.5,1.8h8.7v-0.2c0-0.6-0.1-1.1-0.3-1.7c-0.2-0.5-0.5-1-0.8-1.4
			c-0.4-0.4-0.8-0.7-1.3-1S480.7,257.2,480,257.2z"/>
		<path class="st7" d="M489.7,250.4h6.4v18.2h4.6v1.3h-11v-1.3h4.9v-16.8h-4.9V250.4z"/>
		<path class="st7" d="M504.7,250.4h6.4v18.2h4.6v1.3h-11v-1.3h4.9v-16.8h-4.9V250.4z"/>
		<path class="st7" d="M518.5,262.8c0-0.9,0.2-1.8,0.4-2.7s0.7-1.6,1.2-2.2c0.5-0.6,1.2-1.1,1.9-1.5c0.8-0.4,1.6-0.6,2.6-0.6
			c1,0,1.8,0.2,2.6,0.6c0.8,0.4,1.4,0.9,1.9,1.5c0.5,0.6,0.9,1.4,1.2,2.2s0.4,1.7,0.4,2.7v0.4c0,0.9-0.2,1.8-0.4,2.7
			c-0.3,0.8-0.7,1.6-1.2,2.2c-0.5,0.6-1.2,1.1-1.9,1.5c-0.8,0.4-1.6,0.6-2.6,0.6s-1.8-0.2-2.6-0.6c-0.8-0.4-1.4-0.9-1.9-1.5
			c-0.5-0.6-0.9-1.4-1.2-2.2s-0.4-1.7-0.4-2.7V262.8z M520,263.2c0,0.7,0.1,1.4,0.3,2.1s0.5,1.3,0.9,1.8c0.4,0.5,0.9,0.9,1.4,1.2
			s1.2,0.5,2,0.5c0.7,0,1.4-0.2,2-0.5s1-0.7,1.4-1.2c0.4-0.5,0.7-1.1,0.9-1.8s0.3-1.4,0.3-2.1v-0.4c0-0.7-0.1-1.4-0.3-2.1
			s-0.5-1.3-0.9-1.8c-0.4-0.5-0.9-0.9-1.4-1.3c-0.6-0.3-1.2-0.5-2-0.5c-0.7,0-1.4,0.2-2,0.5c-0.6,0.3-1,0.7-1.4,1.3
			c-0.4,0.5-0.7,1.1-0.9,1.8s-0.3,1.4-0.3,2.1V263.2z"/>
		<path class="st7" d="M538.7,268.8c0-0.4,0.1-0.7,0.3-0.9c0.2-0.2,0.5-0.4,0.9-0.4c0.4,0,0.7,0.1,1,0.4c0.2,0.2,0.3,0.6,0.3,0.9
			s-0.1,0.6-0.3,0.9c-0.2,0.2-0.6,0.3-1,0.3c-0.4,0-0.7-0.1-0.9-0.3C538.8,269.5,538.7,269.2,538.7,268.8z"/>
		<path class="st7" d="M548.7,262.9c0-0.9,0.1-1.8,0.3-2.6c0.2-0.8,0.6-1.6,1-2.2c0.5-0.6,1-1.2,1.7-1.5c0.7-0.4,1.5-0.6,2.4-0.6
			c0.9,0,1.7,0.2,2.3,0.6c0.7,0.4,1.3,0.9,1.7,1.6v-7.6h1.5v19.5h-1.4l-0.1-1.8c-0.5,0.7-1.1,1.2-1.8,1.5c-0.7,0.4-1.5,0.5-2.3,0.5
			c-0.9,0-1.7-0.2-2.4-0.6c-0.7-0.4-1.2-0.9-1.7-1.6c-0.5-0.6-0.8-1.4-1-2.2c-0.2-0.8-0.3-1.7-0.3-2.6V262.9z M550.3,263.2
			c0,0.7,0.1,1.4,0.2,2c0.1,0.7,0.4,1.3,0.7,1.8c0.3,0.5,0.8,1,1.3,1.3s1.2,0.5,2,0.5c0.4,0,0.8-0.1,1.2-0.2
			c0.4-0.1,0.7-0.3,1.1-0.5c0.3-0.2,0.6-0.5,0.9-0.8c0.3-0.3,0.5-0.6,0.7-1v-6.7c-0.2-0.4-0.4-0.7-0.6-1c-0.2-0.3-0.5-0.6-0.9-0.8
			c-0.3-0.2-0.7-0.4-1.1-0.5c-0.4-0.1-0.8-0.2-1.2-0.2c-0.8,0-1.4,0.2-2,0.5c-0.5,0.3-1,0.8-1.3,1.3c-0.3,0.5-0.6,1.1-0.7,1.8
			c-0.1,0.7-0.2,1.4-0.2,2V263.2z"/>
		<path class="st7" d="M573.6,269.9c-0.1-0.3-0.2-0.6-0.2-0.9c-0.1-0.3-0.1-0.7-0.1-1c-0.3,0.3-0.6,0.6-0.9,0.9
			c-0.3,0.3-0.7,0.5-1.1,0.7c-0.4,0.2-0.9,0.4-1.3,0.5c-0.5,0.1-1,0.2-1.5,0.2c-0.6,0-1.2-0.1-1.8-0.3c-0.6-0.2-1-0.4-1.4-0.8
			c-0.4-0.3-0.7-0.7-1-1.2c-0.2-0.5-0.3-1-0.3-1.6c0-0.8,0.2-1.5,0.5-2c0.3-0.5,0.8-1,1.4-1.3c0.6-0.3,1.3-0.6,2.1-0.8
			c0.8-0.2,1.6-0.2,2.5-0.2h3v-1.6c0-0.5-0.1-1-0.3-1.4c-0.2-0.4-0.5-0.7-0.8-1c-0.3-0.3-0.7-0.5-1.2-0.6c-0.5-0.1-1-0.2-1.5-0.2
			c-0.5,0-1,0.1-1.4,0.2s-0.8,0.3-1.2,0.5s-0.6,0.5-0.8,0.9c-0.2,0.3-0.3,0.7-0.3,1.2l-1.5,0c0-0.6,0.2-1.1,0.5-1.6
			c0.3-0.5,0.7-0.9,1.1-1.3c0.5-0.4,1-0.6,1.7-0.8c0.6-0.2,1.3-0.3,2.1-0.3c0.7,0,1.4,0.1,2,0.3c0.6,0.2,1.2,0.5,1.7,0.8
			s0.8,0.8,1.1,1.4c0.3,0.6,0.4,1.2,0.4,2v6.7c0,0.5,0,0.9,0.1,1.4c0.1,0.5,0.2,0.9,0.3,1.3l0,0.2H573.6z M568.6,268.8
			c0.5,0,1-0.1,1.5-0.2c0.5-0.1,0.9-0.3,1.3-0.6c0.4-0.2,0.8-0.5,1.1-0.9c0.3-0.3,0.6-0.7,0.7-1.1v-3h-2.8c-0.7,0-1.3,0.1-1.9,0.2
			c-0.6,0.1-1.2,0.3-1.6,0.5c-0.5,0.2-0.9,0.5-1.1,0.9c-0.3,0.4-0.4,0.9-0.4,1.5c0,0.4,0.1,0.8,0.3,1.1c0.2,0.3,0.4,0.6,0.7,0.8
			c0.3,0.2,0.6,0.4,1,0.5C567.7,268.7,568.1,268.8,568.6,268.8z"/>
		<path class="st7" d="M588.2,255.9c0.4,0,0.8,0,1.1,0.1c0.4,0,0.7,0.1,1,0.2l-0.2,1.5c-0.4-0.1-0.7-0.1-1.1-0.2s-0.7-0.1-1.1-0.1
			c-1.3,0-2.4,0.3-3.3,0.9c-0.9,0.6-1.5,1.5-1.9,2.8l0,8.8h-1.6v-13.7h1.5l0.1,2.4v0.3c0.6-0.9,1.3-1.6,2.2-2.1
			C585.9,256.2,587,255.9,588.2,255.9z"/>
		<path class="st7" d="M599.1,252.6v3.5h5.1v1.2h-5.1v8.6c0,0.5,0.1,1,0.2,1.3c0.2,0.4,0.4,0.6,0.6,0.8c0.3,0.2,0.6,0.4,0.9,0.5
			c0.4,0.1,0.8,0.1,1.2,0.1c0.4,0,0.9,0,1.3-0.1s0.8-0.1,1.1-0.2l0.2,1.2c-0.4,0.1-0.8,0.3-1.3,0.3c-0.5,0.1-1.1,0.1-1.6,0.1
			c-0.6,0-1.2-0.1-1.7-0.2c-0.5-0.1-1-0.4-1.3-0.7c-0.4-0.3-0.7-0.7-0.9-1.3c-0.2-0.5-0.3-1.2-0.3-1.9v-8.6h-3.8v-1.2h3.8v-3.5
			H599.1z"/>
		<path class="st7" d="M185.1,308.3c0-0.5-0.1-1-0.3-1.4c-0.2-0.4-0.5-0.8-0.9-1.1c-0.4-0.3-0.8-0.6-1.3-0.8c-0.5-0.2-1-0.5-1.6-0.7
			c-0.7-0.2-1.4-0.5-2-0.8s-1.2-0.7-1.6-1.1s-0.8-0.9-1.1-1.5c-0.3-0.6-0.4-1.2-0.4-2c0-0.7,0.1-1.4,0.4-1.9c0.2-0.6,0.6-1.1,1-1.5
			s0.9-0.7,1.5-1c0.6-0.2,1.2-0.4,1.9-0.5v-2.6h1.3v2.6c0.7,0.1,1.4,0.2,1.9,0.5s1.1,0.7,1.5,1.2c0.4,0.5,0.7,1.1,0.9,1.7
			s0.3,1.4,0.3,2.2H185c0-0.6-0.1-1.2-0.3-1.8s-0.4-1-0.8-1.4s-0.7-0.7-1.2-0.9c-0.5-0.2-1-0.3-1.6-0.3c-0.5,0-1,0.1-1.5,0.2
			c-0.5,0.2-0.9,0.4-1.2,0.7s-0.6,0.7-0.8,1.1c-0.2,0.4-0.3,0.9-0.3,1.5c0,0.6,0.1,1.1,0.3,1.5c0.2,0.4,0.5,0.8,0.9,1.1
			c0.4,0.3,0.8,0.6,1.3,0.8c0.5,0.2,1.1,0.5,1.7,0.7c0.7,0.2,1.4,0.5,2,0.8c0.6,0.3,1.2,0.6,1.6,1.1c0.5,0.4,0.8,0.9,1.1,1.5
			c0.3,0.6,0.4,1.2,0.4,2c0,0.7-0.1,1.4-0.4,1.9c-0.2,0.6-0.6,1.1-1,1.5c-0.4,0.4-0.9,0.7-1.5,1c-0.6,0.2-1.2,0.4-1.9,0.4v2.4h-1.3
			v-2.4c-0.7-0.1-1.4-0.2-2-0.4c-0.6-0.2-1.2-0.6-1.7-1c-0.5-0.5-0.9-1-1.2-1.7c-0.3-0.7-0.4-1.5-0.5-2.4h1.5c0,0.7,0.1,1.4,0.4,1.9
			c0.2,0.5,0.6,1,1,1.3c0.4,0.3,0.9,0.6,1.4,0.8s1.1,0.2,1.6,0.2c0.5,0,1.1-0.1,1.5-0.2c0.5-0.2,0.9-0.4,1.3-0.7s0.7-0.7,0.9-1.1
			C185,309.4,185.1,308.9,185.1,308.3z"/>
		<path class="st7" d="M210.3,295.6v3.5h5.1v1.2h-5.1v8.6c0,0.5,0.1,1,0.2,1.3c0.2,0.4,0.4,0.6,0.6,0.8c0.3,0.2,0.6,0.4,0.9,0.5
			c0.4,0.1,0.8,0.1,1.2,0.1c0.4,0,0.9,0,1.3-0.1s0.8-0.1,1.1-0.2l0.2,1.2c-0.4,0.1-0.8,0.3-1.3,0.3c-0.5,0.1-1.1,0.1-1.6,0.1
			c-0.6,0-1.2-0.1-1.7-0.2c-0.5-0.1-1-0.4-1.3-0.7c-0.4-0.3-0.7-0.7-0.9-1.3c-0.2-0.5-0.3-1.2-0.3-1.9v-8.6H205v-1.2h3.8v-3.5H210.3
			z"/>
		<path class="st7" d="M220.6,299.2h6.4v12.4h4.7v1.3h-11v-1.3h4.8v-11h-4.8V299.2z M225,295.4c0-0.3,0.1-0.6,0.3-0.8
			s0.5-0.3,0.9-0.3c0.4,0,0.7,0.1,0.9,0.3c0.2,0.2,0.3,0.5,0.3,0.8c0,0.3-0.1,0.6-0.3,0.8c-0.2,0.2-0.5,0.3-0.9,0.3
			c-0.4,0-0.7-0.1-0.9-0.3C225.1,296,225,295.7,225,295.4z"/>
		<path class="st7" d="M235.2,299.2l0,1.5c0.3-0.5,0.7-1,1.1-1.3c0.5-0.3,1.1-0.5,1.8-0.5c0.4,0,0.7,0,1,0.1
			c0.3,0.1,0.6,0.2,0.8,0.4c0.2,0.2,0.4,0.4,0.6,0.6c0.2,0.2,0.3,0.5,0.4,0.7c0.3-0.5,0.7-0.9,1.2-1.3c0.5-0.3,1.1-0.5,1.9-0.5
			c0.6,0,1.1,0.1,1.5,0.3c0.4,0.2,0.7,0.5,1,0.8c0.2,0.3,0.4,0.7,0.5,1.2c0.1,0.5,0.2,0.9,0.2,1.4l0,10.2h-1.4l0-10.2
			c0-0.3,0-0.6-0.1-0.9c-0.1-0.3-0.2-0.6-0.3-0.8c-0.1-0.2-0.4-0.4-0.6-0.6s-0.6-0.2-1-0.2c-0.4,0-0.8,0.1-1.1,0.2s-0.5,0.3-0.7,0.5
			s-0.3,0.4-0.4,0.7c-0.1,0.2-0.2,0.5-0.2,0.8l0,10.5h-1.4l0-10.3c0-0.3,0-0.6-0.1-0.9c-0.1-0.3-0.2-0.5-0.3-0.7
			c-0.1-0.2-0.4-0.4-0.6-0.5c-0.3-0.1-0.6-0.2-1-0.2s-0.8,0.1-1,0.2c-0.3,0.1-0.5,0.3-0.7,0.5c-0.2,0.2-0.3,0.4-0.5,0.7
			c-0.1,0.3-0.2,0.5-0.3,0.8l0,10.5h-1.4v-13.7H235.2z"/>
		<path class="st7" d="M256,313.1c-1,0-1.8-0.2-2.6-0.5s-1.5-0.8-2-1.4c-0.6-0.6-1-1.3-1.3-2.1c-0.3-0.8-0.5-1.7-0.5-2.6v-0.5
			c0-1,0.2-1.9,0.5-2.7s0.8-1.6,1.3-2.2c0.6-0.6,1.2-1.1,1.9-1.5c0.7-0.4,1.5-0.5,2.4-0.5c0.9,0,1.7,0.2,2.4,0.5
			c0.7,0.3,1.3,0.8,1.8,1.4c0.5,0.6,0.8,1.2,1.1,2c0.2,0.8,0.4,1.6,0.4,2.5v0.9h-10.3v0.3c0,0.7,0.1,1.4,0.4,2.1
			c0.2,0.7,0.6,1.2,1,1.7s1,0.9,1.6,1.2c0.6,0.3,1.3,0.5,2,0.5c0.8,0,1.6-0.1,2.3-0.5s1.3-0.8,1.8-1.4l1,0.7c-0.3,0.4-0.6,0.7-0.9,1
			c-0.3,0.3-0.7,0.6-1.2,0.8c-0.4,0.2-0.9,0.4-1.4,0.5S256.6,313.1,256,313.1z M255.7,300.2c-0.6,0-1.2,0.1-1.7,0.3
			c-0.5,0.2-1,0.6-1.4,1c-0.4,0.4-0.7,0.9-1,1.5c-0.3,0.6-0.4,1.2-0.5,1.8h8.7v-0.2c0-0.6-0.1-1.1-0.3-1.7c-0.2-0.5-0.5-1-0.8-1.4
			c-0.4-0.4-0.8-0.7-1.3-1S256.4,300.2,255.7,300.2z"/>
		<path class="st7" d="M284.5,311.8c0-0.4,0.1-0.7,0.3-0.9c0.2-0.2,0.5-0.4,0.9-0.4c0.4,0,0.7,0.1,1,0.4c0.2,0.2,0.3,0.6,0.3,0.9
			s-0.1,0.6-0.3,0.9c-0.2,0.2-0.6,0.3-1,0.3c-0.4,0-0.7-0.1-0.9-0.3C284.6,312.5,284.5,312.2,284.5,311.8z"/>
		<path class="st7" d="M297.5,314.5h-1.4l7.7-20.1h1.4L297.5,314.5z"/>
		<path class="st7" d="M311.5,301.8c0.5-0.9,1.1-1.6,1.9-2.1c0.8-0.5,1.7-0.8,2.8-0.8c0.8,0,1.4,0.1,2,0.3c0.6,0.2,1.1,0.6,1.5,1
			c0.4,0.4,0.7,1,0.9,1.6c0.2,0.6,0.3,1.4,0.3,2.2v8.8h-1.5v-8.8c0-0.6-0.1-1.2-0.2-1.6c-0.1-0.5-0.4-0.9-0.7-1.2
			c-0.3-0.3-0.7-0.6-1.1-0.8c-0.4-0.2-1-0.3-1.5-0.3c-0.5,0-0.9,0.1-1.4,0.2c-0.4,0.2-0.8,0.4-1.2,0.6c-0.4,0.3-0.7,0.6-1,1
			c-0.3,0.4-0.5,0.8-0.7,1.2v9.6h-1.5v-19.5h1.5V301.8z"/>
		<path class="st7" d="M330.8,313.1c-1,0-1.8-0.2-2.6-0.5s-1.5-0.8-2-1.4c-0.6-0.6-1-1.3-1.3-2.1c-0.3-0.8-0.5-1.7-0.5-2.6v-0.5
			c0-1,0.2-1.9,0.5-2.7s0.8-1.6,1.3-2.2c0.6-0.6,1.2-1.1,1.9-1.5c0.7-0.4,1.5-0.5,2.4-0.5c0.9,0,1.7,0.2,2.4,0.5
			c0.7,0.3,1.3,0.8,1.8,1.4c0.5,0.6,0.8,1.2,1.1,2c0.2,0.8,0.4,1.6,0.4,2.5v0.9h-10.3v0.3c0,0.7,0.1,1.4,0.4,2.1
			c0.2,0.7,0.6,1.2,1,1.7s1,0.9,1.6,1.2c0.6,0.3,1.3,0.5,2,0.5c0.8,0,1.6-0.1,2.3-0.5s1.3-0.8,1.8-1.4l1,0.7c-0.3,0.4-0.6,0.7-0.9,1
			c-0.3,0.3-0.7,0.6-1.2,0.8c-0.4,0.2-0.9,0.4-1.4,0.5S331.3,313.1,330.8,313.1z M330.5,300.2c-0.6,0-1.2,0.1-1.7,0.3
			c-0.5,0.2-1,0.6-1.4,1c-0.4,0.4-0.7,0.9-1,1.5c-0.3,0.6-0.4,1.2-0.5,1.8h8.7v-0.2c0-0.6-0.1-1.1-0.3-1.7c-0.2-0.5-0.5-1-0.8-1.4
			c-0.4-0.4-0.8-0.7-1.3-1S331.1,300.2,330.5,300.2z"/>
		<path class="st7" d="M340.2,293.4h6.4v18.2h4.6v1.3h-11v-1.3h4.9v-16.8h-4.9V293.4z"/>
		<path class="st7" d="M355.2,293.4h6.4v18.2h4.6v1.3h-11v-1.3h4.9v-16.8h-4.9V293.4z"/>
		<path class="st7" d="M369,305.8c0-0.9,0.2-1.8,0.4-2.7s0.7-1.6,1.2-2.2c0.5-0.6,1.2-1.1,1.9-1.5c0.8-0.4,1.6-0.6,2.6-0.6
			c1,0,1.8,0.2,2.6,0.6c0.8,0.4,1.4,0.9,1.9,1.5c0.5,0.6,0.9,1.4,1.2,2.2s0.4,1.7,0.4,2.7v0.4c0,0.9-0.2,1.8-0.4,2.7
			c-0.3,0.8-0.7,1.6-1.2,2.2c-0.5,0.6-1.2,1.1-1.9,1.5c-0.8,0.4-1.6,0.6-2.6,0.6s-1.8-0.2-2.6-0.6c-0.8-0.4-1.4-0.9-1.9-1.5
			c-0.5-0.6-0.9-1.4-1.2-2.2c-0.3-0.8-0.4-1.7-0.4-2.7V305.8z M370.5,306.2c0,0.7,0.1,1.4,0.3,2.1c0.2,0.7,0.5,1.3,0.9,1.8
			c0.4,0.5,0.9,0.9,1.4,1.2s1.2,0.5,2,0.5c0.7,0,1.4-0.2,2-0.5s1-0.7,1.4-1.2c0.4-0.5,0.7-1.1,0.9-1.8c0.2-0.7,0.3-1.4,0.3-2.1v-0.4
			c0-0.7-0.1-1.4-0.3-2.1s-0.5-1.3-0.9-1.8c-0.4-0.5-0.9-0.9-1.4-1.3c-0.6-0.3-1.2-0.5-2-0.5c-0.7,0-1.4,0.2-2,0.5
			c-0.6,0.3-1,0.7-1.4,1.3c-0.4,0.5-0.7,1.1-0.9,1.8s-0.3,1.4-0.3,2.1V306.2z"/>
		<path class="st7" d="M389.1,311.8c0-0.4,0.1-0.7,0.3-0.9c0.2-0.2,0.5-0.4,0.9-0.4c0.4,0,0.7,0.1,1,0.4c0.2,0.2,0.3,0.6,0.3,0.9
			s-0.1,0.6-0.3,0.9c-0.2,0.2-0.6,0.3-1,0.3c-0.4,0-0.7-0.1-0.9-0.3C389.3,312.5,389.1,312.2,389.1,311.8z"/>
		<path class="st7" d="M405.5,313.1c-1,0-1.8-0.2-2.6-0.5s-1.5-0.8-2-1.4c-0.6-0.6-1-1.3-1.3-2.1c-0.3-0.8-0.5-1.7-0.5-2.6v-0.5
			c0-1,0.2-1.9,0.5-2.7s0.8-1.6,1.3-2.2c0.6-0.6,1.2-1.1,1.9-1.5c0.7-0.4,1.5-0.5,2.4-0.5c0.9,0,1.7,0.2,2.4,0.5
			c0.7,0.3,1.3,0.8,1.8,1.4c0.5,0.6,0.8,1.2,1.1,2c0.2,0.8,0.4,1.6,0.4,2.5v0.9h-10.3v0.3c0,0.7,0.1,1.4,0.4,2.1
			c0.2,0.7,0.6,1.2,1,1.7s1,0.9,1.6,1.2c0.6,0.3,1.3,0.5,2,0.5c0.8,0,1.6-0.1,2.3-0.5s1.3-0.8,1.8-1.4l1,0.7c-0.3,0.4-0.6,0.7-0.9,1
			c-0.3,0.3-0.7,0.6-1.2,0.8c-0.4,0.2-0.9,0.4-1.4,0.5S406.1,313.1,405.5,313.1z M405.2,300.2c-0.6,0-1.2,0.1-1.7,0.3
			c-0.5,0.2-1,0.6-1.4,1c-0.4,0.4-0.7,0.9-1,1.5c-0.3,0.6-0.4,1.2-0.5,1.8h8.7v-0.2c0-0.6-0.1-1.1-0.3-1.7c-0.2-0.5-0.5-1-0.8-1.4
			c-0.4-0.4-0.8-0.7-1.3-1S405.9,300.2,405.2,300.2z"/>
		<path class="st7" d="M420.1,304.8l4.3-5.6h1.8l-5.2,6.7l5.4,7h-1.8l-4.5-5.9l-4.5,5.9h-1.8l5.4-7l-5.2-6.7h1.8L420.1,304.8z"/>
		<path class="st7" d="M435.4,313.1c-1,0-1.8-0.2-2.6-0.5s-1.5-0.8-2-1.4c-0.6-0.6-1-1.3-1.3-2.1c-0.3-0.8-0.5-1.7-0.5-2.6v-0.5
			c0-1,0.2-1.9,0.5-2.7s0.8-1.6,1.3-2.2c0.6-0.6,1.2-1.1,1.9-1.5c0.7-0.4,1.5-0.5,2.4-0.5c0.9,0,1.7,0.2,2.4,0.5
			c0.7,0.3,1.3,0.8,1.8,1.4c0.5,0.6,0.8,1.2,1.1,2c0.2,0.8,0.4,1.6,0.4,2.5v0.9h-10.3v0.3c0,0.7,0.1,1.4,0.4,2.1
			c0.2,0.7,0.6,1.2,1,1.7s1,0.9,1.6,1.2c0.6,0.3,1.3,0.5,2,0.5c0.8,0,1.6-0.1,2.3-0.5s1.3-0.8,1.8-1.4l1,0.7c-0.3,0.4-0.6,0.7-0.9,1
			c-0.3,0.3-0.7,0.6-1.2,0.8c-0.4,0.2-0.9,0.4-1.4,0.5S436,313.1,435.4,313.1z M435.1,300.2c-0.6,0-1.2,0.1-1.7,0.3
			c-0.5,0.2-1,0.6-1.4,1c-0.4,0.4-0.7,0.9-1,1.5c-0.3,0.6-0.4,1.2-0.5,1.8h8.7v-0.2c0-0.6-0.1-1.1-0.3-1.7c-0.2-0.5-0.5-1-0.8-1.4
			c-0.4-0.4-0.8-0.7-1.3-1S435.8,300.2,435.1,300.2z"/>
		<path class="st7" d="M186.5,355.9h-1.4V347h-8.7v8.9h-1.4v-18.5h1.4v8.3h8.7v-8.3h1.4V355.9z"/>
		<path class="st7" d="M196.2,356.1c-1,0-1.8-0.2-2.6-0.5s-1.5-0.8-2-1.4c-0.6-0.6-1-1.3-1.3-2.1c-0.3-0.8-0.5-1.7-0.5-2.6v-0.5
			c0-1,0.2-1.9,0.5-2.7s0.8-1.6,1.3-2.2c0.5-0.6,1.2-1.1,1.9-1.5c0.7-0.4,1.5-0.5,2.4-0.5c0.9,0,1.7,0.2,2.4,0.5
			c0.7,0.3,1.3,0.8,1.8,1.4c0.5,0.6,0.8,1.2,1.1,2c0.2,0.8,0.4,1.6,0.4,2.5v0.9h-10.3v0.3c0,0.7,0.1,1.4,0.4,2.1
			c0.2,0.7,0.6,1.2,1,1.7s1,0.9,1.6,1.2c0.6,0.3,1.3,0.5,2,0.5c0.8,0,1.6-0.1,2.3-0.5s1.3-0.8,1.8-1.4l1,0.7c-0.3,0.4-0.6,0.7-0.9,1
			c-0.3,0.3-0.7,0.6-1.2,0.8c-0.4,0.2-0.9,0.4-1.4,0.5S196.8,356.1,196.2,356.1z M195.9,343.2c-0.6,0-1.2,0.1-1.7,0.3
			c-0.5,0.2-1,0.6-1.4,1c-0.4,0.4-0.7,0.9-1,1.5c-0.3,0.6-0.4,1.2-0.5,1.8h8.7v-0.2c0-0.6-0.1-1.1-0.3-1.7c-0.2-0.5-0.5-1-0.8-1.4
			c-0.4-0.4-0.8-0.7-1.3-1S196.6,343.2,195.9,343.2z"/>
		<path class="st7" d="M205.6,336.4h6.4v18.2h4.6v1.3h-11v-1.3h4.9v-16.8h-4.9V336.4z"/>
		<path class="st7" d="M220.6,336.4h6.4v18.2h4.6v1.3h-11v-1.3h4.9v-16.8h-4.9V336.4z"/>
		<path class="st7" d="M234.4,348.8c0-0.9,0.2-1.8,0.4-2.7s0.7-1.6,1.2-2.2c0.5-0.6,1.2-1.1,1.9-1.5c0.8-0.4,1.6-0.6,2.6-0.6
			c1,0,1.8,0.2,2.6,0.6c0.8,0.4,1.4,0.9,1.9,1.5c0.5,0.6,0.9,1.4,1.2,2.2s0.4,1.7,0.4,2.7v0.4c0,0.9-0.2,1.8-0.4,2.7
			c-0.3,0.8-0.7,1.6-1.2,2.2c-0.5,0.6-1.2,1.1-1.9,1.5c-0.8,0.4-1.6,0.6-2.6,0.6s-1.8-0.2-2.6-0.6c-0.8-0.4-1.4-0.9-1.9-1.5
			c-0.5-0.6-0.9-1.4-1.2-2.2s-0.4-1.7-0.4-2.7V348.8z M235.9,349.2c0,0.7,0.1,1.4,0.3,2.1s0.5,1.3,0.9,1.8c0.4,0.5,0.9,0.9,1.4,1.2
			s1.2,0.5,2,0.5c0.7,0,1.4-0.2,2-0.5s1-0.7,1.4-1.2c0.4-0.5,0.7-1.1,0.9-1.8s0.3-1.4,0.3-2.1v-0.4c0-0.7-0.1-1.4-0.3-2.1
			s-0.5-1.3-0.9-1.8c-0.4-0.5-0.9-0.9-1.4-1.3c-0.6-0.3-1.2-0.5-2-0.5c-0.7,0-1.4,0.2-2,0.5c-0.6,0.3-1,0.7-1.4,1.3
			c-0.4,0.5-0.7,1.1-0.9,1.8s-0.3,1.4-0.3,2.1V349.2z"/>
		<path class="st7" d="M255.3,355.4c0,0.4,0,0.7-0.1,1.1c-0.1,0.4-0.2,0.7-0.3,1.1c-0.1,0.4-0.3,0.7-0.6,1c-0.2,0.3-0.5,0.6-0.8,0.9
			l-1-0.6c0.7-1.1,1.1-2.2,1.1-3.5v-2h1.6V355.4z"/>
		<path class="st7" d="M279.8,355.9v-18.5h4.5c1.2,0,2.2,0.2,3.2,0.7c0.9,0.4,1.7,1,2.4,1.8c0.6,0.8,1.1,1.6,1.5,2.6
			c0.3,1,0.5,2.1,0.5,3.2v1.8c0,1.1-0.2,2.2-0.5,3.2c-0.3,1-0.8,1.9-1.5,2.6c-0.6,0.8-1.4,1.4-2.4,1.8c-0.9,0.4-2,0.7-3.2,0.7H279.8
			z M281.4,338.7v15.9h2.9c1,0,1.9-0.2,2.6-0.6s1.4-0.9,1.9-1.6c0.5-0.6,0.9-1.4,1.1-2.2c0.3-0.8,0.4-1.7,0.4-2.6v-1.9
			c0-0.9-0.1-1.8-0.4-2.6c-0.3-0.8-0.6-1.6-1.1-2.2c-0.5-0.6-1.1-1.2-1.9-1.5s-1.6-0.6-2.6-0.6H281.4z"/>
		<path class="st7" d="M300.9,356.1c-1,0-1.8-0.2-2.6-0.5s-1.5-0.8-2-1.4c-0.6-0.6-1-1.3-1.3-2.1c-0.3-0.8-0.5-1.7-0.5-2.6v-0.5
			c0-1,0.2-1.9,0.5-2.7s0.8-1.6,1.3-2.2c0.6-0.6,1.2-1.1,1.9-1.5c0.7-0.4,1.5-0.5,2.4-0.5c0.9,0,1.7,0.2,2.4,0.5
			c0.7,0.3,1.3,0.8,1.8,1.4c0.5,0.6,0.8,1.2,1.1,2c0.2,0.8,0.4,1.6,0.4,2.5v0.9H296v0.3c0,0.7,0.1,1.4,0.4,2.1
			c0.2,0.7,0.6,1.2,1,1.7s1,0.9,1.6,1.2c0.6,0.3,1.3,0.5,2,0.5c0.8,0,1.6-0.1,2.3-0.5s1.3-0.8,1.8-1.4l1,0.7c-0.3,0.4-0.6,0.7-0.9,1
			c-0.3,0.3-0.7,0.6-1.2,0.8c-0.4,0.2-0.9,0.4-1.4,0.5S301.4,356.1,300.9,356.1z M300.6,343.2c-0.6,0-1.2,0.1-1.7,0.3
			c-0.5,0.2-1,0.6-1.4,1c-0.4,0.4-0.7,0.9-1,1.5c-0.3,0.6-0.4,1.2-0.5,1.8h8.7v-0.2c0-0.6-0.1-1.1-0.3-1.7c-0.2-0.5-0.5-1-0.8-1.4
			c-0.4-0.4-0.8-0.7-1.3-1S301.2,343.2,300.6,343.2z"/>
		<path class="st7" d="M315.2,353.8l0.1,0.3l0.1-0.3l4.7-11.7h1.6l-5.8,13.7h-1.2l-5.8-13.7h1.6L315.2,353.8z"/>
		<path class="st7" d="M330.8,356.1c-1,0-1.8-0.2-2.6-0.5s-1.5-0.8-2-1.4c-0.6-0.6-1-1.3-1.3-2.1c-0.3-0.8-0.5-1.7-0.5-2.6v-0.5
			c0-1,0.2-1.9,0.5-2.7s0.8-1.6,1.3-2.2c0.6-0.6,1.2-1.1,1.9-1.5c0.7-0.4,1.5-0.5,2.4-0.5c0.9,0,1.7,0.2,2.4,0.5
			c0.7,0.3,1.3,0.8,1.8,1.4c0.5,0.6,0.8,1.2,1.1,2c0.2,0.8,0.4,1.6,0.4,2.5v0.9h-10.3v0.3c0,0.7,0.1,1.4,0.4,2.1
			c0.2,0.7,0.6,1.2,1,1.7s1,0.9,1.6,1.2c0.6,0.3,1.3,0.5,2,0.5c0.8,0,1.6-0.1,2.3-0.5s1.3-0.8,1.8-1.4l1,0.7c-0.3,0.4-0.6,0.7-0.9,1
			c-0.3,0.3-0.7,0.6-1.2,0.8c-0.4,0.2-0.9,0.4-1.4,0.5S331.3,356.1,330.8,356.1z M330.5,343.2c-0.6,0-1.2,0.1-1.7,0.3
			c-0.5,0.2-1,0.6-1.4,1c-0.4,0.4-0.7,0.9-1,1.5c-0.3,0.6-0.4,1.2-0.5,1.8h8.7v-0.2c0-0.6-0.1-1.1-0.3-1.7c-0.2-0.5-0.5-1-0.8-1.4
			c-0.4-0.4-0.8-0.7-1.3-1S331.1,343.2,330.5,343.2z"/>
		<path class="st7" d="M340.2,336.4h6.4v18.2h4.6v1.3h-11v-1.3h4.9v-16.8h-4.9V336.4z"/>
		<path class="st7" d="M354,348.8c0-0.9,0.2-1.8,0.4-2.7s0.7-1.6,1.2-2.2c0.5-0.6,1.2-1.1,1.9-1.5c0.8-0.4,1.6-0.6,2.6-0.6
			c1,0,1.8,0.2,2.6,0.6c0.8,0.4,1.4,0.9,1.9,1.5c0.5,0.6,0.9,1.4,1.2,2.2s0.4,1.7,0.4,2.7v0.4c0,0.9-0.2,1.8-0.4,2.7
			c-0.3,0.8-0.7,1.6-1.2,2.2c-0.5,0.6-1.2,1.1-1.9,1.5c-0.8,0.4-1.6,0.6-2.6,0.6s-1.8-0.2-2.6-0.6c-0.8-0.4-1.4-0.9-1.9-1.5
			c-0.5-0.6-0.9-1.4-1.2-2.2s-0.4-1.7-0.4-2.7V348.8z M355.5,349.2c0,0.7,0.1,1.4,0.3,2.1s0.5,1.3,0.9,1.8c0.4,0.5,0.9,0.9,1.4,1.2
			s1.2,0.5,2,0.5c0.7,0,1.4-0.2,2-0.5s1-0.7,1.4-1.2c0.4-0.5,0.7-1.1,0.9-1.8s0.3-1.4,0.3-2.1v-0.4c0-0.7-0.1-1.4-0.3-2.1
			s-0.5-1.3-0.9-1.8c-0.4-0.5-0.9-0.9-1.4-1.3c-0.6-0.3-1.2-0.5-2-0.5c-0.7,0-1.4,0.2-2,0.5c-0.6,0.3-1,0.7-1.4,1.3
			c-0.4,0.5-0.7,1.1-0.9,1.8s-0.3,1.4-0.3,2.1V349.2z"/>
		<path class="st7" d="M380.9,349.2c0,0.9-0.1,1.8-0.3,2.6c-0.2,0.8-0.5,1.6-1,2.2c-0.4,0.6-1,1.2-1.7,1.6c-0.7,0.4-1.5,0.6-2.4,0.6
			c-0.9,0-1.6-0.2-2.3-0.5s-1.3-0.8-1.8-1.4v7h-1.5v-19h1.4l0.1,1.9c0.5-0.7,1.1-1.2,1.8-1.6c0.7-0.4,1.5-0.6,2.4-0.6
			c0.9,0,1.8,0.2,2.4,0.6c0.7,0.4,1.2,0.9,1.7,1.5c0.4,0.6,0.8,1.4,1,2.2c0.2,0.8,0.3,1.7,0.3,2.6V349.2z M379.3,348.9
			c0-0.7-0.1-1.4-0.2-2s-0.4-1.3-0.7-1.8c-0.3-0.5-0.8-1-1.3-1.3c-0.5-0.3-1.2-0.5-2-0.5c-0.4,0-0.9,0.1-1.2,0.2
			c-0.4,0.1-0.7,0.3-1.1,0.5c-0.3,0.2-0.6,0.5-0.9,0.8c-0.2,0.3-0.5,0.7-0.6,1v6.8c0.4,0.7,0.9,1.3,1.5,1.7s1.4,0.6,2.3,0.6
			c0.8,0,1.4-0.2,2-0.5c0.5-0.3,1-0.8,1.3-1.3c0.3-0.5,0.6-1.1,0.7-1.8c0.2-0.7,0.2-1.4,0.2-2.1V348.9z"/>
		<path class="st7" d="M390.6,356.1c-1,0-1.8-0.2-2.6-0.5s-1.5-0.8-2-1.4c-0.6-0.6-1-1.3-1.3-2.1c-0.3-0.8-0.5-1.7-0.5-2.6v-0.5
			c0-1,0.2-1.9,0.5-2.7s0.8-1.6,1.3-2.2c0.5-0.6,1.2-1.1,1.9-1.5c0.7-0.4,1.5-0.5,2.4-0.5c0.9,0,1.7,0.2,2.4,0.5
			c0.7,0.3,1.3,0.8,1.8,1.4c0.5,0.6,0.8,1.2,1.1,2c0.2,0.8,0.4,1.6,0.4,2.5v0.9h-10.3v0.3c0,0.7,0.1,1.4,0.4,2.1
			c0.2,0.7,0.6,1.2,1,1.7s1,0.9,1.6,1.2c0.6,0.3,1.3,0.5,2,0.5c0.8,0,1.6-0.1,2.3-0.5s1.3-0.8,1.8-1.4l1,0.7c-0.3,0.4-0.6,0.7-0.9,1
			c-0.3,0.3-0.7,0.6-1.2,0.8c-0.4,0.2-0.9,0.4-1.4,0.5S391.1,356.1,390.6,356.1z M390.3,343.2c-0.6,0-1.2,0.1-1.7,0.3
			c-0.5,0.2-1,0.6-1.4,1c-0.4,0.4-0.7,0.9-1,1.5c-0.3,0.6-0.4,1.2-0.5,1.8h8.7v-0.2c0-0.6-0.1-1.1-0.3-1.7c-0.2-0.5-0.5-1-0.8-1.4
			c-0.4-0.4-0.8-0.7-1.3-1S390.9,343.2,390.3,343.2z"/>
		<path class="st7" d="M408.8,341.9c0.4,0,0.8,0,1.1,0.1c0.4,0,0.7,0.1,1,0.2l-0.2,1.5c-0.4-0.1-0.7-0.1-1.1-0.2s-0.7-0.1-1.1-0.1
			c-1.3,0-2.4,0.3-3.3,0.9c-0.9,0.6-1.5,1.5-1.9,2.8l0,8.8h-1.6v-13.7h1.5l0.1,2.4v0.3c0.6-0.9,1.3-1.6,2.2-2.1
			C406.5,342.2,407.5,341.9,408.8,341.9z"/>
		<path class="st7" d="M418.7,355c0-0.3,0.1-0.5,0.3-0.8c0.2-0.2,0.5-0.3,0.8-0.3c0.3,0,0.6,0.1,0.8,0.3c0.2,0.2,0.3,0.5,0.3,0.8
			c0,0.3-0.1,0.5-0.3,0.7s-0.5,0.3-0.8,0.3s-0.6-0.1-0.8-0.3C418.8,355.5,418.7,355.3,418.7,355z M420.5,350.4h-1.5v-13h1.5V350.4z"
			/>
		<path class="st7" d="M181.6,434.2H177v7.7h-1.5v-18.5h5.2c0.8,0,1.6,0.1,2.3,0.4c0.7,0.2,1.3,0.6,1.9,1.1c0.5,0.5,1,1,1.3,1.7
			c0.3,0.7,0.5,1.4,0.5,2.3c0,0.6-0.1,1.2-0.3,1.7c-0.2,0.5-0.4,1-0.8,1.4c-0.3,0.4-0.7,0.8-1.1,1.1s-0.9,0.6-1.5,0.8l4.2,7.9v0.2
			h-1.6L181.6,434.2z M177,432.9h4c0.6,0,1.1-0.1,1.6-0.3c0.5-0.2,0.9-0.5,1.3-0.8c0.4-0.4,0.7-0.8,0.9-1.3c0.2-0.5,0.3-1,0.3-1.6
			c0-0.7-0.1-1.2-0.3-1.7s-0.5-0.9-0.9-1.3c-0.4-0.4-0.9-0.6-1.4-0.8c-0.5-0.2-1.1-0.3-1.7-0.3H177V432.9z"/>
		<path class="st7" d="M196.2,442.1c-1,0-1.8-0.2-2.6-0.5s-1.5-0.8-2-1.4c-0.6-0.6-1-1.3-1.3-2.1c-0.3-0.8-0.5-1.7-0.5-2.6v-0.5
			c0-1,0.2-1.9,0.5-2.7s0.8-1.6,1.3-2.2c0.5-0.6,1.2-1.1,1.9-1.5c0.7-0.4,1.5-0.5,2.4-0.5c0.9,0,1.7,0.2,2.4,0.5
			c0.7,0.3,1.3,0.8,1.8,1.4c0.5,0.6,0.8,1.2,1.1,2c0.2,0.8,0.4,1.6,0.4,2.5v0.9h-10.3v0.3c0,0.7,0.1,1.4,0.4,2.1
			c0.2,0.7,0.6,1.2,1,1.7s1,0.9,1.6,1.2c0.6,0.3,1.3,0.5,2,0.5c0.8,0,1.6-0.1,2.3-0.5s1.3-0.8,1.8-1.4l1,0.7c-0.3,0.4-0.6,0.7-0.9,1
			c-0.3,0.3-0.7,0.6-1.2,0.8c-0.4,0.2-0.9,0.4-1.4,0.5S196.8,442.1,196.2,442.1z M195.9,429.2c-0.6,0-1.2,0.1-1.7,0.3
			c-0.5,0.2-1,0.6-1.4,1c-0.4,0.4-0.7,0.9-1,1.5c-0.3,0.6-0.4,1.2-0.5,1.8h8.7v-0.2c0-0.6-0.1-1.1-0.3-1.7c-0.2-0.5-0.5-1-0.8-1.4
			c-0.4-0.4-0.8-0.7-1.3-1S196.6,429.2,195.9,429.2z"/>
		<path class="st7" d="M214.7,441.9c-0.1-0.3-0.2-0.6-0.2-0.9c-0.1-0.3-0.1-0.7-0.1-1c-0.3,0.3-0.6,0.6-0.9,0.9
			c-0.3,0.3-0.7,0.5-1.1,0.7c-0.4,0.2-0.9,0.4-1.3,0.5c-0.5,0.1-1,0.2-1.5,0.2c-0.6,0-1.2-0.1-1.8-0.3c-0.6-0.2-1-0.4-1.4-0.8
			c-0.4-0.3-0.7-0.7-1-1.2c-0.2-0.5-0.3-1-0.3-1.6c0-0.8,0.2-1.5,0.5-2c0.3-0.5,0.8-1,1.4-1.3c0.6-0.3,1.3-0.6,2.1-0.8
			c0.8-0.2,1.6-0.2,2.5-0.2h3v-1.6c0-0.5-0.1-1-0.3-1.4c-0.2-0.4-0.5-0.7-0.8-1c-0.3-0.3-0.7-0.5-1.2-0.6c-0.5-0.1-1-0.2-1.5-0.2
			c-0.5,0-1,0.1-1.4,0.2s-0.8,0.3-1.2,0.5s-0.6,0.5-0.8,0.9c-0.2,0.3-0.3,0.7-0.3,1.2l-1.5,0c0-0.6,0.2-1.1,0.5-1.6
			c0.3-0.5,0.7-0.9,1.1-1.3c0.5-0.4,1-0.6,1.7-0.8c0.6-0.2,1.3-0.3,2-0.3c0.7,0,1.4,0.1,2.1,0.3c0.6,0.2,1.2,0.5,1.7,0.8
			s0.8,0.8,1.1,1.4c0.3,0.6,0.4,1.2,0.4,2v6.7c0,0.5,0,0.9,0.1,1.4c0.1,0.5,0.2,0.9,0.3,1.3l0,0.2H214.7z M209.7,440.8
			c0.5,0,1-0.1,1.5-0.2c0.5-0.1,0.9-0.3,1.3-0.6c0.4-0.2,0.8-0.5,1.1-0.9c0.3-0.3,0.6-0.7,0.7-1.1v-3h-2.8c-0.7,0-1.3,0.1-1.9,0.2
			c-0.6,0.1-1.2,0.3-1.6,0.5c-0.5,0.2-0.9,0.5-1.1,0.9c-0.3,0.4-0.4,0.9-0.4,1.5c0,0.4,0.1,0.8,0.3,1.1c0.2,0.3,0.4,0.6,0.7,0.8
			c0.3,0.2,0.6,0.4,1,0.5C208.8,440.7,209.3,440.8,209.7,440.8z"/>
		<path class="st7" d="M220.6,422.4h6.4v18.2h4.6v1.3h-11v-1.3h4.9v-16.8h-4.9V422.4z"/>
		<path class="st7" d="M258.6,434.6c0,1-0.1,2-0.3,2.9c-0.2,0.9-0.6,1.7-1.1,2.4c-0.5,0.7-1.1,1.2-1.8,1.6c-0.7,0.4-1.6,0.6-2.6,0.6
			c-1,0-1.9-0.2-2.6-0.6c-0.7-0.4-1.3-0.9-1.8-1.6c-0.5-0.7-0.8-1.5-1.1-2.4c-0.2-0.9-0.4-1.9-0.4-2.9v-3.8c0-1,0.1-2,0.4-2.9
			c0.2-0.9,0.6-1.7,1.1-2.4c0.5-0.7,1.1-1.2,1.8-1.6c0.7-0.4,1.6-0.6,2.6-0.6c1,0,1.9,0.2,2.6,0.6c0.7,0.4,1.3,0.9,1.8,1.6
			c0.5,0.7,0.8,1.5,1.1,2.4c0.2,0.9,0.3,1.9,0.3,2.9V434.6z M248.5,434.8c0,0.3,0,0.7,0,1l8.3-7.6c-0.1-0.5-0.3-1-0.5-1.5
			c-0.2-0.5-0.5-0.9-0.8-1.2c-0.3-0.3-0.7-0.6-1.2-0.8s-1-0.3-1.6-0.3c-0.8,0-1.5,0.2-2,0.5s-1,0.8-1.3,1.3
			c-0.3,0.6-0.6,1.2-0.7,1.9s-0.2,1.5-0.2,2.3V434.8z M257,430.5c0-0.3,0-0.6,0-0.8l-8.3,7.5c0.1,0.5,0.3,1,0.5,1.5
			c0.2,0.4,0.5,0.8,0.8,1.2c0.3,0.3,0.7,0.6,1.2,0.8c0.4,0.2,1,0.3,1.5,0.3c0.8,0,1.5-0.2,2-0.5c0.5-0.3,1-0.8,1.3-1.3
			c0.3-0.6,0.6-1.2,0.7-1.9s0.2-1.5,0.2-2.3V430.5z"/>
		<path class="st7" d="M262.4,428.2l0,1.5c0.3-0.5,0.7-1,1.1-1.3c0.5-0.3,1.1-0.5,1.8-0.5c0.4,0,0.7,0,1,0.1
			c0.3,0.1,0.6,0.2,0.8,0.4c0.2,0.2,0.4,0.4,0.6,0.6c0.2,0.2,0.3,0.5,0.4,0.7c0.3-0.5,0.7-0.9,1.2-1.3c0.5-0.3,1.1-0.5,1.9-0.5
			c0.6,0,1.1,0.1,1.5,0.3c0.4,0.2,0.7,0.5,1,0.8c0.2,0.3,0.4,0.7,0.5,1.2c0.1,0.5,0.2,0.9,0.2,1.4l0,10.2h-1.4l0-10.2
			c0-0.3,0-0.6-0.1-0.9c-0.1-0.3-0.2-0.6-0.3-0.8c-0.1-0.2-0.4-0.4-0.6-0.6s-0.6-0.2-1-0.2c-0.4,0-0.8,0.1-1.1,0.2s-0.5,0.3-0.7,0.5
			s-0.3,0.4-0.4,0.7c-0.1,0.2-0.2,0.5-0.2,0.8l0,10.5H267l0-10.3c0-0.3,0-0.6-0.1-0.9c-0.1-0.3-0.2-0.5-0.3-0.7
			c-0.1-0.2-0.4-0.4-0.6-0.5c-0.3-0.1-0.6-0.2-1-0.2s-0.8,0.1-1,0.2c-0.3,0.1-0.5,0.3-0.7,0.5c-0.2,0.2-0.3,0.4-0.5,0.7
			c-0.1,0.3-0.2,0.5-0.3,0.8l0,10.5H261v-13.7H262.4z"/>
		<path class="st7" d="M288.5,434.6c0,1-0.1,2-0.3,2.9c-0.2,0.9-0.6,1.7-1.1,2.4c-0.5,0.7-1.1,1.2-1.8,1.6c-0.7,0.4-1.6,0.6-2.6,0.6
			c-1,0-1.9-0.2-2.6-0.6c-0.7-0.4-1.3-0.9-1.8-1.6c-0.5-0.7-0.8-1.5-1.1-2.4c-0.2-0.9-0.4-1.9-0.4-2.9v-3.8c0-1,0.1-2,0.4-2.9
			c0.2-0.9,0.6-1.7,1.1-2.4c0.5-0.7,1.1-1.2,1.8-1.6c0.7-0.4,1.6-0.6,2.6-0.6c1,0,1.9,0.2,2.6,0.6c0.7,0.4,1.3,0.9,1.8,1.6
			c0.5,0.7,0.8,1.5,1.1,2.4c0.2,0.9,0.3,1.9,0.3,2.9V434.6z M278.4,434.8c0,0.3,0,0.7,0,1l8.3-7.6c-0.1-0.5-0.3-1-0.5-1.5
			c-0.2-0.5-0.5-0.9-0.8-1.2c-0.3-0.3-0.7-0.6-1.2-0.8s-1-0.3-1.6-0.3c-0.8,0-1.5,0.2-2,0.5s-1,0.8-1.3,1.3
			c-0.3,0.6-0.6,1.2-0.7,1.9s-0.2,1.5-0.2,2.3V434.8z M287,430.5c0-0.3,0-0.6,0-0.8l-8.3,7.5c0.1,0.5,0.3,1,0.5,1.5
			c0.2,0.4,0.5,0.8,0.8,1.2c0.3,0.3,0.7,0.6,1.2,0.8c0.4,0.2,1,0.3,1.5,0.3c0.8,0,1.5-0.2,2-0.5c0.5-0.3,1-0.8,1.3-1.3
			c0.3-0.6,0.6-1.2,0.7-1.9s0.2-1.5,0.2-2.3V430.5z"/>
		<path class="st7" d="M296.7,440.8c0-0.4,0.1-0.7,0.3-0.9c0.2-0.2,0.5-0.4,0.9-0.4c0.4,0,0.7,0.1,1,0.4c0.2,0.2,0.3,0.6,0.3,0.9
			s-0.1,0.6-0.3,0.9c-0.2,0.2-0.6,0.3-1,0.3c-0.4,0-0.7-0.1-0.9-0.3C296.8,441.5,296.7,441.2,296.7,440.8z"/>
		<path class="st7" d="M318.4,434.6c0,1-0.1,2-0.3,2.9c-0.2,0.9-0.6,1.7-1.1,2.4c-0.5,0.7-1.1,1.2-1.8,1.6c-0.7,0.4-1.6,0.6-2.6,0.6
			c-1,0-1.9-0.2-2.6-0.6c-0.7-0.4-1.3-0.9-1.8-1.6c-0.5-0.7-0.8-1.5-1.1-2.4c-0.2-0.9-0.4-1.9-0.4-2.9v-3.8c0-1,0.1-2,0.4-2.9
			c0.2-0.9,0.6-1.7,1.1-2.4c0.5-0.7,1.1-1.2,1.8-1.6c0.7-0.4,1.6-0.6,2.6-0.6c1,0,1.9,0.2,2.6,0.6c0.7,0.4,1.3,0.9,1.8,1.6
			c0.5,0.7,0.8,1.5,1.1,2.4c0.2,0.9,0.3,1.9,0.3,2.9V434.6z M308.3,434.8c0,0.3,0,0.7,0,1l8.3-7.6c-0.1-0.5-0.3-1-0.5-1.5
			c-0.2-0.5-0.5-0.9-0.8-1.2c-0.3-0.3-0.7-0.6-1.2-0.8s-1-0.3-1.6-0.3c-0.8,0-1.5,0.2-2,0.5s-1,0.8-1.3,1.3
			c-0.3,0.6-0.6,1.2-0.7,1.9s-0.2,1.5-0.2,2.3V434.8z M316.9,430.5c0-0.3,0-0.6,0-0.8l-8.3,7.5c0.1,0.5,0.3,1,0.5,1.5
			c0.2,0.4,0.5,0.8,0.8,1.2c0.3,0.3,0.7,0.6,1.2,0.8c0.4,0.2,1,0.3,1.5,0.3c0.8,0,1.5-0.2,2-0.5c0.5-0.3,1-0.8,1.3-1.3
			c0.3-0.6,0.6-1.2,0.7-1.9s0.2-1.5,0.2-2.3V430.5z"/>
		<path class="st7" d="M329.1,441.9h-1.5v-16.6l-5.1,2.2v-1.4l6.4-2.7h0.2V441.9z"/>
		<path class="st7" d="M347.9,441.9h-11.6v-1.2l6.1-6.9c0.4-0.5,0.9-1,1.2-1.5c0.4-0.5,0.7-0.9,1-1.4c0.3-0.5,0.5-0.9,0.6-1.4
			s0.2-0.9,0.2-1.4c0-0.6-0.1-1.1-0.3-1.5c-0.2-0.5-0.5-0.9-0.8-1.2c-0.3-0.3-0.8-0.6-1.2-0.8c-0.5-0.2-1-0.3-1.6-0.3
			c-0.7,0-1.2,0.1-1.7,0.3s-0.9,0.5-1.3,0.9c-0.4,0.4-0.6,0.8-0.8,1.4c-0.2,0.5-0.3,1.1-0.3,1.7h-1.5c0-0.8,0.1-1.5,0.4-2.2
			c0.3-0.7,0.7-1.3,1.1-1.8c0.5-0.5,1.1-0.9,1.8-1.2c0.7-0.3,1.5-0.4,2.3-0.4c0.8,0,1.6,0.1,2.2,0.4c0.7,0.2,1.2,0.6,1.7,1
			c0.5,0.4,0.8,1,1.1,1.6c0.3,0.6,0.4,1.3,0.4,2.1c0,0.6-0.1,1.2-0.3,1.8s-0.5,1.1-0.8,1.7s-0.7,1.1-1.2,1.6c-0.4,0.5-0.9,1-1.3,1.5
			l-5.2,5.8h9.7V441.9z"/>
		<path class="st7" d="M361.6,438.4c0-0.4-0.1-0.8-0.3-1.1c-0.2-0.3-0.5-0.6-0.9-0.8c-0.4-0.2-0.8-0.4-1.3-0.6s-1-0.3-1.5-0.4
			c-0.7-0.1-1.3-0.3-1.9-0.5c-0.6-0.2-1.2-0.4-1.7-0.7s-0.9-0.7-1.2-1.1c-0.3-0.4-0.4-1-0.4-1.6c0-0.6,0.1-1.1,0.4-1.6
			c0.3-0.5,0.7-0.9,1.2-1.2s1-0.6,1.7-0.7c0.6-0.2,1.3-0.2,1.9-0.2c0.7,0,1.4,0.1,2.1,0.3c0.6,0.2,1.2,0.4,1.7,0.8
			c0.5,0.4,0.9,0.8,1.2,1.3c0.3,0.5,0.4,1.1,0.5,1.7h-1.5c0-0.4-0.1-0.8-0.4-1.2c-0.2-0.4-0.5-0.6-0.9-0.9c-0.4-0.2-0.8-0.4-1.2-0.5
			c-0.5-0.1-0.9-0.2-1.4-0.2c-0.5,0-0.9,0-1.3,0.1c-0.4,0.1-0.8,0.2-1.2,0.4c-0.3,0.2-0.6,0.4-0.8,0.8c-0.2,0.3-0.3,0.7-0.3,1.1
			c0,0.4,0.1,0.8,0.3,1.1c0.2,0.3,0.5,0.5,0.8,0.7c0.4,0.2,0.8,0.4,1.3,0.5c0.5,0.1,1,0.3,1.5,0.4c0.7,0.1,1.4,0.3,2,0.5
			c0.6,0.2,1.2,0.5,1.7,0.8c0.5,0.3,0.9,0.7,1.1,1.1s0.4,1,0.4,1.6c0,0.6-0.2,1.2-0.5,1.7c-0.3,0.5-0.7,0.9-1.2,1.2
			c-0.5,0.3-1.1,0.6-1.7,0.7c-0.6,0.2-1.3,0.2-2,0.2c-0.8,0-1.5-0.1-2.2-0.3c-0.7-0.2-1.3-0.5-1.8-0.8c-0.5-0.4-0.9-0.8-1.3-1.3
			c-0.3-0.5-0.5-1.1-0.5-1.7h1.5c0.1,0.5,0.2,1,0.5,1.4c0.3,0.4,0.6,0.7,1,0.9c0.4,0.2,0.8,0.4,1.3,0.5c0.5,0.1,0.9,0.1,1.4,0.1
			c0.5,0,0.9,0,1.4-0.1c0.5-0.1,0.9-0.2,1.2-0.4c0.4-0.2,0.7-0.5,0.9-0.8C361.5,439.2,361.6,438.8,361.6,438.4z"/>
		<path class="st7" d="M182.2,479.7h-4l-1,5.2H176l1-5.2h-3.2v-1.2h3.5l1.1-5.6h-3.5v-1.2h3.8l1-5.3h1.3l-1,5.3h4l1-5.3h1.3l-1,5.3
			h2.9v1.2h-3.1l-1.1,5.6h3.2v1.2h-3.5l-1,5.2h-1.3L182.2,479.7z M178.4,478.5h4l1.1-5.6h-4L178.4,478.5z"/>
		<path class="st7" d="M204.6,466.4h10.7v1.4h-4.6v15.8h4.6v1.3h-10.7v-1.3h4.5v-15.8h-4.5V466.4z"/>
		<path class="st7" d="M221,471.2l0.1,2.6c0.5-0.9,1.1-1.5,1.9-2c0.8-0.5,1.7-0.8,2.7-0.8c1.5,0,2.7,0.5,3.5,1.4
			c0.8,0.9,1.2,2.2,1.2,3.8v8.8h-1.5v-8.8c0-1.3-0.3-2.2-0.9-2.9c-0.6-0.7-1.4-1-2.6-1c-0.5,0-1,0.1-1.4,0.2s-0.9,0.4-1.2,0.7
			s-0.7,0.6-1,1c-0.3,0.4-0.5,0.8-0.7,1.2v9.5h-1.5v-13.7H221z"/>
		<path class="st7" d="M244.1,481.4c0-0.4-0.1-0.8-0.3-1.1c-0.2-0.3-0.5-0.6-0.9-0.8c-0.4-0.2-0.8-0.4-1.3-0.6s-1-0.3-1.5-0.4
			c-0.7-0.1-1.3-0.3-1.9-0.5c-0.6-0.2-1.2-0.4-1.7-0.7s-0.9-0.7-1.2-1.1c-0.3-0.4-0.4-1-0.4-1.6c0-0.6,0.1-1.1,0.4-1.6
			c0.3-0.5,0.7-0.9,1.2-1.2s1-0.6,1.7-0.7c0.6-0.2,1.3-0.2,1.9-0.2c0.7,0,1.4,0.1,2.1,0.3c0.6,0.2,1.2,0.4,1.7,0.8
			c0.5,0.4,0.9,0.8,1.2,1.3c0.3,0.5,0.4,1.1,0.5,1.7H244c0-0.4-0.1-0.8-0.4-1.2c-0.2-0.4-0.5-0.6-0.9-0.9c-0.4-0.2-0.8-0.4-1.2-0.5
			c-0.5-0.1-0.9-0.2-1.4-0.2c-0.5,0-0.9,0-1.3,0.1c-0.4,0.1-0.8,0.2-1.2,0.4c-0.3,0.2-0.6,0.4-0.8,0.8c-0.2,0.3-0.3,0.7-0.3,1.1
			c0,0.4,0.1,0.8,0.3,1.1c0.2,0.3,0.5,0.5,0.8,0.7c0.4,0.2,0.8,0.4,1.3,0.5c0.5,0.1,1,0.3,1.5,0.4c0.7,0.1,1.4,0.3,2,0.5
			c0.6,0.2,1.2,0.5,1.7,0.8c0.5,0.3,0.9,0.7,1.1,1.1s0.4,1,0.4,1.6c0,0.6-0.2,1.2-0.5,1.7c-0.3,0.5-0.7,0.9-1.2,1.2
			c-0.5,0.3-1.1,0.6-1.7,0.7c-0.6,0.2-1.3,0.2-2,0.2c-0.8,0-1.5-0.1-2.2-0.3c-0.7-0.2-1.3-0.5-1.8-0.8c-0.5-0.4-0.9-0.8-1.3-1.3
			c-0.3-0.5-0.5-1.1-0.5-1.7h1.5c0.1,0.5,0.2,1,0.5,1.4c0.3,0.4,0.6,0.7,1,0.9c0.4,0.2,0.8,0.4,1.3,0.5c0.5,0.1,0.9,0.1,1.4,0.1
			c0.5,0,0.9,0,1.4-0.1c0.5-0.1,0.9-0.2,1.2-0.4c0.4-0.2,0.7-0.5,0.9-0.8C244,482.2,244.1,481.8,244.1,481.4z"/>
		<path class="st7" d="M254.6,467.6v3.5h5.1v1.2h-5.1v8.6c0,0.5,0.1,1,0.2,1.3c0.2,0.4,0.4,0.6,0.6,0.8c0.3,0.2,0.6,0.4,0.9,0.5
			c0.4,0.1,0.8,0.1,1.2,0.1c0.4,0,0.9,0,1.3-0.1s0.8-0.1,1.1-0.2l0.2,1.2c-0.4,0.1-0.8,0.3-1.3,0.3c-0.5,0.1-1.1,0.1-1.6,0.1
			c-0.6,0-1.2-0.1-1.7-0.2c-0.5-0.1-1-0.4-1.3-0.7c-0.4-0.3-0.7-0.7-0.9-1.3c-0.2-0.5-0.3-1.2-0.3-1.9v-8.6h-3.8v-1.2h3.8v-3.5
			H254.6z"/>
		<path class="st7" d="M273.9,484.9c-0.1-0.3-0.2-0.6-0.2-0.9c-0.1-0.3-0.1-0.7-0.1-1c-0.3,0.3-0.6,0.6-0.9,0.9
			c-0.3,0.3-0.7,0.5-1.1,0.7c-0.4,0.2-0.9,0.4-1.3,0.5c-0.5,0.1-1,0.2-1.5,0.2c-0.6,0-1.2-0.1-1.8-0.3c-0.6-0.2-1-0.4-1.4-0.8
			c-0.4-0.3-0.7-0.7-1-1.2c-0.2-0.5-0.3-1-0.3-1.6c0-0.8,0.2-1.5,0.5-2c0.3-0.5,0.8-1,1.4-1.3c0.6-0.3,1.3-0.6,2.1-0.8
			c0.8-0.2,1.6-0.2,2.5-0.2h3v-1.6c0-0.5-0.1-1-0.3-1.4c-0.2-0.4-0.5-0.7-0.8-1c-0.3-0.3-0.7-0.5-1.2-0.6c-0.5-0.1-1-0.2-1.5-0.2
			c-0.5,0-1,0.1-1.4,0.2s-0.8,0.3-1.2,0.5s-0.6,0.5-0.8,0.9c-0.2,0.3-0.3,0.7-0.3,1.2l-1.5,0c0-0.6,0.2-1.1,0.5-1.6
			c0.3-0.5,0.7-0.9,1.1-1.3c0.5-0.4,1-0.6,1.7-0.8c0.6-0.2,1.3-0.3,2-0.3c0.7,0,1.4,0.1,2.1,0.3c0.6,0.2,1.2,0.5,1.7,0.8
			s0.8,0.8,1.1,1.4c0.3,0.6,0.4,1.2,0.4,2v6.7c0,0.5,0,0.9,0.1,1.4c0.1,0.5,0.2,0.9,0.3,1.3l0,0.2H273.9z M268.9,483.8
			c0.5,0,1-0.1,1.5-0.2c0.5-0.1,0.9-0.3,1.3-0.6c0.4-0.2,0.8-0.5,1.1-0.9c0.3-0.3,0.6-0.7,0.7-1.1v-3h-2.8c-0.7,0-1.3,0.1-1.9,0.2
			c-0.6,0.1-1.2,0.3-1.6,0.5c-0.5,0.2-0.9,0.5-1.1,0.9c-0.3,0.4-0.4,0.9-0.4,1.5c0,0.4,0.1,0.8,0.3,1.1c0.2,0.3,0.4,0.6,0.7,0.8
			c0.3,0.2,0.6,0.4,1,0.5C268,483.7,268.4,483.8,268.9,483.8z"/>
		<path class="st7" d="M280.8,471.2l0.1,2.6c0.5-0.9,1.1-1.5,1.9-2c0.8-0.5,1.7-0.8,2.7-0.8c1.5,0,2.7,0.5,3.5,1.4
			c0.8,0.9,1.2,2.2,1.2,3.8v8.8h-1.5v-8.8c0-1.3-0.3-2.2-0.9-2.9c-0.6-0.7-1.4-1-2.6-1c-0.5,0-1,0.1-1.4,0.2s-0.9,0.4-1.2,0.7
			s-0.7,0.6-1,1c-0.3,0.4-0.5,0.8-0.7,1.2v9.5h-1.5v-13.7H280.8z"/>
		<path class="st7" d="M299.4,467.6v3.5h5.1v1.2h-5.1v8.6c0,0.5,0.1,1,0.2,1.3c0.2,0.4,0.4,0.6,0.6,0.8c0.3,0.2,0.6,0.4,0.9,0.5
			c0.4,0.1,0.8,0.1,1.2,0.1c0.4,0,0.9,0,1.3-0.1s0.8-0.1,1.1-0.2l0.2,1.2c-0.4,0.1-0.8,0.3-1.3,0.3c-0.5,0.1-1.1,0.1-1.6,0.1
			c-0.6,0-1.2-0.1-1.7-0.2c-0.5-0.1-1-0.4-1.3-0.7c-0.4-0.3-0.7-0.7-0.9-1.3c-0.2-0.5-0.3-1.2-0.3-1.9v-8.6H294v-1.2h3.8v-3.5H299.4
			z"/>
		<path class="st7" d="M333.2,481.4c0-0.4-0.1-0.8-0.3-1.1c-0.2-0.3-0.5-0.6-0.9-0.8c-0.4-0.2-0.8-0.4-1.3-0.6s-1-0.3-1.5-0.4
			c-0.7-0.1-1.3-0.3-1.9-0.5c-0.6-0.2-1.2-0.4-1.7-0.7s-0.9-0.7-1.2-1.1c-0.3-0.4-0.4-1-0.4-1.6c0-0.6,0.1-1.1,0.4-1.6
			c0.3-0.5,0.7-0.9,1.2-1.2s1-0.6,1.7-0.7c0.6-0.2,1.3-0.2,1.9-0.2c0.7,0,1.4,0.1,2.1,0.3c0.6,0.2,1.2,0.4,1.7,0.8
			c0.5,0.4,0.9,0.8,1.2,1.3c0.3,0.5,0.4,1.1,0.5,1.7h-1.5c0-0.4-0.1-0.8-0.4-1.2c-0.2-0.4-0.5-0.6-0.9-0.9c-0.4-0.2-0.8-0.4-1.2-0.5
			c-0.5-0.1-0.9-0.2-1.4-0.2c-0.5,0-0.9,0-1.3,0.1c-0.4,0.1-0.8,0.2-1.2,0.4c-0.3,0.2-0.6,0.4-0.8,0.8c-0.2,0.3-0.3,0.7-0.3,1.1
			c0,0.4,0.1,0.8,0.3,1.1c0.2,0.3,0.5,0.5,0.8,0.7c0.4,0.2,0.8,0.4,1.3,0.5c0.5,0.1,1,0.3,1.5,0.4c0.7,0.1,1.4,0.3,2,0.5
			c0.6,0.2,1.2,0.5,1.7,0.8c0.5,0.3,0.9,0.7,1.1,1.1s0.4,1,0.4,1.6c0,0.6-0.2,1.2-0.5,1.7c-0.3,0.5-0.7,0.9-1.2,1.2
			c-0.5,0.3-1.1,0.6-1.7,0.7c-0.6,0.2-1.3,0.2-2,0.2c-0.8,0-1.5-0.1-2.2-0.3c-0.7-0.2-1.3-0.5-1.8-0.8c-0.5-0.4-0.9-0.8-1.3-1.3
			c-0.3-0.5-0.5-1.1-0.5-1.7h1.5c0.1,0.5,0.2,1,0.5,1.4c0.3,0.4,0.6,0.7,1,0.9c0.4,0.2,0.8,0.4,1.3,0.5c0.5,0.1,0.9,0.1,1.4,0.1
			c0.5,0,0.9,0,1.4-0.1c0.5-0.1,0.9-0.2,1.2-0.4c0.4-0.2,0.7-0.5,0.9-0.8C333.1,482.2,333.2,481.8,333.2,481.4z"/>
		<path class="st7" d="M343.6,467.6v3.5h5.1v1.2h-5.1v8.6c0,0.5,0.1,1,0.2,1.3c0.2,0.4,0.4,0.6,0.6,0.8c0.3,0.2,0.6,0.4,0.9,0.5
			c0.4,0.1,0.8,0.1,1.2,0.1c0.4,0,0.9,0,1.3-0.1s0.8-0.1,1.1-0.2l0.2,1.2c-0.4,0.1-0.8,0.3-1.3,0.3c-0.5,0.1-1.1,0.1-1.6,0.1
			c-0.6,0-1.2-0.1-1.7-0.2c-0.5-0.1-1-0.4-1.3-0.7c-0.4-0.3-0.7-0.7-0.9-1.3c-0.2-0.5-0.3-1.2-0.3-1.9v-8.6h-3.8v-1.2h3.8v-3.5
			H343.6z"/>
		<path class="st7" d="M363,484.9c-0.1-0.3-0.2-0.6-0.2-0.9c-0.1-0.3-0.1-0.7-0.1-1c-0.3,0.3-0.6,0.6-0.9,0.9
			c-0.3,0.3-0.7,0.5-1.1,0.7c-0.4,0.2-0.9,0.4-1.3,0.5c-0.5,0.1-1,0.2-1.5,0.2c-0.6,0-1.2-0.1-1.8-0.3c-0.6-0.2-1-0.4-1.4-0.8
			c-0.4-0.3-0.7-0.7-1-1.2c-0.2-0.5-0.3-1-0.3-1.6c0-0.8,0.2-1.5,0.5-2c0.3-0.5,0.8-1,1.4-1.3c0.6-0.3,1.3-0.6,2.1-0.8
			c0.8-0.2,1.6-0.2,2.5-0.2h3v-1.6c0-0.5-0.1-1-0.3-1.4c-0.2-0.4-0.5-0.7-0.8-1c-0.3-0.3-0.7-0.5-1.2-0.6c-0.5-0.1-1-0.2-1.5-0.2
			c-0.5,0-1,0.1-1.4,0.2s-0.8,0.3-1.2,0.5s-0.6,0.5-0.8,0.9c-0.2,0.3-0.3,0.7-0.3,1.2l-1.5,0c0-0.6,0.2-1.1,0.5-1.6
			c0.3-0.5,0.7-0.9,1.1-1.3c0.5-0.4,1-0.6,1.7-0.8c0.6-0.2,1.3-0.3,2.1-0.3c0.7,0,1.4,0.1,2,0.3c0.6,0.2,1.2,0.5,1.7,0.8
			s0.8,0.8,1.1,1.4c0.3,0.6,0.4,1.2,0.4,2v6.7c0,0.5,0,0.9,0.1,1.4c0.1,0.5,0.2,0.9,0.3,1.3l0,0.2H363z M357.9,483.8
			c0.5,0,1-0.1,1.5-0.2c0.5-0.1,0.9-0.3,1.3-0.6c0.4-0.2,0.8-0.5,1.1-0.9c0.3-0.3,0.6-0.7,0.7-1.1v-3h-2.8c-0.7,0-1.3,0.1-1.9,0.2
			c-0.6,0.1-1.2,0.3-1.6,0.5c-0.5,0.2-0.9,0.5-1.1,0.9c-0.3,0.4-0.4,0.9-0.4,1.5c0,0.4,0.1,0.8,0.3,1.1c0.2,0.3,0.4,0.6,0.7,0.8
			c0.3,0.2,0.6,0.4,1,0.5C357.1,483.7,357.5,483.8,357.9,483.8z"/>
		<path class="st7" d="M377.5,470.9c0.4,0,0.8,0,1.1,0.1c0.4,0,0.7,0.1,1,0.2l-0.2,1.5c-0.4-0.1-0.7-0.1-1.1-0.2s-0.7-0.1-1.1-0.1
			c-1.3,0-2.4,0.3-3.3,0.9c-0.9,0.6-1.5,1.5-1.9,2.8l0,8.8h-1.6v-13.7h1.5l0.1,2.4v0.3c0.6-0.9,1.3-1.6,2.2-2.1
			C375.3,471.2,376.3,470.9,377.5,470.9z"/>
		<path class="st7" d="M388.5,467.6v3.5h5.1v1.2h-5.1v8.6c0,0.5,0.1,1,0.2,1.3c0.2,0.4,0.4,0.6,0.6,0.8c0.3,0.2,0.6,0.4,0.9,0.5
			c0.4,0.1,0.8,0.1,1.2,0.1c0.4,0,0.9,0,1.3-0.1s0.8-0.1,1.1-0.2l0.2,1.2c-0.4,0.1-0.8,0.3-1.3,0.3c-0.5,0.1-1.1,0.1-1.6,0.1
			c-0.6,0-1.2-0.1-1.7-0.2c-0.5-0.1-1-0.4-1.3-0.7c-0.4-0.3-0.7-0.7-0.9-1.3c-0.2-0.5-0.3-1.2-0.3-1.9v-8.6h-3.8v-1.2h3.8v-3.5
			H388.5z"/>
		<path class="st7" d="M407.6,482.7c-0.5,0.8-1.1,1.3-1.8,1.8s-1.6,0.6-2.7,0.6c-0.8,0-1.4-0.1-2-0.4c-0.6-0.2-1.1-0.6-1.5-1.1
			s-0.7-1.1-0.9-1.7c-0.2-0.7-0.3-1.5-0.3-2.3v-8.5h1.5v8.5c0,1.4,0.3,2.4,0.8,3.1c0.5,0.7,1.4,1.1,2.5,1.1c1.1,0,2.1-0.3,2.8-0.8
			s1.2-1.2,1.5-2.1l0-9.8h1.5v13.7h-1.4L407.6,482.7z"/>
		<path class="st7" d="M424.4,478.2c0,0.9-0.1,1.8-0.3,2.6c-0.2,0.8-0.5,1.6-1,2.2c-0.4,0.6-1,1.2-1.7,1.6c-0.7,0.4-1.5,0.6-2.4,0.6
			c-0.9,0-1.6-0.2-2.3-0.5s-1.3-0.8-1.8-1.4v7h-1.5v-19h1.4l0.1,1.9c0.5-0.7,1.1-1.2,1.8-1.6c0.7-0.4,1.5-0.6,2.4-0.6
			c0.9,0,1.8,0.2,2.4,0.6c0.7,0.4,1.2,0.9,1.7,1.5c0.4,0.6,0.8,1.4,1,2.2c0.2,0.8,0.3,1.7,0.3,2.6V478.2z M422.9,477.9
			c0-0.7-0.1-1.4-0.2-2s-0.4-1.3-0.7-1.8c-0.3-0.5-0.8-1-1.3-1.3c-0.5-0.3-1.2-0.5-2-0.5c-0.4,0-0.9,0.1-1.2,0.2
			c-0.4,0.1-0.7,0.3-1.1,0.5c-0.3,0.2-0.6,0.5-0.9,0.8c-0.2,0.3-0.5,0.7-0.6,1v6.8c0.4,0.7,0.9,1.3,1.5,1.7s1.4,0.6,2.3,0.6
			c0.8,0,1.4-0.2,2-0.5c0.5-0.3,1-0.8,1.3-1.3c0.3-0.5,0.6-1.1,0.7-1.8c0.2-0.7,0.2-1.4,0.2-2.1V477.9z"/>
		<path class="st7" d="M435.3,484.4c0,0.4,0,0.7-0.1,1.1c-0.1,0.4-0.2,0.7-0.3,1.1c-0.1,0.4-0.3,0.7-0.6,1c-0.2,0.3-0.5,0.6-0.8,0.9
			l-1-0.6c0.7-1.1,1.1-2.2,1.1-3.5v-2h1.6V484.4z M433.3,472.7c0-0.4,0.1-0.7,0.3-0.9c0.2-0.2,0.5-0.4,0.9-0.4c0.4,0,0.7,0.1,1,0.4
			c0.2,0.2,0.3,0.6,0.3,0.9s-0.1,0.6-0.3,0.9c-0.2,0.2-0.6,0.3-1,0.3c-0.4,0-0.7-0.1-0.9-0.3C433.5,473.3,433.3,473,433.3,472.7z"/>
		<path class="st7" d="M463.1,483.9c0.5,0,1-0.1,1.5-0.2c0.5-0.1,0.9-0.4,1.2-0.6s0.6-0.6,0.9-1c0.2-0.4,0.4-0.8,0.4-1.3h1.5
			c0,0.7-0.2,1.3-0.5,1.8s-0.7,1-1.2,1.4c-0.5,0.4-1.1,0.7-1.7,0.9c-0.6,0.2-1.3,0.3-2,0.3c-1,0-1.9-0.2-2.6-0.6
			c-0.7-0.4-1.4-0.9-1.9-1.5s-0.9-1.4-1.1-2.2c-0.2-0.8-0.4-1.7-0.4-2.6v-0.5c0-0.9,0.1-1.7,0.4-2.6c0.2-0.8,0.6-1.6,1.1-2.2
			s1.1-1.1,1.9-1.5c0.7-0.4,1.6-0.6,2.6-0.6c0.8,0,1.5,0.1,2.1,0.4c0.6,0.2,1.2,0.6,1.7,1c0.5,0.4,0.9,1,1.1,1.5
			c0.3,0.6,0.4,1.3,0.5,2H467c0-0.5-0.1-1-0.4-1.4c-0.2-0.4-0.5-0.8-0.8-1.1c-0.3-0.3-0.8-0.6-1.2-0.7s-1-0.3-1.5-0.3
			c-0.8,0-1.5,0.2-2,0.5c-0.6,0.3-1,0.7-1.4,1.3s-0.6,1.1-0.8,1.8c-0.2,0.7-0.2,1.3-0.2,2v0.5c0,0.7,0.1,1.4,0.2,2s0.4,1.3,0.8,1.8
			c0.4,0.5,0.8,0.9,1.4,1.3C461.6,483.7,462.3,483.9,463.1,483.9z"/>
		<path class="st7" d="M471.7,477.8c0-0.9,0.2-1.8,0.4-2.7s0.7-1.6,1.2-2.2c0.5-0.6,1.2-1.1,1.9-1.5c0.8-0.4,1.6-0.6,2.6-0.6
			c1,0,1.8,0.2,2.6,0.6c0.8,0.4,1.4,0.9,1.9,1.5c0.5,0.6,0.9,1.4,1.2,2.2s0.4,1.7,0.4,2.7v0.4c0,0.9-0.2,1.8-0.4,2.7
			c-0.3,0.8-0.7,1.6-1.2,2.2c-0.5,0.6-1.2,1.1-1.9,1.5c-0.8,0.4-1.6,0.6-2.6,0.6s-1.8-0.2-2.6-0.6c-0.8-0.4-1.4-0.9-1.9-1.5
			c-0.5-0.6-0.9-1.4-1.2-2.2s-0.4-1.7-0.4-2.7V477.8z M473.2,478.2c0,0.7,0.1,1.4,0.3,2.1s0.5,1.3,0.9,1.8c0.4,0.5,0.9,0.9,1.4,1.2
			s1.2,0.5,2,0.5c0.7,0,1.4-0.2,2-0.5s1-0.7,1.4-1.2c0.4-0.5,0.7-1.1,0.9-1.8s0.3-1.4,0.3-2.1v-0.4c0-0.7-0.1-1.4-0.3-2.1
			s-0.5-1.3-0.9-1.8c-0.4-0.5-0.9-0.9-1.4-1.3c-0.6-0.3-1.2-0.5-2-0.5c-0.7,0-1.4,0.2-2,0.5c-0.6,0.3-1,0.7-1.4,1.3
			c-0.4,0.5-0.7,1.1-0.9,1.8s-0.3,1.4-0.3,2.1V478.2z"/>
		<path class="st7" d="M487.5,471.2l0,1.5c0.3-0.5,0.7-1,1.1-1.3c0.5-0.3,1.1-0.5,1.8-0.5c0.4,0,0.7,0,1,0.1
			c0.3,0.1,0.6,0.2,0.8,0.4c0.2,0.2,0.4,0.4,0.6,0.6c0.2,0.2,0.3,0.5,0.4,0.7c0.3-0.5,0.7-0.9,1.2-1.3c0.5-0.3,1.1-0.5,1.9-0.5
			c0.6,0,1.1,0.1,1.5,0.3c0.4,0.2,0.7,0.5,1,0.8c0.2,0.3,0.4,0.7,0.5,1.2c0.1,0.5,0.2,0.9,0.2,1.4l0,10.2H498l0-10.2
			c0-0.3,0-0.6-0.1-0.9c-0.1-0.3-0.2-0.6-0.3-0.8c-0.1-0.2-0.4-0.4-0.6-0.6s-0.6-0.2-1-0.2c-0.4,0-0.8,0.1-1.1,0.2s-0.5,0.3-0.7,0.5
			s-0.3,0.4-0.4,0.7c-0.1,0.2-0.2,0.5-0.2,0.8l0,10.5h-1.4l0-10.3c0-0.3,0-0.6-0.1-0.9c-0.1-0.3-0.2-0.5-0.3-0.7
			c-0.1-0.2-0.4-0.4-0.6-0.5c-0.3-0.1-0.6-0.2-1-0.2s-0.8,0.1-1,0.2c-0.3,0.1-0.5,0.3-0.7,0.5c-0.2,0.2-0.3,0.4-0.5,0.7
			c-0.1,0.3-0.2,0.5-0.3,0.8l0,10.5h-1.4v-13.7H487.5z"/>
		<path class="st7" d="M513.5,478.2c0,0.9-0.1,1.8-0.3,2.6c-0.2,0.8-0.5,1.6-1,2.2c-0.4,0.6-1,1.2-1.7,1.6c-0.7,0.4-1.5,0.6-2.4,0.6
			c-0.9,0-1.6-0.2-2.3-0.5s-1.3-0.8-1.8-1.4v7h-1.5v-19h1.4l0.1,1.9c0.5-0.7,1.1-1.2,1.8-1.6c0.7-0.4,1.5-0.6,2.4-0.6
			c0.9,0,1.8,0.2,2.4,0.6c0.7,0.4,1.2,0.9,1.7,1.5c0.4,0.6,0.8,1.4,1,2.2c0.2,0.8,0.3,1.7,0.3,2.6V478.2z M512,477.9
			c0-0.7-0.1-1.4-0.2-2s-0.4-1.3-0.7-1.8c-0.3-0.5-0.8-1-1.3-1.3c-0.5-0.3-1.2-0.5-2-0.5c-0.4,0-0.9,0.1-1.2,0.2
			c-0.4,0.1-0.7,0.3-1.1,0.5c-0.3,0.2-0.6,0.5-0.9,0.8c-0.2,0.3-0.5,0.7-0.6,1v6.8c0.4,0.7,0.9,1.3,1.5,1.7s1.4,0.6,2.3,0.6
			c0.8,0,1.4-0.2,2-0.5c0.5-0.3,1-0.8,1.3-1.3c0.3-0.5,0.6-1.1,0.7-1.8c0.2-0.7,0.2-1.4,0.2-2.1V477.9z"/>
		<path class="st7" d="M517.7,465.4h6.4v18.2h4.6v1.3h-11v-1.3h4.9v-16.8h-4.9V465.4z"/>
		<path class="st7" d="M538.2,485.1c-1,0-1.8-0.2-2.6-0.5s-1.5-0.8-2-1.4c-0.6-0.6-1-1.3-1.3-2.1c-0.3-0.8-0.5-1.7-0.5-2.6v-0.5
			c0-1,0.2-1.9,0.5-2.7s0.8-1.6,1.3-2.2c0.6-0.6,1.2-1.1,1.9-1.5c0.7-0.4,1.5-0.5,2.4-0.5c0.9,0,1.7,0.2,2.4,0.5
			c0.7,0.3,1.3,0.8,1.8,1.4c0.5,0.6,0.8,1.2,1.1,2c0.2,0.8,0.4,1.6,0.4,2.5v0.9h-10.3v0.3c0,0.7,0.1,1.4,0.4,2.1
			c0.2,0.7,0.6,1.2,1,1.7s1,0.9,1.6,1.2c0.6,0.3,1.3,0.5,2,0.5c0.8,0,1.6-0.1,2.3-0.5s1.3-0.8,1.8-1.4l1,0.7c-0.3,0.4-0.6,0.7-0.9,1
			c-0.3,0.3-0.7,0.6-1.2,0.8c-0.4,0.2-0.9,0.4-1.4,0.5S538.7,485.1,538.2,485.1z M537.9,472.2c-0.6,0-1.2,0.1-1.7,0.3
			c-0.5,0.2-1,0.6-1.4,1c-0.4,0.4-0.7,0.9-1,1.5c-0.3,0.6-0.4,1.2-0.5,1.8h8.7v-0.2c0-0.6-0.1-1.1-0.3-1.7c-0.2-0.5-0.5-1-0.8-1.4
			c-0.4-0.4-0.8-0.7-1.3-1S538.5,472.2,537.9,472.2z"/>
		<path class="st7" d="M552.3,467.6v3.5h5.1v1.2h-5.1v8.6c0,0.5,0.1,1,0.2,1.3c0.2,0.4,0.4,0.6,0.6,0.8c0.3,0.2,0.6,0.4,0.9,0.5
			c0.4,0.1,0.8,0.1,1.2,0.1c0.4,0,0.9,0,1.3-0.1s0.8-0.1,1.1-0.2l0.2,1.2c-0.4,0.1-0.8,0.3-1.3,0.3c-0.5,0.1-1.1,0.1-1.6,0.1
			c-0.6,0-1.2-0.1-1.7-0.2c-0.5-0.1-1-0.4-1.3-0.7c-0.4-0.3-0.7-0.7-0.9-1.3c-0.2-0.5-0.3-1.2-0.3-1.9v-8.6h-3.8v-1.2h3.8v-3.5
			H552.3z"/>
		<path class="st7" d="M568.1,485.1c-1,0-1.8-0.2-2.6-0.5s-1.5-0.8-2-1.4c-0.6-0.6-1-1.3-1.3-2.1c-0.3-0.8-0.5-1.7-0.5-2.6v-0.5
			c0-1,0.2-1.9,0.5-2.7s0.8-1.6,1.3-2.2c0.5-0.6,1.2-1.1,1.9-1.5c0.7-0.4,1.5-0.5,2.4-0.5c0.9,0,1.7,0.2,2.4,0.5
			c0.7,0.3,1.3,0.8,1.8,1.4c0.5,0.6,0.8,1.2,1.1,2c0.2,0.8,0.4,1.6,0.4,2.5v0.9h-10.3v0.3c0,0.7,0.1,1.4,0.4,2.1
			c0.2,0.7,0.6,1.2,1,1.7s1,0.9,1.6,1.2c0.6,0.3,1.3,0.5,2,0.5c0.8,0,1.6-0.1,2.3-0.5s1.3-0.8,1.8-1.4l1,0.7c-0.3,0.4-0.6,0.7-0.9,1
			c-0.3,0.3-0.7,0.6-1.2,0.8c-0.4,0.2-0.9,0.4-1.4,0.5S568.6,485.1,568.1,485.1z M567.8,472.2c-0.6,0-1.2,0.1-1.7,0.3
			c-0.5,0.2-1,0.6-1.4,1c-0.4,0.4-0.7,0.9-1,1.5c-0.3,0.6-0.4,1.2-0.5,1.8h8.7v-0.2c0-0.6-0.1-1.1-0.3-1.7c-0.2-0.5-0.5-1-0.8-1.4
			c-0.4-0.4-0.8-0.7-1.3-1S568.4,472.2,567.8,472.2z"/>
		<path class="st7" d="M576.7,477.9c0-0.9,0.1-1.8,0.3-2.6c0.2-0.8,0.6-1.6,1-2.2c0.5-0.6,1-1.2,1.7-1.5c0.7-0.4,1.5-0.6,2.4-0.6
			c0.9,0,1.7,0.2,2.3,0.6c0.7,0.4,1.3,0.9,1.7,1.6v-7.6h1.5v19.5h-1.4l-0.1-1.8c-0.5,0.7-1.1,1.2-1.8,1.5c-0.7,0.4-1.5,0.5-2.3,0.5
			c-0.9,0-1.7-0.2-2.4-0.6c-0.7-0.4-1.2-0.9-1.7-1.6c-0.5-0.6-0.8-1.4-1-2.2c-0.2-0.8-0.3-1.7-0.3-2.6V477.9z M578.2,478.2
			c0,0.7,0.1,1.4,0.2,2c0.1,0.7,0.4,1.3,0.7,1.8c0.3,0.5,0.8,1,1.3,1.3s1.2,0.5,2,0.5c0.4,0,0.8-0.1,1.2-0.2
			c0.4-0.1,0.7-0.3,1.1-0.5c0.3-0.2,0.6-0.5,0.9-0.8c0.3-0.3,0.5-0.6,0.7-1v-6.7c-0.2-0.4-0.4-0.7-0.6-1c-0.2-0.3-0.5-0.6-0.9-0.8
			c-0.3-0.2-0.7-0.4-1.1-0.5c-0.4-0.1-0.8-0.2-1.2-0.2c-0.8,0-1.4,0.2-2,0.5c-0.5,0.3-1,0.8-1.3,1.3c-0.3,0.5-0.6,1.1-0.7,1.8
			c-0.1,0.7-0.2,1.4-0.2,2V478.2z"/>
		<path class="st7" d="M606.8,471.2h6.4v12.4h4.7v1.3h-11v-1.3h4.8v-11h-4.8V471.2z M611.2,467.4c0-0.3,0.1-0.6,0.3-0.8
			s0.5-0.3,0.9-0.3c0.4,0,0.7,0.1,0.9,0.3c0.2,0.2,0.3,0.5,0.3,0.8c0,0.3-0.1,0.6-0.3,0.8c-0.2,0.2-0.5,0.3-0.9,0.3
			c-0.4,0-0.7-0.1-0.9-0.3C611.2,468,611.2,467.7,611.2,467.4z"/>
		<path class="st7" d="M622.7,471.2l0.1,2.6c0.5-0.9,1.1-1.5,1.9-2c0.8-0.5,1.7-0.8,2.7-0.8c1.5,0,2.7,0.5,3.5,1.4
			c0.8,0.9,1.2,2.2,1.2,3.8v8.8h-1.5v-8.8c0-1.3-0.3-2.2-0.9-2.9c-0.6-0.7-1.4-1-2.6-1c-0.5,0-1,0.1-1.4,0.2s-0.9,0.4-1.2,0.7
			s-0.7,0.6-1,1c-0.3,0.4-0.5,0.8-0.7,1.2v9.5h-1.5v-13.7H622.7z"/>
		<path class="st7" d="M652,471.2h6.5v13.7c0,0.9-0.1,1.6-0.3,2.3c-0.2,0.7-0.6,1.3-1,1.7c-0.4,0.5-1,0.8-1.6,1.1
			c-0.6,0.3-1.4,0.4-2.2,0.4c-0.5,0-0.9,0-1.3,0c-0.4,0-0.8-0.1-1.3-0.2l0.1-1.3c0.2,0,0.3,0,0.6,0.1c0.2,0,0.5,0,0.7,0.1
			c0.2,0,0.5,0,0.7,0c0.2,0,0.4,0,0.5,0c0.5,0,1-0.1,1.4-0.2s0.9-0.4,1.2-0.7c0.3-0.3,0.6-0.8,0.8-1.3c0.2-0.5,0.3-1.2,0.3-2v-12.4
			h-5V471.2z M656.4,467.4c0-0.3,0.1-0.6,0.3-0.8c0.2-0.2,0.5-0.3,0.9-0.3c0.4,0,0.7,0.1,0.9,0.3c0.2,0.2,0.3,0.5,0.3,0.8
			c0,0.3-0.1,0.6-0.3,0.8c-0.2,0.2-0.5,0.3-0.9,0.3c-0.4,0-0.7-0.1-0.9-0.3C656.5,467.9,656.4,467.7,656.4,467.4z"/>
		<path class="st7" d="M674.8,482.7c-0.5,0.8-1.1,1.3-1.8,1.8s-1.6,0.6-2.7,0.6c-0.8,0-1.4-0.1-2-0.4c-0.6-0.2-1.1-0.6-1.5-1.1
			s-0.7-1.1-0.9-1.7c-0.2-0.7-0.3-1.5-0.3-2.3v-8.5h1.5v8.5c0,1.4,0.3,2.4,0.8,3.1c0.5,0.7,1.4,1.1,2.5,1.1c1.1,0,2.1-0.3,2.8-0.8
			s1.2-1.2,1.5-2.1l0-9.8h1.5v13.7h-1.4L674.8,482.7z"/>
		<path class="st7" d="M690.1,481.4c0-0.4-0.1-0.8-0.3-1.1c-0.2-0.3-0.5-0.6-0.9-0.8c-0.4-0.2-0.8-0.4-1.3-0.6s-1-0.3-1.5-0.4
			c-0.7-0.1-1.3-0.3-1.9-0.5c-0.6-0.2-1.2-0.4-1.7-0.7s-0.9-0.7-1.2-1.1c-0.3-0.4-0.4-1-0.4-1.6c0-0.6,0.1-1.1,0.4-1.6
			c0.3-0.5,0.7-0.9,1.2-1.2s1-0.6,1.7-0.7c0.6-0.2,1.3-0.2,1.9-0.2c0.7,0,1.4,0.1,2.1,0.3c0.6,0.2,1.2,0.4,1.7,0.8
			c0.5,0.4,0.9,0.8,1.2,1.3c0.3,0.5,0.4,1.1,0.5,1.7H690c0-0.4-0.1-0.8-0.4-1.2c-0.2-0.4-0.5-0.6-0.9-0.9c-0.4-0.2-0.8-0.4-1.2-0.5
			c-0.5-0.1-0.9-0.2-1.4-0.2c-0.5,0-0.9,0-1.3,0.1c-0.4,0.1-0.8,0.2-1.2,0.4c-0.3,0.2-0.6,0.4-0.8,0.8c-0.2,0.3-0.3,0.7-0.3,1.1
			c0,0.4,0.1,0.8,0.3,1.1c0.2,0.3,0.5,0.5,0.8,0.7c0.4,0.2,0.8,0.4,1.2,0.5c0.5,0.1,1,0.3,1.5,0.4c0.7,0.1,1.4,0.3,2,0.5
			c0.6,0.2,1.2,0.5,1.7,0.8c0.5,0.3,0.9,0.7,1.1,1.1s0.4,1,0.4,1.6c0,0.6-0.2,1.2-0.5,1.7c-0.3,0.5-0.7,0.9-1.2,1.2
			c-0.5,0.3-1.1,0.6-1.7,0.7c-0.6,0.2-1.3,0.2-2,0.2c-0.8,0-1.5-0.1-2.2-0.3c-0.7-0.2-1.3-0.5-1.8-0.8c-0.5-0.4-0.9-0.8-1.2-1.3
			c-0.3-0.5-0.5-1.1-0.5-1.7h1.5c0.1,0.5,0.2,1,0.5,1.4c0.3,0.4,0.6,0.7,1,0.9c0.4,0.2,0.8,0.4,1.3,0.5c0.5,0.1,0.9,0.1,1.4,0.1
			c0.5,0,0.9,0,1.4-0.1c0.5-0.1,0.9-0.2,1.2-0.4c0.4-0.2,0.7-0.5,0.9-0.8C690,482.2,690.1,481.8,690.1,481.4z"/>
		<path class="st7" d="M700.5,467.6v3.5h5.1v1.2h-5.1v8.6c0,0.5,0.1,1,0.2,1.3c0.2,0.4,0.4,0.6,0.6,0.8c0.3,0.2,0.6,0.4,0.9,0.5
			c0.4,0.1,0.8,0.1,1.2,0.1c0.4,0,0.9,0,1.3-0.1s0.8-0.1,1.1-0.2l0.2,1.2c-0.4,0.1-0.8,0.3-1.3,0.3c-0.5,0.1-1.1,0.1-1.6,0.1
			c-0.6,0-1.2-0.1-1.7-0.2c-0.5-0.1-1-0.4-1.3-0.7c-0.4-0.3-0.7-0.7-0.9-1.3c-0.2-0.5-0.3-1.2-0.3-1.9v-8.6h-3.8v-1.2h3.8v-3.5
			H700.5z"/>
		<path class="st7" d="M731.7,484.9h-1.5v-16.6l-5.1,2.2v-1.4l6.4-2.7h0.2V484.9z"/>
		<path class="st7" d="M751.4,484.9h-11.6v-1.2l6.1-6.9c0.4-0.5,0.9-1,1.2-1.5c0.4-0.5,0.7-0.9,1-1.4c0.3-0.5,0.5-0.9,0.6-1.4
			s0.2-0.9,0.2-1.4c0-0.6-0.1-1.1-0.3-1.5c-0.2-0.5-0.5-0.9-0.8-1.2c-0.3-0.3-0.8-0.6-1.2-0.8c-0.5-0.2-1-0.3-1.6-0.3
			c-0.7,0-1.2,0.1-1.7,0.3s-0.9,0.5-1.3,0.9c-0.4,0.4-0.6,0.8-0.8,1.4c-0.2,0.5-0.3,1.1-0.3,1.7h-1.5c0-0.8,0.1-1.5,0.4-2.2
			c0.3-0.7,0.7-1.3,1.1-1.8c0.5-0.5,1.1-0.9,1.8-1.2c0.7-0.3,1.5-0.4,2.3-0.4c0.8,0,1.6,0.1,2.2,0.4c0.7,0.2,1.2,0.6,1.7,1
			c0.5,0.4,0.8,1,1.1,1.6c0.3,0.6,0.4,1.3,0.4,2.1c0,0.6-0.1,1.2-0.3,1.8s-0.5,1.1-0.8,1.7s-0.7,1.1-1.2,1.6c-0.4,0.5-0.9,1-1.3,1.5
			l-5.2,5.8h9.7V484.9z"/>
		<path class="st7" d="M756.5,471.2l0,1.5c0.3-0.5,0.7-1,1.1-1.3c0.5-0.3,1.1-0.5,1.8-0.5c0.4,0,0.7,0,1,0.1
			c0.3,0.1,0.6,0.2,0.8,0.4c0.2,0.2,0.4,0.4,0.6,0.6c0.2,0.2,0.3,0.5,0.4,0.7c0.3-0.5,0.7-0.9,1.2-1.3c0.5-0.3,1.1-0.5,1.9-0.5
			c0.6,0,1.1,0.1,1.5,0.3c0.4,0.2,0.7,0.5,1,0.8c0.2,0.3,0.4,0.7,0.5,1.2c0.1,0.5,0.2,0.9,0.2,1.4l0,10.2H767l0-10.2
			c0-0.3,0-0.6-0.1-0.9c-0.1-0.3-0.2-0.6-0.3-0.8c-0.1-0.2-0.4-0.4-0.6-0.6s-0.6-0.2-1-0.2c-0.4,0-0.8,0.1-1.1,0.2s-0.5,0.3-0.7,0.5
			s-0.3,0.4-0.4,0.7c-0.1,0.2-0.2,0.5-0.2,0.8l0,10.5h-1.4l0-10.3c0-0.3,0-0.6-0.1-0.9c-0.1-0.3-0.2-0.5-0.3-0.7
			c-0.1-0.2-0.4-0.4-0.6-0.5c-0.3-0.1-0.6-0.2-1-0.2s-0.8,0.1-1,0.2c-0.3,0.1-0.5,0.3-0.7,0.5c-0.2,0.2-0.3,0.4-0.5,0.7
			c-0.1,0.3-0.2,0.5-0.3,0.8l0,10.5h-1.4v-13.7H756.5z"/>
		<path class="st7" d="M781.6,481.4c0-0.4-0.1-0.8-0.3-1.1c-0.2-0.3-0.5-0.6-0.9-0.8c-0.4-0.2-0.8-0.4-1.3-0.6s-1-0.3-1.5-0.4
			c-0.7-0.1-1.3-0.3-1.9-0.5c-0.6-0.2-1.2-0.4-1.7-0.7s-0.9-0.7-1.2-1.1c-0.3-0.4-0.4-1-0.4-1.6c0-0.6,0.1-1.1,0.4-1.6
			c0.3-0.5,0.7-0.9,1.2-1.2s1-0.6,1.7-0.7c0.6-0.2,1.3-0.2,1.9-0.2c0.7,0,1.4,0.1,2.1,0.3c0.6,0.2,1.2,0.4,1.7,0.8
			c0.5,0.4,0.9,0.8,1.2,1.3c0.3,0.5,0.4,1.1,0.5,1.7h-1.5c0-0.4-0.1-0.8-0.4-1.2c-0.2-0.4-0.5-0.6-0.9-0.9c-0.4-0.2-0.8-0.4-1.2-0.5
			c-0.5-0.1-0.9-0.2-1.4-0.2c-0.5,0-0.9,0-1.3,0.1c-0.4,0.1-0.8,0.2-1.2,0.4c-0.3,0.2-0.6,0.4-0.8,0.8c-0.2,0.3-0.3,0.7-0.3,1.1
			c0,0.4,0.1,0.8,0.3,1.1c0.2,0.3,0.5,0.5,0.8,0.7c0.4,0.2,0.8,0.4,1.2,0.5c0.5,0.1,1,0.3,1.5,0.4c0.7,0.1,1.4,0.3,2,0.5
			c0.6,0.2,1.2,0.5,1.7,0.8c0.5,0.3,0.9,0.7,1.1,1.1s0.4,1,0.4,1.6c0,0.6-0.2,1.2-0.5,1.7c-0.3,0.5-0.7,0.9-1.2,1.2
			c-0.5,0.3-1.1,0.6-1.7,0.7c-0.6,0.2-1.3,0.2-2,0.2c-0.8,0-1.5-0.1-2.2-0.3c-0.7-0.2-1.3-0.5-1.8-0.8c-0.5-0.4-0.9-0.8-1.2-1.3
			c-0.3-0.5-0.5-1.1-0.5-1.7h1.5c0.1,0.5,0.2,1,0.5,1.4c0.3,0.4,0.6,0.7,1,0.9c0.4,0.2,0.8,0.4,1.3,0.5c0.5,0.1,0.9,0.1,1.4,0.1
			c0.5,0,0.9,0,1.4-0.1c0.5-0.1,0.9-0.2,1.2-0.4c0.4-0.2,0.7-0.5,0.9-0.8C781.5,482.2,781.6,481.8,781.6,481.4z"/>
		<path class="st7" d="M185.1,523.3c0-0.5-0.1-1-0.3-1.4c-0.2-0.4-0.5-0.8-0.9-1.1c-0.4-0.3-0.8-0.6-1.3-0.8c-0.5-0.2-1-0.5-1.6-0.7
			c-0.7-0.2-1.4-0.5-2-0.8s-1.2-0.7-1.6-1.1s-0.8-0.9-1.1-1.5c-0.3-0.6-0.4-1.2-0.4-2c0-0.7,0.1-1.4,0.4-1.9c0.2-0.6,0.6-1.1,1-1.5
			s0.9-0.7,1.5-1c0.6-0.2,1.2-0.4,1.9-0.5v-2.6h1.3v2.6c0.7,0.1,1.4,0.2,1.9,0.5s1.1,0.7,1.5,1.2c0.4,0.5,0.7,1.1,0.9,1.7
			s0.3,1.4,0.3,2.2H185c0-0.6-0.1-1.2-0.3-1.8s-0.4-1-0.8-1.4s-0.7-0.7-1.2-0.9c-0.5-0.2-1-0.3-1.6-0.3c-0.5,0-1,0.1-1.5,0.2
			c-0.5,0.2-0.9,0.4-1.2,0.7s-0.6,0.7-0.8,1.1c-0.2,0.4-0.3,0.9-0.3,1.5c0,0.6,0.1,1.1,0.3,1.5c0.2,0.4,0.5,0.8,0.9,1.1
			c0.4,0.3,0.8,0.6,1.3,0.8c0.5,0.2,1.1,0.5,1.7,0.7c0.7,0.2,1.4,0.5,2,0.8c0.6,0.3,1.2,0.6,1.6,1.1c0.5,0.4,0.8,0.9,1.1,1.5
			c0.3,0.6,0.4,1.2,0.4,2c0,0.7-0.1,1.4-0.4,1.9c-0.2,0.6-0.6,1.1-1,1.5c-0.4,0.4-0.9,0.7-1.5,1c-0.6,0.2-1.2,0.4-1.9,0.4v2.4h-1.3
			v-2.4c-0.7-0.1-1.4-0.2-2-0.4c-0.6-0.2-1.2-0.6-1.7-1c-0.5-0.5-0.9-1-1.2-1.7c-0.3-0.7-0.4-1.5-0.5-2.4h1.5c0,0.7,0.1,1.4,0.4,1.9
			c0.2,0.5,0.6,1,1,1.3c0.4,0.3,0.9,0.6,1.4,0.8s1.1,0.2,1.6,0.2c0.5,0,1.1-0.1,1.5-0.2c0.5-0.2,0.9-0.4,1.3-0.7s0.7-0.7,0.9-1.1
			C185,524.4,185.1,523.9,185.1,523.3z"/>
	</g>
	<rect x="200.4" y="500.5" class="st8" width="22.6" height="39.1"/>
</g>
</svg>
