<?xml version="1.0" encoding="utf-8"?>
<!-- Generator: Adobe Illustrator 19.0.1, SVG Export Plug-In . SVG Version: 6.00 Build 0)  -->
<!DOCTYPE svg PUBLIC "-//W3C//DTD SVG 1.1//EN" "http://www.w3.org/Graphics/SVG/1.1/DTD/svg11.dtd">
<svg version="1.1" id="Layer_1" xmlns="http://www.w3.org/2000/svg" xmlns:xlink="http://www.w3.org/1999/xlink" x="0px" y="0px"
	 viewBox="492.1 191.4 415.8 110.5" style="enable-background:new 492.1 191.4 415.8 110.5;" xml:space="preserve">
<style type="text/css">
	.st0{fill:#FFFFFF;}
	.st1{fill:#00C4B3;}
	.st2{fill:#22D3C5;}
	.st3{fill:#0075C9;}
	.st4{fill:#00A8E1;}
</style>
<path class="st0" d="M703.8,218.5c9.1,8.3,13.6,19.7,13.6,34.4c0,14.8-4.4,26.5-13.3,35.1c-8.8,8.6-22.3,12.9-40.4,12.9h-31.9v-94.6
	h33C681.7,206.4,694.7,210.2,703.8,218.5z M688.2,274.7c5.2-4.9,7.8-12,7.8-21.4c0-9.3-2.6-16.7-7.8-21.7s-13.2-7.7-24-7.7H652V282
	h13.8C675.5,282,683,279.6,688.2,274.7z"/>
<path class="st0" d="M792.6,301h-18.9v-9c-5.4,6.6-11.7,9.9-19.4,9.9s-14.2-2.2-19.5-6.7s-7.9-10.5-7.9-17.9c0-7.5,2.7-13,8.2-16.7
	c5.4-3.7,12.9-5.5,22.3-5.5h15v-0.6c0-7.8-4-11.7-12.2-11.7c-3.5,0-7.2,0.7-11.2,2.1c-3.9,1.4-7.2,3.1-10,5.2l-9.1-13.2
	c9.6-7,20.6-10.5,32.9-10.5c8.9,0,15.9,2.2,21.6,6.7c5.6,4.4,8.2,11.5,8.2,21.1L792.6,301L792.6,301z M772.3,272.9v-3h-12.7
	c-8.2,0-12.2,2.3-12.2,7.3c0,2.6,1,4.5,2.9,5.9s4.7,2,8.4,2c3.6,0,6.8-1.1,9.5-3.4C771,279.6,772.3,276.6,772.3,272.9z"/>
<path class="st0" d="M846.3,245.6c-6.1,0-10.9,2.1-13.9,6.5c-3,4.3-4.8,10-4.8,17.1v31.9h-20.3v-72.9h20.3v9.3
	c2.7-3,6.4-5.5,10.3-7.6c3.9-2.1,8.6-3.2,12.6-3.3v19.2L846.3,245.6L846.3,245.6z"/>
<path class="st0" d="M883.1,242.9v32.2c0,2.8,0.8,5,2.3,6.6c1.4,1.6,3.2,2.4,5.2,2.4c3.8,0,7-1.7,9.7-5.2l7.6,14.3
	c-6.3,5.8-13,8.7-20,8.7s-12.9-2.3-17.8-6.9c-4.9-4.6-7.2-10.9-7.2-18.9v-69.6h20.3v20.3h21.6L893.7,243L883.1,242.9L883.1,242.9z"
	/>
<path class="st1" d="M521.7,221.2l-7.1-7.1v51.2l0.1,2.4c0,1.1,0.2,2.4,0.6,3.7l56.2,19.8l14-6.2l0,0L521.7,221.2z"/>
<path class="st2" d="M515.3,271.4L515.3,271.4L515.3,271.4L515.3,271.4z M585.5,285l-14,6.2l-56.1-19.8c1.1,4.1,3.4,8.7,6,11.3
	l18.3,18.2l40.8,0.1L585.5,285L585.5,285z"/>
<path class="st3" d="M514.8,214.1l-21.8,33c-1.8,1.9-0.9,5.9,2,8.9l12.6,12.7l7.9,2.8c-0.3-1.3-0.6-2.6-0.6-3.7l-0.1-2.4V214.1
	L514.8,214.1z"/>
<path class="st3" d="M571.9,214.7c-1.3-0.3-2.6-0.5-3.7-0.6l-2.5-0.1h-51.1l70.9,70.9l0,0l6.2-14L571.9,214.7z"/>
<path class="st4" d="M571.8,214.7C571.9,214.7,571.9,214.7,571.8,214.7L571.8,214.7C571.9,214.7,571.9,214.7,571.8,214.7z
	 M583.2,220.7c-2.6-2.6-7.1-5-11.3-6l19.8,56.2l-6.2,14l0,0l15.2-4.9v-41.7L583.2,220.7z"/>
<path class="st1" d="M569.1,206.9l-12.7-12.6c-2.9-2.9-6.9-3.8-8.9-2l-33,21.8h51.1l2.5,0.1c1.1,0,2.4,0.2,3.7,0.6L569.1,206.9z"/>
</svg>
