<?xml version="1.0" encoding="utf-8"?>
<!-- Generator: Adobe Illustrator 19.0.1, SVG Export Plug-In . SVG Version: 6.00 Build 0)  -->
<!DOCTYPE svg PUBLIC "-//W3C//DTD SVG 1.1//EN" "http://www.w3.org/Graphics/SVG/1.1/DTD/svg11.dtd">
<svg version="1.1" id="Layer_1" xmlns="http://www.w3.org/2000/svg" xmlns:xlink="http://www.w3.org/1999/xlink" x="0px" y="0px"
	 viewBox="-124 131 50 40" style="enable-background:new -124 131 50 40;" xml:space="preserve">
<style type="text/css">
	.st0{fill:#00C4B3;}
	.st1{fill:#22D3C5;}
	.st2{fill:#0075C9;}
	.st3{fill:#00A8E1;}
</style>
<g>
	<path class="st0" d="M-109.4,142.5l-2.5-2.5v17.7l0,0.8c0,0.4,0.1,0.8,0.2,1.3l19.5,6.9l4.9-2.1l0,0L-109.4,142.5z"/>
	<path class="st1" d="M-111.6,159.9L-111.6,159.9L-111.6,159.9L-111.6,159.9z M-87.3,164.6l-4.9,2.1l-19.4-6.9
		c0.4,1.4,1.2,3,2.1,3.9l6.3,6.3l14.1,0L-87.3,164.6L-87.3,164.6z"/>
	<path class="st2" d="M-111.8,140l-7.6,11.4c-0.6,0.7-0.3,2,0.7,3.1l4.4,4.4l2.7,1c-0.1-0.5-0.2-0.9-0.2-1.3l0-0.8L-111.8,140
		L-111.8,140z"/>
	<path class="st2" d="M-92,140.3c-0.5-0.1-0.9-0.2-1.3-0.2l-0.9,0h-17.7l24.6,24.6l0,0l2.1-4.9L-92,140.3z"/>
	<path class="st3" d="M-92,140.3C-92,140.3-92,140.3-92,140.3L-92,140.3C-92,140.3-92,140.3-92,140.3z M-88.1,142.3
		c-0.9-0.9-2.5-1.7-3.9-2.1l6.9,19.5l-2.1,4.9l0,0l5.3-1.7v-14.5L-88.1,142.3z"/>
	<path class="st0" d="M-92.9,137.5l-4.4-4.4c-1-1-2.4-1.3-3.1-0.7l-11.4,7.6h17.7l0.9,0c0.4,0,0.8,0.1,1.3,0.2L-92.9,137.5z"/>
</g>
</svg>
