<?xml version="1.0" encoding="utf-8"?>
<!-- Generator: Adobe Illustrator 24.1.2, SVG Export Plug-In . SVG Version: 6.00 Build 0)  -->
<svg version="1.1" id="Layer_1" xmlns="http://www.w3.org/2000/svg" xmlns:xlink="http://www.w3.org/1999/xlink" x="0px" y="0px"
	 viewBox="0 0 500 500" style="enable-background:new 0 0 500 500;" xml:space="preserve">
<style type="text/css">
	.st0{fill:#45B6EE;}
	.st1{fill:#12577E;}
</style>
<g>
	<g>
		<path class="st0" d="M249.8,206.3c2.8-2.4,10.6-9,22.4-11.8c8.7-2,11.9-0.2,23.5-1.1c0,0,12.6-0.9,25.7-5.3
			c12.5-4.2,35.2-16.6,44.9-41.7c9.1-23.5,4.6-52.4-13.9-72.7c-26.4-28.8-64.4-21.9-66.3-21.5c-28.7,5.8-44.6,27.6-50,38.8
			c-1.9,4-5.1,13.4-6.7,25.1c-1.9,13.6,0.5,17.2-2.5,26.6c-3.9,12.1-12,19.6-15.4,22.6c-12.8,11.5-27.1,13.6-31.7,14.3
			c-3.7,0.5-4.2,0.2-10.2,0.5c-14.6,0.8-28.7,3.4-35.4,5.5c-16.3,5-32.5,20-40.2,38.4c-10.5,25.3-4.9,56.6,15.7,77.1
			c17.7,17.6,44.4,25.1,68.9,18c25.7-7.4,41.8-28.9,46-43.3c1-3.5,4.2-16.5,6.1-32.4c0.6-5.2,0.4-5,0.8-7.2
			C234.9,219.3,246.7,209,249.8,206.3z"/>
		<ellipse class="st1" cx="302.2" cy="384.8" rx="70" ry="70.6"/>
	</g>
</g>
</svg>
