<svg xmlns="http://www.w3.org/2000/svg" viewBox="0 0 500 500" style="enable-background:new 0 0 500 500" xml:space="preserve">
  <path d="M249.8 206.3c2.8-2.4 10.6-9 22.4-11.8 8.7-2 11.9-.2 23.5-1.1 0 0 12.6-.9 25.7-5.3 12.5-4.2 35.2-16.6 44.9-41.7 9.1-23.5 4.6-52.4-13.9-72.7C326 44.9 288 51.8 286.1 52.2c-28.7 5.8-44.6 27.6-50 38.8-1.9 4-5.1 13.4-6.7 25.1-1.9 13.6.5 17.2-2.5 26.6-3.9 12.1-12 19.6-15.4 22.6-12.8 11.5-27.1 13.6-31.7 14.3-3.7.5-4.2.2-10.2.5-14.6.8-28.7 3.4-35.4 5.5-16.3 5-32.5 20-40.2 38.4-10.5 25.3-4.9 56.6 15.7 77.1 17.7 17.6 44.4 25.1 68.9 18 25.7-7.4 41.8-28.9 46-43.3 1-3.5 4.2-16.5 6.1-32.4.6-5.2.4-5 .8-7.2 3.4-16.9 15.2-27.2 18.3-29.9z" style="fill:#45b6ee"/>
  <ellipse cx="302.2" cy="384.8" rx="70" ry="70.6" style="fill:#12577e"/>
</svg>
