<svg height="105" viewBox="0 0 105 105" width="105" xmlns="http://www.w3.org/2000/svg" xmlns:xlink="http://www.w3.org/1999/xlink"><linearGradient id="a" gradientUnits="userSpaceOnUse" x1="48.81" x2="56.64" y1="13.97" y2="88.19"><stop offset="0" stop-color="#fcf84a"/><stop offset=".32" stop-color="#abe682"/><stop offset=".79" stop-color="#36cdd2"/><stop offset="1" stop-color="#07c3f2"/></linearGradient><linearGradient id="b" gradientUnits="userSpaceOnUse" x1="20.1" x2="90.32" y1="15.11" y2="48.42"><stop offset="0" stop-color="#3bea62"/><stop offset="1" stop-color="#087cfa"/></linearGradient><linearGradient id="c" gradientUnits="userSpaceOnUse" x1="26.51" x2="97.21" y1="87.63" y2="38.14"><stop offset="0" stop-color="#009ae5"/><stop offset=".18" stop-color="#0490dd"/><stop offset=".49" stop-color="#1073c6"/><stop offset=".89" stop-color="#2346a1"/><stop offset="1" stop-color="#293896"/></linearGradient><g fill-rule="evenodd"><path d="m28.58 90a74.94 74.94 0 0 0 61.42-43 75 75 0 0 0 -61.42-32c-2.18 0-4.37.09-6.56.29a75 75 0 0 0 6.56 74.71z" fill="url(#a)"/><path d="m22.09 15.29a88.32 88.32 0 0 1 39.46 31.71h28.45a74.76 74.76 0 0 0 -61.34-32q-3.27 0-6.57.29z" fill="url(#b)"/><path d="m61.56 47c-3.43 22.63-32.98 43-32.98 43 26.86-2.55 50.42-18.65 61.42-43z" fill="url(#c)"/></g></svg>