<svg width="68" height="66" fill="none" xmlns="http://www.w3.org/2000/svg">
  <path fill-rule="evenodd" clip-rule="evenodd" d="m65.0396 45.1702-1.637-2.6159c-.9071.8615-2.0174 1.3537-3.1 1.3537-.4971 0-.7593-.0609-1.8419-.3378-1.0814-.3087-1.8425-.401-2.6896-.401-3.8313 0-6.3163 2.0933-6.3163 5.3252 0 2.3386 1.053 3.7856 3.217 4.3703-.8774.2157-1.8427.6775-2.2811 1.2012-.3217.3692-.4675.8607-.4675 1.4452 0 .4938.1171.9242.2919 1.2934.2043.3386.4969.6157.8483.7691.7008.2771 1.8417.4616 3.596.493.907 0 1.4625.0308 1.6672.0308 1.0822.0617 1.6372.2454 2.0471.4615.4089.2465.7014.8006.7014 1.4155 0 .6159-.3801 1.2314-.9355 1.601-.5262.3692-1.3747.5235-2.4857.5235-1.8133 0-2.8073-.6775-2.8073-1.9398 0-.5541.0585-.6775.1754-1.0157h-3.6257c-.146.3073-.3502.7384-.3502 1.6008 0 1.0776.4087 2.0005 1.2275 2.8009 1.3456 1.3238 3.5385 1.6925 5.6729 1.6925 2.3387 0 4.591-.5534 5.9062-2.0317.8182-.9233 1.1985-1.9388 1.1985-3.2619 0-1.4158-.4088-2.4933-1.2859-3.3548-1.0537-1.0165-2.2514-1.3859-4.5321-1.4163l-2.1061-.0304c-.4089 0-.6423-.1533-.6423-.3692 0-.4313.5545-.8008 1.5489-1.2927.2929.0304.4097.0304.5845.0304 3.1873 0 5.5269-1.9696 5.5269-4.6779 0-1.0469-.2924-1.8465-.8779-2.5851.4981.0609.6438.0921 1.0241.0921 1.0814 0 1.9-.3388 2.7483-1.1699Zm2.4113-15.2758c0-1.77-1.0913-3.4098-2.9471-4.7569.1674.5409.2614 1.0907.2614 1.6514 0 5.0684-7.0768 9.4049-17.1095 11.2005 1.1348.1279 2.3119.1979 3.5224.1979 8.9875 0 16.2728-3.7131 16.2728-8.2929Zm-5.7833-2.7569c0 4.8641-10.8796 8.8067-24.3006 8.8067-13.4203 0-24.2992-3.9426-24.2992-8.8067 0-1.532 1.0795-2.972 2.9776-4.2261-.2934.5378-.449 1.0942-.449 1.6644 0 4.4932 9.5689 8.1356 21.3735 8.1356 11.8049 0 21.3747-3.6424 21.3747-8.1356 0-.8496-.3448-1.67-.9804-2.441 2.7107 1.4214 4.3034 3.1445 4.3034 5.0027Zm-45.915-7.7857c-4.9019 1.1977-8.23161 3.5433-8.23161 6.2407 0 1.6698 1.27715 3.203 3.40981 4.4143-.6405-1.025-.98922-2.1034-.98922-3.2179 0-2.8056 2.17292-5.3859 5.81102-7.4371Zm47.9352-7.9082c-.4508-.5426-1.0684-.5409-1.5556-.0996-.4706.6237-.484 1.0675-.15 1.4121.3562.3684 1.0948.6858 1.6266.2637.532-.4238.53-1.0337.079-1.5762Zm-6.1746 2.0222c1.5212-2.1214 4.4313 1.6299 1.1326 2.152-1.32.2091-3.5489 1.653-4.5054 3.9321-1.3506 3.3728-.7661 5.8691-3.088 7.3706-4.9516 3.1993-20.2063 4.4065-26.7749.3023-5.149-3.217-3.3823-8.3173-18.11043-19.55761-1.92605-1.46904.35504-3.02875 1.7977-2.03046 1.44249.99942.12212 1.26476 3.03173 4.17646 5.8769 5.87891 5.8178.59361 6.7459 2.59271 1.9516 4.204 6.2568 8.4379 6.2568 8.4379 4.3116 2.8065 7.7547 3.4199 14.1146-.8834 4.0333-2.7289 2.3834 4.3403 12.2748-.7545 3.6073-1.8586 3.4573-.6263 7.1247-5.7381h-.0001ZM14.5958 8.07278c-.2492-.3508-.9901-.51225-1.4857-.01357-.4948.49865-.2514.99168.0347 1.28801.4105.42443 1.1062.38955 1.52.15893.4157-.23004.3283-.87387-.069-1.43337ZM4.3705 4.17071c.32305-.35466.73102-1.02563.03023-2.30995C3.88928.920602 2.19795.536494 1.60102.895016c-.595.359724-1.322923 1.747944-.32618 2.358814 1.28435.78819 2.12623 1.97933 3.09566.91688Zm60.9786-1.74425c-.4523-.65716-1.407-.53818-2.352.14769-.9456.68509-.7667 1.98766-.4541 2.29095.5483.53335 2.0098.17328 2.3503-.20872.8771-.98104.9078-1.57291.4558-2.22992Zm-5.4408 4.17167c1.3535-.63822 3.482 1.43626.4015 2.99349-4.4026 2.22678-4.8693 4.98948-7.6508 6.74618-4.6777 2.9545-3.2464.1193-10.7711-.9537-2.8978-.4134-3.83 2.8194-6.0922 1.8851-5.2153-2.1542-8.8579-1.7417-12.2359 1.0058-1.2227-.5393-2.5022-2.6216-3.0036-3.4565 1.3695-1.3413.8165-3.583.0431-4.8123-.7724-1.22932-1.7082-.88048-2.7354-2.01152-1.0281-1.12949.3874-4.07766 1.7039-1.81286 4.9324 8.48628 8.1706 4.95638 12.1996 4.45018 3.8666-.4855 7.2846 1.6206 8.3325-4.34494.1723-.97504 1.1221-1.20839 1.219.40408.0965 1.61361.702 5.54256 2.828 6.04966 2.1255.5064 3.8131-.4979 4.3108-1.0553.4979-.5574.7586-.4764.977.9068.2193 1.3843.7583 3.296 3.7431 1.1665 6.1046-4.35593 4.3579-6.04127 6.7305-7.16067ZM41.7637 2.61176c.0197-.69714-.2969-1.13414-.9845-1.10955-.6875.025-.934.37095-.9117 1.04384.1715 1.27368.3857 1.24324.8417 1.36088.456.11784 1.0347-.59865 1.0545-1.29517ZM17.2899 3.80889c.2994-.37753.3281-.87446-.0692-1.43454-.2489-.35043-1.4133-.59073-1.9075-.09225-.4957.49902-.0447 1.28277.3409 1.40157.7142.21999 1.0315.88551 1.6358.12522ZM58.1105 48.5248c0 1.4469-.8485 2.2466-2.3982 2.2466-1.3744 0-2.3101-.6456-2.3101-2.2466 0-1.4774.8483-2.3391 2.3396-2.3391 1.4913 0 2.3687.8617 2.3687 2.3391Zm-11.2286 8.8338c1.2878-1.5396 1.8713-3.3862 1.8713-6.0944 0-2.5547-.526-4.2777-1.7244-5.756-1.2871-1.6002-2.9531-2.3692-5.0884-2.3692-4.0346 0-6.7248 3.2923-6.7248 8.2488 0 4.9549 2.6605 8.1561 6.7248 8.1561 2.31 0 3.8013-.8308 4.9415-2.1853Zm-2.3972-6.1248c0 3.7245-.7305 5.324-2.4263 5.324-.761 0-1.6374-.4301-1.9888-1.2917-.3213-.8016-.4979-2.1559-.4979-3.9711 0-1.5698.1467-2.6776.4099-3.5088.3213-.9847 1.0815-1.6005 2.0173-1.6005.7016 0 1.3156.3078 1.696.8313.5264.7074.7898 2.0923.7898 4.2168ZM7.1938 62.0361l1.89929 2.2161c1.84271-.7386 4.15261-2.3997 4.73721-5.0157.2046-.8624.2918-1.4164.2918-4.1875V37.9243H9.9712v17.5868c0 2.309-.08761 3.1704-.4097 3.9396-.37987.8622-1.31652 1.9084-2.3677 2.5854Zm9.5922-24.1605h-.4264v21.3296h4.0933v-9.4498h5.1756V46.248h-5.1756v-4.8949h6.4615l.2508-1.8623c-3.8827-.2969-7.4113-.9218-10.3792-1.6152Zm13.6083 5.2015c.3512.6471.5549 1.3545.614 2.2474.556-.8006 1.4917-1.6317 2.2222-2.0018.3225-.1535.8481-.2456 1.2868-.2456.5845 0 .8475.0619 1.4615.3386l-1.0816 3.6317c-.3799-.2149-.7014-.3076-1.14-.3076-.8773 0-1.6669.4313-2.3981 1.3233v11.1421h-3.9178V48.6781c0-2.1237-.2341-3.724-.5556-4.6157l3.5086-.9853Z" fill="#40BE46"/>
</svg>
