<?xml version="1.0" encoding="UTF-8"?>
<svg width="390px" height="55px" viewBox="0 0 390 55" version="1.1" xmlns="http://www.w3.org/2000/svg" xmlns:xlink="http://www.w3.org/1999/xlink">
    <!-- Generator: Sketch 54.1 (76490) - https://sketchapp.com -->
    <title>logo: dart packages</title>
    <desc>Created with Sketch.</desc>
    <defs>
        <polygon id="path-1" points="0.37263235 0.358391129 25.1461 0.358391129 25.1461 38 0.37263235 38"></polygon>
        <polygon id="path-3" points="0.3026 0.358764814 21 0.358764814 21 27.2556641 0.3026 27.2556641"></polygon>
        <polygon id="path-5" points="0 0.3641 10.7979 0.3641 10.7979 33.4641 0 33.4641"></polygon>
    </defs>
    <g id="other-pages" stroke="none" stroke-width="1" fill="none" fill-rule="evenodd">
        <g id="dart-packages-op4" transform="translate(-525.000000, -102.000000)">
            <g id="logo:-dart-packages" transform="translate(525.000000, 102.000000)">
                <g id="Group-25" transform="translate(79.000000, 6.694800)">
                    <path d="M11.5786,32.4475 C15.7786,32.4475 19.1106,31.2405 21.5756,28.8265 C24.0386,26.4125 25.2706,23.0385 25.2706,18.7035 C25.2706,14.3715 24.0386,10.9975 21.5756,8.5805 C19.1106,6.1635 15.7786,4.9625 11.5786,4.9775 L5.0196,4.97736123 L5.0196,32.4615 L11.5786,32.4615 L11.5786,32.4475 Z M0.8366,0.9405 L11.5786,0.9405 C14.8946,0.8625 18.1756,1.6375 21.1066,3.1935 C23.7536,4.6375 25.9266,6.8175 27.3606,9.4705 C28.8536,12.3135 29.6046,15.4875 29.5436,18.6985 C29.5986,21.9135 28.8396,25.0895 27.3366,27.9315 C25.9046,30.5855 23.7316,32.7655 21.0826,34.2095 C18.1596,35.7605 14.8876,36.5365 11.5786,36.4625 L0.8366,36.4625 L0.8366,0.9405 Z" id="Fill-1" fill="#FFFFFF"></path>
                    <path d="M45.3394,32.4475 C46.5474,31.7375 47.5544,30.7315 48.2674,29.5245 C48.9914,28.3095 49.3684,26.9195 49.3584,25.5055 C48.4564,24.9265 47.4704,24.4915 46.4354,24.2125 C45.2404,23.8765 44.0044,23.7085 42.7624,23.7165 C40.4484,23.7165 38.7044,24.1955 37.5304,25.1535 C36.3884,26.0445 35.7334,27.4215 35.7644,28.8685 C35.7274,30.1805 36.3174,31.4335 37.3524,32.2415 C38.4954,33.1385 39.9194,33.6035 41.3714,33.5525 C42.7704,33.5565 44.1434,33.1755 45.3394,32.4475 M36.0124,36.1675 C34.6264,35.5065 33.4564,34.4645 32.6394,33.1645 C31.8344,31.8605 31.4194,30.3535 31.4454,28.8215 C31.4454,26.1415 32.4554,24.0515 34.4764,22.5495 C36.4964,21.0475 39.0434,20.2945 42.1164,20.2915 C43.5444,20.2815 44.9684,20.4485 46.3554,20.7875 C47.4064,21.0205 48.4174,21.4035 49.3584,21.9265 L49.3584,20.3895 C49.4234,18.6545 48.6934,16.9835 47.3774,15.8505 C45.9734,14.6835 44.1884,14.0745 42.3644,14.1405 C41.0014,14.1315 39.6554,14.4525 38.4434,15.0775 C37.2944,15.6605 36.3234,16.5425 35.6324,17.6305 L32.4574,15.2505 C33.4714,13.7105 34.8874,12.4765 36.5514,11.6815 C38.3504,10.8045 40.3304,10.3625 42.3314,10.3885 C45.7674,10.3885 48.4714,11.2895 50.4454,13.0915 C52.4194,14.8935 53.3964,17.3415 53.3774,20.4365 L53.3774,36.4625 L49.3584,36.4625 L49.3584,32.8415 L49.1614,32.8415 C48.3514,34.1435 47.2224,35.2185 45.8824,35.9655 C44.3924,36.8345 42.6934,37.2805 40.9684,37.2585 C39.2544,37.2895 37.5554,36.9155 36.0124,36.1675" id="Fill-3" fill="#FFFFFF"></path>
                    <path d="M84.0235,36.3635 C83.2025,36.0605 82.4505,35.5955 81.8125,34.9965 C81.1605,34.3725 80.6515,33.6155 80.3225,32.7755 C79.9665,31.7885 79.7985,30.7425 79.8265,29.6925 L79.8265,14.5945 L75.4085,14.5945 L75.4085,10.7725 L79.8265,10.7725 L79.8265,3.6285 L84.0425,3.6285 L84.0425,10.7725 L90.1925,10.7725 L90.1925,14.5945 L84.0425,14.5945 L84.0425,28.6955 C84.0425,30.1005 84.3045,31.1595 84.8335,31.8385 C85.5245,32.6105 86.5315,33.0215 87.5655,32.9535 C88.5525,32.9445 89.5165,32.6515 90.3425,32.1105 L90.3425,36.2325 C89.8575,36.4565 89.3485,36.6235 88.8245,36.7285 C88.1785,36.8405 87.5225,36.8875 86.8665,36.8745 C85.8955,36.8795 84.9325,36.7065 84.0235,36.3635 L84.0235,36.3635 Z M57.8285,11.1705 L61.8475,11.1705 L61.8475,15.1905 L62.0485,15.1905 C62.6275,13.7175 63.6965,12.4905 65.0745,11.7145 C66.4965,10.8855 68.1145,10.4575 69.7595,10.4725 C70.3745,10.4645 70.9895,10.5145 71.5955,10.6225 L71.5955,14.9415 C70.8435,14.7915 70.0765,14.7235 69.3095,14.7405 C67.3285,14.6565 65.4075,15.4365 64.0445,16.8765 C62.7045,18.3005 62.0345,20.1525 62.0345,22.4315 L62.0345,36.4855 L57.8185,36.4855 L57.8185,11.1895 L57.8285,11.1705 Z" id="Fill-5" fill="#FFFFFF"></path>
                    <path d="M120.1455,17.9587 C121.3765,17.9847 122.5905,17.6607 123.6445,17.0217 C124.6185,16.4197 125.4235,15.5827 125.9865,14.5857 C127.1105,12.6507 127.1105,10.2617 125.9865,8.3277 C125.4245,7.3317 124.6185,6.4947 123.6445,5.8957 C122.5905,5.2577 121.3765,4.9327 120.1455,4.9587 L112.2235,4.9587 L112.2235,17.9587 L120.1455,17.9587 Z M108.0785,0.9257 L120.0235,0.9257 C121.9435,0.9097 123.8375,1.3697 125.5375,2.2657 C127.1935,3.1327 128.5885,4.4267 129.5795,6.0137 C130.5975,7.6427 131.1245,9.5307 131.0975,11.4517 C131.1245,13.3727 130.5975,15.2617 129.5795,16.8907 C128.5915,18.4797 127.1955,19.7737 125.5375,20.6377 C123.8385,21.5357 121.9445,21.9977 120.0235,21.9827 L112.2235,21.9827 L112.2235,36.5037 L108.0785,36.5037 L108.0785,0.9257 Z" id="Fill-7" fill="#FFFFFF"></path>
                    <path d="M146.1299,32.4338 C147.3379,31.7218 148.3459,30.7138 149.0579,29.5058 C149.7829,28.2898 150.1609,26.8978 150.1489,25.4818 C149.2459,24.9028 148.2579,24.4678 147.2209,24.1938 C146.0259,23.8638 144.7889,23.7028 143.5489,23.7158 C141.2289,23.7158 139.4809,24.1958 138.3069,25.1538 C137.1569,26.0518 136.5029,27.4438 136.5449,28.9018 C136.5089,30.2148 137.0989,31.4678 138.1329,32.2788 C139.2799,33.1698 140.7049,33.6278 142.1569,33.5718 C143.5589,33.5728 144.9339,33.1868 146.1299,32.4568 L146.1299,32.4338 Z M136.7939,36.1808 C135.4079,35.5168 134.2369,34.4768 133.4159,33.1778 C132.6129,31.8738 132.1999,30.3678 132.2269,28.8358 C132.2269,26.1538 133.2349,24.0588 135.2519,22.5538 C137.2699,21.0488 139.8189,20.2948 142.9019,20.2908 C144.3319,20.2818 145.7569,20.4488 147.1469,20.7878 C148.1969,21.0198 149.2089,21.4048 150.1489,21.9308 L150.1489,20.3898 C150.2139,18.6518 149.4829,16.9788 148.1629,15.8458 C146.7599,14.6778 144.9749,14.0688 143.1509,14.1358 C141.7849,14.1268 140.4389,14.4488 139.2249,15.0728 C138.0749,15.6578 137.1049,16.5408 136.4139,17.6308 L133.2379,15.2468 C134.2529,13.7048 135.6679,12.4698 137.3319,11.6718 C139.1339,10.7958 141.1139,10.3528 143.1169,10.3788 C146.5529,10.3788 149.2589,11.2818 151.2349,13.0868 C153.2129,14.8918 154.1919,17.3418 154.1729,20.4368 L154.1729,36.4758 L150.1489,36.4758 L150.1489,32.8508 L149.9519,32.8508 C149.1429,34.1558 148.0149,35.2328 146.6729,35.9798 C145.1869,36.8608 143.4869,37.3178 141.7589,37.3008 C140.0389,37.3238 138.3369,36.9398 136.7939,36.1808 L136.7939,36.1808 Z" id="Fill-9" fill="#FFFFFF"></path>
                    <path d="M163.7803,35.5109 C161.8433,34.3569 160.2633,32.6909 159.2133,30.6959 C158.1003,28.5759 157.5373,26.2119 157.5733,23.8189 C157.5403,21.4169 158.1023,19.0439 159.2133,16.9139 C160.2573,14.9139 161.8393,13.2459 163.7803,12.0979 C165.7813,10.9279 168.0633,10.3269 170.3813,10.3609 C173.1333,10.3609 175.4413,10.9969 177.3093,12.2719 C179.1453,13.5039 180.5453,15.2869 181.3043,17.3639 L177.4823,18.9509 C176.9393,17.5039 175.9573,16.2619 174.6723,15.4009 C173.3273,14.5609 171.7643,14.1369 170.1793,14.1829 C168.7003,14.1799 167.2523,14.6029 166.0063,15.4009 C164.6893,16.2399 163.6203,17.4139 162.9043,18.8019 C162.1053,20.3509 161.7043,22.0749 161.7383,23.8189 C161.7043,25.5619 162.1053,27.2859 162.9043,28.8359 C163.6213,30.2229 164.6903,31.3959 166.0063,32.2369 C167.2523,33.0319 168.7013,33.4539 170.1793,33.4499 C171.8063,33.4939 173.4123,33.0629 174.7993,32.2079 C176.1023,31.3639 177.1103,30.1319 177.6793,28.6859 L181.4263,30.2739 C180.5813,32.3379 179.1373,34.1009 177.2813,35.3379 C175.2343,36.6779 172.8273,37.3629 170.3813,37.3009 C168.0573,37.3259 165.7723,36.7059 163.7803,35.5109" id="Fill-11" fill="#FFFFFF"></path>
                    <polygon id="Fill-13" fill="#FFFFFF" points="185.3711 0.926 189.5871 0.926 189.5871 23.271 201.5051 11.156 206.8681 11.156 206.8681 11.353 196.9461 21.373 207.1261 36.275 207.1261 36.472 202.1081 36.472 193.9671 24.292 189.5871 28.686 189.5871 36.481 185.3711 36.481"></polygon>
                    <path d="M222.6875,32.4338 C223.8975,31.7218 224.9065,30.7138 225.6205,29.5058 C226.3435,28.2888 226.7215,26.8978 226.7115,25.4818 C225.8065,24.9118 224.8195,24.4848 223.7835,24.2168 C222.5875,23.8778 221.3495,23.7088 220.1065,23.7158 C217.7895,23.7158 216.0425,24.1958 214.8695,25.1538 C213.7185,26.0508 213.0625,27.4428 213.1035,28.9018 C213.0675,30.2148 213.6565,31.4678 214.6915,32.2788 C215.8385,33.1688 217.2635,33.6268 218.7145,33.5718 C220.1165,33.5738 221.4915,33.1878 222.6875,32.4568 L222.6875,32.4338 Z M213.3515,36.1808 C211.9655,35.5168 210.7945,34.4768 209.9735,33.1778 C209.1755,31.8718 208.7665,30.3668 208.7925,28.8358 C208.7925,26.1538 209.8035,24.0588 211.8245,22.5538 C213.8445,21.0488 216.3935,20.2948 219.4695,20.2908 C220.8995,20.2818 222.3245,20.4488 223.7125,20.7878 C224.7665,21.0198 225.7795,21.4048 226.7205,21.9308 L226.7205,20.3898 C226.7805,18.6498 226.0435,16.9768 224.7205,15.8458 C223.3155,14.6788 221.5295,14.0698 219.7035,14.1358 C218.3395,14.1268 216.9945,14.4478 215.7825,15.0728 C214.6335,15.6578 213.6635,16.5418 212.9715,17.6308 L209.7955,15.2468 C210.8115,13.7038 212.2285,12.4678 213.8945,11.6718 C215.6965,10.7948 217.6765,10.3528 219.6795,10.3788 C223.1155,10.3788 225.8215,11.2818 227.7975,13.0868 C229.7755,14.8918 230.7525,17.3418 230.7305,20.4368 L230.7305,36.4758 L226.7115,36.4758 L226.7115,32.8508 L226.5095,32.8508 C225.7015,34.1558 224.5725,35.2328 223.2305,35.9798 C221.7405,36.8508 220.0395,37.2978 218.3125,37.2728 C216.5955,37.3038 214.8965,36.9298 213.3515,36.1808 L213.3515,36.1808 Z" id="Fill-15" fill="#FFFFFF"></path>
                    <g id="Group-19" transform="translate(234.000000, 10.000000)">
                        <mask id="mask-2" fill="white">
                            <use xlink:href="#path-1"></use>
                        </mask>
                        <g id="Clip-18"></g>
                        <path d="M16.9951,22.2932 C18.2781,21.4792 19.3101,20.3262 19.9791,18.9622 C20.7601,17.3582 21.1411,15.5922 21.0951,13.8102 C21.1431,12.0142 20.7611,10.2322 19.9791,8.6142 C19.3111,7.2632 18.2771,6.1272 16.9951,5.3352 C14.4351,3.8022 11.2401,3.8022 8.6811,5.3352 C7.3901,6.1442 6.3491,7.2972 5.6781,8.6662 C4.8951,10.2682 4.5121,12.0362 4.5581,13.8182 C4.5171,15.6012 4.9011,17.3672 5.6781,18.9722 C6.9881,21.7352 9.7911,23.4802 12.8491,23.4362 C14.3121,23.4572 15.7511,23.0612 16.9951,22.2932 M5.4761,35.9152 C3.6771,34.7002 2.3101,32.9422 1.5791,30.8982 L5.4011,29.2632 C5.9561,30.7052 6.9361,31.9432 8.2121,32.8142 C9.5801,33.7402 11.2031,34.2172 12.8541,34.1772 C15.4731,34.1772 17.4971,33.4462 18.9441,31.9892 C20.3911,30.5322 21.1031,28.4432 21.1031,25.7352 L21.1031,22.9252 L20.9071,22.9252 C20.0291,24.2602 18.8221,25.3462 17.4031,26.0782 C15.8151,26.9102 14.0431,27.3292 12.2501,27.2962 C10.1331,27.3142 8.0561,26.7202 6.2681,25.5862 C4.4251,24.4112 2.9361,22.7562 1.9631,20.7992 C0.8761,18.6352 0.3311,16.2392 0.3751,13.8182 C0.3371,11.4052 0.8821,9.0202 1.9631,6.8622 C2.9321,4.9042 4.4181,3.2472 6.2591,2.0702 C8.0551,0.9312 10.1421,0.3362 12.2681,0.3602 C14.0611,0.3272 15.8341,0.7462 17.4221,1.5782 C18.8511,2.3172 20.0591,3.4212 20.9261,4.7772 L21.1221,4.7772 L21.1221,1.1562 L25.1461,1.1562 L25.1461,25.4872 C25.1461,29.5472 24.0201,32.6512 21.7681,34.8002 C19.5171,36.9492 16.5511,38.0162 12.8681,38.0002 C9.8771,38.0002 7.4131,37.3052 5.4761,35.9152" id="Fill-17" fill="#FFFFFF" mask="url(#mask-2)"></path>
                    </g>
                    <path d="M282.873,21.1345 C282.793,20.0265 282.488,18.9455 281.978,17.9585 C281.402,16.8555 280.535,15.9305 279.473,15.2835 C278.175,14.5155 276.684,14.1365 275.177,14.1925 C273.32,14.1495 271.521,14.8315 270.159,16.0935 C268.744,17.4435 267.796,19.2095 267.452,21.1345 L282.873,21.1345 Z M269.068,35.5395 C267.155,34.3845 265.6,32.7255 264.571,30.7425 C263.476,28.6165 262.922,26.2525 262.96,23.8605 C262.936,21.5235 263.453,19.2135 264.473,17.1105 C265.432,15.1175 266.911,13.4195 268.754,12.1965 C270.675,10.9535 272.923,10.3145 275.21,10.3605 C277.477,10.2935 279.718,10.8635 281.679,12.0045 C283.497,13.0985 284.961,14.6945 285.894,16.5995 C286.901,18.6895 287.403,20.9855 287.361,23.3035 C287.368,23.7375 287.317,24.1715 287.211,24.5925 L267.181,24.5925 C267.223,26.3075 267.706,27.9845 268.586,29.4595 C269.345,30.7205 270.435,31.7525 271.738,32.4375 C272.969,33.0915 274.341,33.4315 275.734,33.4305 C278.978,33.4305 281.477,31.9085 283.229,28.8635 L286.804,30.6015 C285.772,32.5955 284.232,34.2815 282.339,35.4875 C278.234,37.8555 273.183,37.8755 269.059,35.5395 L269.068,35.5395 Z" id="Fill-20" fill="#FFFFFF"></path>
                    <g id="Group-24" transform="translate(290.000000, 10.000000)">
                        <mask id="mask-4" fill="white">
                            <use xlink:href="#path-3"></use>
                        </mask>
                        <g id="Clip-23"></g>
                        <path d="M4.1816,25.3615 C2.4186,24.1665 1.0646,22.4595 0.3026,20.4705 L4.0506,18.7845 C4.6096,20.2165 5.5896,21.4465 6.8616,22.3115 C8.0776,23.1325 9.5156,23.5655 10.9836,23.5525 C12.4026,23.5945 13.8066,23.2595 15.0536,22.5835 C16.1006,22.0665 16.7576,20.9955 16.7446,19.8295 C16.7636,18.8025 16.2566,17.8385 15.4006,17.2705 C14.5106,16.6255 13.1056,16.0685 11.1846,15.6035 L8.1076,14.8115 C6.2626,14.4055 4.5526,13.5335 3.1416,12.2775 C0.8206,10.0205 0.5546,6.3835 2.5236,3.8125 C3.4456,2.6685 4.6526,1.7865 6.0226,1.2555 C7.5216,0.6515 9.1236,0.3475 10.7396,0.3605 C12.8086,0.3255 14.8516,0.8205 16.6746,1.7985 C18.3326,2.6755 19.6396,4.0965 20.3756,5.8225 L16.6986,7.5135 C15.5746,5.2585 13.5706,4.1325 10.6886,4.1355 C9.4056,4.1085 8.1406,4.4435 7.0386,5.1005 C5.9936,5.7525 5.4556,6.5675 5.4556,7.5605 C5.4356,8.4445 5.8406,9.2845 6.5466,9.8185 C7.5316,10.5075 8.6486,10.9865 9.8266,11.2235 L13.5036,12.1605 C15.9866,12.7855 17.8606,13.7215 19.1246,14.9705 C20.3556,16.1585 21.0356,17.8045 20.9986,19.5145 C21.0256,20.9915 20.5536,22.4335 19.6596,23.6095 C18.7156,24.8215 17.4636,25.7575 16.0336,26.3165 C14.4226,26.9595 12.7026,27.2775 10.9686,27.2545 C8.2616,27.2855 5.9986,26.6545 4.1816,25.3615" id="Fill-22" fill="#FFFFFF" mask="url(#mask-4)"></path>
                    </g>
                </g>
                <g id="Group-28" transform="translate(0.000000, 8.694800)">
                    <mask id="mask-6" fill="white">
                        <use xlink:href="#path-5"></use>
                    </mask>
                    <g id="Clip-27"></g>
                    <path d="M10.7979,33.4641 L1.7429,24.4041 C0.6519,23.2831 0.0289,21.7891 -0.0001,20.2261 C0.0809,19.3771 0.3159,18.5501 0.6939,17.7851 L9.0689,0.3641 L10.7979,33.4641 Z" id="Fill-26" fill="#01579B" mask="url(#mask-6)"></path>
                </g>
                <path d="M41.8086,10.8058 L32.7486,1.7458 C31.9616,0.9548 30.3126,0.0038 28.9166,0.0038 C27.8296,-0.0332 26.7516,0.2068 25.7836,0.7018 L9.0686,9.0588 L41.8086,10.8058 Z" id="Fill-29" fill="#40C4FF"></path>
                <polygon id="Fill-31" fill="#40C4FF" points="21.6001 52.9616 43.5511 52.9616 43.5511 43.5506 27.1741 38.3266 12.1981 43.5506"></polygon>
                <path d="M9.0689,37.2829 C9.0689,40.0939 9.4209,40.7679 10.8119,42.1639 L12.2169,43.5689 L43.5699,43.5689 L28.2239,26.1379 L9.0689,9.0639 L9.0689,37.2829 Z" id="Fill-33" fill="#29B6F6"></path>
                <path d="M36.9273,9.0588 L9.0693,9.0588 L43.5603,43.5508 L52.9673,43.5508 L52.9673,21.9508 L41.8083,10.8058 C40.2443,9.2318 38.8523,9.0588 36.9273,9.0588" id="Fill-35" fill="#01579B"></path>
            </g>
        </g>
    </g>
</svg>