<svg id="Layer_1" data-name="Layer 1" xmlns="http://www.w3.org/2000/svg" xmlns:xlink="http://www.w3.org/1999/xlink" viewBox="0 0 815 644"><defs><style>.cls-1{fill:none;}.cls-2{fill:#13202f;}.cls-3{fill:#dddbdc;}.cls-10,.cls-3{opacity:0.2;}.cls-11,.cls-4{opacity:0.4;}.cls-5{clip-path:url(#clip-path);}.cls-6{filter:url(#AI_DartShadow3);}.cls-7{fill:#294058;}.cls-11,.cls-8{fill:#fff;}.cls-10,.cls-9{fill:#92b5f5;}</style><clipPath id="clip-path"><rect class="cls-1" width="815" height="644"/></clipPath><filter id="AI_DartShadow3" name="AI_DartShadow3"><feGaussianBlur result="blur" stdDeviation="10" in="SourceAlpha"/><feOffset result="offsetBlurredAlpha" dx="-7" in="blur"/><feMerge><feMergeNode in="offsetBlurredAlpha"/><feMergeNode in="SourceGraphic"/></feMerge></filter></defs><rect class="cls-2" width="815" height="644"/><path class="cls-3" d="M815,29.09v-1H780.73V0h-1V28.09h-52.1V0h-1V28.09h-52.1V0h-1V28.09h-52.1V0h-1V28.09h-52.1V0h-1V28.09h-52.1V0h-1V28.09h-52.1V0h-1V28.09H409V0h-1V28.09h-52.1V0h-1V28.09h-52.1V0h-1V28.09h-52.1V0h-1V28.09h-52.1V0h-1V28.09h-52.1V0h-1V28.09H90.43V0h-1V28.09H37.33V0h-1V28.09H0v1H36.33v52.1H0v1H36.33v52.1H0v1H36.33v52.1H0v1H36.33v52.1H0v1H36.33v52.1H0v1H36.33v52.1H0v1H36.33v52.1H0v1H36.33v52.1H0v1H36.33V506H0v1H36.33v52.1H0v1H36.33v52.1H0v1H36.33V644h1V613.19h52.1V644h1V613.19h52.1V644h1V613.19h52.1V644h1V613.19h52.1V644h1V613.19h52.1V644h1V613.19h52.1V644h1V613.19H408V644h1V613.19h52.1V644h1V613.19h52.1V644h1V613.19h52.1V644h1V613.19h52.1V644h1V613.19h52.1V644h1V613.19h52.1V644h1V613.19h52.1V644h1V613.19H815v-1H780.73v-52.1H815v-1H780.73V507H815v-1H780.73v-52.1H815v-1H780.73v-52.1H815v-1H780.73v-52.1H815v-1H780.73v-52.1H815v-1H780.73v-52.1H815v-1H780.73v-52.1H815v-1H780.73v-52.1H815v-1H780.73V82.19H815v-1H780.73V29.09Zm-88.37,0v52.1h-52.1V29.09Zm-370.7,265.5H408v52.1h-52.1Zm-1,52.1h-52.1v-52.1h52.1Zm54.1-52.1h52.1v52.1H409Zm53.1,0h52.1v52.1h-52.1Zm0-1v-52.1h52.1v52.1Zm-1,0H409v-52.1h52.1Zm-53.1,0h-52.1v-52.1H408Zm-53.1,0h-52.1v-52.1h52.1Zm-53.1,0h-52.1v-52.1h52.1Zm0,1v52.1h-52.1v-52.1Zm0,53.1v52.1h-52.1v-52.1Zm1,0h52.1v52.1h-52.1Zm53.1,0H408v52.1h-52.1Zm53.1,0h52.1v52.1H409Zm53.1,0h52.1v52.1h-52.1Zm53.1,0h52.1v52.1h-52.1Zm0-1v-52.1h52.1v52.1Zm0-53.1v-52.1h52.1v52.1Zm0-53.1v-52.1h52.1v52.1Zm-1,0h-52.1v-52.1h52.1Zm-53.1,0H409v-52.1h52.1Zm-53.1,0h-52.1v-52.1H408Zm-53.1,0h-52.1v-52.1h52.1Zm-53.1,0h-52.1v-52.1h52.1Zm-53.1,0h-52.1v-52.1h52.1Zm0,1v52.1h-52.1v-52.1Zm0,53.1v52.1h-52.1v-52.1Zm0,53.1v52.1h-52.1v-52.1Zm0,53.1v52.1h-52.1v-52.1Zm1,0h52.1v52.1h-52.1Zm53.1,0h52.1v52.1h-52.1Zm53.1,0H408v52.1h-52.1Zm53.1,0h52.1v52.1H409Zm53.1,0h52.1v52.1h-52.1Zm53.1,0h52.1v52.1h-52.1Zm53.1,0h52.1v52.1h-52.1Zm0-1v-52.1h52.1v52.1Zm0-53.1v-52.1h52.1v52.1Zm0-53.1v-52.1h52.1v52.1Zm0-53.1v-52.1h52.1v52.1Zm0-53.1v-52.1h52.1v52.1Zm-1,0h-52.1v-52.1h52.1Zm-53.1,0h-52.1v-52.1h52.1Zm-53.1,0H409v-52.1h52.1Zm-53.1,0h-52.1v-52.1H408Zm-53.1,0h-52.1v-52.1h52.1Zm-53.1,0h-52.1v-52.1h52.1Zm-53.1,0h-52.1v-52.1h52.1Zm-53.1,0h-52.1v-52.1h52.1Zm0,1v52.1h-52.1v-52.1Zm0,53.1v52.1h-52.1v-52.1Zm0,53.1v52.1h-52.1v-52.1Zm0,53.1v52.1h-52.1v-52.1Zm0,53.1v52.1h-52.1v-52.1Zm0,53.1V506h-52.1v-52.1Zm1,0h52.1V506h-52.1Zm53.1,0h52.1V506h-52.1Zm53.1,0h52.1V506h-52.1Zm53.1,0H408V506h-52.1Zm53.1,0h52.1V506H409Zm53.1,0h52.1V506h-52.1Zm53.1,0h52.1V506h-52.1Zm53.1,0h52.1V506h-52.1Zm53.1,0h52.1V506h-52.1Zm0-1v-52.1h52.1v52.1Zm0-53.1v-52.1h52.1v52.1Zm0-53.1v-52.1h52.1v52.1Zm0-53.1v-52.1h52.1v52.1Zm0-53.1v-52.1h52.1v52.1Zm0-53.1v-52.1h52.1v52.1Zm0-53.1V82.19h52.1v52.1Zm-1,0h-52.1V82.19h52.1Zm-53.1,0h-52.1V82.19h52.1Zm-53.1,0h-52.1V82.19h52.1Zm-53.1,0H409V82.19h52.1Zm-53.1,0h-52.1V82.19H408Zm-53.1,0h-52.1V82.19h52.1Zm-53.1,0h-52.1V82.19h52.1Zm-53.1,0h-52.1V82.19h52.1Zm-53.1,0h-52.1V82.19h52.1Zm-53.1,0H90.43V82.19h52.1Zm0,1v52.1H90.43v-52.1Zm0,53.1v52.1H90.43v-52.1Zm0,53.1v52.1H90.43v-52.1Zm0,53.1v52.1H90.43v-52.1Zm0,53.1v52.1H90.43v-52.1Zm0,53.1v52.1H90.43v-52.1Zm0,53.1V506H90.43v-52.1Zm0,53.1v52.1H90.43V507Zm1,0h52.1v52.1h-52.1Zm53.1,0h52.1v52.1h-52.1Zm53.1,0h52.1v52.1h-52.1Zm53.1,0h52.1v52.1h-52.1Zm53.1,0H408v52.1h-52.1Zm53.1,0h52.1v52.1H409Zm53.1,0h52.1v52.1h-52.1Zm53.1,0h52.1v52.1h-52.1Zm53.1,0h52.1v52.1h-52.1Zm53.1,0h52.1v52.1h-52.1Zm53.1,0h52.1v52.1h-52.1Zm0-1v-52.1h52.1V506Zm0-53.1v-52.1h52.1v52.1Zm0-53.1v-52.1h52.1v52.1Zm0-53.1v-52.1h52.1v52.1Zm0-53.1v-52.1h52.1v52.1Zm0-53.1v-52.1h52.1v52.1Zm0-53.1v-52.1h52.1v52.1Zm0-53.1V82.19h52.1v52.1Zm-1-105.2v52.1h-52.1V29.09Zm-53.1,0v52.1h-52.1V29.09Zm-53.1,0v52.1h-52.1V29.09Zm-53.1,0v52.1h-52.1V29.09Zm-53.1,0v52.1H409V29.09Zm-53.1,0v52.1h-52.1V29.09Zm-53.1,0v52.1h-52.1V29.09Zm-53.1,0v52.1h-52.1V29.09Zm-53.1,0v52.1h-52.1V29.09Zm-53.1,0v52.1h-52.1V29.09Zm-53.1,0v52.1H90.43V29.09Zm-105.2,0h52.1v52.1H37.33Zm0,53.1h52.1v52.1H37.33Zm0,53.1h52.1v52.1H37.33Zm0,53.1h52.1v52.1H37.33Zm0,53.1h52.1v52.1H37.33Zm0,53.1h52.1v52.1H37.33Zm0,53.1h52.1v52.1H37.33Zm0,53.1h52.1v52.1H37.33Zm0,53.1h52.1V506H37.33Zm0,53.1h52.1v52.1H37.33Zm0,105.2v-52.1h52.1v52.1Zm53.1,0v-52.1h52.1v52.1Zm53.1,0v-52.1h52.1v52.1Zm53.1,0v-52.1h52.1v52.1Zm53.1,0v-52.1h52.1v52.1Zm53.1,0v-52.1h52.1v52.1Zm53.1,0v-52.1H408v52.1Zm53.1,0v-52.1h52.1v52.1Zm53.1,0v-52.1h52.1v52.1Zm53.1,0v-52.1h52.1v52.1Zm53.1,0v-52.1h52.1v52.1Zm53.1,0v-52.1h52.1v52.1Zm53.1,0v-52.1h52.1v52.1Zm105.2,0h-52.1v-52.1h52.1Zm0-53.1h-52.1V507h52.1Zm0-53.1h-52.1v-52.1h52.1Zm0-53.1h-52.1v-52.1h52.1Zm0-53.1h-52.1v-52.1h52.1Zm0-53.1h-52.1v-52.1h52.1Zm0-53.1h-52.1v-52.1h52.1Zm0-53.1h-52.1v-52.1h52.1Zm0-53.1h-52.1v-52.1h52.1Zm0-53.1h-52.1V82.19h52.1Zm0-53.1h-52.1V29.09h52.1Z"/><g class="cls-4"><g class="cls-5"><g class="cls-6"><path class="cls-7" d="M815,644V102.69H126.76a16.42,16.42,0,0,0-16.42,16.42V644Z"/></g></g></g><path class="cls-7" d="M815,644V102.69H126.76a16.42,16.42,0,0,0-16.42,16.42V644Z"/><path class="cls-8" d="M184.72,266.79a3.32,3.32,0,0,0-.34-1.54,3.88,3.88,0,0,0-.94-1.17,6.58,6.58,0,0,0-1.42-.88,17.5,17.5,0,0,0-1.74-.72,16.43,16.43,0,0,1-2.14-.84,7.33,7.33,0,0,1-1.76-1.15,5.09,5.09,0,0,1-1.21-1.59,5,5,0,0,1-.44-2.17,5.56,5.56,0,0,1,.38-2.09,4.83,4.83,0,0,1,1.06-1.58,5.25,5.25,0,0,1,1.61-1,6.89,6.89,0,0,1,2-.49v-2.76h1.39v2.78a5.82,5.82,0,0,1,2.1.57,4.76,4.76,0,0,1,1.56,1.25,5.87,5.87,0,0,1,1,1.87,8.51,8.51,0,0,1,.37,2.4h-1.63a5.66,5.66,0,0,0-.3-1.88,4.17,4.17,0,0,0-.82-1.48,3.64,3.64,0,0,0-1.29-1,4.08,4.08,0,0,0-1.71-.35,5.22,5.22,0,0,0-1.61.24,3.85,3.85,0,0,0-1.3.73,3.38,3.38,0,0,0-.87,1.17,4,4,0,0,0-.33,1.59,3.51,3.51,0,0,0,.34,1.58,3.56,3.56,0,0,0,.93,1.16,6,6,0,0,0,1.42.88q.83.38,1.8.72a20.05,20.05,0,0,1,2.15.85,7.34,7.34,0,0,1,1.75,1.14,5,5,0,0,1,1.18,1.58,4.83,4.83,0,0,1,.44,2.15,5.14,5.14,0,0,1-.4,2.1,4.82,4.82,0,0,1-1.1,1.58,5.55,5.55,0,0,1-1.65,1,7.48,7.48,0,0,1-2.06.48v2.59h-1.4V272a7.91,7.91,0,0,1-2.2-.47,5.51,5.51,0,0,1-1.81-1.12,5.25,5.25,0,0,1-1.24-1.82A6.88,6.88,0,0,1,174,266h1.64a5.15,5.15,0,0,0,.41,2.07,4.24,4.24,0,0,0,1,1.42,4,4,0,0,0,1.49.82,5.74,5.74,0,0,0,1.77.25,5.45,5.45,0,0,0,1.67-.25,4.08,4.08,0,0,0,1.39-.72,3.67,3.67,0,0,0,1-1.18A3.55,3.55,0,0,0,184.72,266.79Z"/><path class="cls-8" d="M205.94,264.17a11.05,11.05,0,0,1,.36-2.84,7.73,7.73,0,0,1,1.11-2.41,5.4,5.4,0,0,1,1.83-1.66,5.1,5.1,0,0,1,2.59-.63,5.21,5.21,0,0,1,2.52.6,5.58,5.58,0,0,1,1.87,1.69V250.7h1.62v21h-1.53l-.07-1.93a5.27,5.27,0,0,1-1.91,1.64,5.69,5.69,0,0,1-2.53.56,5.06,5.06,0,0,1-2.56-.63,5.67,5.67,0,0,1-1.83-1.68,7.73,7.73,0,0,1-1.11-2.41,10.91,10.91,0,0,1-.36-2.8Zm1.65.28a10.16,10.16,0,0,0,.24,2.2,6.48,6.48,0,0,0,.77,2A4.26,4.26,0,0,0,210,270a3.94,3.94,0,0,0,2.1.53,4.68,4.68,0,0,0,1.32-.18,4.27,4.27,0,0,0,2.09-1.32,4.37,4.37,0,0,0,.71-1.06v-7.16a5.48,5.48,0,0,0-.68-1.12,4.78,4.78,0,0,0-.92-.88,4.57,4.57,0,0,0-1.15-.57,4.23,4.23,0,0,0-1.34-.21,3.82,3.82,0,0,0-2.12.55,4.35,4.35,0,0,0-1.4,1.4,6.29,6.29,0,0,0-.78,2,10.39,10.39,0,0,0-.24,2.21Z"/><path class="cls-8" d="M232.7,271.7a5.65,5.65,0,0,1-.23-1c-.05-.37-.09-.75-.11-1.13a6.32,6.32,0,0,1-1,.95,6.47,6.47,0,0,1-1.23.76,6.55,6.55,0,0,1-1.43.51,6.94,6.94,0,0,1-1.6.18,6.05,6.05,0,0,1-1.93-.3,4.7,4.7,0,0,1-1.56-.85,3.9,3.9,0,0,1-1-1.31,4,4,0,0,1-.37-1.73,3.9,3.9,0,0,1,.56-2.16,4.29,4.29,0,0,1,1.51-1.45,7.3,7.3,0,0,1,2.22-.81,13.28,13.28,0,0,1,2.64-.26h3.2v-1.68A3.39,3.39,0,0,0,232,260a3.2,3.2,0,0,0-.86-1.07,3.86,3.86,0,0,0-1.28-.65,6,6,0,0,0-1.62-.22,5.35,5.35,0,0,0-1.51.21,4.24,4.24,0,0,0-1.27.59,3.19,3.19,0,0,0-.9.93,2.54,2.54,0,0,0-.37,1.25h-1.64a3.74,3.74,0,0,1,.5-1.74,4.73,4.73,0,0,1,1.24-1.37,6,6,0,0,1,1.81-.91,7.2,7.2,0,0,1,2.21-.33,7.92,7.92,0,0,1,2.21.3,5.31,5.31,0,0,1,1.79.91,4.43,4.43,0,0,1,1.2,1.5,4.79,4.79,0,0,1,.46,2.11v7.16a8.41,8.41,0,0,0,.13,1.49,12.63,12.63,0,0,0,.32,1.44v.16Zm-5.4-1.18a6,6,0,0,0,1.65-.2,6.18,6.18,0,0,0,1.44-.61,5,5,0,0,0,1.16-.93,4.17,4.17,0,0,0,.8-1.18v-3.24h-3a12.71,12.71,0,0,0-2.08.16,6.34,6.34,0,0,0-1.77.54,3.28,3.28,0,0,0-1.22,1,2.63,2.63,0,0,0-.46,1.57,2.47,2.47,0,0,0,.28,1.2,2.7,2.7,0,0,0,.73.91,3.49,3.49,0,0,0,1.1.58A4.54,4.54,0,0,0,227.3,270.52Z"/><path class="cls-8" d="M248.42,256.63a10.16,10.16,0,0,1,1.23.08,5.62,5.62,0,0,1,1,.21l-.21,1.57c-.38-.08-.76-.14-1.15-.19a11.14,11.14,0,0,0-1.17-.07,6.11,6.11,0,0,0-3.53,1,5.29,5.29,0,0,0-2,3l0,9.46h-1.7V256.91h1.57l.11,2.57v.3a6.64,6.64,0,0,1,2.4-2.31A6.88,6.88,0,0,1,248.42,256.63Z"/><path class="cls-8" d="M260.19,253.12v3.79h5.48v1.34h-5.48v9.31a3.68,3.68,0,0,0,.27,1.43,2.42,2.42,0,0,0,.68.91,2.66,2.66,0,0,0,1,.5,5.08,5.08,0,0,0,1.27.15,11.33,11.33,0,0,0,1.4-.09c.48-.07.89-.13,1.22-.2l.25,1.25a6.6,6.6,0,0,1-1.44.35,13.93,13.93,0,0,1-1.72.11,6.57,6.57,0,0,1-1.82-.24,3.87,3.87,0,0,1-1.45-.76,3.66,3.66,0,0,1-1-1.37,5.38,5.38,0,0,1-.37-2.06v-9.29h-4.11v-1.34h4.11v-3.79Z"/><path class="cls-8" d="M292.94,270.59a5.1,5.1,0,0,0,1.57-.24,4.26,4.26,0,0,0,1.32-.69,3.71,3.71,0,0,0,.93-1.08,3.31,3.31,0,0,0,.42-1.45h1.57a4.27,4.27,0,0,1-.54,1.94,5.17,5.17,0,0,1-1.29,1.54,6,6,0,0,1-1.82,1,6.44,6.44,0,0,1-2.16.36,6.18,6.18,0,0,1-2.83-.61,5.94,5.94,0,0,1-2-1.64,7.31,7.31,0,0,1-1.2-2.36,9.48,9.48,0,0,1-.41-2.77V264a9.48,9.48,0,0,1,.41-2.77,7.21,7.21,0,0,1,1.2-2.36,5.94,5.94,0,0,1,2-1.64,6.14,6.14,0,0,1,2.82-.62,6.5,6.5,0,0,1,2.28.39,5.53,5.53,0,0,1,1.81,1.1,5.1,5.1,0,0,1,1.23,1.67,5.41,5.41,0,0,1,.5,2.11h-1.57a4,4,0,0,0-.38-1.55,4.25,4.25,0,0,0-.9-1.23,4.42,4.42,0,0,0-1.32-.81,4.69,4.69,0,0,0-1.65-.28,4.28,4.28,0,0,0-2.19.52,4.33,4.33,0,0,0-1.49,1.36,6.11,6.11,0,0,0-.84,1.93,8.86,8.86,0,0,0-.27,2.18v.57a9,9,0,0,0,.27,2.2,6,6,0,0,0,.84,1.92,4.26,4.26,0,0,0,3.69,1.88Z"/><path class="cls-8" d="M302.2,264.08a9.25,9.25,0,0,1,.46-2.85,7.13,7.13,0,0,1,1.29-2.37,6.27,6.27,0,0,1,2.07-1.63,6.72,6.72,0,0,1,5.55,0,6.48,6.48,0,0,1,2.07,1.63,7.15,7.15,0,0,1,1.3,2.37,9.25,9.25,0,0,1,.46,2.85v.46a9.55,9.55,0,0,1-.45,2.85,7.22,7.22,0,0,1-1.3,2.38,6.28,6.28,0,0,1-2.06,1.61,6.35,6.35,0,0,1-7.63-1.61,7.22,7.22,0,0,1-1.3-2.38,9.25,9.25,0,0,1-.46-2.85Zm1.64.46a7.72,7.72,0,0,0,.33,2.26,5.86,5.86,0,0,0,.95,1.94,4.9,4.9,0,0,0,1.55,1.35,4.81,4.81,0,0,0,4.27,0,4.76,4.76,0,0,0,1.54-1.35,5.86,5.86,0,0,0,.95-1.94,7.72,7.72,0,0,0,.33-2.26v-.46a7.76,7.76,0,0,0-.33-2.25,6.05,6.05,0,0,0-.95-1.94,4.83,4.83,0,0,0-1.56-1.35,4.7,4.7,0,0,0-4.26,0,4.66,4.66,0,0,0-1.54,1.35,6.05,6.05,0,0,0-.95,1.94,7.76,7.76,0,0,0-.33,2.25Z"/><path class="cls-8" d="M319.2,256.91l0,1.65a3.78,3.78,0,0,1,1.24-1.39,3.59,3.59,0,0,1,2-.54,3.73,3.73,0,0,1,1.11.15,2.52,2.52,0,0,1,.84.4,2.57,2.57,0,0,1,.61.62,3.63,3.63,0,0,1,.39.79,4.05,4.05,0,0,1,1.28-1.39,3.6,3.6,0,0,1,2-.57,3.48,3.48,0,0,1,1.6.33,2.91,2.91,0,0,1,1,.89,3.84,3.84,0,0,1,.57,1.3,7.1,7.1,0,0,1,.17,1.56l0,11h-1.53v-11a4.47,4.47,0,0,0-.1-1,2.41,2.41,0,0,0-.33-.86,1.75,1.75,0,0,0-.67-.62,2.4,2.4,0,0,0-1.1-.22,3.24,3.24,0,0,0-1.16.22,2.47,2.47,0,0,0-.78.54,2.72,2.72,0,0,0-.48.73,5,5,0,0,0-.25.81V271.7h-1.53l0-11.14a4.7,4.7,0,0,0-.09-.92,2.44,2.44,0,0,0-.34-.81,1.85,1.85,0,0,0-.66-.57,2.42,2.42,0,0,0-1.08-.21,3.06,3.06,0,0,0-1.12.21,2.31,2.31,0,0,0-.76.51,2.45,2.45,0,0,0-.49.74,5.26,5.26,0,0,0-.3.87V271.7h-1.55V256.91Z"/><path class="cls-8" d="M347.21,264.45a10.91,10.91,0,0,1-.35,2.8,7.43,7.43,0,0,1-1.06,2.41,5.81,5.81,0,0,1-1.81,1.68,5.13,5.13,0,0,1-2.6.63,6,6,0,0,1-2.53-.53,5.11,5.11,0,0,1-1.93-1.55v7.5h-1.64V256.91h1.53l.07,2a5.63,5.63,0,0,1,1.91-1.7,5.4,5.4,0,0,1,2.56-.6,5.25,5.25,0,0,1,2.63.63,5.33,5.33,0,0,1,1.81,1.66,7.43,7.43,0,0,1,1.06,2.41,11.05,11.05,0,0,1,.35,2.84Zm-1.64-.28a10.39,10.39,0,0,0-.24-2.21,6.32,6.32,0,0,0-.8-2,4.29,4.29,0,0,0-1.41-1.4,3.88,3.88,0,0,0-2.13-.55,4.41,4.41,0,0,0-1.33.2,4.17,4.17,0,0,0-1.14.56,4.4,4.4,0,0,0-.91.87,4.94,4.94,0,0,0-.68,1.1v7.32a4.38,4.38,0,0,0,1.64,1.82,4.48,4.48,0,0,0,2.45.67,3.83,3.83,0,0,0,2.11-.55,4.32,4.32,0,0,0,1.41-1.41,6.51,6.51,0,0,0,.79-2,10.32,10.32,0,0,0,.24-2.21Z"/><path class="cls-8" d="M351.73,256.91h6.87v13.34h5v1.45h-11.9v-1.45H357V258.37h-5.23Zm4.75-4.05a1.35,1.35,0,0,1,.29-.88,1.43,1.43,0,0,1,1.9,0,1.36,1.36,0,0,1,.3.88,1.27,1.27,0,0,1-.3.84,1.43,1.43,0,0,1-1.9,0A1.26,1.26,0,0,1,356.48,252.86Z"/><path class="cls-8" d="M367.84,250.7h6.89v19.55h5v1.45H367.84v-1.45h5.25V252.16h-5.25Z"/><path class="cls-8" d="M389.87,272a6.79,6.79,0,0,1-2.81-.57,6.49,6.49,0,0,1-2.18-1.56,6.92,6.92,0,0,1-1.41-2.3,8,8,0,0,1-.51-2.81v-.59a8.35,8.35,0,0,1,.52-2.95,7.6,7.6,0,0,1,1.4-2.38,6.56,6.56,0,0,1,2.1-1.6,5.94,5.94,0,0,1,2.58-.58,6,6,0,0,1,2.61.54,5.51,5.51,0,0,1,1.91,1.45,6.62,6.62,0,0,1,1.17,2.16,8.67,8.67,0,0,1,.42,2.63v1H384.6v.32A6.91,6.91,0,0,0,385,267a6,6,0,0,0,1.08,1.86,5.5,5.5,0,0,0,1.68,1.3,5,5,0,0,0,2.19.48,5.73,5.73,0,0,0,2.48-.5,5.18,5.18,0,0,0,1.88-1.51l1,.78a5.68,5.68,0,0,1-1,1.06,6,6,0,0,1-1.25.83,6.89,6.89,0,0,1-1.51.53A7.55,7.55,0,0,1,389.87,272ZM389.56,258a4.37,4.37,0,0,0-1.83.37,4.5,4.5,0,0,0-1.47,1.05,5.6,5.6,0,0,0-1,1.58,6.65,6.65,0,0,0-.56,2H394v-.18a6,6,0,0,0-.33-1.78,4.87,4.87,0,0,0-.88-1.54,4.24,4.24,0,0,0-1.39-1.08A4,4,0,0,0,389.56,258Z"/><path class="cls-8" d="M422.08,272a6.83,6.83,0,0,1-2.82-.57,6.69,6.69,0,0,1-2.18-1.56,7.27,7.27,0,0,1-1.41-2.3,8.19,8.19,0,0,1-.51-2.81v-.59a8.59,8.59,0,0,1,.53-2.95,7.6,7.6,0,0,1,1.4-2.38,6.52,6.52,0,0,1,2.09-1.6,5.94,5.94,0,0,1,2.58-.58,6,6,0,0,1,2.62.54,5.47,5.47,0,0,1,1.9,1.45,6.46,6.46,0,0,1,1.18,2.16,8.67,8.67,0,0,1,.42,2.63v1H416.8v.32a6.66,6.66,0,0,0,.4,2.22,5.65,5.65,0,0,0,1.08,1.86,5.27,5.27,0,0,0,1.68,1.3,5,5,0,0,0,2.19.48,5.68,5.68,0,0,0,2.47-.5,5.21,5.21,0,0,0,1.89-1.51l1,.78a6.46,6.46,0,0,1-1,1.06,6.32,6.32,0,0,1-1.25.83,7.08,7.08,0,0,1-1.51.53A7.55,7.55,0,0,1,422.08,272ZM421.76,258a4.44,4.44,0,0,0-1.83.37,4.57,4.57,0,0,0-1.46,1.05,5.63,5.63,0,0,0-1,1.58,7.29,7.29,0,0,0-.56,2h9.37v-.18a5.68,5.68,0,0,0-.34-1.78,4.85,4.85,0,0,0-.87-1.54,4.34,4.34,0,0,0-1.39-1.08A4.06,4.06,0,0,0,421.76,258Z"/><path class="cls-8" d="M437.76,263l4.59-6h2l-5.63,7.26,5.85,7.53h-1.94l-4.82-6.3L433,271.7h-2l5.86-7.53-5.64-7.26h2Z"/><path class="cls-8" d="M454.29,272a6.8,6.8,0,0,1-2.82-.57,6.49,6.49,0,0,1-2.18-1.56,6.92,6.92,0,0,1-1.41-2.3,8.19,8.19,0,0,1-.51-2.81v-.59a8.58,8.58,0,0,1,.52-2.95,7.79,7.79,0,0,1,1.4-2.38,6.56,6.56,0,0,1,2.1-1.6,6.29,6.29,0,0,1,5.19,0,5.51,5.51,0,0,1,1.91,1.45,6.64,6.64,0,0,1,1.18,2.16,9,9,0,0,1,.41,2.63v1H449v.32a6.91,6.91,0,0,0,.39,2.22,6,6,0,0,0,1.08,1.86,5.42,5.42,0,0,0,1.69,1.3,4.88,4.88,0,0,0,2.18.48,5.73,5.73,0,0,0,2.48-.5,5.1,5.1,0,0,0,1.88-1.51l1,.78a5.68,5.68,0,0,1-1,1.06,6,6,0,0,1-1.25.83,6.89,6.89,0,0,1-1.51.53A7.46,7.46,0,0,1,454.29,272ZM454,258a4.36,4.36,0,0,0-3.29,1.42,5.63,5.63,0,0,0-1,1.58,7,7,0,0,0-.56,2h9.36v-.18a6,6,0,0,0-.33-1.78,4.87,4.87,0,0,0-.88-1.54,4.24,4.24,0,0,0-1.39-1.08A4,4,0,0,0,454,258Z"/><path class="cls-8" d="M481.81,259.76a6.4,6.4,0,0,1,2.08-2.27,5.47,5.47,0,0,1,3-.86A5.73,5.73,0,0,1,489,257a4,4,0,0,1,1.57,1.09,4.89,4.89,0,0,1,1,1.77,7.87,7.87,0,0,1,.33,2.38v9.45h-1.64v-9.45a6.36,6.36,0,0,0-.23-1.76,3.49,3.49,0,0,0-.71-1.32,3,3,0,0,0-1.18-.83,4.45,4.45,0,0,0-1.67-.29,4.66,4.66,0,0,0-1.49.25,5,5,0,0,0-1.31.68,5.55,5.55,0,0,0-1.07,1,5.35,5.35,0,0,0-.78,1.3V271.7h-1.64v-21h1.64Z"/><path class="cls-8" d="M502.59,272a6.75,6.75,0,0,1-2.81-.57,6.49,6.49,0,0,1-2.18-1.56,6.92,6.92,0,0,1-1.41-2.3,8,8,0,0,1-.52-2.81v-.59a8.59,8.59,0,0,1,.53-2.95,7.6,7.6,0,0,1,1.4-2.38,6.63,6.63,0,0,1,2.09-1.6,6.32,6.32,0,0,1,5.2,0,5.51,5.51,0,0,1,1.91,1.45,6.62,6.62,0,0,1,1.17,2.16,8.67,8.67,0,0,1,.42,2.63v1H497.32v.32a6.65,6.65,0,0,0,.39,2.22,6,6,0,0,0,1.08,1.86,5.5,5.5,0,0,0,1.68,1.3,5,5,0,0,0,2.19.48,5.73,5.73,0,0,0,2.48-.5,5.26,5.26,0,0,0,1.88-1.51l1,.78a6,6,0,0,1-2.22,1.89,6.89,6.89,0,0,1-1.51.53A7.55,7.55,0,0,1,502.59,272ZM502.28,258a4.37,4.37,0,0,0-1.83.37,4.5,4.5,0,0,0-1.47,1.05,5.86,5.86,0,0,0-1,1.58,7.29,7.29,0,0,0-.56,2h9.37v-.18a5.68,5.68,0,0,0-.34-1.78,4.66,4.66,0,0,0-.87-1.54,4.24,4.24,0,0,0-1.39-1.08A4.05,4.05,0,0,0,502.28,258Z"/><path class="cls-8" d="M512.76,250.7h6.89v19.55h5v1.45h-11.9v-1.45H518V252.16h-5.25Z"/><path class="cls-8" d="M528.87,250.7h6.89v19.55h5v1.45H528.87v-1.45h5.25V252.16h-5.25Z"/><path class="cls-8" d="M543.74,264.08a9.25,9.25,0,0,1,.46-2.85,7.13,7.13,0,0,1,1.29-2.37,6.27,6.27,0,0,1,2.07-1.63,6.72,6.72,0,0,1,5.55,0,6.38,6.38,0,0,1,2.07,1.63,7,7,0,0,1,1.3,2.37,9.25,9.25,0,0,1,.46,2.85v.46a9.55,9.55,0,0,1-.45,2.85,7.22,7.22,0,0,1-1.3,2.38,6.28,6.28,0,0,1-2.06,1.61,6.84,6.84,0,0,1-5.56,0,6.43,6.43,0,0,1-2.07-1.61,7.41,7.41,0,0,1-1.3-2.38,9.25,9.25,0,0,1-.46-2.85Zm1.64.46a7.72,7.72,0,0,0,.33,2.26,5.86,5.86,0,0,0,.95,1.94,4.9,4.9,0,0,0,1.55,1.35,4.48,4.48,0,0,0,2.14.5,4.41,4.41,0,0,0,2.13-.5,4.79,4.79,0,0,0,1.55-1.35,6.27,6.27,0,0,0,1-1.94,8.07,8.07,0,0,0,.32-2.26v-.46a8.1,8.1,0,0,0-.32-2.25,6.29,6.29,0,0,0-1-1.94,4.83,4.83,0,0,0-1.56-1.35,4.7,4.7,0,0,0-4.26,0,4.76,4.76,0,0,0-1.54,1.35,6.05,6.05,0,0,0-.95,1.94,7.76,7.76,0,0,0-.33,2.25Z"/><path class="cls-8" d="M565.46,270.54a1.38,1.38,0,0,1,.37-1,1.33,1.33,0,0,1,1-.4,1.32,1.32,0,0,1,1.41,1.38,1.29,1.29,0,0,1-.37.95,1.42,1.42,0,0,1-1,.37,1.39,1.39,0,0,1-1-.37A1.29,1.29,0,0,1,565.46,270.54Z"/><path class="cls-8" d="M576.3,264.17a10.63,10.63,0,0,1,.37-2.84,7.49,7.49,0,0,1,1.1-2.41,5.49,5.49,0,0,1,1.83-1.66,5.12,5.12,0,0,1,2.59-.63,5.21,5.21,0,0,1,2.52.6,5.4,5.4,0,0,1,1.87,1.69V250.7h1.63v21h-1.54l-.06-1.93a5.3,5.3,0,0,1-1.92,1.64,5.66,5.66,0,0,1-2.53.56,5.06,5.06,0,0,1-2.56-.63,5.77,5.77,0,0,1-1.83-1.68,7.49,7.49,0,0,1-1.1-2.41,10.5,10.5,0,0,1-.37-2.8Zm1.65.28a10.16,10.16,0,0,0,.24,2.2,6.48,6.48,0,0,0,.77,2,4.26,4.26,0,0,0,1.4,1.4,3.94,3.94,0,0,0,2.1.53,4.68,4.68,0,0,0,1.32-.18,4.12,4.12,0,0,0,1.15-.51,4.3,4.3,0,0,0,1-.81,4.64,4.64,0,0,0,.7-1.06v-7.16a5.07,5.07,0,0,0-.68-1.12,4.51,4.51,0,0,0-.92-.88,4.57,4.57,0,0,0-1.15-.57,4.23,4.23,0,0,0-1.34-.21,3.84,3.84,0,0,0-2.12.55A4.35,4.35,0,0,0,579,260a6.29,6.29,0,0,0-.78,2,10.39,10.39,0,0,0-.24,2.21Z"/><path class="cls-8" d="M603.06,271.7a6.69,6.69,0,0,1-.23-1c-.05-.37-.09-.75-.11-1.13a6.32,6.32,0,0,1-1,.95,6.17,6.17,0,0,1-1.23.76,6.46,6.46,0,0,1-1.42.51,7,7,0,0,1-1.6.18,6.07,6.07,0,0,1-1.94-.3,4.9,4.9,0,0,1-1.56-.85,4,4,0,0,1-1-1.31,4,4,0,0,1-.37-1.73,3.9,3.9,0,0,1,.56-2.16,4.23,4.23,0,0,1,1.52-1.45,7.14,7.14,0,0,1,2.21-.81,13.28,13.28,0,0,1,2.64-.26h3.2v-1.68a3.39,3.39,0,0,0-.33-1.47,3.18,3.18,0,0,0-.85-1.07,3.91,3.91,0,0,0-1.29-.65,6,6,0,0,0-1.62-.22,5.35,5.35,0,0,0-1.51.21,4.24,4.24,0,0,0-1.27.59,3.19,3.19,0,0,0-.9.93,2.65,2.65,0,0,0-.37,1.25h-1.64a3.86,3.86,0,0,1,.5-1.74,4.73,4.73,0,0,1,1.24-1.37,6,6,0,0,1,1.81-.91,7.25,7.25,0,0,1,2.21-.33,7.92,7.92,0,0,1,2.21.3,5.22,5.22,0,0,1,1.79.91,4.31,4.31,0,0,1,1.2,1.5,4.79,4.79,0,0,1,.46,2.11v7.16a8.41,8.41,0,0,0,.13,1.49c.09.5.19,1,.32,1.44v.16Zm-5.4-1.18a5.93,5.93,0,0,0,1.65-.2,5.83,5.83,0,0,0,1.44-.61,5.33,5.33,0,0,0,1.17-.93,4.36,4.36,0,0,0,.79-1.18v-3.24h-3a12.8,12.8,0,0,0-2.08.16,6.37,6.37,0,0,0-1.76.54,3.32,3.32,0,0,0-1.23,1,2.63,2.63,0,0,0-.45,1.57,2.59,2.59,0,0,0,.27,1.2,2.73,2.73,0,0,0,.74.91,3.44,3.44,0,0,0,1.09.58A4.54,4.54,0,0,0,597.66,270.52Z"/><path class="cls-8" d="M618.79,256.63a10.16,10.16,0,0,1,1.23.08,5.33,5.33,0,0,1,1,.21l-.2,1.57c-.39-.08-.77-.14-1.15-.19a11.5,11.5,0,0,0-1.18-.07,6.13,6.13,0,0,0-3.53,1,5.23,5.23,0,0,0-2,3v9.46h-1.69V256.91h1.57l.11,2.57v.3a6.61,6.61,0,0,1,2.39-2.31A6.89,6.89,0,0,1,618.79,256.63Z"/><path class="cls-8" d="M630.55,253.12v3.79H636v1.34h-5.49v9.31a3.68,3.68,0,0,0,.27,1.43,2.53,2.53,0,0,0,.68.91,2.7,2.7,0,0,0,1,.5,5,5,0,0,0,1.26.15,11.21,11.21,0,0,0,1.4-.09c.48-.07.89-.13,1.23-.2l.24,1.25a6.65,6.65,0,0,1-1.43.35,14.1,14.1,0,0,1-1.73.11,6.62,6.62,0,0,1-1.82-.24,3.83,3.83,0,0,1-1.44-.76,3.68,3.68,0,0,1-1-1.37,5.39,5.39,0,0,1-.36-2.06v-9.29h-4.12v-1.34h4.12v-3.79Z"/><path class="cls-8" d="M184.72,309.79a3.32,3.32,0,0,0-.34-1.54,3.88,3.88,0,0,0-.94-1.17,6.58,6.58,0,0,0-1.42-.88,17.5,17.5,0,0,0-1.74-.72,16.43,16.43,0,0,1-2.14-.84,7.33,7.33,0,0,1-1.76-1.15,5.09,5.09,0,0,1-1.21-1.59,5,5,0,0,1-.44-2.17,5.56,5.56,0,0,1,.38-2.09,4.83,4.83,0,0,1,1.06-1.58,5.25,5.25,0,0,1,1.61-1,6.89,6.89,0,0,1,2-.49v-2.76h1.39v2.78a5.82,5.82,0,0,1,2.1.57,4.76,4.76,0,0,1,1.56,1.25,5.87,5.87,0,0,1,1,1.87,8.51,8.51,0,0,1,.37,2.4h-1.63a5.66,5.66,0,0,0-.3-1.88,4.17,4.17,0,0,0-.82-1.48,3.64,3.64,0,0,0-1.29-1,4.08,4.08,0,0,0-1.71-.35,5.22,5.22,0,0,0-1.61.24,3.85,3.85,0,0,0-1.3.73,3.38,3.38,0,0,0-.87,1.17,4,4,0,0,0-.33,1.59,3.51,3.51,0,0,0,.34,1.58,3.56,3.56,0,0,0,.93,1.16,6,6,0,0,0,1.42.88q.83.38,1.8.72a20.05,20.05,0,0,1,2.15.85,7.34,7.34,0,0,1,1.75,1.14,5,5,0,0,1,1.18,1.58,4.83,4.83,0,0,1,.44,2.15,5.14,5.14,0,0,1-.4,2.1,4.82,4.82,0,0,1-1.1,1.58,5.55,5.55,0,0,1-1.65,1,7.48,7.48,0,0,1-2.06.48v2.59h-1.4V315a7.91,7.91,0,0,1-2.2-.47,5.51,5.51,0,0,1-1.81-1.12,5.25,5.25,0,0,1-1.24-1.82A6.88,6.88,0,0,1,174,309h1.64a5.15,5.15,0,0,0,.41,2.07,4.24,4.24,0,0,0,1,1.42,4,4,0,0,0,1.49.82,5.74,5.74,0,0,0,1.77.25,5.45,5.45,0,0,0,1.67-.25,4.08,4.08,0,0,0,1.39-.72,3.67,3.67,0,0,0,1-1.18A3.55,3.55,0,0,0,184.72,309.79Z"/><path class="cls-8" d="M211.88,296.12v3.79h5.49v1.34h-5.49v9.31a3.68,3.68,0,0,0,.27,1.43,2.53,2.53,0,0,0,.68.91,2.74,2.74,0,0,0,1,.5,5.08,5.08,0,0,0,1.27.15,11.33,11.33,0,0,0,1.4-.09c.48-.07.89-.13,1.22-.2l.25,1.25a6.6,6.6,0,0,1-1.44.35,13.81,13.81,0,0,1-1.72.11,6.62,6.62,0,0,1-1.82-.24,3.87,3.87,0,0,1-1.45-.76,3.66,3.66,0,0,1-1-1.37,5.58,5.58,0,0,1-.37-2.06v-9.29H206.1v-1.34h4.11v-3.79Z"/><path class="cls-8" d="M222.91,299.91h6.87v13.34h5v1.45h-11.9v-1.45h5.23V301.37h-5.23Zm4.75-4.05a1.4,1.4,0,0,1,.28-.88,1.17,1.17,0,0,1,1-.36,1.15,1.15,0,0,1,.95.36,1.36,1.36,0,0,1,.3.88,1.27,1.27,0,0,1-.3.84,1.15,1.15,0,0,1-.95.36,1.17,1.17,0,0,1-1-.36A1.31,1.31,0,0,1,227.66,295.86Z"/><path class="cls-8" d="M238.69,299.91l0,1.65a3.7,3.7,0,0,1,1.24-1.39,3.57,3.57,0,0,1,2-.54,3.77,3.77,0,0,1,1.11.15,2.72,2.72,0,0,1,.84.4,2.36,2.36,0,0,1,.6.62,3.26,3.26,0,0,1,.4.79,4,4,0,0,1,1.28-1.39,3.6,3.6,0,0,1,2-.57,3.51,3.51,0,0,1,1.6.33,2.91,2.91,0,0,1,1,.89,3.64,3.64,0,0,1,.56,1.3,6.55,6.55,0,0,1,.17,1.56v11h-1.53v-11a5.21,5.21,0,0,0-.1-1,2.42,2.42,0,0,0-.34-.86,1.68,1.68,0,0,0-.67-.62,2.34,2.34,0,0,0-1.1-.22,3.18,3.18,0,0,0-1.15.22,2.26,2.26,0,0,0-.78.54,2.5,2.5,0,0,0-.48.73,4.19,4.19,0,0,0-.25.81l0,11.35h-1.53V303.56a4.05,4.05,0,0,0-.1-.92,2.23,2.23,0,0,0-.33-.81,1.85,1.85,0,0,0-.66-.57,2.48,2.48,0,0,0-1.08-.21,3.06,3.06,0,0,0-1.12.21,2.31,2.31,0,0,0-.76.51,2.68,2.68,0,0,0-.5.74,5.22,5.22,0,0,0-.29.87V314.7h-1.55V299.91Z"/><path class="cls-8" d="M261.05,315a6.75,6.75,0,0,1-2.81-.57,6.63,6.63,0,0,1-2.19-1.56,7.07,7.07,0,0,1-1.4-2.3,8,8,0,0,1-.52-2.81v-.59a8.59,8.59,0,0,1,.53-2.95,7.6,7.6,0,0,1,1.4-2.38,6.52,6.52,0,0,1,2.09-1.6,6.32,6.32,0,0,1,5.2,0,5.51,5.51,0,0,1,1.91,1.45,6.62,6.62,0,0,1,1.17,2.16,8.67,8.67,0,0,1,.42,2.63v1H255.77v.32a6.92,6.92,0,0,0,.4,2.22,6,6,0,0,0,1.08,1.86,5.5,5.5,0,0,0,1.68,1.3,5,5,0,0,0,2.19.48,5.65,5.65,0,0,0,2.47-.5,5.21,5.21,0,0,0,1.89-1.51l1,.78a6,6,0,0,1-2.22,1.89,7.08,7.08,0,0,1-1.51.53A7.55,7.55,0,0,1,261.05,315ZM260.74,301a4.37,4.37,0,0,0-1.83.37,4.5,4.5,0,0,0-1.47,1.05,5.86,5.86,0,0,0-1,1.58,7.29,7.29,0,0,0-.56,2h9.37v-.18a5.68,5.68,0,0,0-.34-1.78,4.66,4.66,0,0,0-.87-1.54,4.24,4.24,0,0,0-1.39-1.08A4.05,4.05,0,0,0,260.74,301Z"/><path class="cls-8" d="M291.71,313.54a1.38,1.38,0,0,1,.38-1,1.32,1.32,0,0,1,1-.4,1.34,1.34,0,0,1,1,.4,1.38,1.38,0,0,1,.38,1,1.3,1.3,0,0,1-.38.95,1.4,1.4,0,0,1-1,.37,1.38,1.38,0,0,1-1-.37A1.3,1.3,0,0,1,291.71,313.54Z"/><path class="cls-8" d="M305.75,316.41h-1.53l8.31-21.62h1.53Z"/><path class="cls-8" d="M320.79,302.76a6.31,6.31,0,0,1,2.08-2.27,5.41,5.41,0,0,1,3-.86A5.82,5.82,0,0,1,328,300a4.15,4.15,0,0,1,1.57,1.09,5,5,0,0,1,1,1.77,7.87,7.87,0,0,1,.33,2.38v9.45h-1.64v-9.45a6,6,0,0,0-.23-1.76,3.62,3.62,0,0,0-.7-1.32,3.08,3.08,0,0,0-1.19-.83,4.44,4.44,0,0,0-1.66-.29,4.61,4.61,0,0,0-1.49.25,4.86,4.86,0,0,0-1.32.68,5.55,5.55,0,0,0-1.07,1,5.64,5.64,0,0,0-.77,1.3V314.7h-1.64v-21h1.64Z"/><path class="cls-8" d="M341.57,315a6.83,6.83,0,0,1-2.82-.57,6.49,6.49,0,0,1-2.18-1.56,6.92,6.92,0,0,1-1.41-2.3,8.19,8.19,0,0,1-.51-2.81v-.59a8.58,8.58,0,0,1,.52-2.95,7.62,7.62,0,0,1,1.41-2.38,6.52,6.52,0,0,1,2.09-1.6,6.29,6.29,0,0,1,5.19,0,5.51,5.51,0,0,1,1.91,1.45,6.64,6.64,0,0,1,1.18,2.16,9,9,0,0,1,.41,2.63v1H336.29v.32a6.91,6.91,0,0,0,.39,2.22,6,6,0,0,0,1.08,1.86,5.42,5.42,0,0,0,1.69,1.3,4.88,4.88,0,0,0,2.18.48,5.73,5.73,0,0,0,2.48-.5,5.21,5.21,0,0,0,1.89-1.51l1,.78a5.68,5.68,0,0,1-1,1.06,6,6,0,0,1-1.25.83,6.89,6.89,0,0,1-1.51.53A7.46,7.46,0,0,1,341.57,315ZM341.25,301a4.4,4.4,0,0,0-1.83.37,4.46,4.46,0,0,0-1.46,1.05,5.63,5.63,0,0,0-1,1.58,7,7,0,0,0-.56,2h9.36v-.18a6,6,0,0,0-.33-1.78,4.87,4.87,0,0,0-.88-1.54,4.24,4.24,0,0,0-1.39-1.08A4,4,0,0,0,341.25,301Z"/><path class="cls-8" d="M351.73,293.7h6.89v19.55h5v1.45h-11.9v-1.45H357V295.16h-5.25Z"/><path class="cls-8" d="M367.84,293.7h6.89v19.55h5v1.45H367.84v-1.45h5.25V295.16h-5.25Z"/><path class="cls-8" d="M382.71,307.08a9.25,9.25,0,0,1,.46-2.85,7.34,7.34,0,0,1,1.3-2.37,6.29,6.29,0,0,1,9.68,0,7,7,0,0,1,1.3,2.37,9.25,9.25,0,0,1,.47,2.85v.46a9.56,9.56,0,0,1-.46,2.85,7.39,7.39,0,0,1-1.29,2.38,6.43,6.43,0,0,1-2.07,1.61,6.16,6.16,0,0,1-2.77.59,6.28,6.28,0,0,1-2.79-.59,6.43,6.43,0,0,1-2.07-1.61,7.6,7.6,0,0,1-1.3-2.38,9.25,9.25,0,0,1-.46-2.85Zm1.64.46a7.72,7.72,0,0,0,.33,2.26,6.07,6.07,0,0,0,1,1.94,4.69,4.69,0,0,0,1.55,1.35,4.45,4.45,0,0,0,2.14.5,4.4,4.4,0,0,0,2.12-.5,4.79,4.79,0,0,0,1.55-1.35,6.27,6.27,0,0,0,.95-1.94,7.72,7.72,0,0,0,.33-2.26v-.46a7.76,7.76,0,0,0-.33-2.25,6.29,6.29,0,0,0-1-1.94,4.83,4.83,0,0,0-1.56-1.35,4.7,4.7,0,0,0-4.26,0,4.76,4.76,0,0,0-1.54,1.35,6.27,6.27,0,0,0-.95,1.94,7.76,7.76,0,0,0-.33,2.25Z"/><path class="cls-8" d="M404.43,313.54a1.38,1.38,0,0,1,.38-1,1.32,1.32,0,0,1,1-.4,1.34,1.34,0,0,1,1,.4,1.38,1.38,0,0,1,.37,1,1.29,1.29,0,0,1-.37.95,1.4,1.4,0,0,1-1,.37,1.38,1.38,0,0,1-1-.37A1.3,1.3,0,0,1,404.43,313.54Z"/><path class="cls-8" d="M422.08,315a6.83,6.83,0,0,1-2.82-.57,6.69,6.69,0,0,1-2.18-1.56,7.27,7.27,0,0,1-1.41-2.3,8.19,8.19,0,0,1-.51-2.81v-.59a8.59,8.59,0,0,1,.53-2.95,7.6,7.6,0,0,1,1.4-2.38,6.52,6.52,0,0,1,2.09-1.6,5.94,5.94,0,0,1,2.58-.58,6,6,0,0,1,2.62.54,5.47,5.47,0,0,1,1.9,1.45,6.46,6.46,0,0,1,1.18,2.16,8.67,8.67,0,0,1,.42,2.63v1H416.8v.32a6.66,6.66,0,0,0,.4,2.22,5.65,5.65,0,0,0,1.08,1.86,5.27,5.27,0,0,0,1.68,1.3,5,5,0,0,0,2.19.48,5.68,5.68,0,0,0,2.47-.5,5.21,5.21,0,0,0,1.89-1.51l1,.78a6.46,6.46,0,0,1-1,1.06,6.32,6.32,0,0,1-1.25.83,7.08,7.08,0,0,1-1.51.53A7.55,7.55,0,0,1,422.08,315ZM421.76,301a4.44,4.44,0,0,0-1.83.37,4.57,4.57,0,0,0-1.46,1.05,5.63,5.63,0,0,0-1,1.58,7.29,7.29,0,0,0-.56,2h9.37v-.18a5.68,5.68,0,0,0-.34-1.78,4.85,4.85,0,0,0-.87-1.54,4.34,4.34,0,0,0-1.39-1.08A4.06,4.06,0,0,0,421.76,301Z"/><path class="cls-8" d="M437.76,306l4.59-6h2l-5.63,7.26,5.85,7.53h-1.94l-4.82-6.3L433,314.7h-2l5.86-7.53-5.64-7.26h2Z"/><path class="cls-8" d="M454.29,315a6.8,6.8,0,0,1-2.82-.57,6.49,6.49,0,0,1-2.18-1.56,6.92,6.92,0,0,1-1.41-2.3,8.19,8.19,0,0,1-.51-2.81v-.59a8.58,8.58,0,0,1,.52-2.95,7.79,7.79,0,0,1,1.4-2.38,6.56,6.56,0,0,1,2.1-1.6,6.29,6.29,0,0,1,5.19,0,5.51,5.51,0,0,1,1.91,1.45,6.64,6.64,0,0,1,1.18,2.16,9,9,0,0,1,.41,2.63v1H449v.32a6.91,6.91,0,0,0,.39,2.22,6,6,0,0,0,1.08,1.86,5.42,5.42,0,0,0,1.69,1.3,4.88,4.88,0,0,0,2.18.48,5.73,5.73,0,0,0,2.48-.5,5.1,5.1,0,0,0,1.88-1.51l1,.78a5.68,5.68,0,0,1-1,1.06,6,6,0,0,1-1.25.83,6.89,6.89,0,0,1-1.51.53A7.46,7.46,0,0,1,454.29,315ZM454,301a4.36,4.36,0,0,0-3.29,1.42,5.63,5.63,0,0,0-1,1.58,7,7,0,0,0-.56,2h9.36v-.18a6,6,0,0,0-.33-1.78,4.87,4.87,0,0,0-.88-1.54,4.24,4.24,0,0,0-1.39-1.08A4,4,0,0,0,454,301Z"/><path class="cls-8" d="M186.2,357.7h-1.55v-9.54H175.3v9.54h-1.54V337.79h1.54v8.94h9.35v-8.94h1.55Z"/><path class="cls-8" d="M196.64,358a6.83,6.83,0,0,1-2.82-.57,6.69,6.69,0,0,1-2.18-1.56,7.07,7.07,0,0,1-1.4-2.3,8,8,0,0,1-.52-2.81v-.59a8.59,8.59,0,0,1,.53-2.95,7.6,7.6,0,0,1,1.4-2.38,6.52,6.52,0,0,1,2.09-1.6,6.32,6.32,0,0,1,5.2,0,5.47,5.47,0,0,1,1.9,1.45,6.46,6.46,0,0,1,1.18,2.16,8.67,8.67,0,0,1,.42,2.63v1H191.36v.32a6.66,6.66,0,0,0,.4,2.22,5.82,5.82,0,0,0,1.08,1.86,5.38,5.38,0,0,0,1.68,1.3,5,5,0,0,0,2.19.48,5.65,5.65,0,0,0,2.47-.5,5.21,5.21,0,0,0,1.89-1.51l1,.78a6,6,0,0,1-1,1.06,6.32,6.32,0,0,1-1.25.83,7.08,7.08,0,0,1-1.51.53A7.55,7.55,0,0,1,196.64,358ZM196.33,344a4.45,4.45,0,0,0-1.84.37,4.57,4.57,0,0,0-1.46,1.05,5.86,5.86,0,0,0-1,1.58,7.29,7.29,0,0,0-.56,2h9.37v-.18a5.68,5.68,0,0,0-.34-1.78,4.85,4.85,0,0,0-.87-1.54,4.24,4.24,0,0,0-1.39-1.08A4.05,4.05,0,0,0,196.33,344Z"/><path class="cls-8" d="M206.81,336.7h6.89v19.55h5v1.45h-11.9v-1.45h5.25V338.16h-5.25Z"/><path class="cls-8" d="M222.91,336.7h6.89v19.55h5v1.45h-11.9v-1.45h5.25V338.16h-5.25Z"/><path class="cls-8" d="M237.79,350.08a9,9,0,0,1,.46-2.85,7.13,7.13,0,0,1,1.29-2.37,6.27,6.27,0,0,1,2.07-1.63,6.17,6.17,0,0,1,2.77-.6,6.27,6.27,0,0,1,2.78.6,6.48,6.48,0,0,1,2.07,1.63,7.15,7.15,0,0,1,1.3,2.37,9.25,9.25,0,0,1,.46,2.85v.46a9.25,9.25,0,0,1-.46,2.85,7,7,0,0,1-1.29,2.38,6.28,6.28,0,0,1-2.06,1.61,6.35,6.35,0,0,1-7.63-1.61,7.22,7.22,0,0,1-1.3-2.38,9,9,0,0,1-.46-2.85Zm1.64.46a8.07,8.07,0,0,0,.32,2.26,6.07,6.07,0,0,0,1,1.94,4.9,4.9,0,0,0,1.55,1.35,4.81,4.81,0,0,0,4.27,0,4.76,4.76,0,0,0,1.54-1.35,6.05,6.05,0,0,0,1-1.94,7.72,7.72,0,0,0,.33-2.26v-.46a7.76,7.76,0,0,0-.33-2.25,6.27,6.27,0,0,0-1-1.94,4.83,4.83,0,0,0-1.56-1.35,4.36,4.36,0,0,0-2.13-.51,4.3,4.3,0,0,0-2.13.51,4.79,4.79,0,0,0-1.55,1.35,6.5,6.5,0,0,0-.95,1.94,8.1,8.1,0,0,0-.32,2.25Z"/><path class="cls-8" d="M260.31,357.22a5.44,5.44,0,0,1-.13,1.2,6.3,6.3,0,0,1-.37,1.19,5.53,5.53,0,0,1-.59,1.13,6,6,0,0,1-.82,1l-1-.65a6.49,6.49,0,0,0,1.2-3.82v-2.13h1.75Z"/><path class="cls-8" d="M286.72,357.7V337.79h4.82a8.1,8.1,0,0,1,3.41.75,7.84,7.84,0,0,1,2.55,1.95,8.42,8.42,0,0,1,1.58,2.83,11.15,11.15,0,0,1,.58,3.46v2a11.14,11.14,0,0,1-.58,3.45A8.47,8.47,0,0,1,297.5,355,7.68,7.68,0,0,1,295,357a8.25,8.25,0,0,1-3.41.74Zm1.64-18.51v17.13h3.18a6.22,6.22,0,0,0,2.8-.66,6,6,0,0,0,2-1.67,7.3,7.3,0,0,0,1.22-2.41,10,10,0,0,0,.44-2.85v-2a9.9,9.9,0,0,0-.44-2.83,7.3,7.3,0,0,0-1.22-2.39,6.09,6.09,0,0,0-2-1.67,6.35,6.35,0,0,0-2.8-.65Z"/><path class="cls-8" d="M309.36,358a6.83,6.83,0,0,1-2.82-.57,6.69,6.69,0,0,1-2.18-1.56,7.07,7.07,0,0,1-1.4-2.3,8,8,0,0,1-.52-2.81v-.59a8.59,8.59,0,0,1,.53-2.95,7.6,7.6,0,0,1,1.4-2.38,6.52,6.52,0,0,1,2.09-1.6,6,6,0,0,1,2.59-.58,6,6,0,0,1,2.61.54,5.47,5.47,0,0,1,1.9,1.45,6.46,6.46,0,0,1,1.18,2.16,8.67,8.67,0,0,1,.42,2.63v1H304.08v.32a6.66,6.66,0,0,0,.4,2.22,5.65,5.65,0,0,0,1.08,1.86,5.27,5.27,0,0,0,1.68,1.3,5,5,0,0,0,2.19.48,5.65,5.65,0,0,0,2.47-.5,5.21,5.21,0,0,0,1.89-1.51l1,.78a6,6,0,0,1-1,1.06,6.32,6.32,0,0,1-1.25.83,7.08,7.08,0,0,1-1.51.53A7.55,7.55,0,0,1,309.36,358ZM309.05,344a4.45,4.45,0,0,0-1.84.37,4.57,4.57,0,0,0-1.46,1.05,5.86,5.86,0,0,0-1,1.58,7.29,7.29,0,0,0-.56,2h9.37v-.18a5.68,5.68,0,0,0-.34-1.78,4.85,4.85,0,0,0-.87-1.54,4.24,4.24,0,0,0-1.39-1.08A4.05,4.05,0,0,0,309.05,344Z"/><path class="cls-8" d="M324.82,355.48l.07.29.08-.29,5.09-12.57h1.71l-6.23,14.79h-1.33L318,342.91h1.71Z"/><path class="cls-8" d="M341.57,358a6.83,6.83,0,0,1-2.82-.57,6.49,6.49,0,0,1-2.18-1.56,6.92,6.92,0,0,1-1.41-2.3,8.19,8.19,0,0,1-.51-2.81v-.59a8.58,8.58,0,0,1,.52-2.95,7.62,7.62,0,0,1,1.41-2.38,6.52,6.52,0,0,1,2.09-1.6,6.29,6.29,0,0,1,5.19,0,5.51,5.51,0,0,1,1.91,1.45,6.64,6.64,0,0,1,1.18,2.16,9,9,0,0,1,.41,2.63v1H336.29v.32a6.91,6.91,0,0,0,.39,2.22,6,6,0,0,0,1.08,1.86,5.42,5.42,0,0,0,1.69,1.3,4.88,4.88,0,0,0,2.18.48,5.73,5.73,0,0,0,2.48-.5,5.21,5.21,0,0,0,1.89-1.51l1,.78a5.68,5.68,0,0,1-1,1.06,6,6,0,0,1-1.25.83,6.89,6.89,0,0,1-1.51.53A7.46,7.46,0,0,1,341.57,358ZM341.25,344a4.4,4.4,0,0,0-1.83.37,4.46,4.46,0,0,0-1.46,1.05,5.63,5.63,0,0,0-1,1.58,7,7,0,0,0-.56,2h9.36v-.18a6,6,0,0,0-.33-1.78,4.87,4.87,0,0,0-.88-1.54,4.24,4.24,0,0,0-1.39-1.08A4,4,0,0,0,341.25,344Z"/><path class="cls-8" d="M351.73,336.7h6.89v19.55h5v1.45h-11.9v-1.45H357V338.16h-5.25Z"/><path class="cls-8" d="M366.61,350.08a9.25,9.25,0,0,1,.46-2.85,7.13,7.13,0,0,1,1.29-2.37,6.27,6.27,0,0,1,2.07-1.63,6.72,6.72,0,0,1,5.55,0,6.38,6.38,0,0,1,2.07,1.63,7,7,0,0,1,1.3,2.37,9.25,9.25,0,0,1,.46,2.85v.46a9.55,9.55,0,0,1-.45,2.85,7.22,7.22,0,0,1-1.3,2.38,6.28,6.28,0,0,1-2.06,1.61,6.84,6.84,0,0,1-5.56,0,6.43,6.43,0,0,1-2.07-1.61,7.41,7.41,0,0,1-1.3-2.38,9.25,9.25,0,0,1-.46-2.85Zm1.64.46a7.72,7.72,0,0,0,.33,2.26,5.86,5.86,0,0,0,.95,1.94,4.9,4.9,0,0,0,1.55,1.35,4.48,4.48,0,0,0,2.14.5,4.41,4.41,0,0,0,2.13-.5,4.79,4.79,0,0,0,1.55-1.35,6.27,6.27,0,0,0,1-1.94,8.07,8.07,0,0,0,.32-2.26v-.46a8.1,8.1,0,0,0-.32-2.25,6.29,6.29,0,0,0-1-1.94,4.83,4.83,0,0,0-1.56-1.35,4.7,4.7,0,0,0-4.26,0,4.76,4.76,0,0,0-1.54,1.35,6.05,6.05,0,0,0-.95,1.94,7.76,7.76,0,0,0-.33,2.25Z"/><path class="cls-8" d="M395.52,350.45a11.37,11.37,0,0,1-.35,2.8,7.65,7.65,0,0,1-1.06,2.41,5.74,5.74,0,0,1-1.82,1.68,5.1,5.1,0,0,1-2.59.63,6,6,0,0,1-2.53-.53,5.11,5.11,0,0,1-1.93-1.55v7.5H383.6V342.91h1.53l.07,2a5.63,5.63,0,0,1,1.91-1.7,5.4,5.4,0,0,1,2.56-.6,5.19,5.19,0,0,1,2.62.63,5.27,5.27,0,0,1,1.82,1.66,7.43,7.43,0,0,1,1.06,2.41,11.51,11.51,0,0,1,.35,2.84Zm-1.64-.28a9.79,9.79,0,0,0-.25-2.21,6.07,6.07,0,0,0-.79-2,4.38,4.38,0,0,0-1.41-1.4,3.88,3.88,0,0,0-2.13-.55,4.41,4.41,0,0,0-1.33.2,4,4,0,0,0-1.14.56,4.17,4.17,0,0,0-.91.87,4.94,4.94,0,0,0-.68,1.1v7.32a4.38,4.38,0,0,0,1.64,1.82,4.48,4.48,0,0,0,2.45.67,3.83,3.83,0,0,0,2.11-.55,4.32,4.32,0,0,0,1.41-1.41,6.25,6.25,0,0,0,.78-2,9.73,9.73,0,0,0,.25-2.21Z"/><path class="cls-8" d="M406,358a6.83,6.83,0,0,1-2.82-.57,6.59,6.59,0,0,1-2.18-1.56,6.92,6.92,0,0,1-1.41-2.3,8.19,8.19,0,0,1-.51-2.81v-.59a8.58,8.58,0,0,1,.52-2.95,7.62,7.62,0,0,1,1.41-2.38,6.52,6.52,0,0,1,2.09-1.6,6.29,6.29,0,0,1,5.19,0,5.42,5.42,0,0,1,1.91,1.45,6.46,6.46,0,0,1,1.18,2.16,9,9,0,0,1,.41,2.63v1H400.7v.32a6.66,6.66,0,0,0,.4,2.22,5.65,5.65,0,0,0,1.08,1.86,5.27,5.27,0,0,0,1.68,1.3,4.88,4.88,0,0,0,2.18.48,5.7,5.7,0,0,0,2.48-.5,5.21,5.21,0,0,0,1.89-1.51l1,.78a6.11,6.11,0,0,1-1,1.06,6,6,0,0,1-1.25.83,6.89,6.89,0,0,1-1.51.53A7.4,7.4,0,0,1,406,358ZM405.66,344a4.36,4.36,0,0,0-3.29,1.42,5.63,5.63,0,0,0-1,1.58,7,7,0,0,0-.56,2h9.36v-.18a6,6,0,0,0-.33-1.78,4.87,4.87,0,0,0-.88-1.54,4.3,4.3,0,0,0-1.38-1.08A4.09,4.09,0,0,0,405.66,344Z"/><path class="cls-8" d="M425.55,342.63a10.16,10.16,0,0,1,1.23.08,5.62,5.62,0,0,1,1,.21l-.21,1.57c-.38-.08-.76-.14-1.15-.19a11.14,11.14,0,0,0-1.17-.07,6.11,6.11,0,0,0-3.53,1,5.29,5.29,0,0,0-2,3l0,9.46H418V342.91h1.57l.11,2.57v.3a6.64,6.64,0,0,1,2.4-2.31A6.88,6.88,0,0,1,425.55,342.63Z"/><path class="cls-8" d="M436.25,356.71a1.15,1.15,0,0,1,.32-.81,1.11,1.11,0,0,1,.85-.33,1.14,1.14,0,0,1,.86.33,1.12,1.12,0,0,1,.33.81,1,1,0,0,1-.33.78,1.16,1.16,0,0,1-.86.32,1.11,1.11,0,0,1-.85-.32A1,1,0,0,1,436.25,356.71Zm1.92-5h-1.64v-14h1.64Z"/><path class="cls-8" d="M180.91,435.37H176v8.33h-1.62V423.79H180a8.06,8.06,0,0,1,2.48.43,6,6,0,0,1,2,1.14,5.25,5.25,0,0,1,1.36,1.82,5.75,5.75,0,0,1,.5,2.48,5.56,5.56,0,0,1-.29,1.82,5.34,5.34,0,0,1-.82,1.48,5.72,5.72,0,0,1-1.23,1.17,8.27,8.27,0,0,1-1.58.86l4.54,8.53v.18h-1.71ZM176,434h4.33a5,5,0,0,0,1.74-.35,4.54,4.54,0,0,0,1.4-.9,4.21,4.21,0,0,0,.93-1.36,4.83,4.83,0,0,0,0-3.61,4,4,0,0,0-1-1.39,4.57,4.57,0,0,0-1.51-.86,6.25,6.25,0,0,0-1.86-.33h-4Z"/><path class="cls-8" d="M196.64,444a6.83,6.83,0,0,1-2.82-.57,6.69,6.69,0,0,1-2.18-1.56,7.07,7.07,0,0,1-1.4-2.3,8,8,0,0,1-.52-2.81v-.59a8.59,8.59,0,0,1,.53-2.95,7.6,7.6,0,0,1,1.4-2.38,6.52,6.52,0,0,1,2.09-1.6,6.32,6.32,0,0,1,5.2,0,5.47,5.47,0,0,1,1.9,1.45,6.46,6.46,0,0,1,1.18,2.16,8.67,8.67,0,0,1,.42,2.63v1H191.36v.32a6.66,6.66,0,0,0,.4,2.22,5.82,5.82,0,0,0,1.08,1.86,5.38,5.38,0,0,0,1.68,1.3,5,5,0,0,0,2.19.48,5.65,5.65,0,0,0,2.47-.5,5.21,5.21,0,0,0,1.89-1.51l1,.78a6,6,0,0,1-1,1.06,6.32,6.32,0,0,1-1.25.83,7.08,7.08,0,0,1-1.51.53A7.55,7.55,0,0,1,196.64,444ZM196.33,430a4.45,4.45,0,0,0-1.84.37,4.57,4.57,0,0,0-1.46,1.05,5.86,5.86,0,0,0-1,1.58,7.29,7.29,0,0,0-.56,2h9.37v-.18a5.68,5.68,0,0,0-.34-1.78,4.85,4.85,0,0,0-.87-1.54,4.24,4.24,0,0,0-1.39-1.08A4.05,4.05,0,0,0,196.33,430Z"/><path class="cls-8" d="M216.6,443.7a5.65,5.65,0,0,1-.23-1,10.54,10.54,0,0,1-.11-1.13,6.39,6.39,0,0,1-1,.95,6.09,6.09,0,0,1-1.22.76,6.55,6.55,0,0,1-1.43.51,6.94,6.94,0,0,1-1.6.18,6,6,0,0,1-1.93-.3,4.7,4.7,0,0,1-1.56-.85,3.9,3.9,0,0,1-1-1.31,4.3,4.3,0,0,1,.18-3.89,4.32,4.32,0,0,1,1.52-1.45,7.3,7.3,0,0,1,2.22-.81,13.11,13.11,0,0,1,2.63-.26h3.2v-1.68a3.53,3.53,0,0,0-.32-1.47,3.2,3.2,0,0,0-.86-1.07,4,4,0,0,0-1.28-.65,6,6,0,0,0-1.62-.22,5.3,5.3,0,0,0-1.51.21,4.3,4.3,0,0,0-1.28.59,3.15,3.15,0,0,0-.89.93,2.54,2.54,0,0,0-.37,1.25h-1.64a3.74,3.74,0,0,1,.5-1.74,4.59,4.59,0,0,1,1.24-1.37A5.92,5.92,0,0,1,210,429a7.14,7.14,0,0,1,2.2-.33,7.87,7.87,0,0,1,2.21.3,5.13,5.13,0,0,1,1.79.91,4.34,4.34,0,0,1,1.21,1.5,4.79,4.79,0,0,1,.45,2.11v7.16a9.47,9.47,0,0,0,.13,1.49q.13.75.33,1.44v.16Zm-5.4-1.18a6,6,0,0,0,1.65-.2,6.18,6.18,0,0,0,1.44-.61,5.27,5.27,0,0,0,1.16-.93,4.14,4.14,0,0,0,.79-1.18v-3.24h-3a12.59,12.59,0,0,0-2.07.16,6.34,6.34,0,0,0-1.77.54,3.2,3.2,0,0,0-1.22,1,2.86,2.86,0,0,0-.19,2.77,2.85,2.85,0,0,0,.74.91,3.49,3.49,0,0,0,1.1.58A4.5,4.5,0,0,0,211.2,442.52Z"/><path class="cls-8" d="M222.91,422.7h6.89v19.55h5v1.45h-11.9v-1.45h5.25V424.16h-5.25Z"/><path class="cls-8" d="M258.28,435.82a12.85,12.85,0,0,1-.37,3.16,7.81,7.81,0,0,1-1.13,2.59,6,6,0,0,1-7.54,1.75,5.78,5.78,0,0,1-2-1.75,8,8,0,0,1-1.15-2.59,13.34,13.34,0,0,1-.39-3.16v-4.14a13.32,13.32,0,0,1,.39-3.15,7.59,7.59,0,0,1,1.14-2.6,5.52,5.52,0,0,1,1.95-1.77,5.58,5.58,0,0,1,2.78-.65,5.49,5.49,0,0,1,4.76,2.41,8,8,0,0,1,1.14,2.6,12.49,12.49,0,0,1,.38,3.16Zm-10.9.25c0,.38,0,.73,0,1.07l9-8.14a8.11,8.11,0,0,0-.54-1.62,4.26,4.26,0,0,0-.88-1.3,4,4,0,0,0-1.28-.87,4.5,4.5,0,0,0-1.71-.31,4.15,4.15,0,0,0-2.15.53,4.28,4.28,0,0,0-1.43,1.44,6.53,6.53,0,0,0-.79,2.08,12.21,12.21,0,0,0-.25,2.46Zm9.26-4.66a8.7,8.7,0,0,0,0-.89l-8.94,8.12a6.94,6.94,0,0,0,.56,1.57,4.42,4.42,0,0,0,.89,1.25,3.85,3.85,0,0,0,1.25.83,4.36,4.36,0,0,0,1.67.3,4.07,4.07,0,0,0,2.16-.54,4.25,4.25,0,0,0,1.42-1.44,6.52,6.52,0,0,0,.78-2.08,11.53,11.53,0,0,0,.25-2.46Z"/><path class="cls-8" d="M262.38,428.91l0,1.65a3.7,3.7,0,0,1,1.24-1.39,3.57,3.57,0,0,1,2-.54,3.73,3.73,0,0,1,1.11.15,2.72,2.72,0,0,1,.84.4,2.36,2.36,0,0,1,.6.62,3.26,3.26,0,0,1,.4.79,4.05,4.05,0,0,1,1.28-1.39,3.6,3.6,0,0,1,2-.57,3.48,3.48,0,0,1,1.6.33,2.91,2.91,0,0,1,1,.89,3.64,3.64,0,0,1,.56,1.3,6.54,6.54,0,0,1,.18,1.56l0,11h-1.53v-11a5.21,5.21,0,0,0-.1-1,2.41,2.41,0,0,0-.33-.86,1.82,1.82,0,0,0-.67-.62,2.4,2.4,0,0,0-1.1-.22,3.19,3.19,0,0,0-1.16.22,2.47,2.47,0,0,0-.78.54,2.72,2.72,0,0,0-.48.73,4.19,4.19,0,0,0-.25.81V443.7h-1.54V432.56a4.7,4.7,0,0,0-.09-.92,2.44,2.44,0,0,0-.34-.81,1.85,1.85,0,0,0-.66-.57,2.48,2.48,0,0,0-1.08-.21,3.06,3.06,0,0,0-1.12.21,2.31,2.31,0,0,0-.76.51,2.68,2.68,0,0,0-.5.74,5.22,5.22,0,0,0-.29.87V443.7H260.9V428.91Z"/><path class="cls-8" d="M290.49,435.82a13.35,13.35,0,0,1-.37,3.16,8,8,0,0,1-1.14,2.59,5.71,5.71,0,0,1-1.94,1.75,5.8,5.8,0,0,1-7.55-1.75,7.84,7.84,0,0,1-1.15-2.59,13.34,13.34,0,0,1-.39-3.16v-4.14a13.86,13.86,0,0,1,.38-3.15,8,8,0,0,1,1.14-2.6,5.69,5.69,0,0,1,1.95-1.77,5.61,5.61,0,0,1,2.79-.65,5.69,5.69,0,0,1,2.81.65,5.58,5.58,0,0,1,2,1.76,8,8,0,0,1,1.14,2.6,13,13,0,0,1,.38,3.16Zm-10.9.25c0,.38,0,.73,0,1.07l9-8.14a7.5,7.5,0,0,0-.53-1.62,4.45,4.45,0,0,0-.88-1.3,4.09,4.09,0,0,0-1.28-.87,4.5,4.5,0,0,0-1.71-.31,4.13,4.13,0,0,0-2.15.53,4.19,4.19,0,0,0-1.43,1.44,6.3,6.3,0,0,0-.79,2.08,11.53,11.53,0,0,0-.25,2.46Zm9.26-4.66a8.69,8.69,0,0,0-.05-.89l-8.94,8.12a8.07,8.07,0,0,0,.56,1.57,4.62,4.62,0,0,0,.89,1.25,4,4,0,0,0,1.26.83,4.33,4.33,0,0,0,1.67.3,4,4,0,0,0,2.15-.54,4.17,4.17,0,0,0,1.42-1.44,6.53,6.53,0,0,0,.79-2.08,12.21,12.21,0,0,0,.25-2.46Z"/><path class="cls-8" d="M299.3,442.54a1.38,1.38,0,0,1,.38-1,1.32,1.32,0,0,1,1-.4,1.34,1.34,0,0,1,1,.4,1.38,1.38,0,0,1,.37,1,1.29,1.29,0,0,1-.37.95,1.4,1.4,0,0,1-1,.37,1.38,1.38,0,0,1-1-.37A1.3,1.3,0,0,1,299.3,442.54Z"/><path class="cls-8" d="M322.69,435.82a12.85,12.85,0,0,1-.37,3.16,7.81,7.81,0,0,1-1.13,2.59,5.48,5.48,0,0,1-4.75,2.4,5.64,5.64,0,0,1-2.79-.65,5.78,5.78,0,0,1-2-1.75,8,8,0,0,1-1.15-2.59,13.34,13.34,0,0,1-.39-3.16v-4.14a13.32,13.32,0,0,1,.39-3.15,7.59,7.59,0,0,1,1.14-2.6,5.52,5.52,0,0,1,1.95-1.77,5.59,5.59,0,0,1,2.79-.65,5.46,5.46,0,0,1,4.75,2.41,8.22,8.22,0,0,1,1.15,2.6,13,13,0,0,1,.37,3.16Zm-10.9.25c0,.38,0,.73,0,1.07l9-8.14a8.79,8.79,0,0,0-.53-1.62,4.47,4.47,0,0,0-.89-1.3,4,4,0,0,0-1.28-.87,4.48,4.48,0,0,0-1.7-.31,4.17,4.17,0,0,0-2.16.53,4.28,4.28,0,0,0-1.43,1.44A6.77,6.77,0,0,0,312,429a12.21,12.21,0,0,0-.25,2.46Zm9.26-4.66a8.7,8.7,0,0,0,0-.89l-8.94,8.12a7.46,7.46,0,0,0,.56,1.57,4.42,4.42,0,0,0,.89,1.25,3.79,3.79,0,0,0,1.26.83,4.28,4.28,0,0,0,1.66.3,4.07,4.07,0,0,0,2.16-.54,4.25,4.25,0,0,0,1.42-1.44,6.52,6.52,0,0,0,.78-2.08,11.53,11.53,0,0,0,.25-2.46Z"/><path class="cls-8" d="M338.36,443.7H325.87v-1.26l6.53-7.4c.48-.54.92-1.07,1.33-1.57a13.08,13.08,0,0,0,1-1.48,7,7,0,0,0,.69-1.47,4.61,4.61,0,0,0,.25-1.52,4.4,4.4,0,0,0-.3-1.65,3.7,3.7,0,0,0-.86-1.29,4.11,4.11,0,0,0-1.32-.85,4.87,4.87,0,0,0-1.71-.3,4.62,4.62,0,0,0-1.87.36,4.09,4.09,0,0,0-1.39,1,4.36,4.36,0,0,0-.87,1.46,5.42,5.42,0,0,0-.32,1.84h-1.64a6.44,6.44,0,0,1,.45-2.33A5.75,5.75,0,0,1,329,424a6.23,6.23,0,0,1,2.5-.48,7,7,0,0,1,2.39.39,5.24,5.24,0,0,1,1.84,1.11,4.94,4.94,0,0,1,1.18,1.72,5.7,5.7,0,0,1,.42,2.22,5.48,5.48,0,0,1-.35,1.92,9.84,9.84,0,0,1-.9,1.81,14.65,14.65,0,0,1-1.26,1.73c-.47.55-.94,1.1-1.4,1.62l-5.57,6.28h10.48Z"/><path class="cls-8" d="M354.46,443.7H342v-1.26l6.52-7.4c.48-.54.93-1.07,1.33-1.57a11.92,11.92,0,0,0,1.05-1.48,7,7,0,0,0,.69-1.47,4.61,4.61,0,0,0,.25-1.52,4.4,4.4,0,0,0-.3-1.65,3.82,3.82,0,0,0-.85-1.29,4.11,4.11,0,0,0-1.32-.85,4.91,4.91,0,0,0-1.71-.3,4.64,4.64,0,0,0-1.88.36,4,4,0,0,0-1.38,1,4.38,4.38,0,0,0-.88,1.46,5.68,5.68,0,0,0-.32,1.84h-1.64a6.44,6.44,0,0,1,.45-2.33,5.75,5.75,0,0,1,3.14-3.21,6.28,6.28,0,0,1,2.51-.48,6.91,6.91,0,0,1,2.38.39,5.24,5.24,0,0,1,1.84,1.11,4.81,4.81,0,0,1,1.18,1.72,5.7,5.7,0,0,1,.42,2.22,5.48,5.48,0,0,1-.35,1.92,9.84,9.84,0,0,1-.9,1.81,14.65,14.65,0,0,1-1.26,1.73c-.47.55-.93,1.1-1.4,1.62L344,442.32h10.47Z"/><path class="cls-8" d="M369.26,439.94a2.05,2.05,0,0,0-.34-1.19,3,3,0,0,0-.93-.87,6.75,6.75,0,0,0-1.38-.61q-.78-.24-1.65-.42a19.59,19.59,0,0,1-2.07-.53,7.35,7.35,0,0,1-1.77-.78,4,4,0,0,1-1.25-1.17,3,3,0,0,1-.46-1.7,3.18,3.18,0,0,1,.47-1.71,4.24,4.24,0,0,1,1.26-1.27,5.88,5.88,0,0,1,1.78-.79,7.79,7.79,0,0,1,2.05-.27,8.16,8.16,0,0,1,2.25.3,5.53,5.53,0,0,1,1.83.86,4.25,4.25,0,0,1,1.25,1.39,4.07,4.07,0,0,1,.51,1.87h-1.64a2.66,2.66,0,0,0-.38-1.28,3.19,3.19,0,0,0-1-.95,5,5,0,0,0-1.33-.59A6.08,6.08,0,0,0,365,430a6.29,6.29,0,0,0-1.44.16,4.39,4.39,0,0,0-1.26.47,2.79,2.79,0,0,0-.89.81,2,2,0,0,0-.33,1.14,1.84,1.84,0,0,0,.32,1.17,2.52,2.52,0,0,0,.91.79,6.14,6.14,0,0,0,1.34.54q.78.21,1.65.39a19.1,19.1,0,0,1,2.14.56,7.88,7.88,0,0,1,1.8.84,3.87,3.87,0,0,1,1.23,1.22,3.24,3.24,0,0,1,.45,1.74,3.3,3.3,0,0,1-.5,1.81,4.36,4.36,0,0,1-1.31,1.29,6.21,6.21,0,0,1-1.86.76,9.09,9.09,0,0,1-2.15.25,9,9,0,0,1-2.35-.3,6.48,6.48,0,0,1-1.94-.87,4.55,4.55,0,0,1-1.35-1.38,3.78,3.78,0,0,1-.54-1.86h1.64a2.81,2.81,0,0,0,.52,1.46,3.44,3.44,0,0,0,1.1.94,5,5,0,0,0,1.41.49,8.66,8.66,0,0,0,1.51.14,7.46,7.46,0,0,0,1.49-.15,5.16,5.16,0,0,0,1.34-.48,3,3,0,0,0,1-.82A2,2,0,0,0,369.26,439.94Z"/><path class="cls-8" d="M413.65,438.09h-4.29l-1.05,5.61H407l1.06-5.61h-3.49v-1.27h3.72l1.13-6h-3.81v-1.31h4.06l1.08-5.69h1.35L411,429.48h4.31l1.08-5.69h1.35l-1.08,5.69h3.15v1.31h-3.39l-1.14,6h3.5v1.27H415L414,443.7H412.6Zm-4.06-1.27h4.31l1.13-6h-4.3Z"/><path class="cls-8" d="M450.92,437.66a9.14,9.14,0,0,1-.67,2.49,6.86,6.86,0,0,1-1.34,2,5.85,5.85,0,0,1-2,1.33,6.53,6.53,0,0,1-2.56.48,6.2,6.2,0,0,1-2.16-.36,5.63,5.63,0,0,1-1.7-1,6.61,6.61,0,0,1-1.3-1.48,9.35,9.35,0,0,1-.9-1.82,10.61,10.61,0,0,1-.52-2,13.53,13.53,0,0,1-.19-2.09v-2.89a13.53,13.53,0,0,1,.19-2.09,10.61,10.61,0,0,1,.52-2,9.72,9.72,0,0,1,.9-1.83,6.84,6.84,0,0,1,1.3-1.48,5.65,5.65,0,0,1,1.7-1,6.2,6.2,0,0,1,2.16-.36A6.64,6.64,0,0,1,447,424a5.86,5.86,0,0,1,2,1.33,6.6,6.6,0,0,1,1.34,2,8.87,8.87,0,0,1,.65,2.53h-1.63a9,9,0,0,0-.53-1.93,5.35,5.35,0,0,0-1-1.58,4.31,4.31,0,0,0-1.45-1.07,4.69,4.69,0,0,0-2-.39,4.22,4.22,0,0,0-3,1.21,5.2,5.2,0,0,0-1,1.28,7.89,7.89,0,0,0-.64,1.55,10.33,10.33,0,0,0-.36,1.67,12,12,0,0,0-.12,1.66v2.92a12,12,0,0,0,.12,1.66,10.23,10.23,0,0,0,.36,1.68,8.24,8.24,0,0,0,.64,1.56,5.61,5.61,0,0,0,1,1.28,4.22,4.22,0,0,0,3,1.21,5,5,0,0,0,2-.37,4.26,4.26,0,0,0,1.45-1.05,5.29,5.29,0,0,0,1-1.57,8.5,8.5,0,0,0,.51-1.94Z"/><path class="cls-8" d="M453.79,436.08a9,9,0,0,1,.46-2.85,7.13,7.13,0,0,1,1.29-2.37,6.27,6.27,0,0,1,2.07-1.63,6.17,6.17,0,0,1,2.77-.6,6.27,6.27,0,0,1,2.78.6,6.48,6.48,0,0,1,2.07,1.63,7.15,7.15,0,0,1,1.3,2.37,9.25,9.25,0,0,1,.46,2.85v.46a9.25,9.25,0,0,1-.46,2.85,7,7,0,0,1-1.29,2.38,6.28,6.28,0,0,1-2.06,1.61,6.35,6.35,0,0,1-7.63-1.61,7.22,7.22,0,0,1-1.3-2.38,9,9,0,0,1-.46-2.85Zm1.64.46a8.07,8.07,0,0,0,.32,2.26,6.07,6.07,0,0,0,1,1.94,4.9,4.9,0,0,0,1.55,1.35,4.81,4.81,0,0,0,4.27,0,4.76,4.76,0,0,0,1.54-1.35,6.05,6.05,0,0,0,.95-1.94,7.72,7.72,0,0,0,.33-2.26v-.46a7.76,7.76,0,0,0-.33-2.25,6.27,6.27,0,0,0-.95-1.94,4.83,4.83,0,0,0-1.56-1.35,4.36,4.36,0,0,0-2.13-.51,4.3,4.3,0,0,0-2.13.51,4.79,4.79,0,0,0-1.55,1.35,6.5,6.5,0,0,0-.95,1.94,8.1,8.1,0,0,0-.32,2.25Z"/><path class="cls-8" d="M470.79,428.91l0,1.65a3.7,3.7,0,0,1,1.24-1.39,3.59,3.59,0,0,1,2-.54,3.73,3.73,0,0,1,1.11.15,2.52,2.52,0,0,1,.84.4,2.36,2.36,0,0,1,.6.62,3.26,3.26,0,0,1,.4.79,4.05,4.05,0,0,1,1.28-1.39,3.6,3.6,0,0,1,2-.57,3.48,3.48,0,0,1,1.6.33,2.91,2.91,0,0,1,1,.89,3.84,3.84,0,0,1,.57,1.3,7.1,7.1,0,0,1,.17,1.56l0,11h-1.53v-11a4.47,4.47,0,0,0-.1-1,2.41,2.41,0,0,0-.33-.86,1.82,1.82,0,0,0-.67-.62,2.4,2.4,0,0,0-1.1-.22,3.24,3.24,0,0,0-1.16.22,2.47,2.47,0,0,0-.78.54,2.72,2.72,0,0,0-.48.73,5,5,0,0,0-.25.81V443.7h-1.53l0-11.14a4.7,4.7,0,0,0-.09-.92,2.44,2.44,0,0,0-.34-.81,1.85,1.85,0,0,0-.66-.57,2.42,2.42,0,0,0-1.08-.21,3.06,3.06,0,0,0-1.12.21,2.31,2.31,0,0,0-.76.51,2.45,2.45,0,0,0-.49.74,5.26,5.26,0,0,0-.3.87V443.7h-1.55V428.91Z"/><path class="cls-8" d="M498.8,436.45a11.37,11.37,0,0,1-.35,2.8,7.65,7.65,0,0,1-1.06,2.41,5.74,5.74,0,0,1-1.82,1.68A5.1,5.1,0,0,1,493,444a6,6,0,0,1-2.53-.53,5.11,5.11,0,0,1-1.93-1.55v7.5h-1.64V428.91h1.53l.07,2a5.63,5.63,0,0,1,1.91-1.7,5.4,5.4,0,0,1,2.56-.6,5.19,5.19,0,0,1,2.62.63,5.27,5.27,0,0,1,1.82,1.66,7.43,7.43,0,0,1,1.06,2.41,11.51,11.51,0,0,1,.35,2.84Zm-1.64-.28a9.79,9.79,0,0,0-.25-2.21,6.07,6.07,0,0,0-.79-2,4.29,4.29,0,0,0-1.41-1.4,3.88,3.88,0,0,0-2.13-.55,4.41,4.41,0,0,0-1.33.2,4,4,0,0,0-1.14.56,4.17,4.17,0,0,0-.91.87,4.94,4.94,0,0,0-.68,1.1v7.32a4.38,4.38,0,0,0,1.64,1.82,4.48,4.48,0,0,0,2.45.67,3.83,3.83,0,0,0,2.11-.55,4.32,4.32,0,0,0,1.41-1.41,6.25,6.25,0,0,0,.78-2,9.73,9.73,0,0,0,.25-2.21Z"/><path class="cls-8" d="M503.32,422.7h6.89v19.55h5v1.45h-11.9v-1.45h5.25V424.16h-5.25Z"/><path class="cls-8" d="M525.36,444a6.83,6.83,0,0,1-2.82-.57,6.69,6.69,0,0,1-2.18-1.56,7.07,7.07,0,0,1-1.4-2.3,8,8,0,0,1-.52-2.81v-.59a8.59,8.59,0,0,1,.53-2.95,7.6,7.6,0,0,1,1.4-2.38,6.52,6.52,0,0,1,2.09-1.6,6,6,0,0,1,2.59-.58,6,6,0,0,1,2.61.54,5.47,5.47,0,0,1,1.9,1.45,6.46,6.46,0,0,1,1.18,2.16,8.67,8.67,0,0,1,.42,2.63v1H520.08v.32a6.66,6.66,0,0,0,.4,2.22,5.65,5.65,0,0,0,1.08,1.86,5.27,5.27,0,0,0,1.68,1.3,5,5,0,0,0,2.19.48,5.65,5.65,0,0,0,2.47-.5,5.21,5.21,0,0,0,1.89-1.51l1,.78a6,6,0,0,1-1,1.06,6.32,6.32,0,0,1-1.25.83,7.08,7.08,0,0,1-1.51.53A7.55,7.55,0,0,1,525.36,444ZM525.05,430a4.45,4.45,0,0,0-1.84.37,4.57,4.57,0,0,0-1.46,1.05,5.86,5.86,0,0,0-1,1.58,7.29,7.29,0,0,0-.56,2h9.37v-.18a5.68,5.68,0,0,0-.34-1.78,4.85,4.85,0,0,0-.87-1.54,4.24,4.24,0,0,0-1.39-1.08A4.05,4.05,0,0,0,525.05,430Z"/><path class="cls-8" d="M540.6,425.12v3.79h5.48v1.34H540.6v9.31a3.68,3.68,0,0,0,.27,1.43,2.42,2.42,0,0,0,.68.91,2.74,2.74,0,0,0,1,.5,5.08,5.08,0,0,0,1.27.15,11.33,11.33,0,0,0,1.4-.09c.48-.07.89-.13,1.22-.2l.25,1.25a6.6,6.6,0,0,1-1.44.35,13.93,13.93,0,0,1-1.72.11,6.57,6.57,0,0,1-1.82-.24,3.87,3.87,0,0,1-1.45-.76,3.66,3.66,0,0,1-1-1.37,5.58,5.58,0,0,1-.37-2.06v-9.29h-4.11v-1.34h4.11v-3.79Z"/><path class="cls-8" d="M557.57,444a6.83,6.83,0,0,1-2.82-.57,6.49,6.49,0,0,1-2.18-1.56,6.92,6.92,0,0,1-1.41-2.3,8.19,8.19,0,0,1-.51-2.81v-.59a8.58,8.58,0,0,1,.52-2.95,7.62,7.62,0,0,1,1.41-2.38,6.52,6.52,0,0,1,2.09-1.6,6.29,6.29,0,0,1,5.19,0,5.51,5.51,0,0,1,1.91,1.45,6.64,6.64,0,0,1,1.18,2.16,9,9,0,0,1,.41,2.63v1H552.29v.32a6.91,6.91,0,0,0,.39,2.22,6,6,0,0,0,1.08,1.86,5.42,5.42,0,0,0,1.69,1.3,4.88,4.88,0,0,0,2.18.48,5.73,5.73,0,0,0,2.48-.5,5.21,5.21,0,0,0,1.89-1.51l1,.78a5.68,5.68,0,0,1-1,1.06,6,6,0,0,1-1.25.83,6.89,6.89,0,0,1-1.51.53A7.46,7.46,0,0,1,557.57,444ZM557.25,430a4.4,4.4,0,0,0-1.83.37,4.46,4.46,0,0,0-1.46,1.05,5.63,5.63,0,0,0-1,1.58,7,7,0,0,0-.56,2h9.36v-.18a6,6,0,0,0-.33-1.78,4.87,4.87,0,0,0-.88-1.54,4.24,4.24,0,0,0-1.39-1.08A4,4,0,0,0,557.25,430Z"/><path class="cls-8" d="M566.86,436.17a10.63,10.63,0,0,1,.37-2.84,7.49,7.49,0,0,1,1.1-2.41,5.59,5.59,0,0,1,1.83-1.66,5.12,5.12,0,0,1,2.59-.63,5.21,5.21,0,0,1,2.52.6,5.4,5.4,0,0,1,1.87,1.69V422.7h1.63v21h-1.53l-.07-1.93a5.3,5.3,0,0,1-1.92,1.64,5.66,5.66,0,0,1-2.53.56,5.06,5.06,0,0,1-2.56-.63,5.88,5.88,0,0,1-1.83-1.68,7.49,7.49,0,0,1-1.1-2.41,10.5,10.5,0,0,1-.37-2.8Zm1.65.28a10.16,10.16,0,0,0,.24,2.2,6.25,6.25,0,0,0,.78,2,4.23,4.23,0,0,0,1.39,1.4,4,4,0,0,0,2.11.53,4.66,4.66,0,0,0,1.31-.18,4.12,4.12,0,0,0,1.15-.51,4.3,4.3,0,0,0,1-.81,4.64,4.64,0,0,0,.7-1.06v-7.16a5.07,5.07,0,0,0-.68-1.12,4.27,4.27,0,0,0-.92-.88,4.57,4.57,0,0,0-1.15-.57,4.18,4.18,0,0,0-1.34-.21,3.84,3.84,0,0,0-2.12.55,4.35,4.35,0,0,0-1.4,1.4,6.29,6.29,0,0,0-.78,2,10.39,10.39,0,0,0-.24,2.21Z"/><path class="cls-8" d="M599.94,428.91h6.86v13.34h5v1.45H599.94v-1.45h5.22V430.37h-5.22Zm4.74-4.05A1.41,1.41,0,0,1,605,424a1.45,1.45,0,0,1,1.91,0,1.41,1.41,0,0,1,.29.88,1.32,1.32,0,0,1-.29.84,1.45,1.45,0,0,1-1.91,0A1.32,1.32,0,0,1,604.68,424.86Z"/><path class="cls-8" d="M617.16,428.91l.13,2.77a6.21,6.21,0,0,1,2.08-2.21,5.47,5.47,0,0,1,3-.84,4.71,4.71,0,0,1,3.72,1.46,6.13,6.13,0,0,1,1.3,4.13v9.48H625.7v-9.45a4.76,4.76,0,0,0-.93-3.12,3.5,3.5,0,0,0-2.85-1.08,4.48,4.48,0,0,0-1.51.26,4.91,4.91,0,0,0-1.31.72,5,5,0,0,0-1.05,1.06,5.68,5.68,0,0,0-.75,1.34V443.7h-1.64V428.91Z"/><path class="cls-8" d="M649.34,428.91h7V443.7a7.77,7.77,0,0,1-.37,2.5,5.08,5.08,0,0,1-1.1,1.88,4.56,4.56,0,0,1-1.75,1.18,6.27,6.27,0,0,1-2.37.41c-.52,0-1,0-1.43,0s-.9-.1-1.4-.19l.11-1.35c.17,0,.37.05.61.07s.49,0,.74.06l.72,0h.54a5,5,0,0,0,1.56-.23,3.16,3.16,0,0,0,1.29-.77,3.83,3.83,0,0,0,.89-1.41,6.31,6.31,0,0,0,.32-2.14V430.37h-5.33Zm4.8-4.06a1.35,1.35,0,0,1,.28-.87,1.13,1.13,0,0,1,1-.36,1.18,1.18,0,0,1,1,.36,1.31,1.31,0,0,1,.3.87,1.27,1.27,0,0,1-.3.84,1.18,1.18,0,0,1-1,.36,1.13,1.13,0,0,1-1-.36A1.31,1.31,0,0,1,654.14,424.85Z"/><path class="cls-8" d="M673.89,441.39a5.35,5.35,0,0,1-1.94,1.9,5.72,5.72,0,0,1-2.87.68,5.55,5.55,0,0,1-2.16-.39,4.09,4.09,0,0,1-1.58-1.17,5.26,5.26,0,0,1-1-1.87A8.87,8.87,0,0,1,664,438v-9.1h1.62V438a5.6,5.6,0,0,0,.91,3.38,3.18,3.18,0,0,0,2.7,1.14,5,5,0,0,0,3-.84,4.43,4.43,0,0,0,1.6-2.3l0-10.51h1.66V443.7H674Z"/><path class="cls-8" d="M690.39,439.94a2.05,2.05,0,0,0-.34-1.19,3,3,0,0,0-.93-.87,6.75,6.75,0,0,0-1.38-.61q-.78-.24-1.65-.42a19.59,19.59,0,0,1-2.07-.53,7.35,7.35,0,0,1-1.77-.78,4,4,0,0,1-1.25-1.17,3,3,0,0,1-.46-1.7A3.18,3.18,0,0,1,681,431a4.24,4.24,0,0,1,1.26-1.27,5.88,5.88,0,0,1,1.78-.79,7.79,7.79,0,0,1,2.05-.27,8.16,8.16,0,0,1,2.25.3,5.53,5.53,0,0,1,1.83.86,4.25,4.25,0,0,1,1.25,1.39,4.07,4.07,0,0,1,.51,1.87H690.3a2.66,2.66,0,0,0-.38-1.28,3.19,3.19,0,0,0-.95-.95,5,5,0,0,0-1.33-.59,6.08,6.08,0,0,0-1.54-.2,6.29,6.29,0,0,0-1.44.16,4.39,4.39,0,0,0-1.26.47,2.79,2.79,0,0,0-.89.81,2,2,0,0,0-.33,1.14,1.84,1.84,0,0,0,.32,1.17,2.52,2.52,0,0,0,.91.79,6.14,6.14,0,0,0,1.34.54q.78.21,1.65.39a19.1,19.1,0,0,1,2.14.56,7.88,7.88,0,0,1,1.8.84,3.87,3.87,0,0,1,1.23,1.22,3.24,3.24,0,0,1,.45,1.74,3.3,3.3,0,0,1-.5,1.81,4.36,4.36,0,0,1-1.31,1.29,6.21,6.21,0,0,1-1.86.76,9.09,9.09,0,0,1-2.15.25,8.9,8.9,0,0,1-2.35-.3,6.48,6.48,0,0,1-1.94-.87,4.55,4.55,0,0,1-1.35-1.38,3.78,3.78,0,0,1-.54-1.86h1.64a2.81,2.81,0,0,0,.52,1.46,3.44,3.44,0,0,0,1.1.94,5,5,0,0,0,1.41.49,8.66,8.66,0,0,0,1.51.14,7.46,7.46,0,0,0,1.49-.15A5.16,5.16,0,0,0,689,442a3,3,0,0,0,1-.82A2,2,0,0,0,690.39,439.94Z"/><path class="cls-8" d="M701.63,425.12v3.79h5.48v1.34h-5.48v9.31a3.68,3.68,0,0,0,.27,1.43,2.32,2.32,0,0,0,.68.91,2.66,2.66,0,0,0,1,.5,5.08,5.08,0,0,0,1.27.15,11.33,11.33,0,0,0,1.4-.09c.48-.07.88-.13,1.22-.2l.25,1.25a6.75,6.75,0,0,1-1.44.35,13.93,13.93,0,0,1-1.72.11,6.57,6.57,0,0,1-1.82-.24,3.8,3.8,0,0,1-1.45-.76,3.66,3.66,0,0,1-1-1.37,5.38,5.38,0,0,1-.37-2.06v-9.29h-4.11v-1.34H700v-3.79Z"/><path class="cls-8" d="M740,443.7H727.52v-1.26L734,435c.48-.54.93-1.07,1.33-1.57a11.92,11.92,0,0,0,1-1.48,7.55,7.55,0,0,0,.7-1.47,4.88,4.88,0,0,0,.24-1.52,4.4,4.4,0,0,0-.3-1.65,3.67,3.67,0,0,0-.85-1.29,4.11,4.11,0,0,0-1.32-.85,4.87,4.87,0,0,0-1.71-.3,4.67,4.67,0,0,0-1.88.36,4,4,0,0,0-1.38,1,4.38,4.38,0,0,0-.88,1.46,5.68,5.68,0,0,0-.32,1.84h-1.64a6.44,6.44,0,0,1,.45-2.33,5.7,5.7,0,0,1,1.23-1.91,5.83,5.83,0,0,1,1.91-1.3,6.28,6.28,0,0,1,2.51-.48,6.91,6.91,0,0,1,2.38.39A5.24,5.24,0,0,1,737.4,425a4.81,4.81,0,0,1,1.18,1.72A5.7,5.7,0,0,1,739,429a5.26,5.26,0,0,1-.35,1.92,9.84,9.84,0,0,1-.9,1.81,14.65,14.65,0,0,1-1.26,1.73c-.47.55-.93,1.1-1.4,1.62l-5.56,6.28H740Z"/><path class="cls-8" d="M756.1,443.7H743.62v-1.26l6.52-7.4c.48-.54.93-1.07,1.34-1.57a14.49,14.49,0,0,0,1-1.48,8.11,8.11,0,0,0,.69-1.47,4.88,4.88,0,0,0,.24-1.52,4.4,4.4,0,0,0-.3-1.65,3.67,3.67,0,0,0-.85-1.29,4.11,4.11,0,0,0-1.32-.85,4.87,4.87,0,0,0-1.71-.3,4.62,4.62,0,0,0-1.87.36,4.09,4.09,0,0,0-1.39,1,4.2,4.2,0,0,0-.87,1.46,5.42,5.42,0,0,0-.33,1.84h-1.64a6.44,6.44,0,0,1,.45-2.33,5.89,5.89,0,0,1,1.24-1.91,5.68,5.68,0,0,1,1.9-1.3,6.28,6.28,0,0,1,2.51-.48,7,7,0,0,1,2.39.39,5.33,5.33,0,0,1,1.84,1.11,4.94,4.94,0,0,1,1.18,1.72,5.7,5.7,0,0,1,.42,2.22,5.48,5.48,0,0,1-.35,1.92,10.58,10.58,0,0,1-.91,1.81,13.51,13.51,0,0,1-1.25,1.73c-.47.55-.94,1.1-1.4,1.62l-5.57,6.28H756.1Z"/><path class="cls-8" d="M760.64,428.91l0,1.65a3.7,3.7,0,0,1,1.24-1.39,3.57,3.57,0,0,1,2-.54,3.73,3.73,0,0,1,1.11.15,2.72,2.72,0,0,1,.84.4,2.36,2.36,0,0,1,.6.62,3.26,3.26,0,0,1,.4.79,4.05,4.05,0,0,1,1.28-1.39,3.6,3.6,0,0,1,2-.57,3.48,3.48,0,0,1,1.6.33,2.91,2.91,0,0,1,1,.89,3.84,3.84,0,0,1,.57,1.3,7.1,7.1,0,0,1,.17,1.56l0,11H772v-11a4.47,4.47,0,0,0-.1-1,2.41,2.41,0,0,0-.33-.86,1.82,1.82,0,0,0-.67-.62,2.4,2.4,0,0,0-1.1-.22,3.24,3.24,0,0,0-1.16.22,2.47,2.47,0,0,0-.78.54,2.72,2.72,0,0,0-.48.73,4.19,4.19,0,0,0-.25.81V443.7h-1.53l0-11.14a4.7,4.7,0,0,0-.09-.92,2.44,2.44,0,0,0-.34-.81,1.85,1.85,0,0,0-.66-.57,2.45,2.45,0,0,0-1.08-.21,3.06,3.06,0,0,0-1.12.21,2.31,2.31,0,0,0-.76.51,2.45,2.45,0,0,0-.49.74,4.48,4.48,0,0,0-.3.87V443.7h-1.55V428.91Z"/><path class="cls-8" d="M787,439.94a2.05,2.05,0,0,0-.34-1.19,2.93,2.93,0,0,0-.94-.87,6.66,6.66,0,0,0-1.37-.61c-.52-.16-1.07-.3-1.66-.42a18.81,18.81,0,0,1-2.06-.53,7.42,7.42,0,0,1-1.78-.78,4,4,0,0,1-1.24-1.17,3,3,0,0,1-.47-1.7,3.1,3.1,0,0,1,.48-1.71,4.24,4.24,0,0,1,1.26-1.27,5.88,5.88,0,0,1,1.78-.79,7.74,7.74,0,0,1,2.05-.27,8.16,8.16,0,0,1,2.25.3,5.72,5.72,0,0,1,1.83.86,4.37,4.37,0,0,1,1.25,1.39,3.94,3.94,0,0,1,.5,1.87h-1.64a2.46,2.46,0,0,0-.38-1.28,3.15,3.15,0,0,0-.94-.95,5,5,0,0,0-1.34-.59,5.94,5.94,0,0,0-1.53-.2,6.32,6.32,0,0,0-1.45.16,4.32,4.32,0,0,0-1.25.47,2.79,2.79,0,0,0-.89.81,2.19,2.19,0,0,0,0,2.31,2.7,2.7,0,0,0,.91.79,6.44,6.44,0,0,0,1.35.54q.76.21,1.65.39a19.68,19.68,0,0,1,2.14.56,7.88,7.88,0,0,1,1.8.84,4.09,4.09,0,0,1,1.23,1.22,3.24,3.24,0,0,1,.45,1.74,3.3,3.3,0,0,1-.5,1.81,4.48,4.48,0,0,1-1.31,1.29,6.43,6.43,0,0,1-1.86.76,9.12,9.12,0,0,1-2.16.25,8.82,8.82,0,0,1-2.34-.3,6.37,6.37,0,0,1-1.94-.87,4.55,4.55,0,0,1-1.35-1.38,3.78,3.78,0,0,1-.55-1.86h1.64a2.82,2.82,0,0,0,.53,1.46,3.52,3.52,0,0,0,1.09.94,5.19,5.19,0,0,0,1.42.49,8.64,8.64,0,0,0,1.5.14,7.63,7.63,0,0,0,1.5-.15,5.3,5.3,0,0,0,1.34-.48,3,3,0,0,0,1-.82A2,2,0,0,0,787,439.94Z"/><path class="cls-8" d="M184.72,481.79a3.32,3.32,0,0,0-.34-1.54,3.88,3.88,0,0,0-.94-1.17,6.58,6.58,0,0,0-1.42-.88,17.5,17.5,0,0,0-1.74-.72,16.43,16.43,0,0,1-2.14-.84,7.33,7.33,0,0,1-1.76-1.15,5.09,5.09,0,0,1-1.21-1.59,5,5,0,0,1-.44-2.17,5.56,5.56,0,0,1,.38-2.09,4.83,4.83,0,0,1,1.06-1.58,5.25,5.25,0,0,1,1.61-1,6.89,6.89,0,0,1,2-.49v-2.76h1.39v2.78a5.82,5.82,0,0,1,2.1.57,4.76,4.76,0,0,1,1.56,1.25,5.87,5.87,0,0,1,1,1.87,8.51,8.51,0,0,1,.37,2.4h-1.63a5.66,5.66,0,0,0-.3-1.88,4.17,4.17,0,0,0-.82-1.48,3.64,3.64,0,0,0-1.29-1,4.08,4.08,0,0,0-1.71-.35,5.22,5.22,0,0,0-1.61.24,3.85,3.85,0,0,0-1.3.73,3.38,3.38,0,0,0-.87,1.17,4,4,0,0,0-.33,1.59,3.51,3.51,0,0,0,.34,1.58,3.56,3.56,0,0,0,.93,1.16,6,6,0,0,0,1.42.88q.83.38,1.8.72a20.05,20.05,0,0,1,2.15.85,7.34,7.34,0,0,1,1.75,1.14,5,5,0,0,1,1.18,1.58,4.83,4.83,0,0,1,.44,2.15,5.14,5.14,0,0,1-.4,2.1,4.82,4.82,0,0,1-1.1,1.58,5.55,5.55,0,0,1-1.65,1,7.48,7.48,0,0,1-2.06.48v2.59h-1.4V487a7.91,7.91,0,0,1-2.2-.47,5.51,5.51,0,0,1-1.81-1.12,5.25,5.25,0,0,1-1.24-1.82A6.88,6.88,0,0,1,174,481h1.64a5.15,5.15,0,0,0,.41,2.07,4.24,4.24,0,0,0,1,1.42,4,4,0,0,0,1.49.82,5.74,5.74,0,0,0,1.77.25,5.45,5.45,0,0,0,1.67-.25,4.08,4.08,0,0,0,1.39-.72,3.67,3.67,0,0,0,1-1.18A3.55,3.55,0,0,0,184.72,481.79Z"/><path class="cls-9" d="M180.16,144.47a9.08,9.08,0,1,1,9.07-9.08A9.09,9.09,0,0,1,180.16,144.47Zm0-17.15a8.08,8.08,0,1,0,8.07,8.07A8.09,8.09,0,0,0,180.16,127.32Z"/><path class="cls-9" d="M210,144.47a9.08,9.08,0,1,1,9.08-9.08A9.08,9.08,0,0,1,210,144.47Zm0-17.15a8.08,8.08,0,1,0,8.08,8.07A8.08,8.08,0,0,0,210,127.32Z"/><path class="cls-9" d="M239.83,144.47a9.08,9.08,0,1,1,9.07-9.08A9.09,9.09,0,0,1,239.83,144.47Zm0-17.15a8.08,8.08,0,1,0,8.07,8.07A8.09,8.09,0,0,0,239.83,127.32Z"/><rect class="cls-10" x="110.34" y="163.97" width="704.66" height="1"/><rect class="cls-11" x="204.01" y="457.85" width="22.6" height="39.09"/></svg>