<svg id="Layer_1" data-name="Layer 1" xmlns="http://www.w3.org/2000/svg" xmlns:xlink="http://www.w3.org/1999/xlink" viewBox="0 0 815 644"><defs><style>.cls-1{fill:none;}.cls-13,.cls-2{fill:#13202f;}.cls-3{fill:#dddbdc;}.cls-12,.cls-13,.cls-3{opacity:0.2;}.cls-4{font-size:12px;font-family:MyriadPro-Regular, Myriad Pro;}.cls-5{fill:#4c87f1;}.cls-14,.cls-6{fill:#fff;}.cls-14,.cls-7{opacity:0.4;}.cls-8{clip-path:url(#clip-path);}.cls-9{filter:url(#AI_DartShadow3);}.cls-10{fill:#294058;}.cls-11,.cls-12{fill:#92b5f5;}</style><clipPath id="clip-path"><rect class="cls-1" width="815" height="644"/></clipPath><filter id="AI_DartShadow3" name="AI_DartShadow3"><feGaussianBlur result="blur" stdDeviation="10" in="SourceAlpha"/><feOffset result="offsetBlurredAlpha" dx="-7" in="blur"/><feMerge><feMergeNode in="offsetBlurredAlpha"/><feMergeNode in="SourceGraphic"/></feMerge></filter></defs><rect class="cls-2" width="815" height="644"/><path class="cls-3" d="M815,29.09v-1H780.73V0h-1V28.09h-52.1V0h-1V28.09h-52.1V0h-1V28.09h-52.1V0h-1V28.09h-52.1V0h-1V28.09h-52.1V0h-1V28.09h-52.1V0h-1V28.09H409V0h-1V28.09h-52.1V0h-1V28.09h-52.1V0h-1V28.09h-52.1V0h-1V28.09h-52.1V0h-1V28.09h-52.1V0h-1V28.09H90.43V0h-1V28.09H37.33V0h-1V28.09H0v1H36.33v52.1H0v1H36.33v52.1H0v1H36.33v52.1H0v1H36.33v52.1H0v1H36.33v52.1H0v1H36.33v52.1H0v1H36.33v52.1H0v1H36.33v52.1H0v1H36.33V506H0v1H36.33v52.1H0v1H36.33v52.1H0v1H36.33V644h1V613.19h52.1V644h1V613.19h52.1V644h1V613.19h52.1V644h1V613.19h52.1V644h1V613.19h52.1V644h1V613.19h52.1V644h1V613.19H408V644h1V613.19h52.1V644h1V613.19h52.1V644h1V613.19h52.1V644h1V613.19h52.1V644h1V613.19h52.1V644h1V613.19h52.1V644h1V613.19h52.1V644h1V613.19H815v-1H780.73v-52.1H815v-1H780.73V507H815v-1H780.73v-52.1H815v-1H780.73v-52.1H815v-1H780.73v-52.1H815v-1H780.73v-52.1H815v-1H780.73v-52.1H815v-1H780.73v-52.1H815v-1H780.73v-52.1H815v-1H780.73V82.19H815v-1H780.73V29.09Zm-88.37,0v52.1h-52.1V29.09Zm-370.7,265.5H408v52.1h-52.1Zm-1,52.1h-52.1v-52.1h52.1Zm54.1-52.1h52.1v52.1H409Zm53.1,0h52.1v52.1h-52.1Zm0-1v-52.1h52.1v52.1Zm-1,0H409v-52.1h52.1Zm-53.1,0h-52.1v-52.1H408Zm-53.1,0h-52.1v-52.1h52.1Zm-53.1,0h-52.1v-52.1h52.1Zm0,1v52.1h-52.1v-52.1Zm0,53.1v52.1h-52.1v-52.1Zm1,0h52.1v52.1h-52.1Zm53.1,0H408v52.1h-52.1Zm53.1,0h52.1v52.1H409Zm53.1,0h52.1v52.1h-52.1Zm53.1,0h52.1v52.1h-52.1Zm0-1v-52.1h52.1v52.1Zm0-53.1v-52.1h52.1v52.1Zm0-53.1v-52.1h52.1v52.1Zm-1,0h-52.1v-52.1h52.1Zm-53.1,0H409v-52.1h52.1Zm-53.1,0h-52.1v-52.1H408Zm-53.1,0h-52.1v-52.1h52.1Zm-53.1,0h-52.1v-52.1h52.1Zm-53.1,0h-52.1v-52.1h52.1Zm0,1v52.1h-52.1v-52.1Zm0,53.1v52.1h-52.1v-52.1Zm0,53.1v52.1h-52.1v-52.1Zm0,53.1v52.1h-52.1v-52.1Zm1,0h52.1v52.1h-52.1Zm53.1,0h52.1v52.1h-52.1Zm53.1,0H408v52.1h-52.1Zm53.1,0h52.1v52.1H409Zm53.1,0h52.1v52.1h-52.1Zm53.1,0h52.1v52.1h-52.1Zm53.1,0h52.1v52.1h-52.1Zm0-1v-52.1h52.1v52.1Zm0-53.1v-52.1h52.1v52.1Zm0-53.1v-52.1h52.1v52.1Zm0-53.1v-52.1h52.1v52.1Zm0-53.1v-52.1h52.1v52.1Zm-1,0h-52.1v-52.1h52.1Zm-53.1,0h-52.1v-52.1h52.1Zm-53.1,0H409v-52.1h52.1Zm-53.1,0h-52.1v-52.1H408Zm-53.1,0h-52.1v-52.1h52.1Zm-53.1,0h-52.1v-52.1h52.1Zm-53.1,0h-52.1v-52.1h52.1Zm-53.1,0h-52.1v-52.1h52.1Zm0,1v52.1h-52.1v-52.1Zm0,53.1v52.1h-52.1v-52.1Zm0,53.1v52.1h-52.1v-52.1Zm0,53.1v52.1h-52.1v-52.1Zm0,53.1v52.1h-52.1v-52.1Zm0,53.1V506h-52.1v-52.1Zm1,0h52.1V506h-52.1Zm53.1,0h52.1V506h-52.1Zm53.1,0h52.1V506h-52.1Zm53.1,0H408V506h-52.1Zm53.1,0h52.1V506H409Zm53.1,0h52.1V506h-52.1Zm53.1,0h52.1V506h-52.1Zm53.1,0h52.1V506h-52.1Zm53.1,0h52.1V506h-52.1Zm0-1v-52.1h52.1v52.1Zm0-53.1v-52.1h52.1v52.1Zm0-53.1v-52.1h52.1v52.1Zm0-53.1v-52.1h52.1v52.1Zm0-53.1v-52.1h52.1v52.1Zm0-53.1v-52.1h52.1v52.1Zm0-53.1V82.19h52.1v52.1Zm-1,0h-52.1V82.19h52.1Zm-53.1,0h-52.1V82.19h52.1Zm-53.1,0h-52.1V82.19h52.1Zm-53.1,0H409V82.19h52.1Zm-53.1,0h-52.1V82.19H408Zm-53.1,0h-52.1V82.19h52.1Zm-53.1,0h-52.1V82.19h52.1Zm-53.1,0h-52.1V82.19h52.1Zm-53.1,0h-52.1V82.19h52.1Zm-53.1,0H90.43V82.19h52.1Zm0,1v52.1H90.43v-52.1Zm0,53.1v52.1H90.43v-52.1Zm0,53.1v52.1H90.43v-52.1Zm0,53.1v52.1H90.43v-52.1Zm0,53.1v52.1H90.43v-52.1Zm0,53.1v52.1H90.43v-52.1Zm0,53.1V506H90.43v-52.1Zm0,53.1v52.1H90.43V507Zm1,0h52.1v52.1h-52.1Zm53.1,0h52.1v52.1h-52.1Zm53.1,0h52.1v52.1h-52.1Zm53.1,0h52.1v52.1h-52.1Zm53.1,0H408v52.1h-52.1Zm53.1,0h52.1v52.1H409Zm53.1,0h52.1v52.1h-52.1Zm53.1,0h52.1v52.1h-52.1Zm53.1,0h52.1v52.1h-52.1Zm53.1,0h52.1v52.1h-52.1Zm53.1,0h52.1v52.1h-52.1Zm0-1v-52.1h52.1V506Zm0-53.1v-52.1h52.1v52.1Zm0-53.1v-52.1h52.1v52.1Zm0-53.1v-52.1h52.1v52.1Zm0-53.1v-52.1h52.1v52.1Zm0-53.1v-52.1h52.1v52.1Zm0-53.1v-52.1h52.1v52.1Zm0-53.1V82.19h52.1v52.1Zm-1-105.2v52.1h-52.1V29.09Zm-53.1,0v52.1h-52.1V29.09Zm-53.1,0v52.1h-52.1V29.09Zm-53.1,0v52.1h-52.1V29.09Zm-53.1,0v52.1H409V29.09Zm-53.1,0v52.1h-52.1V29.09Zm-53.1,0v52.1h-52.1V29.09Zm-53.1,0v52.1h-52.1V29.09Zm-53.1,0v52.1h-52.1V29.09Zm-53.1,0v52.1h-52.1V29.09Zm-53.1,0v52.1H90.43V29.09Zm-105.2,0h52.1v52.1H37.33Zm0,53.1h52.1v52.1H37.33Zm0,53.1h52.1v52.1H37.33Zm0,53.1h52.1v52.1H37.33Zm0,53.1h52.1v52.1H37.33Zm0,53.1h52.1v52.1H37.33Zm0,53.1h52.1v52.1H37.33Zm0,53.1h52.1v52.1H37.33Zm0,53.1h52.1V506H37.33Zm0,53.1h52.1v52.1H37.33Zm0,105.2v-52.1h52.1v52.1Zm53.1,0v-52.1h52.1v52.1Zm53.1,0v-52.1h52.1v52.1Zm53.1,0v-52.1h52.1v52.1Zm53.1,0v-52.1h52.1v52.1Zm53.1,0v-52.1h52.1v52.1Zm53.1,0v-52.1H408v52.1Zm53.1,0v-52.1h52.1v52.1Zm53.1,0v-52.1h52.1v52.1Zm53.1,0v-52.1h52.1v52.1Zm53.1,0v-52.1h52.1v52.1Zm53.1,0v-52.1h52.1v52.1Zm53.1,0v-52.1h52.1v52.1Zm105.2,0h-52.1v-52.1h52.1Zm0-53.1h-52.1V507h52.1Zm0-53.1h-52.1v-52.1h52.1Zm0-53.1h-52.1v-52.1h52.1Zm0-53.1h-52.1v-52.1h52.1Zm0-53.1h-52.1v-52.1h52.1Zm0-53.1h-52.1v-52.1h52.1Zm0-53.1h-52.1v-52.1h52.1Zm0-53.1h-52.1v-52.1h52.1Zm0-53.1h-52.1V82.19h52.1Zm0-53.1h-52.1V29.09h52.1Z"/><text class="cls-4" transform="translate(407.5 322)">°</text><rect class="cls-5" width="815" height="109.66"/><path class="cls-6" d="M72.54,42.4a2.6,2.6,0,0,0-.27-1.21,3.07,3.07,0,0,0-.74-.92,5,5,0,0,0-1.11-.69A14.47,14.47,0,0,0,69.05,39a15.89,15.89,0,0,1-1.68-.67,5.94,5.94,0,0,1-1.39-.9A4,4,0,0,1,65,36.2a3.91,3.91,0,0,1-.35-1.7,4.24,4.24,0,0,1,.3-1.64,3.6,3.6,0,0,1,.83-1.24,4.18,4.18,0,0,1,1.26-.83,5.46,5.46,0,0,1,1.58-.38V28.24h1.1v2.18a4.52,4.52,0,0,1,1.65.46,3.79,3.79,0,0,1,1.23,1,4.74,4.74,0,0,1,.78,1.46,6.57,6.57,0,0,1,.29,1.89H72.43a4.69,4.69,0,0,0-.23-1.48,3.36,3.36,0,0,0-.65-1.16,3.06,3.06,0,0,0-1-.76,3.25,3.25,0,0,0-1.35-.27,4.26,4.26,0,0,0-1.26.19,3,3,0,0,0-1,.57,2.6,2.6,0,0,0-.68.92A2.91,2.91,0,0,0,66,34.47a2.64,2.64,0,0,0,.26,1.24,2.94,2.94,0,0,0,.73.92,4.51,4.51,0,0,0,1.12.68q.65.3,1.41.57a14.51,14.51,0,0,1,1.69.67,5.67,5.67,0,0,1,1.38.9,3.93,3.93,0,0,1,.93,1.24,3.83,3.83,0,0,1,.34,1.69A4.12,4.12,0,0,1,73.51,44a3.73,3.73,0,0,1-.86,1.23,4.23,4.23,0,0,1-1.3.82,5.5,5.5,0,0,1-1.61.37v2H68.63v-2a6.06,6.06,0,0,1-1.72-.37,4.29,4.29,0,0,1-1.43-.88,4.2,4.2,0,0,1-1-1.43,5.14,5.14,0,0,1-.39-2h1.29a4,4,0,0,0,.32,1.62,3.35,3.35,0,0,0,.82,1.12,3.18,3.18,0,0,0,1.17.64,4.29,4.29,0,0,0,1.39.19,4.44,4.44,0,0,0,1.32-.19,3.43,3.43,0,0,0,1.09-.57,2.76,2.76,0,0,0,.74-.92A2.72,2.72,0,0,0,72.54,42.4Z"/><path class="cls-6" d="M92.1,42.49l.35,2.06.43-2.06,2-7.86h.9l2,7.86.43,2.11.38-2.11,1.59-7.86h1.19L98.72,46.26h-1l-2.05-7.95-.35-1.86-.34,1.86-2,7.95h-1L89.29,34.63h1.19Z"/><path class="cls-6" d="M108.86,46.47a5.28,5.28,0,0,1-3.93-1.67,5.63,5.63,0,0,1-1.1-1.81,6.23,6.23,0,0,1-.4-2.21v-.46a6.5,6.5,0,0,1,.41-2.32,5.89,5.89,0,0,1,1.1-1.87,5.12,5.12,0,0,1,1.64-1.25,4.54,4.54,0,0,1,2-.46,4.8,4.8,0,0,1,2.06.42A4.33,4.33,0,0,1,112.16,36a5.06,5.06,0,0,1,.93,1.69,7,7,0,0,1,.33,2.08v.78h-8.71v.25a5.42,5.42,0,0,0,.32,1.75,4.68,4.68,0,0,0,.84,1.46,4.33,4.33,0,0,0,1.33,1,3.84,3.84,0,0,0,1.71.38,4.56,4.56,0,0,0,2-.4,4.12,4.12,0,0,0,1.48-1.18l.82.61a5,5,0,0,1-.76.83,4.7,4.7,0,0,1-1,.65,5.49,5.49,0,0,1-1.18.42A6.06,6.06,0,0,1,108.86,46.47Zm-.25-10.95a3.43,3.43,0,0,0-1.44.29,3.72,3.72,0,0,0-1.15.82,4.66,4.66,0,0,0-.81,1.24,5.6,5.6,0,0,0-.44,1.57h7.36V39.3a4.89,4.89,0,0,0-.27-1.41,3.93,3.93,0,0,0-.68-1.2,3.38,3.38,0,0,0-1.09-.85A3.19,3.19,0,0,0,108.61,35.52Z"/><path class="cls-6" d="M126.54,40.56a8.9,8.9,0,0,1-.27,2.2,5.8,5.8,0,0,1-.84,1.89A4.37,4.37,0,0,1,124,46a4,4,0,0,1-2,.5,4.52,4.52,0,0,1-2-.45,4.27,4.27,0,0,1-1.52-1.32l0,1.56h-1.21V29.76h1.29v6.5a4.37,4.37,0,0,1,1.48-1.36,4.21,4.21,0,0,1,5.51,1.32,6,6,0,0,1,.83,1.89,9.08,9.08,0,0,1,.27,2.23Zm-1.3-.22a8.4,8.4,0,0,0-.18-1.73,5,5,0,0,0-.59-1.54A3.22,3.22,0,0,0,123.38,36a3.17,3.17,0,0,0-1.68-.42,3.23,3.23,0,0,0-1.09.17,3.48,3.48,0,0,0-.92.47,3.33,3.33,0,0,0-.72.73,4.37,4.37,0,0,0-.52.92v5.42a4.13,4.13,0,0,0,.55.87,3,3,0,0,0,.75.66,4.08,4.08,0,0,0,.92.43,3.6,3.6,0,0,0,1,.15,3.06,3.06,0,0,0,1.65-.42,3.25,3.25,0,0,0,1.08-1.1,4.82,4.82,0,0,0,.6-1.55,7.77,7.77,0,0,0,.19-1.73Z"/><path class="cls-6" d="M129.92,40.34a8.22,8.22,0,0,1,.29-2.23,6,6,0,0,1,.86-1.89,4.2,4.2,0,0,1,1.44-1.31,4,4,0,0,1,2-.49,4.19,4.19,0,0,1,2,.47A4.28,4.28,0,0,1,138,36.21V29.76h1.28v16.5h-1.2l0-1.52A4.15,4.15,0,0,1,136.51,46a4.47,4.47,0,0,1-2,.44,3.9,3.9,0,0,1-2-.5,4.33,4.33,0,0,1-1.44-1.32,6,6,0,0,1-.86-1.89,8.05,8.05,0,0,1-.29-2.2Zm1.3.22a8.4,8.4,0,0,0,.18,1.73,5.07,5.07,0,0,0,.61,1.55,3.31,3.31,0,0,0,1.1,1.1,3.06,3.06,0,0,0,1.65.42,3.9,3.9,0,0,0,1-.14,3.66,3.66,0,0,0,.9-.41,3.39,3.39,0,0,0,.74-.63,3.86,3.86,0,0,0,.55-.83V37.72a3.89,3.89,0,0,0-.53-.88,3.36,3.36,0,0,0-.72-.69,3.68,3.68,0,0,0-.91-.45,3.3,3.3,0,0,0-1.05-.16,3.08,3.08,0,0,0-1.66.42,3.34,3.34,0,0,0-1.1,1.11,4.79,4.79,0,0,0-.62,1.54,8.4,8.4,0,0,0-.18,1.73Z"/><path class="cls-6" d="M148.47,46.47a5.24,5.24,0,0,1-3.93-1.67A5.66,5.66,0,0,1,143.43,43a6.46,6.46,0,0,1-.4-2.21v-.46a6.73,6.73,0,0,1,.42-2.32,5.71,5.71,0,0,1,1.1-1.87,5,5,0,0,1,1.64-1.25,4.54,4.54,0,0,1,2-.46,4.75,4.75,0,0,1,2.05.42,4.27,4.27,0,0,1,1.5,1.14,5.22,5.22,0,0,1,.92,1.69,6.71,6.71,0,0,1,.33,2.08v.78h-8.7v.25a5.41,5.41,0,0,0,.31,1.75,4.71,4.71,0,0,0,.85,1.46,4.41,4.41,0,0,0,1.32,1,3.91,3.91,0,0,0,1.72.38,4.56,4.56,0,0,0,1.95-.4A4.12,4.12,0,0,0,152,43.81l.81.61a4.57,4.57,0,0,1-.76.83,4.39,4.39,0,0,1-1,.65,5.39,5.39,0,0,1-1.19.42A6,6,0,0,1,148.47,46.47Zm-.25-10.95a3.43,3.43,0,0,0-1.44.29,3.61,3.61,0,0,0-1.15.82,4.69,4.69,0,0,0-.82,1.24,6,6,0,0,0-.44,1.57h7.36V39.3a4.56,4.56,0,0,0-.26-1.41,3.76,3.76,0,0,0-.69-1.2,3.38,3.38,0,0,0-1.09-.85A3.18,3.18,0,0,0,148.22,35.52Z"/><path class="cls-6" d="M161.16,44.52l.06.22.06-.22,4-9.89h1.34l-4.89,11.63h-1l-4.9-11.63h1.35Z"/><path class="cls-6" d="M191.22,43.3a1.62,1.62,0,0,0-.27-.93,2.28,2.28,0,0,0-.73-.68,4.89,4.89,0,0,0-1.08-.48,11.74,11.74,0,0,0-1.3-.33q-.84-.18-1.62-.42a5.6,5.6,0,0,1-1.4-.62,3.07,3.07,0,0,1-1-.91,2.39,2.39,0,0,1-.36-1.34,2.43,2.43,0,0,1,.37-1.34,3.26,3.26,0,0,1,1-1,4.46,4.46,0,0,1,1.4-.62,6.18,6.18,0,0,1,1.61-.21,6.7,6.7,0,0,1,1.77.23,4.4,4.4,0,0,1,1.43.68,3.21,3.21,0,0,1,1.39,2.56h-1.29a2.17,2.17,0,0,0-.3-1,2.52,2.52,0,0,0-.75-.74,3.39,3.39,0,0,0-1-.46,4.47,4.47,0,0,0-1.21-.16,5.38,5.38,0,0,0-1.14.12,3.39,3.39,0,0,0-1,.38,1.94,1.94,0,0,0-.7.63,1.49,1.49,0,0,0-.26.9,1.42,1.42,0,0,0,.25.91,2.08,2.08,0,0,0,.71.63,4.69,4.69,0,0,0,1.06.42c.4.11.84.21,1.29.3a14.4,14.4,0,0,1,1.69.45,6.11,6.11,0,0,1,1.41.65,3.1,3.1,0,0,1,1,1,2.8,2.8,0,0,1,0,2.78,3.31,3.31,0,0,1-1,1,4.88,4.88,0,0,1-1.46.6,6.88,6.88,0,0,1-1.7.2,7.3,7.3,0,0,1-1.84-.23,5,5,0,0,1-1.52-.69,3.44,3.44,0,0,1-1.06-1.09,2.87,2.87,0,0,1-.43-1.46h1.29a2.2,2.2,0,0,0,.41,1.15,2.55,2.55,0,0,0,.86.74,4.06,4.06,0,0,0,1.11.39,6.91,6.91,0,0,0,1.18.11,5.2,5.2,0,0,0,1.18-.13,3.72,3.72,0,0,0,1.05-.37,2.45,2.45,0,0,0,.77-.65A1.62,1.62,0,0,0,191.22,43.3Z"/><path class="cls-6" d="M201.28,46.47a5.24,5.24,0,0,1-3.93-1.67A5.49,5.49,0,0,1,196.24,43a6.46,6.46,0,0,1-.4-2.21v-.46a7,7,0,0,1,.41-2.32,6.08,6.08,0,0,1,1.1-1.87A5.15,5.15,0,0,1,199,34.88a4.54,4.54,0,0,1,2-.46,4.75,4.75,0,0,1,2.05.42,4.46,4.46,0,0,1,1.5,1.14,5.22,5.22,0,0,1,.92,1.69,7,7,0,0,1,.33,2.08v.78h-8.7v.25a5.41,5.41,0,0,0,.31,1.75,4.52,4.52,0,0,0,.85,1.46,4.29,4.29,0,0,0,1.32,1,3.91,3.91,0,0,0,1.72.38,4.52,4.52,0,0,0,1.94-.4,4.16,4.16,0,0,0,1.49-1.18l.81.61a4.57,4.57,0,0,1-.76.83,4.39,4.39,0,0,1-1,.65,5.39,5.39,0,0,1-1.19.42A6,6,0,0,1,201.28,46.47ZM201,35.52a3.43,3.43,0,0,0-1.44.29,3.61,3.61,0,0,0-1.15.82,4.69,4.69,0,0,0-.82,1.24,6,6,0,0,0-.44,1.57h7.36V39.3a4.56,4.56,0,0,0-.26-1.41,3.76,3.76,0,0,0-.69-1.2,3.38,3.38,0,0,0-1.09-.85A3.18,3.18,0,0,0,201,35.52Z"/><path class="cls-6" d="M217.21,34.42a7.73,7.73,0,0,1,1,.06,3.68,3.68,0,0,1,.81.17l-.16,1.23q-.45-.09-.9-.15a7.15,7.15,0,0,0-.93,0,4.78,4.78,0,0,0-2.77.77,4.15,4.15,0,0,0-1.6,2.37v7.44H211.3V34.63h1.23l.09,2v.24a5.1,5.1,0,0,1,1.88-1.81A5.41,5.41,0,0,1,217.21,34.42Z"/><path class="cls-6" d="M227.18,44.52l0,.22.06-.22,4-9.89h1.34l-4.89,11.63h-1.05l-4.9-11.63h1.35Z"/><path class="cls-6" d="M240.88,46.47a5.32,5.32,0,0,1-2.21-.45A5.18,5.18,0,0,1,237,44.8,5.49,5.49,0,0,1,235.85,43a6.23,6.23,0,0,1-.4-2.21v-.46a6.5,6.5,0,0,1,.41-2.32,6.08,6.08,0,0,1,1.1-1.87,5.12,5.12,0,0,1,1.64-1.25,4.55,4.55,0,0,1,2-.46,4.78,4.78,0,0,1,2.05.42,4.46,4.46,0,0,1,1.5,1.14,5.22,5.22,0,0,1,.92,1.69,7,7,0,0,1,.33,2.08v.78h-8.7v.25a5.16,5.16,0,0,0,.31,1.75A4.52,4.52,0,0,0,237.9,44a4.17,4.17,0,0,0,1.32,1,3.88,3.88,0,0,0,1.72.38,4.55,4.55,0,0,0,1.94-.4,4.12,4.12,0,0,0,1.48-1.18l.82.61a5,5,0,0,1-.76.83,4.7,4.7,0,0,1-1,.65,5.31,5.31,0,0,1-1.18.42A6.06,6.06,0,0,1,240.88,46.47Zm-.24-10.95a3.37,3.37,0,0,0-1.44.29,3.61,3.61,0,0,0-1.15.82,4.46,4.46,0,0,0-.82,1.24,6,6,0,0,0-.44,1.57h7.36V39.3a4.58,4.58,0,0,0-.27-1.41,3.93,3.93,0,0,0-.68-1.2,3.38,3.38,0,0,0-1.09-.85A3.18,3.18,0,0,0,240.64,35.52Z"/><path class="cls-6" d="M320.89,41.85h-3.37l-.83,4.41h-1.06l.82-4.41h-2.74v-1h2.93l.89-4.73h-3v-1h3.19l.85-4.47h1.06l-.85,4.47h3.39l.85-4.47h1.06l-.85,4.47h2.47v1H323l-.89,4.73h2.75v1H322l-.82,4.41h-1.07Zm-3.19-1h3.38l.9-4.73h-3.39Z"/><path class="cls-6" d="M350.1,42.41a2.76,2.76,0,0,0-.17-1,2.55,2.55,0,0,0-.46-.78,3.61,3.61,0,0,0-.68-.61,6.07,6.07,0,0,0-.83-.46,8.93,8.93,0,0,0-.9-.37l-.89-.3c-.37-.11-.74-.24-1.12-.38A8.86,8.86,0,0,1,344,38a6,6,0,0,1-1-.62,4.38,4.38,0,0,1-.82-.79,3.46,3.46,0,0,1-.54-1,3.3,3.3,0,0,1-.2-1.21,3.39,3.39,0,0,1,.43-1.73A4.19,4.19,0,0,1,343,31.44a5,5,0,0,1,1.57-.77,5.94,5.94,0,0,1,1.77-.27,5.5,5.5,0,0,1,1.9.33,4.87,4.87,0,0,1,1.58.92,4.29,4.29,0,0,1,1.09,1.43,4.6,4.6,0,0,1,.44,1.88H350a4.31,4.31,0,0,0-.37-1.39,3.4,3.4,0,0,0-.78-1.08,3.55,3.55,0,0,0-1.13-.71,3.87,3.87,0,0,0-1.43-.25,4.8,4.8,0,0,0-1.3.18,3.78,3.78,0,0,0-1.15.53,2.86,2.86,0,0,0-.82.91,2.37,2.37,0,0,0-.32,1.27,2.29,2.29,0,0,0,.37,1.33,3.47,3.47,0,0,0,.94.93,5.83,5.83,0,0,0,1.25.62c.45.17.89.32,1.29.44s.77.24,1.15.39a11.47,11.47,0,0,1,1.13.51,7,7,0,0,1,1,.65,4.25,4.25,0,0,1,.82.82,3.52,3.52,0,0,1,.55,1,3.81,3.81,0,0,1,.2,1.25,3.42,3.42,0,0,1-.45,1.79,4,4,0,0,1-1.15,1.28,5.09,5.09,0,0,1-1.61.76,6.82,6.82,0,0,1-3.83,0,5.38,5.38,0,0,1-1.72-.88,4.59,4.59,0,0,1-1.23-1.43,4.15,4.15,0,0,1-.5-2h1.29a4.21,4.21,0,0,0,.45,1.48,3.31,3.31,0,0,0,.9,1.09,3.64,3.64,0,0,0,1.27.65,5.21,5.21,0,0,0,2.89,0,3.67,3.67,0,0,0,1.19-.53,2.85,2.85,0,0,0,.85-.91A2.64,2.64,0,0,0,350.1,42.41Z"/><path class="cls-6" d="M359.7,46.47a5.29,5.29,0,0,1-2.21-.45,5.18,5.18,0,0,1-1.71-1.22A5.49,5.49,0,0,1,354.67,43a6.23,6.23,0,0,1-.4-2.21v-.46a6.5,6.5,0,0,1,.41-2.32,5.89,5.89,0,0,1,1.1-1.87,5.12,5.12,0,0,1,1.64-1.25,4.54,4.54,0,0,1,2-.46,4.8,4.8,0,0,1,2.06.42A4.33,4.33,0,0,1,363,36a5.06,5.06,0,0,1,.93,1.69,7,7,0,0,1,.33,2.08v.78h-8.7v.25a5.16,5.16,0,0,0,.31,1.75,4.52,4.52,0,0,0,.85,1.46A4.17,4.17,0,0,0,358,45a3.85,3.85,0,0,0,1.72.38,4.55,4.55,0,0,0,1.94-.4,4.12,4.12,0,0,0,1.48-1.18l.82.61a5,5,0,0,1-.76.83,4.7,4.7,0,0,1-1,.65,5.31,5.31,0,0,1-1.18.42A6.06,6.06,0,0,1,359.7,46.47Zm-.25-10.95a3.36,3.36,0,0,0-1.43.29,3.5,3.5,0,0,0-1.15.82,4.46,4.46,0,0,0-.82,1.24,5.6,5.6,0,0,0-.44,1.57H363V39.3a4.58,4.58,0,0,0-.27-1.41,3.93,3.93,0,0,0-.68-1.2,3.38,3.38,0,0,0-1.09-.85A3.19,3.19,0,0,0,359.45,35.52Z"/><path class="cls-6" d="M375.63,34.42a7.89,7.89,0,0,1,1,.06,3.58,3.58,0,0,1,.8.17l-.16,1.23-.9-.15a7,7,0,0,0-.92,0,4.75,4.75,0,0,0-2.77.77,4.11,4.11,0,0,0-1.6,2.37v7.44h-1.34V34.63H371l.09,2v.24a5,5,0,0,1,1.88-1.81A5.4,5.4,0,0,1,375.63,34.42Z"/><path class="cls-6" d="M385.6,44.52l0,.22.07-.22,4-9.89h1.34l-4.89,11.63h-1.05l-4.9-11.63h1.34Z"/><path class="cls-6" d="M399.31,46.47a5.28,5.28,0,0,1-3.93-1.67,5.63,5.63,0,0,1-1.1-1.81,6.24,6.24,0,0,1-.41-2.21v-.46a6.73,6.73,0,0,1,.42-2.32,5.71,5.71,0,0,1,1.1-1.87A5,5,0,0,1,397,34.88a4.54,4.54,0,0,1,2-.46,4.75,4.75,0,0,1,2.05.42,4.27,4.27,0,0,1,1.5,1.14,5.24,5.24,0,0,1,.93,1.69,6.71,6.71,0,0,1,.32,2.08v.78h-8.7v.25a5.41,5.41,0,0,0,.31,1.75,4.71,4.71,0,0,0,.85,1.46,4.41,4.41,0,0,0,1.32,1,3.91,3.91,0,0,0,1.72.38,4.56,4.56,0,0,0,1.95-.4,4.12,4.12,0,0,0,1.48-1.18l.81.61a4.23,4.23,0,0,1-.76.83,4.39,4.39,0,0,1-1,.65,5.39,5.39,0,0,1-1.19.42A6,6,0,0,1,399.31,46.47Zm-.25-10.95a3.43,3.43,0,0,0-1.44.29,3.61,3.61,0,0,0-1.15.82,4.43,4.43,0,0,0-.81,1.24,5.28,5.28,0,0,0-.44,1.57h7.35V39.3a4.56,4.56,0,0,0-.26-1.41,3.76,3.76,0,0,0-.69-1.2,3.28,3.28,0,0,0-1.09-.85A3.18,3.18,0,0,0,399.06,35.52Z"/><path class="cls-6" d="M429.72,35.69h-4.63l0,10.57h-1.33V35.69h-3.17V34.63h3.18v-.92a5.19,5.19,0,0,1,.37-2,3.57,3.57,0,0,1,1-1.32,3.79,3.79,0,0,1,1.44-.74,7,7,0,0,1,1.75-.22,9.42,9.42,0,0,1,1.2.08c.38.05.78.12,1.18.21l-.16,1.1a8.52,8.52,0,0,0-1-.19,7.83,7.83,0,0,0-1.11-.08,5.39,5.39,0,0,0-1.3.15,2.8,2.8,0,0,0-1.07.51,2.49,2.49,0,0,0-.73,1,4,4,0,0,0-.28,1.54v.92h4.63Z"/><path class="cls-6" d="M433.3,40.27a7.25,7.25,0,0,1,.36-2.24,5.77,5.77,0,0,1,1-1.86,4.85,4.85,0,0,1,1.62-1.28,4.91,4.91,0,0,1,2.17-.47,4.79,4.79,0,0,1,3.82,1.75,5.77,5.77,0,0,1,1,1.86,7.25,7.25,0,0,1,.36,2.24v.36a6.87,6.87,0,0,1-.36,2.24,5.72,5.72,0,0,1-1,1.87A5.16,5.16,0,0,1,440.68,46a5.42,5.42,0,0,1-4.37,0,5.09,5.09,0,0,1-1.63-1.27,5.93,5.93,0,0,1-1-1.87,7.15,7.15,0,0,1-.36-2.24Zm1.29.36a6.18,6.18,0,0,0,.25,1.78,4.93,4.93,0,0,0,.76,1.52A3.63,3.63,0,0,0,436.81,45a3.73,3.73,0,0,0,3.36,0,3.73,3.73,0,0,0,1.21-1.06,4.7,4.7,0,0,0,.75-1.52,6.18,6.18,0,0,0,.25-1.78v-.36a6.26,6.26,0,0,0-.25-1.77,5,5,0,0,0-.75-1.52,3.92,3.92,0,0,0-1.23-1.06,3.42,3.42,0,0,0-1.68-.4,3.38,3.38,0,0,0-1.67.4A3.85,3.85,0,0,0,435.59,37a5,5,0,0,0-.75,1.52,6.26,6.26,0,0,0-.25,1.77Z"/><path class="cls-6" d="M454.86,34.42a7.73,7.73,0,0,1,1,.06,3.81,3.81,0,0,1,.81.17l-.16,1.23c-.3-.06-.6-.11-.91-.15a6.9,6.9,0,0,0-.92,0,4.78,4.78,0,0,0-2.77.77,4.15,4.15,0,0,0-1.6,2.37v7.44H449V34.63h1.23l.09,2v.24a5.1,5.1,0,0,1,1.88-1.81A5.41,5.41,0,0,1,454.86,34.42Z"/><path class="cls-6" d="M473.18,40.34a8.63,8.63,0,0,1,.29-2.23,6.07,6.07,0,0,1,.87-1.89,4.2,4.2,0,0,1,1.44-1.31,4,4,0,0,1,2-.49,4.14,4.14,0,0,1,2,.47,4.23,4.23,0,0,1,1.47,1.32V29.76h1.28v16.5h-1.2l-.06-1.52a4.21,4.21,0,0,1-1.5,1.29,4.5,4.5,0,0,1-2,.44,3.85,3.85,0,0,1-2-.5,4.33,4.33,0,0,1-1.44-1.32,6.07,6.07,0,0,1-.87-1.89,8.46,8.46,0,0,1-.29-2.2Zm1.3.22a7.77,7.77,0,0,0,.19,1.73,4.83,4.83,0,0,0,.61,1.55,3.37,3.37,0,0,0,1.09,1.1,3.1,3.1,0,0,0,1.66.42,3.82,3.82,0,0,0,1-.14,3.57,3.57,0,0,0,.91-.41,3.39,3.39,0,0,0,.74-.63,3.86,3.86,0,0,0,.55-.83V37.72a3.89,3.89,0,0,0-.53-.88,3.19,3.19,0,0,0-.73-.69,3.45,3.45,0,0,0-.9-.45,3.3,3.3,0,0,0-1.05-.16,3.11,3.11,0,0,0-1.67.42,3.34,3.34,0,0,0-1.1,1.11,4.77,4.77,0,0,0-.61,1.54,7.77,7.77,0,0,0-.19,1.73Z"/><path class="cls-6" d="M491.73,46.47a5.24,5.24,0,0,1-3.92-1.67A5.49,5.49,0,0,1,486.7,43a6.23,6.23,0,0,1-.4-2.21v-.46a6.5,6.5,0,0,1,.41-2.32,6.08,6.08,0,0,1,1.1-1.87,5.15,5.15,0,0,1,1.65-1.25,4.51,4.51,0,0,1,2-.46,4.78,4.78,0,0,1,2.05.42A4.46,4.46,0,0,1,495,36a5.22,5.22,0,0,1,.92,1.69,7,7,0,0,1,.33,2.08v.78h-8.7v.25a5.16,5.16,0,0,0,.31,1.75,4.52,4.52,0,0,0,.85,1.46,4.17,4.17,0,0,0,1.32,1,3.88,3.88,0,0,0,1.72.38,4.55,4.55,0,0,0,1.94-.4,4,4,0,0,0,1.48-1.18l.82.61a4.57,4.57,0,0,1-.76.83,4.64,4.64,0,0,1-1,.65,5.58,5.58,0,0,1-1.19.42A6.06,6.06,0,0,1,491.73,46.47Zm-.24-10.95a3.37,3.37,0,0,0-1.44.29,3.61,3.61,0,0,0-1.15.82,4.69,4.69,0,0,0-.82,1.24,6,6,0,0,0-.44,1.57H495V39.3a4.88,4.88,0,0,0-.26-1.41,3.76,3.76,0,0,0-.69-1.2,3.38,3.38,0,0,0-1.09-.85A3.18,3.18,0,0,0,491.49,35.52Z"/><path class="cls-6" d="M504.43,44.52l.05.22.07-.22,4-9.89h1.35L505,46.26H504l-4.9-11.63h1.34Z"/><path class="cls-6" d="M518.14,46.47a5.28,5.28,0,0,1-3.93-1.67,5.63,5.63,0,0,1-1.1-1.81,6.24,6.24,0,0,1-.41-2.21v-.46a6.73,6.73,0,0,1,.42-2.32,5.71,5.71,0,0,1,1.1-1.87,5,5,0,0,1,1.64-1.25,4.54,4.54,0,0,1,2-.46,4.75,4.75,0,0,1,2.05.42,4.27,4.27,0,0,1,1.5,1.14,5.24,5.24,0,0,1,.93,1.69,6.71,6.71,0,0,1,.32,2.08v.78H514v.25a5.41,5.41,0,0,0,.31,1.75,4.71,4.71,0,0,0,.85,1.46,4.41,4.41,0,0,0,1.32,1,3.91,3.91,0,0,0,1.72.38,4.56,4.56,0,0,0,1.95-.4,4.12,4.12,0,0,0,1.48-1.18l.82.61a4.63,4.63,0,0,1-.77.83,4.39,4.39,0,0,1-1,.65,5.39,5.39,0,0,1-1.19.42A6,6,0,0,1,518.14,46.47Zm-.25-10.95a3.43,3.43,0,0,0-1.44.29,3.61,3.61,0,0,0-1.15.82,4.43,4.43,0,0,0-.81,1.24,5.61,5.61,0,0,0-.45,1.57h7.36V39.3a4.56,4.56,0,0,0-.26-1.41,3.76,3.76,0,0,0-.69-1.2,3.28,3.28,0,0,0-1.09-.85A3.18,3.18,0,0,0,517.89,35.52Z"/><path class="cls-6" d="M526.68,29.76h5.41V45.12H536v1.14h-9.34V45.12h4.12V30.91h-4.12Z"/><path class="cls-6" d="M538.91,40.27a7.25,7.25,0,0,1,.37-2.24,5.75,5.75,0,0,1,1-1.86,4.79,4.79,0,0,1,3.8-1.75,5,5,0,0,1,2.19.47,4.85,4.85,0,0,1,1.62,1.28,5.61,5.61,0,0,1,1,1.86,7.56,7.56,0,0,1,.36,2.24v.36a7.45,7.45,0,0,1-.36,2.24,5.72,5.72,0,0,1-1,1.87A5.09,5.09,0,0,1,546.29,46a4.89,4.89,0,0,1-2.18.46,4.77,4.77,0,0,1-3.81-1.73,5.93,5.93,0,0,1-1-1.87,7.16,7.16,0,0,1-.37-2.24Zm1.29.36a6.18,6.18,0,0,0,.26,1.78,4.7,4.7,0,0,0,.75,1.52A3.76,3.76,0,0,0,542.43,45a3.51,3.51,0,0,0,1.68.4,3.46,3.46,0,0,0,1.67-.4A3.66,3.66,0,0,0,547,43.93a4.89,4.89,0,0,0,.74-1.52,5.85,5.85,0,0,0,.26-1.78v-.36a5.93,5.93,0,0,0-.26-1.77A4.8,4.8,0,0,0,547,37a3.88,3.88,0,0,0-1.22-1.06,3.42,3.42,0,0,0-1.68-.4,3.36,3.36,0,0,0-1.67.4A3.74,3.74,0,0,0,541.21,37a4.8,4.8,0,0,0-.75,1.52,6.27,6.27,0,0,0-.26,1.77Z"/><path class="cls-6" d="M562.18,40.56a8.9,8.9,0,0,1-.27,2.2,6,6,0,0,1-.84,1.89A4.37,4.37,0,0,1,559.65,46a4,4,0,0,1-2,.5,4.64,4.64,0,0,1-2-.42,4.07,4.07,0,0,1-1.52-1.21v5.89h-1.29V34.63H554l.05,1.59a4.43,4.43,0,0,1,1.5-1.33,4.32,4.32,0,0,1,2-.47,4.12,4.12,0,0,1,2.07.49,4.05,4.05,0,0,1,1.42,1.31,6,6,0,0,1,.84,1.89,9.08,9.08,0,0,1,.27,2.23Zm-1.29-.22a7.77,7.77,0,0,0-.19-1.73,5,5,0,0,0-.62-1.54A3.39,3.39,0,0,0,559,36a3.11,3.11,0,0,0-1.67-.42,3.49,3.49,0,0,0-1,.15,3.42,3.42,0,0,0-.9.44,4.19,4.19,0,0,0-.72.68,4.41,4.41,0,0,0-.53.86v5.76a3.5,3.5,0,0,0,1.29,1.43,3.55,3.55,0,0,0,1.92.53A3.08,3.08,0,0,0,559,45a3.46,3.46,0,0,0,1.11-1.11,5.08,5.08,0,0,0,.62-1.55,7.93,7.93,0,0,0,.19-1.74Z"/><path class="cls-6" d="M566,34.63l0,1.3a2.91,2.91,0,0,1,1-1.09,2.87,2.87,0,0,1,1.56-.42,3.36,3.36,0,0,1,.88.11,2.25,2.25,0,0,1,.66.32,2,2,0,0,1,.47.49,2.25,2.25,0,0,1,.31.62,3.19,3.19,0,0,1,1-1.09,2.84,2.84,0,0,1,1.59-.45,2.77,2.77,0,0,1,1.26.26,2.15,2.15,0,0,1,.82.7,3,3,0,0,1,.44,1,5.3,5.3,0,0,1,.14,1.22v8.64H575V37.62a3.81,3.81,0,0,0-.07-.75,1.94,1.94,0,0,0-.27-.68,1.34,1.34,0,0,0-.52-.48,1.76,1.76,0,0,0-.87-.17,2.19,2.19,0,0,0-.9.17,1.88,1.88,0,0,0-.62.42,1.93,1.93,0,0,0-.37.57,3.15,3.15,0,0,0-.2.64v8.92H569.9V37.5a3.51,3.51,0,0,0-.07-.72,2,2,0,0,0-.26-.63,1.34,1.34,0,0,0-.52-.45,1.7,1.7,0,0,0-.85-.16,2.27,2.27,0,0,0-.88.16,1.71,1.71,0,0,0-.6.4,2.11,2.11,0,0,0-.39.58,5.44,5.44,0,0,0-.23.68v8.9h-1.21V34.63Z"/><path class="cls-6" d="M584.15,46.47a5.28,5.28,0,0,1-3.93-1.67,5.63,5.63,0,0,1-1.1-1.81,6.24,6.24,0,0,1-.41-2.21v-.46a6.73,6.73,0,0,1,.42-2.32,5.89,5.89,0,0,1,1.1-1.87,5,5,0,0,1,1.64-1.25,4.54,4.54,0,0,1,2-.46,4.72,4.72,0,0,1,2.05.42,4.27,4.27,0,0,1,1.5,1.14,5.24,5.24,0,0,1,.93,1.69,6.71,6.71,0,0,1,.32,2.08v.78H580v.25a5.41,5.41,0,0,0,.31,1.75,4.71,4.71,0,0,0,.85,1.46,4.41,4.41,0,0,0,1.32,1,3.91,3.91,0,0,0,1.72.38,4.56,4.56,0,0,0,1.95-.4,4.12,4.12,0,0,0,1.48-1.18l.82.61a4.63,4.63,0,0,1-.77.83,4.39,4.39,0,0,1-1,.65,5.39,5.39,0,0,1-1.19.42A6,6,0,0,1,584.15,46.47Zm-.25-10.95a3.43,3.43,0,0,0-1.44.29,3.72,3.72,0,0,0-1.15.82,4.43,4.43,0,0,0-.81,1.24,5.28,5.28,0,0,0-.44,1.57h7.35V39.3a4.56,4.56,0,0,0-.26-1.41,3.76,3.76,0,0,0-.69-1.2,3.28,3.28,0,0,0-1.09-.85A3.18,3.18,0,0,0,583.9,35.52Z"/><path class="cls-6" d="M593.57,34.63l.1,2.19a4.7,4.7,0,0,1,1.63-1.74,4.34,4.34,0,0,1,2.32-.66,3.7,3.7,0,0,1,2.92,1.14,4.84,4.84,0,0,1,1,3.25v7.45h-1.29V38.83a3.71,3.71,0,0,0-.73-2.45,2.71,2.71,0,0,0-2.23-.84,3.62,3.62,0,0,0-1.19.2,4,4,0,0,0-1,.56,4.4,4.4,0,0,0-.83.84,4.47,4.47,0,0,0-.58,1v8.07h-1.29V34.63Z"/><path class="cls-6" d="M609.88,31.66v3h4.3v1.06h-4.3V43a2.6,2.6,0,0,0,.21,1.12,2,2,0,0,0,.53.73,2.14,2.14,0,0,0,.8.39,3.84,3.84,0,0,0,1,.12,8.26,8.26,0,0,0,1.1-.08l1-.15.2,1a5.07,5.07,0,0,1-1.13.27,10.09,10.09,0,0,1-1.35.09,5.33,5.33,0,0,1-1.43-.18,3,3,0,0,1-1.14-.61,2.74,2.74,0,0,1-.76-1.07,4.08,4.08,0,0,1-.29-1.62v-7.3h-3.24V34.63h3.24v-3Z"/><path class="cls-6" d="M72.54,73.4a2.6,2.6,0,0,0-.27-1.21,3.07,3.07,0,0,0-.74-.92,5,5,0,0,0-1.11-.69A14.47,14.47,0,0,0,69.05,70a15.89,15.89,0,0,1-1.68-.67,5.94,5.94,0,0,1-1.39-.9A4,4,0,0,1,65,67.2a3.91,3.91,0,0,1-.35-1.7,4.24,4.24,0,0,1,.3-1.64,3.6,3.6,0,0,1,.83-1.24,4.18,4.18,0,0,1,1.26-.83,5.46,5.46,0,0,1,1.58-.38V59.24h1.1v2.18a4.52,4.52,0,0,1,1.65.46,3.79,3.79,0,0,1,1.23,1,4.74,4.74,0,0,1,.78,1.46,6.57,6.57,0,0,1,.29,1.89H72.43a4.69,4.69,0,0,0-.23-1.48,3.36,3.36,0,0,0-.65-1.16,3.06,3.06,0,0,0-1-.76,3.25,3.25,0,0,0-1.35-.27,4.26,4.26,0,0,0-1.26.19,3,3,0,0,0-1,.57,2.6,2.6,0,0,0-.68.92A2.91,2.91,0,0,0,66,65.47a2.64,2.64,0,0,0,.26,1.24,2.94,2.94,0,0,0,.73.92,4.51,4.51,0,0,0,1.12.68q.65.3,1.41.57a14.51,14.51,0,0,1,1.69.67,5.67,5.67,0,0,1,1.38.9,3.93,3.93,0,0,1,.93,1.24,3.83,3.83,0,0,1,.34,1.69A4.12,4.12,0,0,1,73.51,75a3.73,3.73,0,0,1-.86,1.23,4.23,4.23,0,0,1-1.3.82,5.5,5.5,0,0,1-1.61.37v2H68.63v-2a6.06,6.06,0,0,1-1.72-.37,4.29,4.29,0,0,1-1.43-.88,4.2,4.2,0,0,1-1-1.43,5.14,5.14,0,0,1-.39-2h1.29a4,4,0,0,0,.32,1.62,3.35,3.35,0,0,0,.82,1.12,3.18,3.18,0,0,0,1.17.64,4.29,4.29,0,0,0,1.39.19,4.44,4.44,0,0,0,1.32-.19,3.43,3.43,0,0,0,1.09-.57,2.76,2.76,0,0,0,.74-.92A2.72,2.72,0,0,0,72.54,73.4Z"/><path class="cls-6" d="M92.1,73.49l.35,2.06.43-2.06,2-7.86h.9l2,7.86.43,2.11.38-2.11,1.59-7.86h1.19L98.72,77.26h-1l-2.05-8-.35-1.86-.34,1.86-2,8h-1L89.29,65.63h1.19Z"/><path class="cls-6" d="M108.86,77.47a5.28,5.28,0,0,1-3.93-1.67,5.63,5.63,0,0,1-1.1-1.81,6.23,6.23,0,0,1-.4-2.21v-.46a6.5,6.5,0,0,1,.41-2.32,5.89,5.89,0,0,1,1.1-1.87,5.12,5.12,0,0,1,1.64-1.25,4.54,4.54,0,0,1,2-.46,4.8,4.8,0,0,1,2.06.42A4.33,4.33,0,0,1,112.16,67a5.06,5.06,0,0,1,.93,1.69,7,7,0,0,1,.33,2.08v.78h-8.71v.25a5.42,5.42,0,0,0,.32,1.75,4.68,4.68,0,0,0,.84,1.46,4.33,4.33,0,0,0,1.33,1,3.84,3.84,0,0,0,1.71.38,4.56,4.56,0,0,0,2-.4,4.12,4.12,0,0,0,1.48-1.18l.82.61a5,5,0,0,1-.76.83,4.7,4.7,0,0,1-1,.65,5.49,5.49,0,0,1-1.18.42A6.06,6.06,0,0,1,108.86,77.47Zm-.25-11a3.43,3.43,0,0,0-1.44.29,3.72,3.72,0,0,0-1.15.82,4.66,4.66,0,0,0-.81,1.24,5.6,5.6,0,0,0-.44,1.57h7.36V70.3a4.89,4.89,0,0,0-.27-1.41,3.93,3.93,0,0,0-.68-1.2,3.38,3.38,0,0,0-1.09-.85A3.19,3.19,0,0,0,108.61,66.52Z"/><path class="cls-6" d="M126.54,71.56a8.9,8.9,0,0,1-.27,2.2,5.8,5.8,0,0,1-.84,1.89A4.37,4.37,0,0,1,124,77a4,4,0,0,1-2,.5,4.52,4.52,0,0,1-2-.45,4.27,4.27,0,0,1-1.52-1.32l0,1.56h-1.21V60.76h1.29v6.5a4.37,4.37,0,0,1,1.48-1.36,4.21,4.21,0,0,1,5.51,1.32,6,6,0,0,1,.83,1.89,9.08,9.08,0,0,1,.27,2.23Zm-1.3-.22a8.4,8.4,0,0,0-.18-1.73,5,5,0,0,0-.59-1.54A3.22,3.22,0,0,0,123.38,67a3.17,3.17,0,0,0-1.68-.42,3.23,3.23,0,0,0-1.09.17,3.48,3.48,0,0,0-.92.47,3.33,3.33,0,0,0-.72.73,4.37,4.37,0,0,0-.52.92v5.42a4.13,4.13,0,0,0,.55.87,3,3,0,0,0,.75.66,4.08,4.08,0,0,0,.92.43,3.6,3.6,0,0,0,1,.15,3.06,3.06,0,0,0,1.65-.42,3.25,3.25,0,0,0,1.08-1.1,4.82,4.82,0,0,0,.6-1.55,7.77,7.77,0,0,0,.19-1.73Z"/><path class="cls-6" d="M129.92,71.34a8.22,8.22,0,0,1,.29-2.23,6,6,0,0,1,.86-1.89,4.2,4.2,0,0,1,1.44-1.31,4,4,0,0,1,2-.49,4.19,4.19,0,0,1,2,.47A4.28,4.28,0,0,1,138,67.21V60.76h1.28v16.5h-1.2l0-1.52A4.15,4.15,0,0,1,136.51,77a4.47,4.47,0,0,1-2,.44,3.9,3.9,0,0,1-2-.5,4.33,4.33,0,0,1-1.44-1.32,6,6,0,0,1-.86-1.89,8.05,8.05,0,0,1-.29-2.2Zm1.3.22a8.4,8.4,0,0,0,.18,1.73,5.07,5.07,0,0,0,.61,1.55,3.31,3.31,0,0,0,1.1,1.1,3.06,3.06,0,0,0,1.65.42,3.9,3.9,0,0,0,1-.14,3.66,3.66,0,0,0,.9-.41,3.39,3.39,0,0,0,.74-.63,3.86,3.86,0,0,0,.55-.83V68.72a3.89,3.89,0,0,0-.53-.88,3.36,3.36,0,0,0-.72-.69,3.68,3.68,0,0,0-.91-.45,3.3,3.3,0,0,0-1.05-.16,3.08,3.08,0,0,0-1.66.42,3.34,3.34,0,0,0-1.1,1.11,4.79,4.79,0,0,0-.62,1.54,8.4,8.4,0,0,0-.18,1.73Z"/><path class="cls-6" d="M148.47,77.47a5.24,5.24,0,0,1-3.93-1.67A5.66,5.66,0,0,1,143.43,74a6.46,6.46,0,0,1-.4-2.21v-.46a6.73,6.73,0,0,1,.42-2.32,5.71,5.71,0,0,1,1.1-1.87,5,5,0,0,1,1.64-1.25,4.54,4.54,0,0,1,2-.46,4.75,4.75,0,0,1,2.05.42,4.27,4.27,0,0,1,1.5,1.14,5.22,5.22,0,0,1,.92,1.69,6.71,6.71,0,0,1,.33,2.08v.78h-8.7v.25a5.41,5.41,0,0,0,.31,1.75,4.71,4.71,0,0,0,.85,1.46,4.41,4.41,0,0,0,1.32,1,3.91,3.91,0,0,0,1.72.38,4.56,4.56,0,0,0,1.95-.4A4.12,4.12,0,0,0,152,74.81l.81.61a4.57,4.57,0,0,1-.76.83,4.39,4.39,0,0,1-1,.65,5.39,5.39,0,0,1-1.19.42A6,6,0,0,1,148.47,77.47Zm-.25-11a3.43,3.43,0,0,0-1.44.29,3.61,3.61,0,0,0-1.15.82,4.69,4.69,0,0,0-.82,1.24,6,6,0,0,0-.44,1.57h7.36V70.3a4.56,4.56,0,0,0-.26-1.41,3.76,3.76,0,0,0-.69-1.2,3.38,3.38,0,0,0-1.09-.85A3.18,3.18,0,0,0,148.22,66.52Z"/><path class="cls-6" d="M161.16,75.52l.06.22.06-.22,4-9.89h1.34l-4.89,11.63h-1l-4.9-11.63h1.35Z"/><path class="cls-6" d="M192.55,71.56a8.9,8.9,0,0,1-.27,2.2,5.8,5.8,0,0,1-.84,1.89A4.27,4.27,0,0,1,190,77a4,4,0,0,1-2,.5,4.52,4.52,0,0,1-2-.45,4.27,4.27,0,0,1-1.52-1.32l-.05,1.56h-1.2V60.76h1.28v6.5a4.37,4.37,0,0,1,1.48-1.36,4.16,4.16,0,0,1,2-.48,4.1,4.1,0,0,1,2.06.49,4.17,4.17,0,0,1,1.43,1.31,6,6,0,0,1,.83,1.89,9.08,9.08,0,0,1,.27,2.23Zm-1.3-.22a8.4,8.4,0,0,0-.18-1.73,5,5,0,0,0-.59-1.54A3.22,3.22,0,0,0,189.39,67a3.17,3.17,0,0,0-1.68-.42,3.23,3.23,0,0,0-1.09.17,3.27,3.27,0,0,0-.91.47,3.16,3.16,0,0,0-.73.73,4.37,4.37,0,0,0-.52.92v5.42a4.13,4.13,0,0,0,.55.87,3.36,3.36,0,0,0,.75.66,4.08,4.08,0,0,0,.92.43,3.65,3.65,0,0,0,1,.15,3.06,3.06,0,0,0,1.65-.42,3.25,3.25,0,0,0,1.08-1.1,5.07,5.07,0,0,0,.61-1.55,8.4,8.4,0,0,0,.18-1.73Z"/><path class="cls-6" d="M204.11,75.44a4.15,4.15,0,0,1-1.53,1.5,4.56,4.56,0,0,1-2.25.53,4.3,4.3,0,0,1-1.7-.31,3.3,3.3,0,0,1-1.24-.91,4.26,4.26,0,0,1-.76-1.47,6.76,6.76,0,0,1-.26-2V65.63h1.28v7.18a4.43,4.43,0,0,0,.7,2.65,2.49,2.49,0,0,0,2.13.91,3.87,3.87,0,0,0,2.35-.67,3.44,3.44,0,0,0,1.26-1.8V65.63h1.3V77.26h-1.2Z"/><path class="cls-6" d="M209.82,65.63h5.39V76.12h3.95v1.14h-9.34V76.12h4.1V66.78h-4.1Zm3.72-3.17a1.08,1.08,0,0,1,.23-.69.87.87,0,0,1,.75-.29.9.9,0,0,1,.75.29,1.08,1.08,0,0,1,.23.69,1,1,0,0,1-.23.66.92.92,0,0,1-.75.28.9.9,0,0,1-.75-.28A1,1,0,0,1,213.54,62.46Z"/><path class="cls-6" d="M223,60.76h5.41V76.12h3.93v1.14H223V76.12h4.12V61.91H223Z"/><path class="cls-6" d="M235.53,71.34a8.63,8.63,0,0,1,.29-2.23,6.07,6.07,0,0,1,.87-1.89,4.2,4.2,0,0,1,1.44-1.31,4,4,0,0,1,2-.49,4.14,4.14,0,0,1,2,.47,4.23,4.23,0,0,1,1.47,1.32V60.76h1.28v16.5h-1.2l-.06-1.52a4.21,4.21,0,0,1-1.5,1.29,4.5,4.5,0,0,1-2,.44,3.85,3.85,0,0,1-2-.5,4.33,4.33,0,0,1-1.44-1.32,6.07,6.07,0,0,1-.87-1.89,8.46,8.46,0,0,1-.29-2.2Zm1.3.22a8.41,8.41,0,0,0,.19,1.73,5.07,5.07,0,0,0,.61,1.55,3.37,3.37,0,0,0,1.09,1.1,3.1,3.1,0,0,0,1.66.42,3.82,3.82,0,0,0,1-.14,3.57,3.57,0,0,0,.91-.41,3.39,3.39,0,0,0,.74-.63,3.86,3.86,0,0,0,.55-.83V68.72a3.89,3.89,0,0,0-.53-.88,3.19,3.19,0,0,0-.73-.69,3.45,3.45,0,0,0-.9-.45,3.3,3.3,0,0,0-1-.16,3.14,3.14,0,0,0-1.67.42,3.43,3.43,0,0,0-1.1,1.11,5,5,0,0,0-.61,1.54,8.41,8.41,0,0,0-.19,1.73Z"/><path class="cls-6" d="M320.89,72.85h-3.37l-.83,4.41h-1.06l.82-4.41h-2.74v-1h2.93l.89-4.73h-3v-1h3.19l.85-4.47h1.06l-.85,4.47h3.39l.85-4.47h1.06l-.85,4.47h2.47v1H323l-.89,4.73h2.75v1H322l-.82,4.41h-1.07Zm-3.19-1h3.38l.9-4.73h-3.39Z"/><path class="cls-6" d="M343.07,70.81v6.45h-1.29V61.62h4.92a6.06,6.06,0,0,1,1.93.34,4.82,4.82,0,0,1,1.57.92,4.35,4.35,0,0,1,1.06,1.44,4.59,4.59,0,0,1,.39,1.93,4.5,4.5,0,0,1-.39,1.91,4.11,4.11,0,0,1-1.06,1.43,4.77,4.77,0,0,1-1.57.9,5.88,5.88,0,0,1-1.93.32Zm0-1.08h3.63a4.44,4.44,0,0,0,1.44-.26,3.54,3.54,0,0,0,1.16-.69,3.12,3.12,0,0,0,.78-1.07,3.46,3.46,0,0,0,.29-1.44,3.76,3.76,0,0,0-.28-1.46,3.18,3.18,0,0,0-.78-1.11,3.42,3.42,0,0,0-1.16-.71,4.45,4.45,0,0,0-1.45-.28h-3.63Z"/><path class="cls-6" d="M362.43,65.42a8,8,0,0,1,1,.06,3.58,3.58,0,0,1,.8.17L364,66.88q-.45-.09-.9-.15a7,7,0,0,0-.92,0,4.81,4.81,0,0,0-2.78.77,4.15,4.15,0,0,0-1.6,2.37v7.44h-1.33V65.63h1.24l.08,2v.24a5.18,5.18,0,0,1,1.88-1.81A5.44,5.44,0,0,1,362.43,65.42Z"/><path class="cls-6" d="M367.27,71.27a7.25,7.25,0,0,1,.37-2.24,5.59,5.59,0,0,1,1-1.86,4.85,4.85,0,0,1,1.62-1.28,4.91,4.91,0,0,1,2.17-.47,4.79,4.79,0,0,1,3.82,1.75,5.77,5.77,0,0,1,1,1.86,7.56,7.56,0,0,1,.36,2.24v.36a7.45,7.45,0,0,1-.36,2.24,5.72,5.72,0,0,1-1,1.87A5.09,5.09,0,0,1,374.65,77a4.89,4.89,0,0,1-2.18.46,4.77,4.77,0,0,1-3.81-1.73,5.93,5.93,0,0,1-1-1.87,7.16,7.16,0,0,1-.37-2.24Zm1.29.36a6.18,6.18,0,0,0,.26,1.78,4.7,4.7,0,0,0,.75,1.52A3.76,3.76,0,0,0,370.79,76a3.53,3.53,0,0,0,1.68.4,3.46,3.46,0,0,0,1.67-.4,3.66,3.66,0,0,0,1.22-1.06,4.89,4.89,0,0,0,.74-1.52,5.85,5.85,0,0,0,.26-1.78v-.36a5.93,5.93,0,0,0-.26-1.77,4.8,4.8,0,0,0-.75-1.52,3.78,3.78,0,0,0-1.22-1.06,3.42,3.42,0,0,0-1.68-.4,3.38,3.38,0,0,0-1.67.4A3.74,3.74,0,0,0,369.57,68a4.8,4.8,0,0,0-.75,1.52,6.27,6.27,0,0,0-.26,1.77Z"/><path class="cls-6" d="M380.76,71.34a8.22,8.22,0,0,1,.29-2.23,6,6,0,0,1,.86-1.89,4.2,4.2,0,0,1,1.44-1.31,4.05,4.05,0,0,1,2-.49,4.19,4.19,0,0,1,2,.47,4.28,4.28,0,0,1,1.46,1.32V60.76h1.28v16.5h-1.2l-.05-1.52A4.15,4.15,0,0,1,387.35,77a4.44,4.44,0,0,1-2,.44,3.9,3.9,0,0,1-2-.5,4.33,4.33,0,0,1-1.44-1.32,6,6,0,0,1-.86-1.89,8.05,8.05,0,0,1-.29-2.2Zm1.3.22a8.4,8.4,0,0,0,.18,1.73,5.07,5.07,0,0,0,.61,1.55,3.4,3.4,0,0,0,1.1,1.1,3.06,3.06,0,0,0,1.65.42,3.9,3.9,0,0,0,1-.14,3.66,3.66,0,0,0,.9-.41,3.17,3.17,0,0,0,.74-.63,3.86,3.86,0,0,0,.55-.83V68.72a3.89,3.89,0,0,0-.53-.88,3.36,3.36,0,0,0-.72-.69,3.61,3.61,0,0,0-.9-.45,3.36,3.36,0,0,0-1.06-.16A3.08,3.08,0,0,0,384,67a3.34,3.34,0,0,0-1.1,1.11,4.79,4.79,0,0,0-.62,1.54,8.4,8.4,0,0,0-.18,1.73Z"/><path class="cls-6" d="M402.14,75.44a4.08,4.08,0,0,1-1.53,1.5,4.56,4.56,0,0,1-2.25.53,4.3,4.3,0,0,1-1.7-.31,3.3,3.3,0,0,1-1.24-.91,4.26,4.26,0,0,1-.76-1.47,7.11,7.11,0,0,1-.26-2V65.63h1.28v7.18a4.36,4.36,0,0,0,.71,2.65,2.46,2.46,0,0,0,2.12.91,3.93,3.93,0,0,0,2.36-.67,3.42,3.42,0,0,0,1.25-1.8V65.63h1.3V77.26h-1.2Z"/><path class="cls-6" d="M412.26,76.39a3.86,3.86,0,0,0,1.23-.19,3.54,3.54,0,0,0,1-.54,2.92,2.92,0,0,0,.74-.86,2.61,2.61,0,0,0,.32-1.13h1.24a3.51,3.51,0,0,1-.43,1.53,4.31,4.31,0,0,1-1,1.2,4.73,4.73,0,0,1-1.43.79,5.05,5.05,0,0,1-1.7.28A4.84,4.84,0,0,1,410,77a4.5,4.5,0,0,1-1.57-1.29,5.69,5.69,0,0,1-1-1.85,7.57,7.57,0,0,1-.32-2.18v-.45a7.57,7.57,0,0,1,.32-2.18,5.69,5.69,0,0,1,1-1.85A4.73,4.73,0,0,1,410,65.9a4.83,4.83,0,0,1,2.21-.48,5,5,0,0,1,1.79.31,4.3,4.3,0,0,1,1.43.86,3.94,3.94,0,0,1,1,1.31,4.27,4.27,0,0,1,.4,1.66h-1.24a3.12,3.12,0,0,0-1-2.18,3,3,0,0,0-1-.64,3.66,3.66,0,0,0-1.3-.22,3.42,3.42,0,0,0-1.72.4A3.47,3.47,0,0,0,409.36,68a4.68,4.68,0,0,0-.66,1.51,7,7,0,0,0-.21,1.71v.45a7.13,7.13,0,0,0,.21,1.73,4.59,4.59,0,0,0,.66,1.51,3.35,3.35,0,0,0,2.9,1.48Z"/><path class="cls-6" d="M425,62.66v3h4.3v1.06H425V74a2.6,2.6,0,0,0,.21,1.12,2,2,0,0,0,.53.73,2.14,2.14,0,0,0,.8.39,3.84,3.84,0,0,0,1,.12,8.26,8.26,0,0,0,1.1-.08l1-.15.2,1a5.07,5.07,0,0,1-1.13.27,10.2,10.2,0,0,1-1.35.09,5.33,5.33,0,0,1-1.43-.18,3,3,0,0,1-1.14-.61,2.74,2.74,0,0,1-.76-1.07,4.26,4.26,0,0,1-.3-1.62v-7.3h-3.23V65.63h3.23v-3Z"/><path class="cls-6" d="M434.25,65.63h5.39V76.12h4v1.14h-9.35V76.12h4.11V66.78h-4.11ZM438,62.46a1,1,0,0,1,.23-.69,1.1,1.1,0,0,1,1.49,0,1,1,0,0,1,.24.69,1,1,0,0,1-.24.66,1.13,1.13,0,0,1-1.49,0A1,1,0,0,1,438,62.46Z"/><path class="cls-6" d="M446.49,71.27a7.25,7.25,0,0,1,.36-2.24,5.77,5.77,0,0,1,1-1.86,4.85,4.85,0,0,1,1.62-1.28,5.29,5.29,0,0,1,4.36,0,4.88,4.88,0,0,1,1.63,1.28,5.77,5.77,0,0,1,1,1.86,7.25,7.25,0,0,1,.37,2.24v.36a7.16,7.16,0,0,1-.37,2.24,5.72,5.72,0,0,1-1,1.87A5.16,5.16,0,0,1,453.87,77a5.42,5.42,0,0,1-4.37,0,5.09,5.09,0,0,1-1.63-1.27,5.93,5.93,0,0,1-1-1.87,7.15,7.15,0,0,1-.36-2.24Zm1.29.36a5.85,5.85,0,0,0,.26,1.78,4.7,4.7,0,0,0,.75,1.52A3.66,3.66,0,0,0,450,76a3.71,3.71,0,0,0,3.35,0,3.63,3.63,0,0,0,1.21-1.06,4.7,4.7,0,0,0,.75-1.52,6.18,6.18,0,0,0,.26-1.78v-.36a6.27,6.27,0,0,0-.26-1.77,5,5,0,0,0-.75-1.52,3.81,3.81,0,0,0-1.23-1.06,3.41,3.41,0,0,0-1.67-.4,3.36,3.36,0,0,0-1.67.4A3.78,3.78,0,0,0,448.78,68,5,5,0,0,0,448,69.5a5.93,5.93,0,0,0-.26,1.77Z"/><path class="cls-6" d="M461.54,65.63l.09,2.19a4.81,4.81,0,0,1,1.64-1.74,4.34,4.34,0,0,1,2.32-.66,3.7,3.7,0,0,1,2.92,1.14,4.84,4.84,0,0,1,1,3.25v7.45h-1.29V69.83a3.77,3.77,0,0,0-.73-2.45,2.71,2.71,0,0,0-2.23-.84,3.58,3.58,0,0,0-1.19.2,3.8,3.8,0,0,0-1,.56,4.4,4.4,0,0,0-.83.84,4.5,4.5,0,0,0-.59,1v8.07h-1.28V65.63Z"/><path class="cls-6" d="M496.2,71.56a8.9,8.9,0,0,1-.27,2.2,5.8,5.8,0,0,1-.84,1.89A4.37,4.37,0,0,1,493.67,77a4,4,0,0,1-2,.5,4.52,4.52,0,0,1-2-.45,4.27,4.27,0,0,1-1.52-1.32L488,77.26h-1.21V60.76h1.29v6.5a4.37,4.37,0,0,1,1.48-1.36,4.16,4.16,0,0,1,2-.48,4.1,4.1,0,0,1,2.06.49,4.17,4.17,0,0,1,1.43,1.31,6,6,0,0,1,.83,1.89,9.08,9.08,0,0,1,.27,2.23Zm-1.3-.22a8.4,8.4,0,0,0-.18-1.73,5,5,0,0,0-.59-1.54A3.22,3.22,0,0,0,493,67a3.17,3.17,0,0,0-1.68-.42,3.23,3.23,0,0,0-1.09.17,3.48,3.48,0,0,0-.92.47,3.33,3.33,0,0,0-.72.73,4.37,4.37,0,0,0-.52.92v5.42a4.13,4.13,0,0,0,.55.87,3.15,3.15,0,0,0,.75.66,4.08,4.08,0,0,0,.92.43,3.65,3.65,0,0,0,1.05.15,3.06,3.06,0,0,0,1.65-.42,3.25,3.25,0,0,0,1.08-1.1,4.82,4.82,0,0,0,.6-1.55,7.77,7.77,0,0,0,.19-1.73Z"/><path class="cls-6" d="M507.76,75.44a4.15,4.15,0,0,1-1.53,1.5,4.56,4.56,0,0,1-2.25.53,4.3,4.3,0,0,1-1.7-.31,3.3,3.3,0,0,1-1.24-.91,4.26,4.26,0,0,1-.76-1.47,6.76,6.76,0,0,1-.26-2V65.63h1.27v7.18a4.43,4.43,0,0,0,.71,2.65,2.49,2.49,0,0,0,2.13.91,3.87,3.87,0,0,0,2.35-.67,3.49,3.49,0,0,0,1.26-1.8V65.63H509V77.26h-1.2Z"/><path class="cls-6" d="M513.46,65.63h5.4V76.12h3.95v1.14h-9.35V76.12h4.11V66.78h-4.11Zm3.73-3.17a1.08,1.08,0,0,1,.23-.69.87.87,0,0,1,.75-.29.9.9,0,0,1,.75.29,1.08,1.08,0,0,1,.23.69,1,1,0,0,1-.23.66.92.92,0,0,1-.75.28.9.9,0,0,1-.75-.28A1,1,0,0,1,517.19,62.46Z"/><path class="cls-6" d="M526.67,60.76h5.41V76.12H536v1.14h-9.34V76.12h4.12V61.91h-4.12Z"/><path class="cls-6" d="M539.18,71.34a8.63,8.63,0,0,1,.29-2.23,6.07,6.07,0,0,1,.87-1.89,4.2,4.2,0,0,1,1.44-1.31,4,4,0,0,1,2-.49,4.14,4.14,0,0,1,2,.47,4.23,4.23,0,0,1,1.47,1.32V60.76h1.28v16.5h-1.2l-.06-1.52a4.21,4.21,0,0,1-1.5,1.29,4.5,4.5,0,0,1-2,.44,3.85,3.85,0,0,1-2-.5,4.33,4.33,0,0,1-1.44-1.32,6.07,6.07,0,0,1-.87-1.89,8.46,8.46,0,0,1-.29-2.2Zm1.3.22a7.77,7.77,0,0,0,.19,1.73,4.83,4.83,0,0,0,.61,1.55,3.37,3.37,0,0,0,1.09,1.1,3.1,3.1,0,0,0,1.66.42,3.82,3.82,0,0,0,1-.14,3.57,3.57,0,0,0,.91-.41,3.39,3.39,0,0,0,.74-.63,3.86,3.86,0,0,0,.55-.83V68.72a3.89,3.89,0,0,0-.53-.88,3.19,3.19,0,0,0-.73-.69,3.45,3.45,0,0,0-.9-.45,3.3,3.3,0,0,0-1.05-.16,3.11,3.11,0,0,0-1.67.42,3.34,3.34,0,0,0-1.1,1.11,4.77,4.77,0,0,0-.61,1.54,7.77,7.77,0,0,0-.19,1.73Z"/><g class="cls-7"><g class="cls-8"><g class="cls-9"><path class="cls-10" d="M815,206.89H349.46a11.78,11.78,0,0,1-11.79-11.78V169.9a11.77,11.77,0,0,0-11.78-11.78H74.71a11.64,11.64,0,0,0-11.64,11.64V644H815Z"/></g></g></g><path class="cls-10" d="M815,206.89H349.46a11.78,11.78,0,0,1-11.79-11.78V169.9a11.77,11.77,0,0,0-11.78-11.78H74.71a11.64,11.64,0,0,0-11.64,11.64V644H815Z"/><rect class="cls-5" x="469.83" y="530.53" width="345.17" height="113.47"/><path class="cls-5" d="M253.26,358h4v14.71h17.52V358h4v34.08h-4V376.6H257.3v15.52h-4Z"/><path class="cls-5" d="M289.76,391.21a11.56,11.56,0,0,1-4.31-4.59,13.9,13.9,0,0,1-1.54-6.59,14.46,14.46,0,0,1,1.45-6.45,11.52,11.52,0,0,1,4.14-4.73,10.93,10.93,0,0,1,6.16-1.77,11.71,11.71,0,0,1,6.19,1.6,10.63,10.63,0,0,1,4,4.4,14.27,14.27,0,0,1,1.4,6.43,9.14,9.14,0,0,1-.09,1.23H288a9.71,9.71,0,0,0,1.33,4.67,7.72,7.72,0,0,0,3,2.85,8.11,8.11,0,0,0,3.83.95,7.75,7.75,0,0,0,7.18-4.37l3.43,1.66a12.08,12.08,0,0,1-4.24,4.64,12.77,12.77,0,0,1-12.75.07ZM303,377.41a7.76,7.76,0,0,0-.86-3,6.55,6.55,0,0,0-2.38-2.57,7.37,7.37,0,0,0-4.09-1.05,6.92,6.92,0,0,0-4.85,1.83,8.68,8.68,0,0,0-2.62,4.83Z"/><path class="cls-5" d="M312,358h4v34.08h-4Z"/><path class="cls-5" d="M322,358h4.05v34.08H322Z"/><path class="cls-5" d="M336.59,391.17a12,12,0,0,1-4.45-4.67,14.08,14.08,0,0,1,0-13,11.94,11.94,0,0,1,4.45-4.66,12.86,12.86,0,0,1,12.85,0,12.08,12.08,0,0,1,4.45,4.66,14.16,14.16,0,0,1,0,13,12.11,12.11,0,0,1-4.45,4.67,12.93,12.93,0,0,1-12.85,0Zm10.59-3.07a8.34,8.34,0,0,0,3.09-3.22,10.85,10.85,0,0,0,0-9.8,8.24,8.24,0,0,0-3.09-3.21,8.34,8.34,0,0,0-8.35,0,8,8,0,0,0-3.12,3.21,10.85,10.85,0,0,0,0,9.8,8.13,8.13,0,0,0,3.12,3.22,8.41,8.41,0,0,0,8.35,0Z"/><path class="cls-5" d="M372,358h10.28a18.47,18.47,0,0,1,9.14,2.17,14.92,14.92,0,0,1,6,6,19.78,19.78,0,0,1,0,17.7,14.92,14.92,0,0,1-6,6,18.47,18.47,0,0,1-9.14,2.17H372Zm10.28,30.22q6,0,9.59-3.47t3.55-9.71q0-6.24-3.55-9.71t-9.59-3.47h-6.23v26.36Z"/><path class="cls-5" d="M408.54,391.21a11.53,11.53,0,0,1-4.3-4.59,13.9,13.9,0,0,1-1.55-6.59,14.46,14.46,0,0,1,1.45-6.45,11.66,11.66,0,0,1,4.14-4.73,11,11,0,0,1,6.17-1.77,11.65,11.65,0,0,1,6.18,1.6,10.5,10.5,0,0,1,4,4.4,14.15,14.15,0,0,1,1.41,6.43,7.82,7.82,0,0,1-.1,1.23H406.74a9.6,9.6,0,0,0,1.33,4.67,7.7,7.7,0,0,0,3,2.85,8.14,8.14,0,0,0,3.83.95,7.77,7.77,0,0,0,7.19-4.37l3.43,1.66a12.08,12.08,0,0,1-4.24,4.64,12.79,12.79,0,0,1-12.76.07Zm13.24-13.8a7.93,7.93,0,0,0-.86-3,6.55,6.55,0,0,0-2.38-2.57,7.37,7.37,0,0,0-4.09-1.05,6.93,6.93,0,0,0-4.86,1.83,8.8,8.8,0,0,0-2.62,4.83Z"/><path class="cls-5" d="M427.63,367.85H432l7.52,19.51h.09l7.62-19.51h4.23l-9.89,24.27h-4.1Z"/><path class="cls-5" d="M458.61,391.21a11.56,11.56,0,0,1-4.31-4.59,13.9,13.9,0,0,1-1.54-6.59,14.46,14.46,0,0,1,1.45-6.45,11.66,11.66,0,0,1,4.14-4.73,11,11,0,0,1,6.16-1.77,11.71,11.71,0,0,1,6.19,1.6,10.63,10.63,0,0,1,4,4.4,14.14,14.14,0,0,1,1.4,6.43,9.14,9.14,0,0,1-.09,1.23H456.8a9.71,9.71,0,0,0,1.33,4.67,7.79,7.79,0,0,0,3,2.85,8.14,8.14,0,0,0,3.83.95,7.74,7.74,0,0,0,7.18-4.37l3.43,1.66a12.13,12.13,0,0,1-4.23,4.64,12.79,12.79,0,0,1-12.76.07Zm13.23-13.8a7.76,7.76,0,0,0-.86-3,6.47,6.47,0,0,0-2.38-2.57,7.35,7.35,0,0,0-4.09-1.05,6.92,6.92,0,0,0-4.85,1.83,8.68,8.68,0,0,0-2.62,4.83Z"/><path class="cls-5" d="M480.83,358h4.05v34.08h-4.05Z"/><path class="cls-5" d="M495.4,391.17A12,12,0,0,1,491,386.5a14.08,14.08,0,0,1,0-13,11.94,11.94,0,0,1,4.45-4.66,12.86,12.86,0,0,1,12.85,0,12.08,12.08,0,0,1,4.45,4.66,14.16,14.16,0,0,1,0,13,12.11,12.11,0,0,1-4.45,4.67,12.93,12.93,0,0,1-12.85,0ZM506,388.1a8.34,8.34,0,0,0,3.09-3.22,10.85,10.85,0,0,0,0-9.8,8.24,8.24,0,0,0-3.09-3.21,8.15,8.15,0,0,0-4.17-1.12,8.28,8.28,0,0,0-4.19,1.12,8.08,8.08,0,0,0-3.11,3.21,10.85,10.85,0,0,0,0,9.8,8.18,8.18,0,0,0,3.11,3.22,8.37,8.37,0,0,0,4.19,1.11A8.24,8.24,0,0,0,506,388.1Z"/><path class="cls-5" d="M518.58,367.85h3.85v3.61h.19a8.75,8.75,0,0,1,3.31-3.11,9.85,9.85,0,0,1,5-1.27,10.9,10.9,0,0,1,5.93,1.67,11.66,11.66,0,0,1,4.16,4.62,15.2,15.2,0,0,1,0,13.25,11.7,11.7,0,0,1-4.16,4.59,10.9,10.9,0,0,1-5.93,1.67,9.85,9.85,0,0,1-5-1.26,8.9,8.9,0,0,1-3.31-3.07h-.19l.19,3.33V402.4h-4Zm15.84,20.22a8.11,8.11,0,0,0,3-3.23,11.26,11.26,0,0,0,0-9.71,8.07,8.07,0,0,0-3-3.24,7.45,7.45,0,0,0-7.92,0,8.29,8.29,0,0,0-3,3.24,11.08,11.08,0,0,0,0,9.71,8.33,8.33,0,0,0,3,3.23,7.45,7.45,0,0,0,7.92,0Z"/><path class="cls-5" d="M551.79,391.21a11.53,11.53,0,0,1-4.3-4.59,13.9,13.9,0,0,1-1.55-6.59,14.46,14.46,0,0,1,1.45-6.45,11.66,11.66,0,0,1,4.14-4.73,11,11,0,0,1,6.16-1.77,11.69,11.69,0,0,1,6.19,1.6,10.56,10.56,0,0,1,4,4.4,14.15,14.15,0,0,1,1.41,6.43,9.24,9.24,0,0,1-.1,1.23H550a9.61,9.61,0,0,0,1.34,4.67,7.7,7.7,0,0,0,3,2.85,8.14,8.14,0,0,0,3.83.95,7.77,7.77,0,0,0,7.19-4.37l3.42,1.66a12,12,0,0,1-4.23,4.64,12.79,12.79,0,0,1-12.76.07ZM565,377.41a7.91,7.91,0,0,0-.85-3,6.55,6.55,0,0,0-2.38-2.57,7.41,7.41,0,0,0-4.1-1.05,6.92,6.92,0,0,0-4.85,1.83,8.74,8.74,0,0,0-2.62,4.83Z"/><path class="cls-5" d="M574,367.85h3.85v3.9h.19a6.68,6.68,0,0,1,2.76-3.33,7.77,7.77,0,0,1,4.29-1.34,7,7,0,0,1,2.85.53v4.33a7.51,7.51,0,0,0-3.42-.76,5.61,5.61,0,0,0-3.24,1,7.3,7.3,0,0,0-2.36,2.7,7.83,7.83,0,0,0-.88,3.64v13.6h-4Z"/><path class="cls-5" d="M592.36,391.24a3,3,0,0,1-.88-2.17,2.93,2.93,0,0,1,.88-2.12,3.12,3.12,0,0,1,4.34,0,2.93,2.93,0,0,1,.88,2.12,3,3,0,0,1-.88,2.17,3.12,3.12,0,0,1-4.34,0Zm.17-21.63V358h4v11.57l-.48,12.47H593Z"/><rect class="cls-5" x="252.31" y="413.9" width="297.82" height="16"/><rect class="cls-5" x="252.31" y="436.29" width="267.71" height="16"/><rect class="cls-5" x="252.31" y="458.69" width="283.81" height="16"/><circle class="cls-5" cx="161.07" cy="385.01" r="61.11"/><g class="cls-7"><rect class="cls-6" x="160.57" y="323.91" width="1" height="122.2" transform="translate(-225.07 226.66) rotate(-45)"/><rect class="cls-6" x="99.97" y="384.51" width="122.2" height="1" transform="translate(-225.07 226.66) rotate(-45)"/></g><path class="cls-11" d="M98.45,195.23a7.33,7.33,0,1,1,7.33-7.33A7.34,7.34,0,0,1,98.45,195.23Zm0-13.66a6.33,6.33,0,1,0,6.33,6.33A6.34,6.34,0,0,0,98.45,181.57Z"/><path class="cls-11" d="M122.2,195.23a7.33,7.33,0,1,1,7.33-7.33A7.33,7.33,0,0,1,122.2,195.23Zm0-13.66a6.33,6.33,0,1,0,6.33,6.33A6.33,6.33,0,0,0,122.2,181.57Z"/><path class="cls-11" d="M146,195.23a7.33,7.33,0,1,1,7.32-7.33A7.34,7.34,0,0,1,146,195.23Zm0-13.66a6.33,6.33,0,1,0,6.32,6.33A6.34,6.34,0,0,0,146,181.57Z"/><rect class="cls-12" x="63.07" y="277.88" width="751.93" height="1"/><rect class="cls-5" x="99.96" y="530.53" width="352.66" height="113.47"/><g class="cls-7"><polygon class="cls-6" points="247.38 644 101.68 531.41 101.07 532.2 245.75 644 247.38 644"/><polygon class="cls-6" points="306.8 644 452.93 530.92 452.32 530.13 305.16 644 306.8 644"/></g><path class="cls-13" d="M815,224.93H107.5a18.62,18.62,0,1,0,0,37.23H815Z"/><polygon class="cls-14" points="815 535.69 675.03 644 676.66 644 815 536.96 815 535.69"/><polygon class="cls-14" points="469.83 535.69 609.8 644 608.16 644 469.83 536.96 469.83 535.69"/></svg>