<?xml version="1.0" encoding="utf-8"?>
<!-- Generator: Adobe Illustrator 22.0.1, SVG Export Plug-In . SVG Version: 6.00 Build 0)  -->
<svg version="1.1" id="Layer_1" xmlns="http://www.w3.org/2000/svg" xmlns:xlink="http://www.w3.org/1999/xlink" x="0px" y="0px"
	 width="443px" height="138.46px" viewBox="0 0 443 138.46" enable-background="new 0 0 443 138.46" xml:space="preserve">
<g>
	<path fill="#FFFFFF" d="M209.04,21.15h27.55c9.35,0,17.51,1.93,24.49,5.8c6.97,3.87,12.33,9.25,16.07,16.13
		c3.74,6.89,5.61,14.79,5.61,23.72s-1.87,16.83-5.61,23.72s-9.1,12.26-16.07,16.13s-15.13,5.8-24.49,5.8h-27.55V21.15z
		 M236.59,102.14c10.8,0,19.36-3.1,25.7-9.31c6.33-6.21,9.5-14.88,9.5-26.02s-3.17-19.81-9.5-26.02s-14.9-9.31-25.7-9.31h-16.83
		v70.65h16.83V102.14z"/>
	<path fill="#FFFFFF" d="M299.46,111.7c-3.74-1.87-6.63-4.44-8.67-7.72c-2.04-3.27-3.06-6.99-3.06-11.16
		c0-6.89,2.59-12.26,7.78-16.13c5.18-3.87,11.73-5.8,19.64-5.8c3.91,0,7.54,0.43,10.9,1.28s5.93,1.83,7.72,2.93v-3.95
		c0-4.85-1.7-8.74-5.1-11.67s-7.7-4.4-12.88-4.4c-3.66,0-7.01,0.79-10.08,2.36c-3.06,1.57-5.48,3.76-7.27,6.57l-8.16-6.12
		c2.55-3.91,6.06-6.97,10.52-9.18c4.46-2.21,9.42-3.32,14.86-3.32c8.84,0,15.79,2.32,20.85,6.95c5.06,4.64,7.59,10.95,7.59,18.94
		v41.19h-10.34v-9.31h-0.51c-1.87,3.15-4.68,5.82-8.42,8.03c-3.74,2.21-7.95,3.32-12.63,3.32
		C307.45,114.51,303.2,113.57,299.46,111.7z M323.43,102.14c3.14-1.87,5.65-4.38,7.52-7.52s2.81-6.59,2.81-10.33
		c-2.04-1.36-4.55-2.47-7.52-3.32c-2.98-0.85-6.12-1.28-9.44-1.28c-5.95,0-10.44,1.23-13.45,3.7c-3.02,2.47-4.53,5.66-4.53,9.56
		c0,3.57,1.36,6.46,4.08,8.67s6.16,3.32,10.33,3.32C316.89,104.94,320.29,104.01,323.43,102.14z"/>
	<path fill="#FFFFFF" d="M355.53,48.45h10.33v10.33h0.51c1.53-3.83,4.12-6.8,7.78-8.93c3.65-2.12,7.65-3.19,11.99-3.19
		c1.87,0,3.44,0.13,4.72,0.38v11.1c-1.45-0.34-3.4-0.51-5.87-0.51c-5.53,0-10.01,1.83-13.45,5.48c-3.44,3.66-5.17,8.42-5.17,14.28
		v36.09h-10.84L355.53,48.45L355.53,48.45z M422.85,113.21c-2.25-0.86-4.14-2.03-5.68-3.51c-1.7-1.64-2.98-3.55-3.83-5.71
		c-0.85-2.16-1.28-4.8-1.28-7.92V57.25h-11.35v-9.82h11.35V29.07h10.84v18.36h15.81v9.82H422.9v36.24c0,3.65,0.68,6.34,2.04,8.08
		c1.61,1.91,3.95,2.87,7.01,2.87c2.46,0,4.85-0.72,7.14-2.17v10.59c-1.28,0.59-2.57,1.02-3.89,1.28s-3,0.38-5.04,0.38
		C427.55,114.51,425.11,114.07,422.85,113.21z"/>
	<g>
		<path fill="#01579B" d="M31.65,109.5L8.38,86.23C5.62,83.4,3.91,79.4,3.91,75.49c0-1.81,1.02-4.64,1.79-6.26l21.48-44.74
			L31.65,109.5z"/>
		<path fill="#40C4FF" d="M111.3,28.96L88.03,5.69C86,3.65,81.77,1.22,78.19,1.22c-3.08,0-6.1,0.62-8.05,1.79L27.19,24.49
			L111.3,28.96z"/>
		<polygon fill="#40C4FF" points="59.39,137.24 115.77,137.24 115.77,113.08 73.71,99.65 35.23,113.08 		"/>
		<path fill="#29B6F6" d="M27.18,96.97c0,7.18,0.9,8.94,4.47,12.53l3.58,3.58h80.54L76.4,68.34L27.18,24.49V96.97z"/>
		<path fill="#01579B" d="M98.77,24.48H27.18l88.59,88.59h24.16V57.59l-28.64-28.64C107.27,24.92,103.7,24.48,98.77,24.48z"/>
		<path opacity="0.2" fill="#FFFFFF" enable-background="new    " d="M32.55,110.39c-3.58-3.59-4.47-7.13-4.47-13.42V25.38
			l-0.89-0.89v72.48C27.18,103.26,27.18,105,32.55,110.39l2.68,2.68l0,0L32.55,110.39z"/>
		<polygon opacity="0.2" fill="#263238" enable-background="new    " points="139.04,56.7 139.04,112.18 114.88,112.18 
			115.77,113.08 139.93,113.08 139.93,57.59 		"/>
		<path opacity="0.2" fill="#FFFFFF" enable-background="new    " d="M111.3,28.96c-4.44-4.44-8.07-4.47-13.42-4.47H27.19l0.89,0.89
			h69.8C100.55,25.38,107.29,24.93,111.3,28.96L111.3,28.96z"/>
		
			<radialGradient id="SVGID_1_" cx="71.915" cy="62.2171" r="68" gradientTransform="matrix(1 0 0 -1 0 131.4443)" gradientUnits="userSpaceOnUse">
			<stop  offset="0" style="stop-color:#FFFFFF;stop-opacity:0.1"/>
			<stop  offset="1" style="stop-color:#FFFFFF;stop-opacity:0"/>
		</radialGradient>
		<path opacity="0.2" fill="url(#SVGID_1_)" enable-background="new    " d="M139.04,56.7L111.3,28.96L88.03,5.69
			C86,3.65,81.77,1.22,78.19,1.22c-3.08,0-6.1,0.62-8.05,1.79L27.19,24.49L5.71,69.23c-0.77,1.63-1.79,4.46-1.79,6.26
			c0,3.91,1.72,7.9,4.47,10.74l21.44,21.29c0.51,0.63,1.11,1.27,1.82,1.98l0.89,0.89l2.68,2.68l23.27,23.27l0.89,0.89h55.48h0.89
			v-24.16h24.16v-0.06V57.59L139.04,56.7z"/>
	</g>
</g>
</svg>
